%TF.GenerationSoftware,KiCad,Pcbnew,(6.0.7-1)-1*%
%TF.CreationDate,2022-10-05T19:06:16+03:00*%
%TF.ProjectId,board,626f6172-642e-46b6-9963-61645f706362,v1.0.0*%
%TF.SameCoordinates,Original*%
%TF.FileFunction,Legend,Bot*%
%TF.FilePolarity,Positive*%
%FSLAX46Y46*%
G04 Gerber Fmt 4.6, Leading zero omitted, Abs format (unit mm)*
G04 Created by KiCad (PCBNEW (6.0.7-1)-1) date 2022-10-05 19:06:16*
%MOMM*%
%LPD*%
G01*
G04 APERTURE LIST*
G04 Aperture macros list*
%AMRoundRect*
0 Rectangle with rounded corners*
0 $1 Rounding radius*
0 $2 $3 $4 $5 $6 $7 $8 $9 X,Y pos of 4 corners*
0 Add a 4 corners polygon primitive as box body*
4,1,4,$2,$3,$4,$5,$6,$7,$8,$9,$2,$3,0*
0 Add four circle primitives for the rounded corners*
1,1,$1+$1,$2,$3*
1,1,$1+$1,$4,$5*
1,1,$1+$1,$6,$7*
1,1,$1+$1,$8,$9*
0 Add four rect primitives between the rounded corners*
20,1,$1+$1,$2,$3,$4,$5,0*
20,1,$1+$1,$4,$5,$6,$7,0*
20,1,$1+$1,$6,$7,$8,$9,0*
20,1,$1+$1,$8,$9,$2,$3,0*%
G04 Aperture macros list end*
%ADD10C,0.250000*%
%ADD11C,0.150000*%
%ADD12RoundRect,0.375000X-0.375000X-0.750000X0.375000X-0.750000X0.375000X0.750000X-0.375000X0.750000X0*%
G04 APERTURE END LIST*
D10*
X104698539Y39351039D02*
X104750875Y40349669D01*
X104988643Y40337208D01*
X105128813Y40282178D01*
X105218936Y40182086D01*
X105261505Y40084486D01*
X105299090Y39891779D01*
X105291614Y39749117D01*
X105234091Y39561394D01*
X105181553Y39468779D01*
X105081461Y39378656D01*
X104936307Y39338578D01*
X104698539Y39351039D01*
X105697168Y39298703D02*
X105749504Y40297333D01*
X106267814Y39268797D01*
X106320149Y40267427D01*
X106710751Y39531690D02*
X107186289Y39506768D01*
X106600690Y39251352D02*
X106985903Y40232536D01*
X107266443Y39216461D01*
X108315119Y39209187D02*
X108407734Y39156649D01*
X108597949Y39146680D01*
X108695549Y39189249D01*
X108748087Y39281865D01*
X108750579Y39329419D01*
X108708010Y39427018D01*
X108615394Y39479556D01*
X108472733Y39487033D01*
X108380118Y39539571D01*
X108337548Y39637171D01*
X108340040Y39684725D01*
X108392579Y39777340D01*
X108490178Y39819910D01*
X108632840Y39812433D01*
X108725455Y39759895D01*
X109108378Y39787511D02*
X109263702Y39111789D01*
X109478839Y39577358D01*
X109644132Y39091852D01*
X109869238Y39747636D01*
X110597700Y39089562D02*
X110500101Y39046992D01*
X110309885Y39056961D01*
X110217270Y39109499D01*
X110174701Y39207099D01*
X110194638Y39587529D01*
X110247176Y39680145D01*
X110344776Y39722714D01*
X110534991Y39712745D01*
X110627607Y39660207D01*
X110670176Y39562608D01*
X110665192Y39467500D01*
X110184669Y39397314D01*
X111453669Y39044702D02*
X111356069Y39002133D01*
X111165854Y39012102D01*
X111073238Y39064640D01*
X111030669Y39162240D01*
X111050606Y39542670D01*
X111103145Y39635285D01*
X111200744Y39677855D01*
X111390959Y39667886D01*
X111483575Y39615348D01*
X111526144Y39517748D01*
X111521160Y39422641D01*
X111040638Y39352455D01*
X111961605Y39637980D02*
X111909269Y38639350D01*
X111959113Y39590426D02*
X112056712Y39632995D01*
X112246928Y39623027D01*
X112339543Y39570489D01*
X112384605Y39520443D01*
X112427174Y39422843D01*
X112412221Y39137520D01*
X112359683Y39044905D01*
X112309637Y38999843D01*
X112212037Y38957274D01*
X112021822Y38967242D01*
X111929206Y39019781D01*
X113530880Y39555738D02*
X113733758Y38877524D01*
X114006418Y39530816D01*
X114875049Y38817711D02*
X114304404Y38847617D01*
X114589726Y38832664D02*
X114642062Y39831294D01*
X114539478Y39693617D01*
X114439386Y39603494D01*
X114341786Y39560924D01*
X115308018Y38890389D02*
X115353079Y38840343D01*
X115303033Y38795281D01*
X115257972Y38845327D01*
X115308018Y38890389D01*
X115303033Y38795281D01*
X116021122Y39759020D02*
X116116230Y39754036D01*
X116208845Y39701498D01*
X116253907Y39651452D01*
X116296476Y39553852D01*
X116334061Y39361145D01*
X116321600Y39123376D01*
X116264078Y38935653D01*
X116211539Y38843037D01*
X116161493Y38797976D01*
X116063894Y38755406D01*
X115968786Y38760391D01*
X115876171Y38812929D01*
X115831109Y38862975D01*
X115788540Y38960575D01*
X115750955Y39153282D01*
X115763416Y39391051D01*
X115820938Y39578774D01*
X115873476Y39671389D01*
X115923522Y39716451D01*
X116021122Y39759020D01*
D11*
%TO.C,PAD1*%
X159438095Y50472642D02*
X159323809Y50434547D01*
X159285714Y50396452D01*
X159247619Y50320261D01*
X159247619Y50205976D01*
X159285714Y50129785D01*
X159323809Y50091690D01*
X159400000Y50053595D01*
X159704761Y50053595D01*
X159704761Y50853595D01*
X159438095Y50853595D01*
X159361904Y50815500D01*
X159323809Y50777404D01*
X159285714Y50701214D01*
X159285714Y50625023D01*
X159323809Y50548833D01*
X159361904Y50510738D01*
X159438095Y50472642D01*
X159704761Y50472642D01*
X158904761Y50358357D02*
X158295238Y50358357D01*
X158600000Y50053595D02*
X158600000Y50663119D01*
X161438095Y50472642D02*
X161323809Y50434547D01*
X161285714Y50396452D01*
X161247619Y50320261D01*
X161247619Y50205976D01*
X161285714Y50129785D01*
X161323809Y50091690D01*
X161400000Y50053595D01*
X161704761Y50053595D01*
X161704761Y50853595D01*
X161438095Y50853595D01*
X161361904Y50815500D01*
X161323809Y50777404D01*
X161285714Y50701214D01*
X161285714Y50625023D01*
X161323809Y50548833D01*
X161361904Y50510738D01*
X161438095Y50472642D01*
X161704761Y50472642D01*
X160904761Y50358357D02*
X160295238Y50358357D01*
X163438095Y50472642D02*
X163323809Y50434547D01*
X163285714Y50396452D01*
X163247619Y50320261D01*
X163247619Y50205976D01*
X163285714Y50129785D01*
X163323809Y50091690D01*
X163400000Y50053595D01*
X163704761Y50053595D01*
X163704761Y50853595D01*
X163438095Y50853595D01*
X163361904Y50815500D01*
X163323809Y50777404D01*
X163285714Y50701214D01*
X163285714Y50625023D01*
X163323809Y50548833D01*
X163361904Y50510738D01*
X163438095Y50472642D01*
X163704761Y50472642D01*
X162904761Y50358357D02*
X162295238Y50358357D01*
X162600000Y50053595D02*
X162600000Y50663119D01*
%TO.C,B1*%
X168952380Y47040880D02*
X168476190Y47374214D01*
X168952380Y47612309D02*
X167952380Y47612309D01*
X167952380Y47231357D01*
X168000000Y47136119D01*
X168047619Y47088500D01*
X168142857Y47040880D01*
X168285714Y47040880D01*
X168380952Y47088500D01*
X168428571Y47136119D01*
X168476190Y47231357D01*
X168476190Y47612309D01*
X168428571Y46612309D02*
X168428571Y46278976D01*
X168952380Y46136119D02*
X168952380Y46612309D01*
X167952380Y46612309D01*
X167952380Y46136119D01*
X168904761Y45755166D02*
X168952380Y45612309D01*
X168952380Y45374214D01*
X168904761Y45278976D01*
X168857142Y45231357D01*
X168761904Y45183738D01*
X168666666Y45183738D01*
X168571428Y45231357D01*
X168523809Y45278976D01*
X168476190Y45374214D01*
X168428571Y45564690D01*
X168380952Y45659928D01*
X168333333Y45707547D01*
X168238095Y45755166D01*
X168142857Y45755166D01*
X168047619Y45707547D01*
X168000000Y45659928D01*
X167952380Y45564690D01*
X167952380Y45326595D01*
X168000000Y45183738D01*
X168428571Y44755166D02*
X168428571Y44421833D01*
X168952380Y44278976D02*
X168952380Y44755166D01*
X167952380Y44755166D01*
X167952380Y44278976D01*
X167952380Y43993261D02*
X167952380Y43421833D01*
X168952380Y43707547D02*
X167952380Y43707547D01*
%TO.C,G\u002A\u002A\u002A*%
G36*
X113887749Y45457697D02*
G01*
X114160637Y45435198D01*
X114425750Y45389820D01*
X114684436Y45321146D01*
X114938039Y45228753D01*
X115187907Y45112222D01*
X115435385Y44971133D01*
X115534916Y44907313D01*
X115707136Y44785739D01*
X115856809Y44663497D01*
X115985503Y44539001D01*
X116094790Y44410663D01*
X116186239Y44276896D01*
X116261420Y44136112D01*
X116285390Y44081972D01*
X116333668Y43956806D01*
X116379499Y43817591D01*
X116420732Y43671664D01*
X116455212Y43526358D01*
X116480786Y43389009D01*
X116483507Y43370125D01*
X116492076Y43283319D01*
X116497045Y43183469D01*
X116498412Y43078132D01*
X116496176Y42974865D01*
X116490336Y42881223D01*
X116480890Y42804763D01*
X116480294Y42801313D01*
X116452646Y42664191D01*
X116420235Y42547738D01*
X116381502Y42447919D01*
X116334886Y42360698D01*
X116278827Y42282039D01*
X116253648Y42252220D01*
X116183853Y42183769D01*
X116109199Y42132994D01*
X116025089Y42097771D01*
X115926922Y42075975D01*
X115810099Y42065482D01*
X115663948Y42059128D01*
X115626819Y42096258D01*
X115620688Y42102620D01*
X115607296Y42119058D01*
X115595093Y42139310D01*
X115583335Y42165967D01*
X115571278Y42201620D01*
X115558177Y42248860D01*
X115543286Y42310277D01*
X115525862Y42388462D01*
X115505159Y42486007D01*
X115480432Y42605502D01*
X115467928Y42666101D01*
X115424714Y42870918D01*
X115384301Y43054127D01*
X115345965Y43218166D01*
X115308982Y43365476D01*
X115272628Y43498495D01*
X115236180Y43619665D01*
X115198913Y43731423D01*
X115160104Y43836210D01*
X115119029Y43936466D01*
X115074964Y44034629D01*
X115027185Y44133141D01*
X115019313Y44148764D01*
X114902026Y44363386D01*
X114779443Y44554085D01*
X114650946Y44721465D01*
X114515912Y44866127D01*
X114373720Y44988676D01*
X114223749Y45089715D01*
X114065379Y45169845D01*
X113897989Y45229671D01*
X113825995Y45247903D01*
X113734787Y45263130D01*
X113636021Y45270612D01*
X113524181Y45270721D01*
X113393750Y45263831D01*
X113258077Y45249264D01*
X113110963Y45221868D01*
X112961033Y45181205D01*
X112803251Y45125889D01*
X112632578Y45054536D01*
X112533972Y45007839D01*
X112347598Y44906226D01*
X112150820Y44782464D01*
X111943511Y44636466D01*
X111725546Y44468146D01*
X111496798Y44277418D01*
X111490740Y44272321D01*
X111473106Y44260648D01*
X111470762Y44266487D01*
X111483025Y44288535D01*
X111509210Y44325489D01*
X111548632Y44376048D01*
X111602597Y44441092D01*
X111781018Y44631440D01*
X111975082Y44804320D01*
X112182992Y44958897D01*
X112402949Y45094334D01*
X112633156Y45209795D01*
X112871814Y45304444D01*
X113117125Y45377444D01*
X113367292Y45427959D01*
X113620516Y45455153D01*
X113875000Y45458188D01*
X113887749Y45457697D01*
G37*
G36*
X108077160Y46234366D02*
G01*
X108340136Y46196876D01*
X108602313Y46134748D01*
X108863129Y46048053D01*
X109122023Y45936861D01*
X109132302Y45931924D01*
X109315205Y45837988D01*
X109479274Y45740705D01*
X109630352Y45636043D01*
X109774281Y45519972D01*
X109916902Y45388463D01*
X109967527Y45338052D01*
X110066031Y45232421D01*
X110146914Y45133223D01*
X110213164Y45036632D01*
X110267766Y44938818D01*
X110278726Y44916564D01*
X110309215Y44850476D01*
X110336256Y44783960D01*
X110360627Y44713966D01*
X110383106Y44637439D01*
X110404471Y44551328D01*
X110425501Y44452582D01*
X110446973Y44338146D01*
X110469666Y44204970D01*
X110494358Y44050000D01*
X110504441Y43985963D01*
X110547576Y43730208D01*
X110592264Y43495812D01*
X110639340Y43279838D01*
X110689641Y43079345D01*
X110744002Y42891395D01*
X110803259Y42713050D01*
X110868248Y42541370D01*
X110939805Y42373416D01*
X111018765Y42206250D01*
X111020694Y42202353D01*
X111132454Y41992177D01*
X111247999Y41805533D01*
X111368365Y41641128D01*
X111494588Y41497666D01*
X111627703Y41373853D01*
X111768745Y41268395D01*
X111845436Y41220067D01*
X111952087Y41163660D01*
X112058638Y41121866D01*
X112171088Y41092870D01*
X112295436Y41074857D01*
X112437679Y41066012D01*
X112563934Y41064811D01*
X112708749Y41072317D01*
X112846364Y41090960D01*
X112983354Y41121988D01*
X113126295Y41166649D01*
X113281762Y41226191D01*
X113329396Y41246275D01*
X113559505Y41356970D01*
X113791918Y41490970D01*
X114024982Y41647183D01*
X114257042Y41824516D01*
X114486443Y42021875D01*
X114488247Y42023515D01*
X114532742Y42062985D01*
X114571086Y42095247D01*
X114599242Y42117014D01*
X114613170Y42125000D01*
X114615824Y42116628D01*
X114601790Y42091625D01*
X114571703Y42051037D01*
X114526388Y41995913D01*
X114466672Y41927300D01*
X114393382Y41846246D01*
X114361875Y41812173D01*
X114249667Y41695606D01*
X114144080Y41594550D01*
X114039942Y41504469D01*
X113932080Y41420822D01*
X113815322Y41339073D01*
X113792078Y41323682D01*
X113569536Y41192598D01*
X113337039Y41083490D01*
X113096365Y40996360D01*
X112849294Y40931210D01*
X112597603Y40888043D01*
X112343072Y40866862D01*
X112087480Y40867670D01*
X111832605Y40890468D01*
X111580227Y40935260D01*
X111332123Y41002048D01*
X111090073Y41090835D01*
X110855856Y41201623D01*
X110631250Y41334416D01*
X110495034Y41428346D01*
X110328770Y41556637D01*
X110176541Y41690037D01*
X110040420Y41826435D01*
X109922478Y41963719D01*
X109824791Y42099778D01*
X109749430Y42232502D01*
X109739092Y42254096D01*
X109719154Y42298726D01*
X109701110Y42344526D01*
X109684335Y42394113D01*
X109668203Y42450104D01*
X109652088Y42515114D01*
X109635364Y42591760D01*
X109617405Y42682659D01*
X109597587Y42790427D01*
X109575283Y42917682D01*
X109549867Y43067039D01*
X109538234Y43135758D01*
X109507979Y43310907D01*
X109480129Y43465875D01*
X109453960Y43604031D01*
X109428748Y43728748D01*
X109403769Y43843398D01*
X109378298Y43951351D01*
X109351611Y44055980D01*
X109322983Y44160656D01*
X109291691Y44268750D01*
X109245647Y44412786D01*
X109165898Y44625542D01*
X109074094Y44834736D01*
X108972812Y45035023D01*
X108864629Y45221059D01*
X108752123Y45387500D01*
X108742159Y45400962D01*
X108606926Y45565738D01*
X108464602Y45706815D01*
X108315317Y45824103D01*
X108159204Y45917508D01*
X107996396Y45986940D01*
X107827025Y46032304D01*
X107815330Y46034388D01*
X107747364Y46042399D01*
X107662575Y46047535D01*
X107567561Y46049814D01*
X107468923Y46049252D01*
X107373261Y46045868D01*
X107287174Y46039678D01*
X107217262Y46030700D01*
X107137513Y46014056D01*
X107002871Y45976147D01*
X106856988Y45924883D01*
X106704412Y45862176D01*
X106549693Y45789942D01*
X106397379Y45710094D01*
X106252019Y45624547D01*
X106178257Y45576954D01*
X106024059Y45469233D01*
X105858697Y45343651D01*
X105684344Y45201886D01*
X105503174Y45045620D01*
X105482997Y45029039D01*
X105470490Y45023243D01*
X105473018Y45034255D01*
X105489897Y45060832D01*
X105520440Y45101734D01*
X105563962Y45155717D01*
X105621115Y45223042D01*
X105813907Y45427093D01*
X106017554Y45608636D01*
X106232125Y45767715D01*
X106457690Y45904374D01*
X106694317Y46018656D01*
X106942077Y46110604D01*
X107201038Y46180263D01*
X107289043Y46198294D01*
X107551052Y46235146D01*
X107813945Y46247146D01*
X108077160Y46234366D01*
G37*
G36*
X114387335Y43751906D02*
G01*
X114378356Y43720522D01*
X114361262Y43672306D01*
X114337018Y43609478D01*
X114306588Y43534260D01*
X114270933Y43448872D01*
X114231018Y43355536D01*
X114187806Y43256473D01*
X114142260Y43153905D01*
X114095345Y43050053D01*
X114048022Y42947138D01*
X114001256Y42847381D01*
X113956010Y42753003D01*
X113913247Y42666226D01*
X113873930Y42589271D01*
X113769751Y42397935D01*
X113635662Y42174943D01*
X113500411Y41976070D01*
X113363661Y41800826D01*
X113225072Y41648720D01*
X113150563Y41575798D01*
X113082061Y41515089D01*
X113020226Y41469299D01*
X112960580Y41435950D01*
X112898645Y41412563D01*
X112829944Y41396660D01*
X112750000Y41385762D01*
X112733157Y41384072D01*
X112654146Y41379460D01*
X112596785Y41382496D01*
X112561820Y41393086D01*
X112550000Y41411136D01*
X112557412Y41421469D01*
X112580567Y41446219D01*
X112616604Y41482206D01*
X112662598Y41526515D01*
X112715625Y41576230D01*
X112778790Y41635091D01*
X113002521Y41850568D01*
X113206282Y42058807D01*
X113392269Y42262276D01*
X113562678Y42463444D01*
X113719707Y42664779D01*
X113865551Y42868750D01*
X113885022Y42897359D01*
X113943524Y42985435D01*
X113998509Y43072048D01*
X114052832Y43162004D01*
X114109345Y43260111D01*
X114170904Y43371174D01*
X114240361Y43500000D01*
X114263599Y43543472D01*
X114300552Y43612316D01*
X114332611Y43671686D01*
X114358066Y43718434D01*
X114375205Y43749408D01*
X114382318Y43761459D01*
X114387238Y43764235D01*
X114387335Y43751906D01*
G37*
G36*
X113749367Y44108147D02*
G01*
X113746249Y44088770D01*
X113734406Y44051013D01*
X113713400Y43993369D01*
X113682796Y43914334D01*
X113661837Y43861788D01*
X113594874Y43700863D01*
X113520842Y43531844D01*
X113441923Y43359261D01*
X113360299Y43187643D01*
X113278152Y43021521D01*
X113197663Y42865424D01*
X113121016Y42723883D01*
X113050391Y42601427D01*
X112996919Y42514416D01*
X112832185Y42270580D01*
X112658671Y42048958D01*
X112475450Y41848335D01*
X112407033Y41782698D01*
X112326560Y41717587D01*
X112247517Y41669882D01*
X112164281Y41636907D01*
X112071230Y41615988D01*
X111962741Y41604450D01*
X111930064Y41602562D01*
X111859716Y41601176D01*
X111811537Y41605221D01*
X111783855Y41614929D01*
X111775000Y41630533D01*
X111777714Y41635914D01*
X111795469Y41657413D01*
X111827584Y41691796D01*
X111871487Y41736420D01*
X111924607Y41788642D01*
X111984375Y41845819D01*
X112097336Y41953403D01*
X112217416Y42069645D01*
X112335233Y42185521D01*
X112448472Y42298678D01*
X112554818Y42406761D01*
X112651955Y42507416D01*
X112737567Y42598286D01*
X112809340Y42677019D01*
X112864957Y42741260D01*
X112904635Y42790027D01*
X112999717Y42914292D01*
X113101211Y43056070D01*
X113206667Y43211612D01*
X113313638Y43377168D01*
X113419676Y43548988D01*
X113522332Y43723324D01*
X113619158Y43896425D01*
X113650470Y43953604D01*
X113682661Y44011456D01*
X113709446Y44058588D01*
X113728680Y44091233D01*
X113738219Y44105625D01*
X113744195Y44110649D01*
X113749367Y44108147D01*
G37*
G36*
X112917678Y44187500D02*
G01*
X112904061Y44147461D01*
X112878340Y44084786D01*
X112842726Y44005384D01*
X112798549Y43911865D01*
X112747140Y43806840D01*
X112689830Y43692918D01*
X112627948Y43572710D01*
X112562825Y43448827D01*
X112495792Y43323879D01*
X112428179Y43200477D01*
X112361316Y43081231D01*
X112296534Y42968750D01*
X112251340Y42892297D01*
X112173633Y42765673D01*
X112103195Y42658279D01*
X112038175Y42567748D01*
X111976724Y42491711D01*
X111916994Y42427800D01*
X111857133Y42373646D01*
X111795294Y42326881D01*
X111753105Y42298711D01*
X111689484Y42262326D01*
X111629690Y42238554D01*
X111564913Y42224242D01*
X111486343Y42216233D01*
X111446928Y42213539D01*
X111409136Y42211622D01*
X111380873Y42212447D01*
X111362949Y42217510D01*
X111356177Y42228308D01*
X111361369Y42246337D01*
X111379337Y42273094D01*
X111410892Y42310075D01*
X111456848Y42358778D01*
X111518015Y42420698D01*
X111595206Y42497333D01*
X111689233Y42590178D01*
X111699752Y42600575D01*
X111782578Y42682921D01*
X111863345Y42764023D01*
X111939418Y42841178D01*
X112008156Y42911682D01*
X112066922Y42972831D01*
X112113078Y43021922D01*
X112143985Y43056250D01*
X112183738Y43103086D01*
X112280182Y43222467D01*
X112373801Y43347311D01*
X112467016Y43481169D01*
X112562247Y43627590D01*
X112661915Y43790126D01*
X112768440Y43972326D01*
X112797960Y44023317D01*
X112833456Y44083280D01*
X112864357Y44134018D01*
X112888107Y44171345D01*
X112902147Y44191076D01*
X112926321Y44218750D01*
X112917678Y44187500D01*
G37*
G36*
X102379858Y46342210D02*
G01*
X102519797Y46338280D01*
X102647104Y46328624D01*
X102770619Y46312156D01*
X102899183Y46287790D01*
X103041634Y46254443D01*
X103086619Y46242796D01*
X103335978Y46165065D01*
X103579832Y46067111D01*
X103812970Y45951228D01*
X104030179Y45819708D01*
X104080545Y45785547D01*
X104255077Y45657302D01*
X104407009Y45528071D01*
X104538189Y45395649D01*
X104650461Y45257831D01*
X104745672Y45112412D01*
X104825668Y44957187D01*
X104892294Y44789953D01*
X104901938Y44761723D01*
X104920363Y44703432D01*
X104936055Y44645665D01*
X104949624Y44584782D01*
X104961681Y44517144D01*
X104972837Y44439111D01*
X104983703Y44347044D01*
X104994888Y44237304D01*
X105007005Y44106250D01*
X105014592Y44023999D01*
X105024817Y43919411D01*
X105035384Y43817210D01*
X105045692Y43723028D01*
X105055137Y43642498D01*
X105063118Y43581250D01*
X105067522Y43551263D01*
X105108240Y43333178D01*
X105164098Y43110859D01*
X105233543Y42887942D01*
X105315024Y42668062D01*
X105406988Y42454856D01*
X105507882Y42251959D01*
X105616155Y42063006D01*
X105730254Y41891633D01*
X105848627Y41741476D01*
X105897560Y41687297D01*
X106041223Y41551343D01*
X106194688Y41438062D01*
X106357121Y41347743D01*
X106527689Y41280673D01*
X106705557Y41237138D01*
X106889892Y41217425D01*
X107079860Y41221822D01*
X107274628Y41250615D01*
X107353406Y41268713D01*
X107556514Y41329516D01*
X107765726Y41411269D01*
X107978371Y41512523D01*
X108191774Y41631827D01*
X108403263Y41767731D01*
X108610164Y41918784D01*
X108809805Y42083535D01*
X108812485Y42085885D01*
X108861625Y42128508D01*
X108906802Y42166926D01*
X108943105Y42197008D01*
X108965625Y42214622D01*
X108987203Y42228676D01*
X108998188Y42231053D01*
X108992180Y42216967D01*
X108968991Y42186134D01*
X108928428Y42138271D01*
X108870300Y42073092D01*
X108829010Y42028133D01*
X108685767Y41881093D01*
X108540025Y41744534D01*
X108395218Y41621420D01*
X108254778Y41514714D01*
X108122140Y41427379D01*
X108020530Y41368742D01*
X107796833Y41256849D01*
X107575005Y41169702D01*
X107355181Y41107351D01*
X107137500Y41069846D01*
X106845006Y41046114D01*
X106561615Y41044193D01*
X106288623Y41064568D01*
X106025141Y41107467D01*
X105770280Y41173118D01*
X105523153Y41261753D01*
X105282869Y41373599D01*
X105048542Y41508886D01*
X104819282Y41667843D01*
X104767175Y41707828D01*
X104619843Y41831149D01*
X104491340Y41956657D01*
X104380490Y42086732D01*
X104286117Y42223753D01*
X104207043Y42370100D01*
X104142092Y42528152D01*
X104090089Y42700288D01*
X104049857Y42888889D01*
X104020219Y43096333D01*
X104000000Y43325000D01*
X103984308Y43510830D01*
X103940510Y43828790D01*
X103875428Y44136667D01*
X103788215Y44437636D01*
X103678020Y44734877D01*
X103543994Y45031566D01*
X103454266Y45202579D01*
X103336834Y45394326D01*
X103212185Y45563403D01*
X103079336Y45710766D01*
X102937304Y45837374D01*
X102785107Y45944186D01*
X102621761Y46032161D01*
X102446286Y46102256D01*
X102408194Y46114714D01*
X102365428Y46126733D01*
X102323940Y46135024D01*
X102277162Y46140556D01*
X102218524Y46144298D01*
X102141456Y46147219D01*
X102062116Y46148755D01*
X101916922Y46145192D01*
X101780286Y46132022D01*
X101647630Y46108121D01*
X101514377Y46072363D01*
X101375950Y46023624D01*
X101227771Y45960777D01*
X101065263Y45882698D01*
X101018229Y45858413D01*
X100871006Y45775394D01*
X100714814Y45678009D01*
X100554885Y45569885D01*
X100396455Y45454648D01*
X100244757Y45335926D01*
X100105026Y45217344D01*
X100097389Y45210584D01*
X100052831Y45172233D01*
X100015646Y45142023D01*
X99989531Y45122861D01*
X99978182Y45117651D01*
X99978073Y45129805D01*
X99994974Y45159218D01*
X100030258Y45204458D01*
X100083658Y45265213D01*
X100154911Y45341168D01*
X100243750Y45432010D01*
X100313611Y45501273D01*
X100446615Y45626205D01*
X100573223Y45734615D01*
X100697821Y45829747D01*
X100824794Y45914845D01*
X100958528Y45993152D01*
X101103407Y46067913D01*
X101239530Y46130441D01*
X101445243Y46209400D01*
X101651896Y46269011D01*
X101864240Y46310342D01*
X102087024Y46334460D01*
X102325000Y46342433D01*
X102379858Y46342210D01*
G37*
G36*
X108805227Y44479913D02*
G01*
X108815143Y44475279D01*
X108825000Y44466218D01*
X108822764Y44458707D01*
X108811028Y44440221D01*
X108788229Y44411644D01*
X108753241Y44371735D01*
X108704938Y44319252D01*
X108642193Y44252957D01*
X108563881Y44171608D01*
X108468875Y44073965D01*
X108401029Y44004225D01*
X108265695Y43862959D01*
X108145846Y43734226D01*
X108039283Y43615238D01*
X107943806Y43503206D01*
X107857217Y43395342D01*
X107777315Y43288856D01*
X107701902Y43180960D01*
X107628778Y43068867D01*
X107555745Y42949787D01*
X107480601Y42820931D01*
X107458140Y42782126D01*
X107427264Y42730637D01*
X107402143Y42691002D01*
X107384914Y42666550D01*
X107377713Y42660611D01*
X107380100Y42673506D01*
X107391679Y42707560D01*
X107411784Y42759976D01*
X107439461Y42828403D01*
X107473757Y42910492D01*
X107513719Y43003891D01*
X107558394Y43106250D01*
X107574803Y43142635D01*
X107614506Y43226316D01*
X107661365Y43320835D01*
X107712454Y43420596D01*
X107764845Y43520006D01*
X107815611Y43613470D01*
X107861825Y43695392D01*
X107900558Y43760178D01*
X107936839Y43817000D01*
X108021314Y43941242D01*
X108107166Y44057167D01*
X108192008Y44161907D01*
X108273452Y44252592D01*
X108349112Y44326355D01*
X108416599Y44380325D01*
X108468193Y44411379D01*
X108541121Y44444518D01*
X108617211Y44469459D01*
X108690541Y44484683D01*
X108755187Y44488674D01*
X108805227Y44479913D01*
G37*
G36*
X108365071Y45118762D02*
G01*
X108411966Y45104942D01*
X108439752Y45083178D01*
X108442641Y45076367D01*
X108441605Y45063677D01*
X108432728Y45046495D01*
X108414406Y45023152D01*
X108385035Y44991980D01*
X108343012Y44951310D01*
X108286734Y44899474D01*
X108214598Y44834803D01*
X108125000Y44755629D01*
X108051630Y44689760D01*
X107945372Y44590618D01*
X107834939Y44483870D01*
X107725023Y44374218D01*
X107620318Y44266363D01*
X107525519Y44165006D01*
X107445317Y44074847D01*
X107372725Y43989166D01*
X107230884Y43813374D01*
X107098504Y43636670D01*
X106972431Y43454398D01*
X106849513Y43261904D01*
X106726595Y43054529D01*
X106600523Y42827620D01*
X106593539Y42814701D01*
X106545877Y42727310D01*
X106508411Y42660359D01*
X106480099Y42612234D01*
X106459896Y42581322D01*
X106446757Y42566011D01*
X106439640Y42564687D01*
X106437500Y42575737D01*
X106439966Y42584117D01*
X106451505Y42613571D01*
X106471379Y42661123D01*
X106498371Y42724044D01*
X106531263Y42799606D01*
X106568837Y42885078D01*
X106609876Y42977732D01*
X106653161Y43074838D01*
X106697476Y43173668D01*
X106741602Y43271491D01*
X106784323Y43365580D01*
X106824420Y43453204D01*
X106860675Y43531635D01*
X106891872Y43598144D01*
X106916792Y43650000D01*
X106917608Y43651665D01*
X107030113Y43872463D01*
X107140797Y44071436D01*
X107251632Y44251450D01*
X107364592Y44415367D01*
X107481650Y44566052D01*
X107604777Y44706369D01*
X107735947Y44839182D01*
X107815444Y44913278D01*
X107887407Y44975091D01*
X107950593Y45022406D01*
X108008653Y45057695D01*
X108065233Y45083430D01*
X108123985Y45102085D01*
X108156603Y45109756D01*
X108232702Y45121450D01*
X108303754Y45124359D01*
X108365071Y45118762D01*
G37*
G36*
X107621689Y45322537D02*
G01*
X107659375Y45317122D01*
X107677029Y45310182D01*
X107687500Y45299682D01*
X107687496Y45299620D01*
X107678448Y45288104D01*
X107653881Y45262564D01*
X107616650Y45225820D01*
X107569613Y45180692D01*
X107515625Y45129998D01*
X107444333Y45063044D01*
X107348834Y44971592D01*
X107249736Y44874985D01*
X107149776Y44775998D01*
X107051687Y44677405D01*
X106958208Y44581983D01*
X106872072Y44492507D01*
X106796017Y44411750D01*
X106732777Y44342490D01*
X106685089Y44287500D01*
X106637275Y44229322D01*
X106544138Y44111578D01*
X106456246Y43993670D01*
X106371072Y43871799D01*
X106286089Y43742169D01*
X106198769Y43600982D01*
X106106584Y43444442D01*
X106007008Y43268750D01*
X106005947Y43266849D01*
X105952435Y43171620D01*
X105909674Y43097028D01*
X105876745Y43041633D01*
X105852730Y43003997D01*
X105836712Y42982681D01*
X105827775Y42976245D01*
X105825000Y42983250D01*
X105825441Y42988061D01*
X105833981Y43018702D01*
X105852499Y43068339D01*
X105879803Y43134467D01*
X105914704Y43214582D01*
X105956011Y43306179D01*
X106002532Y43406753D01*
X106053077Y43513800D01*
X106106455Y43624814D01*
X106161476Y43737291D01*
X106216950Y43848726D01*
X106271684Y43956615D01*
X106324489Y44058452D01*
X106374174Y44151732D01*
X106419548Y44233952D01*
X106441222Y44272087D01*
X106545220Y44448089D01*
X106648715Y44612039D01*
X106750104Y44761648D01*
X106847788Y44894624D01*
X106940165Y45008674D01*
X107025635Y45101508D01*
X107107752Y45173175D01*
X107203763Y45236947D01*
X107302775Y45284586D01*
X107398581Y45312578D01*
X107445415Y45318989D01*
X107506183Y45323323D01*
X107567783Y45324555D01*
X107621689Y45322537D01*
G37*
G36*
X96644154Y47121313D02*
G01*
X96907017Y47082080D01*
X97167253Y47018701D01*
X97423650Y46931261D01*
X97675000Y46819846D01*
X97706376Y46804127D01*
X97827849Y46740024D01*
X97937403Y46675855D01*
X98039534Y46608303D01*
X98138736Y46534053D01*
X98239503Y46449788D01*
X98346331Y46352192D01*
X98463713Y46237949D01*
X98521667Y46179599D01*
X98610303Y46086750D01*
X98683162Y46004370D01*
X98742608Y45929131D01*
X98791005Y45857707D01*
X98830717Y45786772D01*
X98864107Y45712998D01*
X98893539Y45633060D01*
X98898015Y45619586D01*
X98910617Y45579514D01*
X98922253Y45538242D01*
X98933508Y45492829D01*
X98944966Y45440336D01*
X98957213Y45377821D01*
X98970835Y45302346D01*
X98986417Y45210969D01*
X99004545Y45100751D01*
X99025803Y44968750D01*
X99059736Y44763275D01*
X99100749Y44533872D01*
X99142214Y44324222D01*
X99184903Y44131456D01*
X99229587Y43952705D01*
X99277038Y43785099D01*
X99328027Y43625770D01*
X99383327Y43471849D01*
X99443709Y43320465D01*
X99509944Y43168750D01*
X99543656Y43096271D01*
X99654099Y42881996D01*
X99770314Y42691307D01*
X99893082Y42523475D01*
X100023186Y42377768D01*
X100161411Y42253458D01*
X100308539Y42149814D01*
X100465352Y42066106D01*
X100632635Y42001604D01*
X100811170Y41955577D01*
X100830528Y41952124D01*
X100908461Y41943730D01*
X101001339Y41940011D01*
X101101796Y41940796D01*
X101202468Y41945918D01*
X101295991Y41955207D01*
X101375000Y41968495D01*
X101418035Y41978583D01*
X101560345Y42019335D01*
X101713934Y42073255D01*
X101872877Y42138147D01*
X102031250Y42211813D01*
X102059288Y42225816D01*
X102190464Y42294793D01*
X102316638Y42367506D01*
X102441429Y42446430D01*
X102568458Y42534041D01*
X102701343Y42632815D01*
X102843706Y42745227D01*
X102999166Y42873752D01*
X103035725Y42904013D01*
X103073848Y42934301D01*
X103101640Y42954899D01*
X103114791Y42962500D01*
X103120873Y42961546D01*
X103123323Y42954440D01*
X103114691Y42937769D01*
X103093180Y42908452D01*
X103056994Y42863410D01*
X103014985Y42814907D01*
X102952294Y42747921D01*
X102878688Y42673251D01*
X102798704Y42595235D01*
X102716880Y42518211D01*
X102637755Y42446517D01*
X102565866Y42384491D01*
X102505751Y42336471D01*
X102473722Y42312747D01*
X102258767Y42168850D01*
X102034472Y42043953D01*
X101803976Y41939505D01*
X101570420Y41856953D01*
X101336946Y41797745D01*
X101322845Y41794919D01*
X101280260Y41786955D01*
X101240129Y41780794D01*
X101198530Y41776217D01*
X101151540Y41773003D01*
X101095239Y41770932D01*
X101025705Y41769785D01*
X100939016Y41769342D01*
X100831250Y41769381D01*
X100778007Y41769520D01*
X100674810Y41770214D01*
X100590264Y41771624D01*
X100519982Y41773979D01*
X100459577Y41777509D01*
X100404661Y41782442D01*
X100350848Y41789008D01*
X100293750Y41797434D01*
X100197984Y41813275D01*
X100054850Y41841235D01*
X99925168Y41873240D01*
X99802237Y41911462D01*
X99679353Y41958078D01*
X99549814Y42015263D01*
X99406917Y42085190D01*
X99208939Y42192705D01*
X99000943Y42323996D01*
X98815897Y42462405D01*
X98654068Y42607687D01*
X98515728Y42759596D01*
X98401144Y42917889D01*
X98310586Y43082320D01*
X98295452Y43115260D01*
X98261543Y43195124D01*
X98231354Y43276691D01*
X98204044Y43363278D01*
X98178774Y43458197D01*
X98154705Y43564764D01*
X98130996Y43686294D01*
X98106808Y43826101D01*
X98081302Y43987500D01*
X98047152Y44200995D01*
X98008028Y44419852D01*
X97966958Y44621422D01*
X97922915Y44809776D01*
X97874871Y44988989D01*
X97821797Y45163131D01*
X97762667Y45336278D01*
X97696452Y45512500D01*
X97596899Y45747213D01*
X97484935Y45970281D01*
X97365120Y46169794D01*
X97237320Y46345886D01*
X97101399Y46498695D01*
X96957220Y46628357D01*
X96804650Y46735006D01*
X96643551Y46818780D01*
X96473788Y46879814D01*
X96295226Y46918244D01*
X96231055Y46926513D01*
X96028963Y46936597D01*
X95827652Y46922966D01*
X95631250Y46885824D01*
X95499022Y46846654D01*
X95331309Y46783471D01*
X95155291Y46704161D01*
X94974587Y46610838D01*
X94792815Y46505613D01*
X94613595Y46390599D01*
X94440546Y46267910D01*
X94277286Y46139656D01*
X94127435Y46007952D01*
X94110863Y45992541D01*
X94065451Y45951221D01*
X94027369Y45917881D01*
X94000205Y45895611D01*
X93987548Y45887500D01*
X93976799Y45889186D01*
X93971457Y45897286D01*
X93977176Y45913444D01*
X93995164Y45939154D01*
X94026629Y45975910D01*
X94072780Y46025206D01*
X94134825Y46088535D01*
X94213972Y46167391D01*
X94290275Y46241950D01*
X94443196Y46385082D01*
X94586794Y46509878D01*
X94723836Y46618222D01*
X94857089Y46711994D01*
X94989321Y46793076D01*
X95123300Y46863351D01*
X95261794Y46924700D01*
X95407568Y46979004D01*
X95590627Y47035087D01*
X95851899Y47093287D01*
X96115385Y47127001D01*
X96379873Y47136315D01*
X96644154Y47121313D01*
G37*
G36*
X102925000Y44626207D02*
G01*
X102922293Y44610343D01*
X102909400Y44570240D01*
X102886884Y44511860D01*
X102855853Y44437518D01*
X102817414Y44349529D01*
X102772674Y44250209D01*
X102722741Y44141873D01*
X102668723Y44026835D01*
X102611727Y43907410D01*
X102552861Y43785915D01*
X102493231Y43664663D01*
X102433947Y43545971D01*
X102376114Y43432153D01*
X102320841Y43325524D01*
X102269236Y43228399D01*
X102222405Y43143094D01*
X102181456Y43071924D01*
X102165749Y43045763D01*
X102066022Y42891286D01*
X101962972Y42750545D01*
X101858253Y42625268D01*
X101753521Y42517186D01*
X101650429Y42428028D01*
X101550633Y42359523D01*
X101455785Y42313400D01*
X101433492Y42305664D01*
X101372296Y42289023D01*
X101306580Y42276325D01*
X101241136Y42267934D01*
X101180759Y42264213D01*
X101130241Y42265527D01*
X101094374Y42272240D01*
X101077952Y42284715D01*
X101077934Y42284786D01*
X101085820Y42296893D01*
X101109775Y42324733D01*
X101148097Y42366524D01*
X101199087Y42420484D01*
X101261045Y42484833D01*
X101332270Y42557790D01*
X101411062Y42637572D01*
X101495720Y42722399D01*
X101583217Y42809890D01*
X101730051Y42958330D01*
X101861074Y43093473D01*
X101978043Y43217577D01*
X102082713Y43332897D01*
X102176843Y43441689D01*
X102262188Y43546210D01*
X102340505Y43648716D01*
X102413551Y43751464D01*
X102483082Y43856709D01*
X102550856Y43966708D01*
X102618629Y44083718D01*
X102688157Y44209995D01*
X102761198Y44347795D01*
X102774846Y44373869D01*
X102812194Y44444683D01*
X102845987Y44507999D01*
X102874240Y44560141D01*
X102894968Y44597433D01*
X102906185Y44616201D01*
X102919471Y44630547D01*
X102925000Y44626207D01*
G37*
G36*
X102301585Y45049990D02*
G01*
X102306745Y45048298D01*
X102308671Y45041867D01*
X102306487Y45028064D01*
X102299317Y45004254D01*
X102286286Y44967802D01*
X102266517Y44916074D01*
X102239136Y44846435D01*
X102203266Y44756250D01*
X102165781Y44663033D01*
X102096822Y44496489D01*
X102030573Y44343900D01*
X101964059Y44198672D01*
X101894300Y44054214D01*
X101818321Y43903934D01*
X101789419Y43848151D01*
X101712237Y43702852D01*
X101640604Y43574467D01*
X101571612Y43458388D01*
X101502357Y43350010D01*
X101429932Y43244724D01*
X101351432Y43137923D01*
X101263949Y43025000D01*
X101236677Y42991487D01*
X101180820Y42926955D01*
X101118026Y42858462D01*
X101051611Y42789285D01*
X100984889Y42722702D01*
X100921177Y42661989D01*
X100863789Y42610424D01*
X100816041Y42571285D01*
X100781250Y42547849D01*
X100758375Y42536689D01*
X100672138Y42508027D01*
X100565584Y42490195D01*
X100437500Y42482963D01*
X100385997Y42482861D01*
X100336559Y42485407D01*
X100306912Y42491691D01*
X100294142Y42502438D01*
X100295335Y42518375D01*
X100295687Y42519067D01*
X100308423Y42533683D01*
X100336949Y42562488D01*
X100378840Y42603150D01*
X100431666Y42653337D01*
X100493000Y42710718D01*
X100560414Y42772961D01*
X100620120Y42827979D01*
X100825368Y43021440D01*
X101011887Y43204966D01*
X101181667Y43381085D01*
X101336695Y43552324D01*
X101478960Y43721210D01*
X101610448Y43890272D01*
X101733148Y44062035D01*
X101849049Y44239029D01*
X101960137Y44423779D01*
X102068401Y44618813D01*
X102175829Y44826659D01*
X102182222Y44839385D01*
X102216526Y44906209D01*
X102247437Y44964056D01*
X102273064Y45009554D01*
X102291517Y45039326D01*
X102300908Y45050000D01*
X102301585Y45049990D01*
G37*
G36*
X101398839Y44968496D02*
G01*
X101393454Y44942442D01*
X101377547Y44898402D01*
X101352197Y44838448D01*
X101318482Y44764651D01*
X101277483Y44679081D01*
X101230276Y44583810D01*
X101177943Y44480907D01*
X101121561Y44372445D01*
X101062209Y44260495D01*
X101000966Y44147126D01*
X100938912Y44034411D01*
X100877124Y43924419D01*
X100816683Y43819223D01*
X100758667Y43720892D01*
X100704154Y43631499D01*
X100654224Y43553113D01*
X100653330Y43551749D01*
X100591757Y43467168D01*
X100520492Y43384413D01*
X100443284Y43306759D01*
X100363883Y43237480D01*
X100286035Y43179852D01*
X100213492Y43137148D01*
X100150000Y43112644D01*
X100109898Y43106250D01*
X100055546Y43102503D01*
X100000000Y43102473D01*
X99984206Y43103145D01*
X99942460Y43105907D01*
X99919252Y43110457D01*
X99909543Y43118378D01*
X99908291Y43131250D01*
X99909226Y43134618D01*
X99923719Y43156147D01*
X99953326Y43189785D01*
X99995023Y43232257D01*
X100045791Y43280286D01*
X100103090Y43333305D01*
X100317556Y43541908D01*
X100521545Y43756457D01*
X100712953Y43974375D01*
X100889671Y44193082D01*
X101049593Y44410002D01*
X101190612Y44622556D01*
X101310623Y44828166D01*
X101317951Y44841682D01*
X101346710Y44893937D01*
X101370688Y44936274D01*
X101387560Y44964644D01*
X101394998Y44975000D01*
X101398839Y44968496D01*
G37*
G36*
X93279700Y45311161D02*
G01*
X93349373Y45299858D01*
X93399165Y45275936D01*
X93430569Y45238816D01*
X93434167Y45229923D01*
X93443681Y45194800D01*
X93454504Y45142759D01*
X93465560Y45079247D01*
X93475776Y45009706D01*
X93480316Y44976338D01*
X93544149Y44599520D01*
X93629453Y44234437D01*
X93736072Y43881600D01*
X93863855Y43541523D01*
X94012647Y43214718D01*
X94117827Y43016292D01*
X94230024Y42832531D01*
X94345549Y42671792D01*
X94465349Y42533089D01*
X94590372Y42415433D01*
X94721564Y42317835D01*
X94859874Y42239310D01*
X95006250Y42178867D01*
X95119377Y42145345D01*
X95303916Y42111767D01*
X95495521Y42101655D01*
X95693584Y42114891D01*
X95897496Y42151351D01*
X96106648Y42210916D01*
X96320432Y42293464D01*
X96538239Y42398875D01*
X96759460Y42527028D01*
X96822841Y42567834D01*
X96917697Y42632194D01*
X97015928Y42702089D01*
X97112582Y42773824D01*
X97202707Y42843701D01*
X97281350Y42908024D01*
X97343560Y42963095D01*
X97385791Y43002060D01*
X97440891Y43049546D01*
X97479875Y43078017D01*
X97502781Y43087500D01*
X97511482Y43083623D01*
X97508096Y43067483D01*
X97488501Y43037250D01*
X97451822Y42991274D01*
X97416180Y42950956D01*
X97361911Y42893645D01*
X97296781Y42827709D01*
X97224793Y42756979D01*
X97149950Y42685283D01*
X97076255Y42616450D01*
X97007711Y42554310D01*
X96948322Y42502692D01*
X96902089Y42465425D01*
X96747708Y42359569D01*
X96569273Y42256780D01*
X96378498Y42164064D01*
X96180644Y42083552D01*
X95980973Y42017378D01*
X95784747Y41967674D01*
X95597226Y41936571D01*
X95574125Y41934258D01*
X95499333Y41929733D01*
X95406983Y41927212D01*
X95302371Y41926579D01*
X95190795Y41927718D01*
X95077553Y41930513D01*
X94967942Y41934847D01*
X94867258Y41940605D01*
X94780800Y41947671D01*
X94713865Y41955928D01*
X94684628Y41960798D01*
X94486400Y42004463D01*
X94278115Y42067885D01*
X94062868Y42150021D01*
X93843750Y42249825D01*
X93700711Y42324061D01*
X93536155Y42421776D01*
X93384788Y42527608D01*
X93240000Y42646260D01*
X93095181Y42782436D01*
X93055815Y42822349D01*
X92943154Y42946625D01*
X92848499Y43069557D01*
X92769651Y43195456D01*
X92704407Y43328637D01*
X92650568Y43473413D01*
X92605931Y43634097D01*
X92568296Y43815003D01*
X92566162Y43826717D01*
X92552873Y43897096D01*
X92539512Y43964122D01*
X92527527Y44020702D01*
X92518365Y44059743D01*
X92516293Y44068653D01*
X92509483Y44114575D01*
X92504367Y44175785D01*
X92500959Y44247257D01*
X92499269Y44323962D01*
X92499311Y44400871D01*
X92501096Y44472958D01*
X92504636Y44535193D01*
X92509945Y44582548D01*
X92517033Y44609996D01*
X92522043Y44621412D01*
X92535289Y44657799D01*
X92551321Y44707192D01*
X92567706Y44762281D01*
X92576561Y44791817D01*
X92614395Y44894262D01*
X92660264Y44989966D01*
X92710995Y45072858D01*
X92763417Y45136865D01*
X92813077Y45179711D01*
X92903670Y45234668D01*
X93008600Y45276333D01*
X93122756Y45302831D01*
X93241026Y45312283D01*
X93279700Y45311161D01*
G37*
G36*
X97384375Y45367122D02*
G01*
X97401950Y45358783D01*
X97412500Y45343147D01*
X97405999Y45333265D01*
X97383335Y45308125D01*
X97346763Y45270667D01*
X97298737Y45223341D01*
X97241707Y45168598D01*
X97178125Y45108888D01*
X97042966Y44981516D01*
X96878987Y44820824D01*
X96731474Y44667809D01*
X96597811Y44519139D01*
X96475382Y44371482D01*
X96361574Y44221507D01*
X96253770Y44065881D01*
X96149355Y43901273D01*
X96045715Y43724351D01*
X95940233Y43531783D01*
X95934795Y43521599D01*
X95893477Y43446481D01*
X95860045Y43389969D01*
X95835084Y43352851D01*
X95819179Y43335914D01*
X95812914Y43339944D01*
X95816874Y43365729D01*
X95824321Y43389469D01*
X95843902Y43440005D01*
X95872759Y43507611D01*
X95909459Y43589344D01*
X95952572Y43682261D01*
X96000664Y43783419D01*
X96052304Y43889873D01*
X96106060Y43998681D01*
X96160500Y44106898D01*
X96214194Y44211583D01*
X96265708Y44309790D01*
X96313611Y44398577D01*
X96356471Y44475000D01*
X96424189Y44589624D01*
X96517438Y44737881D01*
X96609633Y44873790D01*
X96699367Y44995554D01*
X96785237Y45101375D01*
X96865837Y45189456D01*
X96939761Y45258001D01*
X97005606Y45305212D01*
X97007924Y45306557D01*
X97075690Y45336937D01*
X97155545Y45359545D01*
X97239163Y45373020D01*
X97318215Y45375999D01*
X97384375Y45367122D01*
G37*
G36*
X96915101Y45997216D02*
G01*
X96947889Y45988630D01*
X96955866Y45984119D01*
X96968684Y45974170D01*
X96974502Y45962307D01*
X96971863Y45946689D01*
X96959314Y45925473D01*
X96935397Y45896814D01*
X96898659Y45858872D01*
X96847643Y45809803D01*
X96780893Y45747763D01*
X96696955Y45670911D01*
X96561908Y45546055D01*
X96378829Y45370420D01*
X96211417Y45201296D01*
X96056173Y45035006D01*
X95909595Y44867879D01*
X95768183Y44696239D01*
X95728347Y44645793D01*
X95635276Y44522294D01*
X95547004Y44396149D01*
X95460119Y44262174D01*
X95371206Y44115186D01*
X95276854Y43950000D01*
X95235697Y43876316D01*
X95171370Y43761579D01*
X95117815Y43666726D01*
X95074260Y43590439D01*
X95039935Y43531399D01*
X95014068Y43488287D01*
X94995889Y43459783D01*
X94984627Y43444568D01*
X94979509Y43441324D01*
X94979220Y43444536D01*
X94985408Y43467179D01*
X95000354Y43508879D01*
X95022944Y43567035D01*
X95052065Y43639044D01*
X95086604Y43722305D01*
X95125448Y43814216D01*
X95167484Y43912176D01*
X95211599Y44013582D01*
X95256680Y44115833D01*
X95301613Y44216327D01*
X95345287Y44312463D01*
X95386586Y44401638D01*
X95424400Y44481250D01*
X95430547Y44493952D01*
X95563461Y44752302D01*
X95703017Y44993796D01*
X95848094Y45216809D01*
X95997572Y45419717D01*
X96150330Y45600895D01*
X96305250Y45758719D01*
X96340893Y45791722D01*
X96400488Y45844326D01*
X96450759Y45883876D01*
X96496786Y45913867D01*
X96543648Y45937797D01*
X96596424Y45959163D01*
X96612017Y45964501D01*
X96669875Y45979343D01*
X96735506Y45990571D01*
X96802516Y45997651D01*
X96864512Y46000044D01*
X96915101Y45997216D01*
G37*
G36*
X96144020Y46204504D02*
G01*
X96186849Y46201026D01*
X96211211Y46194547D01*
X96213532Y46189087D01*
X96208781Y46177760D01*
X96195428Y46159495D01*
X96172250Y46133043D01*
X96138022Y46097154D01*
X96091519Y46050579D01*
X96031519Y45992071D01*
X95956796Y45920379D01*
X95866126Y45834255D01*
X95758285Y45732450D01*
X95605475Y45584673D01*
X95414478Y45386874D01*
X95238439Y45187524D01*
X95074439Y44982738D01*
X94919557Y44768628D01*
X94770873Y44541309D01*
X94625469Y44296894D01*
X94480425Y44031496D01*
X94439016Y43954369D01*
X94406903Y43897877D01*
X94384059Y43861601D01*
X94369996Y43844239D01*
X94364224Y43844490D01*
X94366256Y43861052D01*
X94375601Y43892625D01*
X94391771Y43937906D01*
X94414276Y43995594D01*
X94442628Y44064388D01*
X94476338Y44142987D01*
X94514916Y44230088D01*
X94557875Y44324392D01*
X94604724Y44424596D01*
X94654974Y44529400D01*
X94708138Y44637500D01*
X94764173Y44748616D01*
X94893449Y44994185D01*
X95019232Y45217815D01*
X95141315Y45419229D01*
X95259489Y45598153D01*
X95373548Y45754312D01*
X95483282Y45887428D01*
X95588485Y45997229D01*
X95688949Y46083437D01*
X95784466Y46145778D01*
X95874828Y46183976D01*
X95914585Y46192376D01*
X95968007Y46198916D01*
X96028272Y46203250D01*
X96089052Y46205179D01*
X96144020Y46204504D01*
G37*
%TO.C,MCU1*%
X167350000Y97955500D02*
X167350000Y95415500D01*
X167350000Y97955500D02*
X169890000Y97955500D01*
X167350000Y95415500D02*
X169890000Y95415500D01*
X169890000Y95415500D02*
X169890000Y97955500D01*
%TO.C,T2*%
X170350000Y57765500D02*
X170350000Y61665500D01*
X170350000Y59715500D02*
X170350000Y63015500D01*
X170350000Y63015500D02*
X167500000Y63015500D01*
X167500000Y63015500D02*
X167500000Y56415500D01*
X167500000Y56415500D02*
X170350000Y56415500D01*
X170350000Y59715500D02*
X170350000Y56415500D01*
%TO.C,B1*%
X167000000Y42715500D02*
X166750000Y42715500D01*
X166750000Y42715500D02*
X166750000Y48715500D01*
X166750000Y48715500D02*
X167000000Y48715500D01*
X170000000Y48715500D02*
X170250000Y48715500D01*
X170250000Y48715500D02*
X170250000Y42715500D01*
X170250000Y42715500D02*
X170000000Y42715500D01*
%TD*%
D12*
%TO.C,PAD1*%
X159000000Y52215500D03*
X161000000Y52215500D03*
X163000000Y52215500D03*
%TD*%
M02*
