M48
; DRILL file {KiCad (6.0.7-1)-1} date 2022 October 05, Wednesday 19:06:07
; FORMAT={-:-/ absolute / inch / decimal}
; #@! TF.CreationDate,2022-10-05T19:06:07+03:00
; #@! TF.GenerationSoftware,Kicad,Pcbnew,(6.0.7-1)-1
; #@! TF.FileFunction,Plated,1,2,PTH
FMAT,2
INCH
; #@! TA.AperFunction,Plated,PTH,ViaDrill
T1C0.0157
; #@! TA.AperFunction,Plated,PTH,ComponentDrill
T2C0.0157
; #@! TA.AperFunction,Plated,PTH,ComponentDrill
T3C0.0430
; #@! TA.AperFunction,Plated,PTH,ComponentDrill
T4C0.0433
; #@! TA.AperFunction,Plated,PTH,ComponentDrill
T5C0.0500
; #@! TA.AperFunction,Plated,PTH,ComponentDrill
T6C0.0512
%
G90
G05
T1
X6.4961Y2.3425
T2
X6.3086Y3.8065
X6.3086Y3.7065
X6.3086Y3.6065
X6.3086Y3.5065
X6.3086Y3.4065
X6.3086Y3.3065
X6.3086Y3.2065
X6.3086Y3.1065
X6.3086Y3.0065
X6.3086Y2.9065
X6.3086Y2.8065
X6.3086Y2.7065
X6.3686Y3.8065
X6.3686Y3.7065
X6.3686Y3.6065
X6.3686Y3.5065
X6.3686Y3.4065
X6.3686Y3.3065
X6.3686Y3.2065
X6.3686Y3.1065
X6.3686Y3.0065
X6.3686Y2.9065
X6.3686Y2.8065
X6.3686Y2.7065
T3
X6.2598Y2.0557
X6.3386Y2.0557
X6.4173Y2.0557
T4
X6.0386Y3.8065
X6.0386Y3.8065
X6.0386Y3.7065
X6.0386Y3.6065
X6.0386Y3.5065
X6.0386Y3.4065
X6.0386Y3.3065
X6.0386Y3.2065
X6.0386Y3.1065
X6.0386Y3.0065
X6.0386Y2.9065
X6.0386Y2.8065
X6.0386Y2.7065
X6.6386Y3.8065
X6.6386Y3.8065
X6.6386Y3.7065
X6.6386Y3.6065
X6.6386Y3.5065
X6.6386Y3.4065
X6.6386Y3.3065
X6.6386Y3.2065
X6.6386Y3.1065
X6.6386Y3.0065
X6.6386Y2.9065
X6.6386Y2.8065
X6.6386Y2.7065
T5
X2.4803Y3.1575
X2.4803Y2.4882
X2.4803Y1.8189
X2.6772Y3.0748
X2.6772Y3.0748
X2.6772Y2.4055
X2.6772Y2.4055
X2.6772Y1.7362
X2.6772Y1.7362
X2.874Y3.1575
X2.874Y2.4882
X2.874Y1.8189
X3.189Y3.6525
X3.189Y2.9832
X3.189Y2.3139
X3.3858Y3.5698
X3.3858Y3.5698
X3.3858Y2.9005
X3.3858Y2.9005
X3.3858Y2.2312
X3.3858Y2.2312
X3.5827Y3.6525
X3.5827Y2.9832
X3.5827Y2.3139
X3.9055Y3.84
X3.9055Y3.1707
X3.9055Y2.5014
X4.1024Y3.7573
X4.1024Y3.7573
X4.1024Y3.088
X4.1024Y3.088
X4.1024Y2.4187
X4.1024Y2.4187
X4.2992Y3.84
X4.2992Y3.1707
X4.2992Y2.5014
X4.6063Y3.6525
X4.6063Y2.9832
X4.6063Y2.3139
X4.8031Y3.5698
X4.8031Y3.5698
X4.8031Y2.9005
X4.8031Y2.9005
X4.8031Y2.2312
X4.8031Y2.2312
X5.0Y3.6525
X5.0Y2.9832
X5.0Y2.3139
X5.3024Y1.3789
X5.3543Y3.54
X5.3543Y2.8707
X5.3543Y2.2014
X5.4819Y1.2633
X5.4819Y1.2633
X5.5512Y3.4573
X5.5512Y3.4573
X5.5512Y2.788
X5.5512Y2.788
X5.5512Y2.1187
X5.5512Y2.1187
X5.6902Y1.3105
X5.748Y3.54
X5.748Y2.8707
X5.748Y2.2014
X6.0244Y1.221
X6.1811Y1.076
X6.1811Y1.076
X6.3943Y1.0863
X6.7079Y0.9401
X6.8371Y0.7701
X6.8371Y0.7701
X7.0489Y0.7432
T6
X6.6339Y1.9278
X6.6339Y1.6719
T0
M30
