G04 #@! TF.GenerationSoftware,KiCad,Pcbnew,5.1.5+dfsg1-2build2*
G04 #@! TF.CreationDate,2022-10-01T08:21:12+00:00*
G04 #@! TF.ProjectId,board,626f6172-642e-46b6-9963-61645f706362,v1.0.0*
G04 #@! TF.SameCoordinates,Original*
G04 #@! TF.FileFunction,Paste,Top*
G04 #@! TF.FilePolarity,Positive*
%FSLAX46Y46*%
G04 Gerber Fmt 4.6, Leading zero omitted, Abs format (unit mm)*
G04 Created by KiCad (PCBNEW 5.1.5+dfsg1-2build2) date 2022-10-01 08:21:12*
%MOMM*%
%LPD*%
G04 APERTURE LIST*
G04 #@! TA.AperFunction,Profile*
%ADD10C,0.150000*%
G04 #@! TD*
%ADD11R,2.600000X2.600000*%
%ADD12C,0.350000*%
%ADD13R,1.250000X0.900000*%
%ADD14R,0.900000X0.900000*%
G04 APERTURE END LIST*
D10*
X58900000Y40400000D02*
X76362107Y40400000D01*
X57900000Y41400000D02*
X57900000Y92600000D01*
X58900000Y93600000D02*
X74900000Y93600000D01*
X76900000Y106173000D02*
X93100000Y106173000D01*
X75900000Y94600000D02*
X75900000Y105173000D01*
X95100000Y110935500D02*
X113300000Y110935500D01*
X114300000Y109935500D02*
X114300000Y107173000D01*
X94100000Y107173000D02*
X94100000Y109935500D01*
X115300000Y106173000D02*
X131100000Y106173000D01*
X132100000Y105173000D02*
X132100000Y104315500D01*
X151100000Y101365500D02*
X151100000Y102315500D01*
X133100000Y103315500D02*
X150100000Y103315500D01*
X181522028Y13173828D02*
G75*
G02X178789978Y12441778I-1732050J1000000D01*
G01*
X181522029Y13173828D02*
X189022029Y26164210D01*
X188374085Y28844898D02*
G75*
G02X189022029Y26164210I-1084107J-1680688D01*
G01*
X150100000Y103315500D02*
G75*
G02X151100000Y102315500I0J-1000000D01*
G01*
X133100000Y103315500D02*
G75*
G02X132100000Y104315500I0J1000000D01*
G01*
X131100000Y106173000D02*
G75*
G02X132100000Y105173000I0J-1000000D01*
G01*
X115300000Y106173000D02*
G75*
G02X114300000Y107173000I0J1000000D01*
G01*
X113300000Y110935500D02*
G75*
G02X114300000Y109935500I0J-1000000D01*
G01*
X94100000Y109935500D02*
G75*
G02X95100000Y110935500I1000000J0D01*
G01*
X94100000Y107173000D02*
G75*
G02X93100000Y106173000I-1000000J0D01*
G01*
X75900000Y105173000D02*
G75*
G02X76900000Y106173000I1000000J0D01*
G01*
X75900000Y94600000D02*
G75*
G02X74900000Y93600000I-1000000J0D01*
G01*
X57900000Y92600000D02*
G75*
G02X58900000Y93600000I1000000J0D01*
G01*
X58900000Y40400000D02*
G75*
G02X57900000Y41400000I0J1000000D01*
G01*
X171288969Y46087542D02*
X188205108Y28982080D01*
X178789978Y12441778D02*
X127662129Y29450048D01*
X127555520Y29479080D02*
X76571152Y40377906D01*
X171000000Y46790703D02*
X171000000Y99365500D01*
X169000000Y101365500D02*
G75*
G02X171000000Y99365500I0J-2000000D01*
G01*
X169000000Y101365500D02*
X151100000Y101365500D01*
X76362107Y40400000D02*
G75*
G02X76571152Y40377906I0J-1000000D01*
G01*
X127555520Y29479080D02*
G75*
G02X127662129Y29450048I-209045J-977906D01*
G01*
X188374085Y28844897D02*
G75*
G02X188205108Y28982080I542053J840344D01*
G01*
X171288969Y46087542D02*
G75*
G02X171000000Y46790703I711031J703161D01*
G01*
D11*
G04 #@! TO.C,S1*
X71275000Y55950000D03*
X59725000Y53750000D03*
G04 #@! TD*
G04 #@! TO.C,S3*
X71275000Y72950000D03*
X59725000Y70750000D03*
G04 #@! TD*
G04 #@! TO.C,S5*
X71275000Y89950000D03*
X59725000Y87750000D03*
G04 #@! TD*
G04 #@! TO.C,S7*
X89275000Y68523000D03*
X77725000Y66323000D03*
G04 #@! TD*
G04 #@! TO.C,S9*
X89275000Y85523000D03*
X77725000Y83323000D03*
G04 #@! TD*
G04 #@! TO.C,S11*
X89275000Y102523000D03*
X77725000Y100323000D03*
G04 #@! TD*
G04 #@! TO.C,S13*
X107475000Y73285500D03*
X95925000Y71085500D03*
G04 #@! TD*
G04 #@! TO.C,S15*
X107475000Y90285500D03*
X95925000Y88085500D03*
G04 #@! TD*
G04 #@! TO.C,S17*
X107475000Y107286000D03*
X95925000Y105086000D03*
G04 #@! TD*
G04 #@! TO.C,S19*
X125275000Y68523000D03*
X113725000Y66323000D03*
G04 #@! TD*
G04 #@! TO.C,S21*
X125275000Y85523000D03*
X113725000Y83323000D03*
G04 #@! TD*
G04 #@! TO.C,S23*
X125275000Y102523000D03*
X113725000Y100323000D03*
G04 #@! TD*
G04 #@! TO.C,S25*
X144275000Y65665500D03*
X132725000Y63465500D03*
G04 #@! TD*
G04 #@! TO.C,S27*
X144275000Y82665500D03*
X132725000Y80465500D03*
G04 #@! TD*
G04 #@! TO.C,S29*
X144275000Y99665500D03*
X132725000Y97465500D03*
G04 #@! TD*
D12*
G04 #@! TO.C,S31*
G36*
X143018459Y42134301D02*
G01*
X143469945Y44694801D01*
X146030445Y44243315D01*
X145578959Y41682815D01*
X143018459Y42134301D01*
G37*
G36*
X131261904Y41973361D02*
G01*
X131713390Y44533861D01*
X134273890Y44082375D01*
X133822404Y41521875D01*
X131261904Y41973361D01*
G37*
G04 #@! TD*
G04 #@! TO.C,S33*
G36*
X162463286Y36567481D02*
G01*
X163352539Y39010682D01*
X165795740Y38121429D01*
X164906487Y35678228D01*
X162463286Y36567481D01*
G37*
G36*
X150857392Y38450490D02*
G01*
X151746645Y40893691D01*
X154189846Y40004438D01*
X153300593Y37561237D01*
X150857392Y38450490D01*
G37*
G04 #@! TD*
G04 #@! TO.C,S35*
G36*
X180647400Y27708518D02*
G01*
X181947400Y29960184D01*
X184199066Y28660184D01*
X182899066Y26408518D01*
X180647400Y27708518D01*
G37*
G36*
X169544807Y31578262D02*
G01*
X170844807Y33829928D01*
X173096473Y32529928D01*
X171796473Y30278262D01*
X169544807Y31578262D01*
G37*
G04 #@! TD*
D13*
G04 #@! TO.C,T1*
X166925000Y57465500D03*
X166925000Y60465500D03*
X166925000Y61965500D03*
D14*
X170100000Y56015500D03*
X167900000Y56015500D03*
X167900000Y63415500D03*
X170100000Y63415500D03*
G04 #@! TD*
M02*
