M48
; DRILL file {KiCad 5.1.5+dfsg1-2build2} date Sat Oct  1 08:21:12 2022
; FORMAT={-:-/ absolute / metric / decimal}
; #@! TF.CreationDate,2022-10-01T08:21:12+00:00
; #@! TF.GenerationSoftware,Kicad,Pcbnew,5.1.5+dfsg1-2build2
FMAT,2
METRIC
T1C0.400
T2C1.092
T3C1.100
T4C1.270
T5C1.300
T6C0.900
T7C1.702
T8C3.000
T9C3.429
%
G90
G05
T1
X113.05Y92.773
X116.819Y104.027
X119.566Y97.998
X132.478Y68.035
X136.751Y87.812
X139.039Y87.459
X146.12Y88.083
X146.807Y74.396
X147.425Y77.863
X148.022Y37.236
X152.139Y79.645
X154.521Y82.694
X154.923Y66.985
X156.749Y67.248
X157.008Y85.638
X157.143Y70.398
X157.692Y88.116
X157.774Y80.558
X157.774Y78.019
X157.774Y72.938
X158.753Y90.593
X159.55Y93.409
X159.557Y95.936
X162.498Y92.341
X162.524Y97.447
X164.212Y74.68
X164.698Y84.873
X164.698Y69.632
X164.718Y72.193
X164.939Y82.332
X164.939Y77.252
X165.7Y60.465
X165.826Y87.748
X165.826Y80.175
X166.713Y66.239
X167.686Y77.426
X170.109Y30.132
X160.238Y96.685
X160.238Y94.145
X160.238Y91.605
X160.238Y89.066
X160.238Y86.525
X160.238Y83.986
X160.238Y81.445
X160.238Y78.906
X160.238Y76.365
X160.238Y73.825
X160.238Y71.285
X160.238Y68.745
X161.762Y96.685
X161.762Y94.145
X161.762Y91.605
X161.762Y89.066
X161.762Y86.525
X161.762Y83.986
X161.762Y81.445
X161.762Y78.906
X161.762Y76.365
X161.762Y73.825
X161.762Y71.285
X161.762Y68.745
T2
X159.0Y52.215
X161.0Y52.215
X163.0Y52.215
T3
X153.38Y96.685
X153.38Y96.685
X153.38Y94.145
X153.38Y91.605
X153.38Y89.066
X153.38Y86.525
X153.38Y83.986
X153.38Y81.445
X153.38Y78.906
X153.38Y76.365
X153.38Y73.825
X153.38Y71.285
X153.38Y68.745
X168.62Y96.685
X168.62Y96.685
X168.62Y94.145
X168.62Y91.605
X168.62Y89.066
X168.62Y86.525
X168.62Y83.986
X168.62Y81.445
X168.62Y78.906
X168.62Y76.365
X168.62Y73.825
X168.62Y71.285
X168.62Y68.745
T4
X136.0Y72.915
X141.0Y70.816
X141.0Y70.816
X146.0Y72.915
X99.2Y63.535
X104.2Y61.435
X104.2Y61.435
X109.2Y63.535
X136.0Y55.915
X141.0Y53.816
X141.0Y53.816
X146.0Y55.915
X117.0Y92.773
X122.0Y90.673
X122.0Y90.673
X127.0Y92.773
X81.0Y92.773
X86.0Y90.673
X86.0Y90.673
X91.0Y92.773
X170.382Y23.878
X173.662Y19.559
X173.662Y19.559
X179.042Y18.878
X63.0Y63.2
X68.0Y61.1
X68.0Y61.1
X73.0Y63.2
X81.0Y75.773
X86.0Y73.673
X86.0Y73.673
X91.0Y75.773
X117.0Y58.773
X122.0Y56.673
X122.0Y56.673
X127.0Y58.773
X153.019Y31.013
X156.999Y27.329
X156.999Y27.329
X162.416Y27.592
X117.0Y75.773
X122.0Y73.673
X122.0Y73.673
X127.0Y75.773
X63.0Y46.2
X68.0Y44.1
X68.0Y44.1
X73.0Y46.2
X99.2Y97.536
X104.2Y95.436
X104.2Y95.436
X109.2Y97.536
X134.682Y35.024
X139.241Y32.088
X139.241Y32.088
X144.53Y33.287
X81.0Y58.773
X86.0Y56.673
X86.0Y56.673
X91.0Y58.773
X63.0Y80.2
X68.0Y78.1
X68.0Y78.1
X73.0Y80.2
X99.2Y80.535
X104.2Y78.435
X104.2Y78.435
X109.2Y80.535
X136.0Y89.915
X141.0Y87.816
X141.0Y87.816
X146.0Y89.915
T5
X168.5Y48.965
X168.5Y42.465
T6
X169.0Y61.215
X169.0Y58.215
X169.0Y61.215
X169.0Y58.215
T7
X135.5Y93.715
X146.5Y93.715
X135.5Y76.715
X146.5Y76.715
X135.5Y76.715
X146.5Y76.715
X98.7Y84.335
X109.7Y84.335
X135.5Y59.715
X146.5Y59.715
X98.7Y67.335
X109.7Y67.335
X98.7Y67.335
X109.7Y67.335
X80.5Y96.573
X91.5Y96.573
X135.5Y59.715
X146.5Y59.715
X171.849Y27.419
X181.375Y21.919
X116.5Y96.573
X127.5Y96.573
X116.5Y96.573
X127.5Y96.573
X153.849Y34.755
X164.185Y30.992
X116.5Y79.573
X127.5Y79.573
X80.5Y62.573
X91.5Y62.573
X80.5Y96.573
X91.5Y96.573
X134.85Y38.853
X145.682Y36.943
X171.849Y27.419
X181.375Y21.919
X62.5Y67.0
X73.5Y67.0
X80.5Y79.573
X91.5Y79.573
X116.5Y62.573
X127.5Y62.573
X62.5Y67.0
X73.5Y67.0
X80.5Y79.573
X91.5Y79.573
X116.5Y62.573
X127.5Y62.573
X62.5Y50.0
X73.5Y50.0
X153.849Y34.755
X164.185Y30.992
X98.7Y101.336
X109.7Y101.336
X116.5Y79.573
X127.5Y79.573
X62.5Y50.0
X73.5Y50.0
X98.7Y101.336
X109.7Y101.336
X134.85Y38.853
X145.682Y36.943
X80.5Y62.573
X91.5Y62.573
X62.5Y84.0
X73.5Y84.0
X62.5Y84.0
X73.5Y84.0
X98.7Y84.335
X109.7Y84.335
X135.5Y93.715
X146.5Y93.715
T8
X63.0Y87.75
X68.0Y89.95
X68.0Y89.95
X73.0Y87.75
X136.0Y97.465
X141.0Y99.665
X141.0Y99.665
X146.0Y97.465
X136.0Y80.465
X141.0Y82.665
X141.0Y82.665
X146.0Y80.465
X99.2Y88.085
X104.2Y90.285
X104.2Y90.285
X109.2Y88.085
X136.0Y63.465
X141.0Y65.665
X141.0Y65.665
X146.0Y63.465
X99.2Y71.085
X104.2Y73.285
X104.2Y73.285
X109.2Y71.085
X81.0Y100.323
X86.0Y102.523
X86.0Y102.523
X91.0Y100.323
X174.157Y30.417
X179.587Y29.822
X179.587Y29.822
X182.817Y25.417
X117.0Y100.323
X122.0Y102.523
X122.0Y102.523
X127.0Y100.323
X155.601Y38.107
X161.052Y38.465
X161.052Y38.465
X164.998Y34.687
X117.0Y83.323
X122.0Y85.523
X122.0Y85.523
X127.0Y83.323
X81.0Y66.323
X86.0Y68.523
X86.0Y68.523
X91.0Y66.323
X135.993Y42.459
X141.299Y43.758
X141.299Y43.758
X145.841Y40.723
X63.0Y70.75
X68.0Y72.95
X68.0Y72.95
X73.0Y70.75
X81.0Y83.323
X86.0Y85.523
X86.0Y85.523
X91.0Y83.323
X117.0Y66.323
X122.0Y68.523
X122.0Y68.523
X127.0Y66.323
X63.0Y53.75
X68.0Y55.95
X68.0Y55.95
X73.0Y53.75
X99.2Y105.086
X104.2Y107.286
X104.2Y107.286
X109.2Y105.086
T9
X122.0Y96.573
X159.017Y32.873
X122.0Y79.573
X86.0Y62.573
X86.0Y96.573
X140.266Y37.898
X176.612Y24.669
X68.0Y67.0
X86.0Y79.573
X122.0Y62.573
X68.0Y67.0
X86.0Y79.573
X122.0Y62.573
X68.0Y50.0
X159.017Y32.873
X104.2Y101.336
X122.0Y79.573
X68.0Y50.0
X104.2Y101.336
X140.266Y37.898
X86.0Y62.573
X68.0Y84.0
X68.0Y84.0
X104.2Y84.335
X141.0Y93.715
X141.0Y93.715
X141.0Y76.715
X141.0Y76.715
X104.2Y84.335
X141.0Y59.715
X104.2Y67.335
X104.2Y67.335
X86.0Y96.573
X141.0Y59.715
X176.612Y24.669
X122.0Y96.573
T0
M30
