G04 #@! TF.GenerationSoftware,KiCad,Pcbnew,5.1.5+dfsg1-2build2*
G04 #@! TF.CreationDate,2022-10-01T08:21:12+00:00*
G04 #@! TF.ProjectId,board,626f6172-642e-46b6-9963-61645f706362,v1.0.0*
G04 #@! TF.SameCoordinates,Original*
G04 #@! TF.FileFunction,Legend,Bot*
G04 #@! TF.FilePolarity,Positive*
%FSLAX46Y46*%
G04 Gerber Fmt 4.6, Leading zero omitted, Abs format (unit mm)*
G04 Created by KiCad (PCBNEW 5.1.5+dfsg1-2build2) date 2022-10-01 08:21:12*
%MOMM*%
%LPD*%
G04 APERTURE LIST*
G04 #@! TA.AperFunction,Profile*
%ADD10C,0.150000*%
G04 #@! TD*
%ADD11C,0.150000*%
G04 APERTURE END LIST*
D10*
X58900000Y40400000D02*
X76362107Y40400000D01*
X57900000Y41400000D02*
X57900000Y92600000D01*
X58900000Y93600000D02*
X74900000Y93600000D01*
X76900000Y106173000D02*
X93100000Y106173000D01*
X75900000Y94600000D02*
X75900000Y105173000D01*
X95100000Y110935500D02*
X113300000Y110935500D01*
X114300000Y109935500D02*
X114300000Y107173000D01*
X94100000Y107173000D02*
X94100000Y109935500D01*
X115300000Y106173000D02*
X131100000Y106173000D01*
X132100000Y105173000D02*
X132100000Y104315500D01*
X151100000Y101365500D02*
X151100000Y102315500D01*
X133100000Y103315500D02*
X150100000Y103315500D01*
X181522028Y13173828D02*
G75*
G02X178789978Y12441778I-1732050J1000000D01*
G01*
X181522029Y13173828D02*
X189022029Y26164210D01*
X188374085Y28844898D02*
G75*
G02X189022029Y26164210I-1084107J-1680688D01*
G01*
X150100000Y103315500D02*
G75*
G02X151100000Y102315500I0J-1000000D01*
G01*
X133100000Y103315500D02*
G75*
G02X132100000Y104315500I0J1000000D01*
G01*
X131100000Y106173000D02*
G75*
G02X132100000Y105173000I0J-1000000D01*
G01*
X115300000Y106173000D02*
G75*
G02X114300000Y107173000I0J1000000D01*
G01*
X113300000Y110935500D02*
G75*
G02X114300000Y109935500I0J-1000000D01*
G01*
X94100000Y109935500D02*
G75*
G02X95100000Y110935500I1000000J0D01*
G01*
X94100000Y107173000D02*
G75*
G02X93100000Y106173000I-1000000J0D01*
G01*
X75900000Y105173000D02*
G75*
G02X76900000Y106173000I1000000J0D01*
G01*
X75900000Y94600000D02*
G75*
G02X74900000Y93600000I-1000000J0D01*
G01*
X57900000Y92600000D02*
G75*
G02X58900000Y93600000I1000000J0D01*
G01*
X58900000Y40400000D02*
G75*
G02X57900000Y41400000I0J1000000D01*
G01*
X171288969Y46087542D02*
X188205108Y28982080D01*
X178789978Y12441778D02*
X127662129Y29450048D01*
X127555520Y29479080D02*
X76571152Y40377906D01*
X171000000Y46790703D02*
X171000000Y99365500D01*
X169000000Y101365500D02*
G75*
G02X171000000Y99365500I0J-2000000D01*
G01*
X169000000Y101365500D02*
X151100000Y101365500D01*
X76362107Y40400000D02*
G75*
G02X76571152Y40377906I0J-1000000D01*
G01*
X127555520Y29479080D02*
G75*
G02X127662129Y29450048I-209045J-977906D01*
G01*
X188374085Y28844897D02*
G75*
G02X188205108Y28982080I542053J840344D01*
G01*
X171288969Y46087542D02*
G75*
G02X171000000Y46790703I711031J703161D01*
G01*
D11*
G04 #@! TO.C,MCU1*
X167350000Y97955500D02*
X167350000Y95415500D01*
X167350000Y97955500D02*
X169890000Y97955500D01*
X167350000Y95415500D02*
X169890000Y95415500D01*
X169890000Y95415500D02*
X169890000Y97955500D01*
G04 #@! TO.C,T2*
X170350000Y57765500D02*
X170350000Y61665500D01*
X170350000Y59715500D02*
X170350000Y63015500D01*
X170350000Y63015500D02*
X167500000Y63015500D01*
X167500000Y63015500D02*
X167500000Y56415500D01*
X167500000Y56415500D02*
X170350000Y56415500D01*
X170350000Y59715500D02*
X170350000Y56415500D01*
G04 #@! TO.C,B1*
X167000000Y42715500D02*
X166750000Y42715500D01*
X166750000Y42715500D02*
X166750000Y48715500D01*
X166750000Y48715500D02*
X167000000Y48715500D01*
X170000000Y48715500D02*
X170250000Y48715500D01*
X170250000Y48715500D02*
X170250000Y42715500D01*
X170250000Y42715500D02*
X170000000Y42715500D01*
G04 #@! TD*
G04 #@! TO.C,PAD1*
X159438095Y50472642D02*
X159323809Y50434547D01*
X159285714Y50396452D01*
X159247619Y50320261D01*
X159247619Y50205976D01*
X159285714Y50129785D01*
X159323809Y50091690D01*
X159400000Y50053595D01*
X159704761Y50053595D01*
X159704761Y50853595D01*
X159438095Y50853595D01*
X159361904Y50815500D01*
X159323809Y50777404D01*
X159285714Y50701214D01*
X159285714Y50625023D01*
X159323809Y50548833D01*
X159361904Y50510738D01*
X159438095Y50472642D01*
X159704761Y50472642D01*
X158904761Y50358357D02*
X158295238Y50358357D01*
X158600000Y50053595D02*
X158600000Y50663119D01*
X161438095Y50472642D02*
X161323809Y50434547D01*
X161285714Y50396452D01*
X161247619Y50320261D01*
X161247619Y50205976D01*
X161285714Y50129785D01*
X161323809Y50091690D01*
X161400000Y50053595D01*
X161704761Y50053595D01*
X161704761Y50853595D01*
X161438095Y50853595D01*
X161361904Y50815500D01*
X161323809Y50777404D01*
X161285714Y50701214D01*
X161285714Y50625023D01*
X161323809Y50548833D01*
X161361904Y50510738D01*
X161438095Y50472642D01*
X161704761Y50472642D01*
X160904761Y50358357D02*
X160295238Y50358357D01*
X163438095Y50472642D02*
X163323809Y50434547D01*
X163285714Y50396452D01*
X163247619Y50320261D01*
X163247619Y50205976D01*
X163285714Y50129785D01*
X163323809Y50091690D01*
X163400000Y50053595D01*
X163704761Y50053595D01*
X163704761Y50853595D01*
X163438095Y50853595D01*
X163361904Y50815500D01*
X163323809Y50777404D01*
X163285714Y50701214D01*
X163285714Y50625023D01*
X163323809Y50548833D01*
X163361904Y50510738D01*
X163438095Y50472642D01*
X163704761Y50472642D01*
X162904761Y50358357D02*
X162295238Y50358357D01*
X162600000Y50053595D02*
X162600000Y50663119D01*
G04 #@! TO.C,B1*
X168952380Y47040880D02*
X168476190Y47374214D01*
X168952380Y47612309D02*
X167952380Y47612309D01*
X167952380Y47231357D01*
X168000000Y47136119D01*
X168047619Y47088500D01*
X168142857Y47040880D01*
X168285714Y47040880D01*
X168380952Y47088500D01*
X168428571Y47136119D01*
X168476190Y47231357D01*
X168476190Y47612309D01*
X168428571Y46612309D02*
X168428571Y46278976D01*
X168952380Y46136119D02*
X168952380Y46612309D01*
X167952380Y46612309D01*
X167952380Y46136119D01*
X168904761Y45755166D02*
X168952380Y45612309D01*
X168952380Y45374214D01*
X168904761Y45278976D01*
X168857142Y45231357D01*
X168761904Y45183738D01*
X168666666Y45183738D01*
X168571428Y45231357D01*
X168523809Y45278976D01*
X168476190Y45374214D01*
X168428571Y45564690D01*
X168380952Y45659928D01*
X168333333Y45707547D01*
X168238095Y45755166D01*
X168142857Y45755166D01*
X168047619Y45707547D01*
X168000000Y45659928D01*
X167952380Y45564690D01*
X167952380Y45326595D01*
X168000000Y45183738D01*
X168428571Y44755166D02*
X168428571Y44421833D01*
X168952380Y44278976D02*
X168952380Y44755166D01*
X167952380Y44755166D01*
X167952380Y44278976D01*
X167952380Y43993261D02*
X167952380Y43421833D01*
X168952380Y43707547D02*
X167952380Y43707547D01*
G04 #@! TD*
M02*
