G04 #@! TF.GenerationSoftware,KiCad,Pcbnew,5.1.5+dfsg1-2build2*
G04 #@! TF.CreationDate,2022-10-01T08:21:12+00:00*
G04 #@! TF.ProjectId,board,626f6172-642e-46b6-9963-61645f706362,v1.0.0*
G04 #@! TF.SameCoordinates,Original*
G04 #@! TF.FileFunction,Legend,Top*
G04 #@! TF.FilePolarity,Positive*
%FSLAX46Y46*%
G04 Gerber Fmt 4.6, Leading zero omitted, Abs format (unit mm)*
G04 Created by KiCad (PCBNEW 5.1.5+dfsg1-2build2) date 2022-10-01 08:21:12*
%MOMM*%
%LPD*%
G04 APERTURE LIST*
G04 #@! TA.AperFunction,Profile*
%ADD10C,0.150000*%
G04 #@! TD*
%ADD11C,0.150000*%
G04 APERTURE END LIST*
D10*
X58900000Y40400000D02*
X76362107Y40400000D01*
X57900000Y41400000D02*
X57900000Y92600000D01*
X58900000Y93600000D02*
X74900000Y93600000D01*
X76900000Y106173000D02*
X93100000Y106173000D01*
X75900000Y94600000D02*
X75900000Y105173000D01*
X95100000Y110935500D02*
X113300000Y110935500D01*
X114300000Y109935500D02*
X114300000Y107173000D01*
X94100000Y107173000D02*
X94100000Y109935500D01*
X115300000Y106173000D02*
X131100000Y106173000D01*
X132100000Y105173000D02*
X132100000Y104315500D01*
X151100000Y101365500D02*
X151100000Y102315500D01*
X133100000Y103315500D02*
X150100000Y103315500D01*
X181522028Y13173828D02*
G75*
G02X178789978Y12441778I-1732050J1000000D01*
G01*
X181522029Y13173828D02*
X189022029Y26164210D01*
X188374085Y28844898D02*
G75*
G02X189022029Y26164210I-1084107J-1680688D01*
G01*
X150100000Y103315500D02*
G75*
G02X151100000Y102315500I0J-1000000D01*
G01*
X133100000Y103315500D02*
G75*
G02X132100000Y104315500I0J1000000D01*
G01*
X131100000Y106173000D02*
G75*
G02X132100000Y105173000I0J-1000000D01*
G01*
X115300000Y106173000D02*
G75*
G02X114300000Y107173000I0J1000000D01*
G01*
X113300000Y110935500D02*
G75*
G02X114300000Y109935500I0J-1000000D01*
G01*
X94100000Y109935500D02*
G75*
G02X95100000Y110935500I1000000J0D01*
G01*
X94100000Y107173000D02*
G75*
G02X93100000Y106173000I-1000000J0D01*
G01*
X75900000Y105173000D02*
G75*
G02X76900000Y106173000I1000000J0D01*
G01*
X75900000Y94600000D02*
G75*
G02X74900000Y93600000I-1000000J0D01*
G01*
X57900000Y92600000D02*
G75*
G02X58900000Y93600000I1000000J0D01*
G01*
X58900000Y40400000D02*
G75*
G02X57900000Y41400000I0J1000000D01*
G01*
X171288969Y46087542D02*
X188205108Y28982080D01*
X178789978Y12441778D02*
X127662129Y29450048D01*
X127555520Y29479080D02*
X76571152Y40377906D01*
X171000000Y46790703D02*
X171000000Y99365500D01*
X169000000Y101365500D02*
G75*
G02X171000000Y99365500I0J-2000000D01*
G01*
X169000000Y101365500D02*
X151100000Y101365500D01*
X76362107Y40400000D02*
G75*
G02X76571152Y40377906I0J-1000000D01*
G01*
X127555520Y29479080D02*
G75*
G02X127662129Y29450048I-209045J-977906D01*
G01*
X188374085Y28844897D02*
G75*
G02X188205108Y28982080I542053J840344D01*
G01*
X171288969Y46087542D02*
G75*
G02X171000000Y46790703I711031J703161D01*
G01*
D11*
G04 #@! TO.C,MCU1*
X154650000Y97955500D02*
X154650000Y95415500D01*
X154650000Y97955500D02*
X152110000Y97955500D01*
X154650000Y95415500D02*
X152110000Y95415500D01*
X152110000Y95415500D02*
X152110000Y97955500D01*
G04 #@! TO.C,T1*
X170350000Y57765500D02*
X170350000Y61665500D01*
X170350000Y59715500D02*
X170350000Y63015500D01*
X170350000Y63015500D02*
X167500000Y63015500D01*
X167500000Y63015500D02*
X167500000Y56415500D01*
X167500000Y56415500D02*
X170350000Y56415500D01*
X170350000Y59715500D02*
X170350000Y56415500D01*
G04 #@! TO.C,B1*
X166750000Y48715500D02*
X166750000Y42715500D01*
X166750000Y42715500D02*
X167000000Y42715500D01*
X166750000Y48715500D02*
X167000000Y48715500D01*
X170250000Y48715500D02*
X170000000Y48715500D01*
X170250000Y48715500D02*
X170250000Y42715500D01*
X170250000Y42715500D02*
X170000000Y42715500D01*
G04 #@! TD*
G04 #@! TO.C,MCU1*
G04 #@! TO.C,PAD1*
X158561904Y50472642D02*
X158676190Y50434547D01*
X158714285Y50396452D01*
X158752380Y50320261D01*
X158752380Y50205976D01*
X158714285Y50129785D01*
X158676190Y50091690D01*
X158600000Y50053595D01*
X158295238Y50053595D01*
X158295238Y50853595D01*
X158561904Y50853595D01*
X158638095Y50815500D01*
X158676190Y50777404D01*
X158714285Y50701214D01*
X158714285Y50625023D01*
X158676190Y50548833D01*
X158638095Y50510738D01*
X158561904Y50472642D01*
X158295238Y50472642D01*
X159095238Y50358357D02*
X159704761Y50358357D01*
X159400000Y50053595D02*
X159400000Y50663119D01*
X160561904Y50472642D02*
X160676190Y50434547D01*
X160714285Y50396452D01*
X160752380Y50320261D01*
X160752380Y50205976D01*
X160714285Y50129785D01*
X160676190Y50091690D01*
X160600000Y50053595D01*
X160295238Y50053595D01*
X160295238Y50853595D01*
X160561904Y50853595D01*
X160638095Y50815500D01*
X160676190Y50777404D01*
X160714285Y50701214D01*
X160714285Y50625023D01*
X160676190Y50548833D01*
X160638095Y50510738D01*
X160561904Y50472642D01*
X160295238Y50472642D01*
X161095238Y50358357D02*
X161704761Y50358357D01*
X162561904Y50472642D02*
X162676190Y50434547D01*
X162714285Y50396452D01*
X162752380Y50320261D01*
X162752380Y50205976D01*
X162714285Y50129785D01*
X162676190Y50091690D01*
X162600000Y50053595D01*
X162295238Y50053595D01*
X162295238Y50853595D01*
X162561904Y50853595D01*
X162638095Y50815500D01*
X162676190Y50777404D01*
X162714285Y50701214D01*
X162714285Y50625023D01*
X162676190Y50548833D01*
X162638095Y50510738D01*
X162561904Y50472642D01*
X162295238Y50472642D01*
X163095238Y50358357D02*
X163704761Y50358357D01*
X163400000Y50053595D02*
X163400000Y50663119D01*
G04 #@! TO.C,B1*
X168952380Y44263119D02*
X168476190Y43929785D01*
X168952380Y43691690D02*
X167952380Y43691690D01*
X167952380Y44072642D01*
X168000000Y44167880D01*
X168047619Y44215500D01*
X168142857Y44263119D01*
X168285714Y44263119D01*
X168380952Y44215500D01*
X168428571Y44167880D01*
X168476190Y44072642D01*
X168476190Y43691690D01*
X168428571Y44691690D02*
X168428571Y45025023D01*
X168952380Y45167880D02*
X168952380Y44691690D01*
X167952380Y44691690D01*
X167952380Y45167880D01*
X168904761Y45548833D02*
X168952380Y45691690D01*
X168952380Y45929785D01*
X168904761Y46025023D01*
X168857142Y46072642D01*
X168761904Y46120261D01*
X168666666Y46120261D01*
X168571428Y46072642D01*
X168523809Y46025023D01*
X168476190Y45929785D01*
X168428571Y45739309D01*
X168380952Y45644071D01*
X168333333Y45596452D01*
X168238095Y45548833D01*
X168142857Y45548833D01*
X168047619Y45596452D01*
X168000000Y45644071D01*
X167952380Y45739309D01*
X167952380Y45977404D01*
X168000000Y46120261D01*
X168428571Y46548833D02*
X168428571Y46882166D01*
X168952380Y47025023D02*
X168952380Y46548833D01*
X167952380Y46548833D01*
X167952380Y47025023D01*
X167952380Y47310738D02*
X167952380Y47882166D01*
X168952380Y47596452D02*
X167952380Y47596452D01*
G04 #@! TD*
M02*
