G04 #@! TF.GenerationSoftware,KiCad,Pcbnew,5.1.5+dfsg1-2build2*
G04 #@! TF.CreationDate,2022-10-01T08:21:12+00:00*
G04 #@! TF.ProjectId,board,626f6172-642e-46b6-9963-61645f706362,v1.0.0*
G04 #@! TF.SameCoordinates,Original*
G04 #@! TF.FileFunction,Profile,NP*
%FSLAX46Y46*%
G04 Gerber Fmt 4.6, Leading zero omitted, Abs format (unit mm)*
G04 Created by KiCad (PCBNEW 5.1.5+dfsg1-2build2) date 2022-10-01 08:21:12*
%MOMM*%
%LPD*%
G04 APERTURE LIST*
G04 #@! TA.AperFunction,Profile*
%ADD10C,0.150000*%
G04 #@! TD*
G04 APERTURE END LIST*
D10*
X58900000Y40400000D02*
X76362107Y40400000D01*
X57900000Y41400000D02*
X57900000Y92600000D01*
X58900000Y93600000D02*
X74900000Y93600000D01*
X76900000Y106173000D02*
X93100000Y106173000D01*
X75900000Y94600000D02*
X75900000Y105173000D01*
X95100000Y110935500D02*
X113300000Y110935500D01*
X114300000Y109935500D02*
X114300000Y107173000D01*
X94100000Y107173000D02*
X94100000Y109935500D01*
X115300000Y106173000D02*
X131100000Y106173000D01*
X132100000Y105173000D02*
X132100000Y104315500D01*
X151100000Y101365500D02*
X151100000Y102315500D01*
X133100000Y103315500D02*
X150100000Y103315500D01*
X181522028Y13173828D02*
G75*
G02X178789978Y12441778I-1732050J1000000D01*
G01*
X181522029Y13173828D02*
X189022029Y26164210D01*
X188374085Y28844898D02*
G75*
G02X189022029Y26164210I-1084107J-1680688D01*
G01*
X150100000Y103315500D02*
G75*
G02X151100000Y102315500I0J-1000000D01*
G01*
X133100000Y103315500D02*
G75*
G02X132100000Y104315500I0J1000000D01*
G01*
X131100000Y106173000D02*
G75*
G02X132100000Y105173000I0J-1000000D01*
G01*
X115300000Y106173000D02*
G75*
G02X114300000Y107173000I0J1000000D01*
G01*
X113300000Y110935500D02*
G75*
G02X114300000Y109935500I0J-1000000D01*
G01*
X94100000Y109935500D02*
G75*
G02X95100000Y110935500I1000000J0D01*
G01*
X94100000Y107173000D02*
G75*
G02X93100000Y106173000I-1000000J0D01*
G01*
X75900000Y105173000D02*
G75*
G02X76900000Y106173000I1000000J0D01*
G01*
X75900000Y94600000D02*
G75*
G02X74900000Y93600000I-1000000J0D01*
G01*
X57900000Y92600000D02*
G75*
G02X58900000Y93600000I1000000J0D01*
G01*
X58900000Y40400000D02*
G75*
G02X57900000Y41400000I0J1000000D01*
G01*
X171288969Y46087542D02*
X188205108Y28982080D01*
X178789978Y12441778D02*
X127662129Y29450048D01*
X127555520Y29479080D02*
X76571152Y40377906D01*
X171000000Y46790703D02*
X171000000Y99365500D01*
X169000000Y101365500D02*
G75*
G02X171000000Y99365500I0J-2000000D01*
G01*
X169000000Y101365500D02*
X151100000Y101365500D01*
X76362107Y40400000D02*
G75*
G02X76571152Y40377906I0J-1000000D01*
G01*
X127555520Y29479080D02*
G75*
G02X127662129Y29450048I-209045J-977906D01*
G01*
X188374085Y28844897D02*
G75*
G02X188205108Y28982080I542053J840344D01*
G01*
X171288969Y46087542D02*
G75*
G02X171000000Y46790703I711031J703161D01*
G01*
M02*
