G04 #@! TF.GenerationSoftware,KiCad,Pcbnew,5.1.5+dfsg1-2build2*
G04 #@! TF.CreationDate,2022-10-01T08:21:12+00:00*
G04 #@! TF.ProjectId,board,626f6172-642e-46b6-9963-61645f706362,v1.0.0*
G04 #@! TF.SameCoordinates,Original*
G04 #@! TF.FileFunction,Copper,L2,Bot*
G04 #@! TF.FilePolarity,Positive*
%FSLAX46Y46*%
G04 Gerber Fmt 4.6, Leading zero omitted, Abs format (unit mm)*
G04 Created by KiCad (PCBNEW 5.1.5+dfsg1-2build2) date 2022-10-01 08:21:12*
%MOMM*%
%LPD*%
G04 APERTURE LIST*
G04 #@! TA.AperFunction,Profile*
%ADD10C,0.150000*%
G04 #@! TD*
G04 #@! TA.AperFunction,SMDPad,CuDef*
%ADD11R,2.600000X2.600000*%
G04 #@! TD*
G04 #@! TA.AperFunction,ComponentPad*
%ADD12C,2.032000*%
G04 #@! TD*
G04 #@! TA.AperFunction,SMDPad,CuDef*
%ADD13C,0.350000*%
G04 #@! TD*
G04 #@! TA.AperFunction,ComponentPad*
%ADD14C,1.600000*%
G04 #@! TD*
G04 #@! TA.AperFunction,ComponentPad*
%ADD15R,1.600000X1.600000*%
G04 #@! TD*
G04 #@! TA.AperFunction,Conductor*
%ADD16C,0.350000*%
G04 #@! TD*
G04 #@! TA.AperFunction,ViaPad*
%ADD17C,0.800000*%
G04 #@! TD*
G04 #@! TA.AperFunction,WasherPad*
%ADD18C,1.000000*%
G04 #@! TD*
G04 #@! TA.AperFunction,SMDPad,CuDef*
%ADD19R,1.250000X0.900000*%
G04 #@! TD*
G04 #@! TA.AperFunction,SMDPad,CuDef*
%ADD20R,0.900000X0.900000*%
G04 #@! TD*
G04 #@! TA.AperFunction,ComponentPad*
%ADD21C,0.350000*%
G04 #@! TD*
G04 #@! TA.AperFunction,ComponentPad*
%ADD22C,2.000000*%
G04 #@! TD*
G04 #@! TA.AperFunction,Conductor*
%ADD23C,0.250000*%
G04 #@! TD*
G04 #@! TA.AperFunction,Conductor*
%ADD24C,0.500000*%
G04 #@! TD*
G04 APERTURE END LIST*
D10*
X58900000Y40400000D02*
X76362107Y40400000D01*
X57900000Y41400000D02*
X57900000Y92600000D01*
X58900000Y93600000D02*
X74900000Y93600000D01*
X76900000Y106173000D02*
X93100000Y106173000D01*
X75900000Y94600000D02*
X75900000Y105173000D01*
X95100000Y110935500D02*
X113300000Y110935500D01*
X114300000Y109935500D02*
X114300000Y107173000D01*
X94100000Y107173000D02*
X94100000Y109935500D01*
X115300000Y106173000D02*
X131100000Y106173000D01*
X132100000Y105173000D02*
X132100000Y104315500D01*
X151100000Y101365500D02*
X151100000Y102315500D01*
X133100000Y103315500D02*
X150100000Y103315500D01*
X181522028Y13173828D02*
G75*
G02X178789978Y12441778I-1732050J1000000D01*
G01*
X181522029Y13173828D02*
X189022029Y26164210D01*
X188374085Y28844898D02*
G75*
G02X189022029Y26164210I-1084107J-1680688D01*
G01*
X150100000Y103315500D02*
G75*
G02X151100000Y102315500I0J-1000000D01*
G01*
X133100000Y103315500D02*
G75*
G02X132100000Y104315500I0J1000000D01*
G01*
X131100000Y106173000D02*
G75*
G02X132100000Y105173000I0J-1000000D01*
G01*
X115300000Y106173000D02*
G75*
G02X114300000Y107173000I0J1000000D01*
G01*
X113300000Y110935500D02*
G75*
G02X114300000Y109935500I0J-1000000D01*
G01*
X94100000Y109935500D02*
G75*
G02X95100000Y110935500I1000000J0D01*
G01*
X94100000Y107173000D02*
G75*
G02X93100000Y106173000I-1000000J0D01*
G01*
X75900000Y105173000D02*
G75*
G02X76900000Y106173000I1000000J0D01*
G01*
X75900000Y94600000D02*
G75*
G02X74900000Y93600000I-1000000J0D01*
G01*
X57900000Y92600000D02*
G75*
G02X58900000Y93600000I1000000J0D01*
G01*
X58900000Y40400000D02*
G75*
G02X57900000Y41400000I0J1000000D01*
G01*
X171288969Y46087542D02*
X188205108Y28982080D01*
X178789978Y12441778D02*
X127662129Y29450048D01*
X127555520Y29479080D02*
X76571152Y40377906D01*
X171000000Y46790703D02*
X171000000Y99365500D01*
X169000000Y101365500D02*
G75*
G02X171000000Y99365500I0J-2000000D01*
G01*
X169000000Y101365500D02*
X151100000Y101365500D01*
X76362107Y40400000D02*
G75*
G02X76571152Y40377906I0J-1000000D01*
G01*
X127555520Y29479080D02*
G75*
G02X127662129Y29450048I-209045J-977906D01*
G01*
X188374085Y28844897D02*
G75*
G02X188205108Y28982080I542053J840344D01*
G01*
X171288969Y46087542D02*
G75*
G02X171000000Y46790703I711031J703161D01*
G01*
D11*
G04 #@! TO.P,S1,1*
G04 #@! TO.N,P6*
X64725000Y55950000D03*
G04 #@! TO.P,S1,2*
G04 #@! TO.N,GND*
X76275000Y53750000D03*
G04 #@! TD*
D12*
G04 #@! TO.P,S2,1*
G04 #@! TO.N,P6*
X63000000Y46200000D03*
G04 #@! TO.P,S2,2*
G04 #@! TO.N,GND*
X68000000Y44100000D03*
G04 #@! TO.P,S2,1*
G04 #@! TO.N,P6*
X73000000Y46200000D03*
G04 #@! TO.P,S2,2*
G04 #@! TO.N,GND*
X68000000Y44100000D03*
G04 #@! TD*
D11*
G04 #@! TO.P,S3,1*
G04 #@! TO.N,P5*
X64725000Y72950000D03*
G04 #@! TO.P,S3,2*
G04 #@! TO.N,GND*
X76275000Y70750000D03*
G04 #@! TD*
D12*
G04 #@! TO.P,S4,1*
G04 #@! TO.N,P5*
X63000000Y63200000D03*
G04 #@! TO.P,S4,2*
G04 #@! TO.N,GND*
X68000000Y61100000D03*
G04 #@! TO.P,S4,1*
G04 #@! TO.N,P5*
X73000000Y63200000D03*
G04 #@! TO.P,S4,2*
G04 #@! TO.N,GND*
X68000000Y61100000D03*
G04 #@! TD*
D11*
G04 #@! TO.P,S5,1*
G04 #@! TO.N,P4*
X64725000Y89950000D03*
G04 #@! TO.P,S5,2*
G04 #@! TO.N,GND*
X76275000Y87750000D03*
G04 #@! TD*
D12*
G04 #@! TO.P,S6,1*
G04 #@! TO.N,P4*
X63000000Y80200000D03*
G04 #@! TO.P,S6,2*
G04 #@! TO.N,GND*
X68000000Y78100000D03*
G04 #@! TO.P,S6,1*
G04 #@! TO.N,P4*
X73000000Y80200000D03*
G04 #@! TO.P,S6,2*
G04 #@! TO.N,GND*
X68000000Y78100000D03*
G04 #@! TD*
D11*
G04 #@! TO.P,S7,1*
G04 #@! TO.N,P3*
X82725000Y68523000D03*
G04 #@! TO.P,S7,2*
G04 #@! TO.N,GND*
X94275000Y66323000D03*
G04 #@! TD*
D12*
G04 #@! TO.P,S8,1*
G04 #@! TO.N,P3*
X81000000Y58773000D03*
G04 #@! TO.P,S8,2*
G04 #@! TO.N,GND*
X86000000Y56673000D03*
G04 #@! TO.P,S8,1*
G04 #@! TO.N,P3*
X91000000Y58773000D03*
G04 #@! TO.P,S8,2*
G04 #@! TO.N,GND*
X86000000Y56673000D03*
G04 #@! TD*
D11*
G04 #@! TO.P,S9,1*
G04 #@! TO.N,P2*
X82725000Y85523000D03*
G04 #@! TO.P,S9,2*
G04 #@! TO.N,GND*
X94275000Y83323000D03*
G04 #@! TD*
D12*
G04 #@! TO.P,S10,1*
G04 #@! TO.N,P2*
X81000000Y75773000D03*
G04 #@! TO.P,S10,2*
G04 #@! TO.N,GND*
X86000000Y73673000D03*
G04 #@! TO.P,S10,1*
G04 #@! TO.N,P2*
X91000000Y75773000D03*
G04 #@! TO.P,S10,2*
G04 #@! TO.N,GND*
X86000000Y73673000D03*
G04 #@! TD*
D11*
G04 #@! TO.P,S11,1*
G04 #@! TO.N,P0*
X82725000Y102523000D03*
G04 #@! TO.P,S11,2*
G04 #@! TO.N,GND*
X94275000Y100323000D03*
G04 #@! TD*
D12*
G04 #@! TO.P,S12,1*
G04 #@! TO.N,P0*
X81000000Y92773000D03*
G04 #@! TO.P,S12,2*
G04 #@! TO.N,GND*
X86000000Y90673000D03*
G04 #@! TO.P,S12,1*
G04 #@! TO.N,P0*
X91000000Y92773000D03*
G04 #@! TO.P,S12,2*
G04 #@! TO.N,GND*
X86000000Y90673000D03*
G04 #@! TD*
D11*
G04 #@! TO.P,S13,1*
G04 #@! TO.N,P1*
X100925000Y73285500D03*
G04 #@! TO.P,S13,2*
G04 #@! TO.N,GND*
X112475000Y71085500D03*
G04 #@! TD*
D12*
G04 #@! TO.P,S14,1*
G04 #@! TO.N,P1*
X99200000Y63535500D03*
G04 #@! TO.P,S14,2*
G04 #@! TO.N,GND*
X104200000Y61435500D03*
G04 #@! TO.P,S14,1*
G04 #@! TO.N,P1*
X109200000Y63535500D03*
G04 #@! TO.P,S14,2*
G04 #@! TO.N,GND*
X104200000Y61435500D03*
G04 #@! TD*
D11*
G04 #@! TO.P,S15,1*
G04 #@! TO.N,P16*
X100925000Y90285500D03*
G04 #@! TO.P,S15,2*
G04 #@! TO.N,GND*
X112475000Y88085500D03*
G04 #@! TD*
D12*
G04 #@! TO.P,S16,1*
G04 #@! TO.N,P16*
X99200000Y80535500D03*
G04 #@! TO.P,S16,2*
G04 #@! TO.N,GND*
X104200000Y78435500D03*
G04 #@! TO.P,S16,1*
G04 #@! TO.N,P16*
X109200000Y80535500D03*
G04 #@! TO.P,S16,2*
G04 #@! TO.N,GND*
X104200000Y78435500D03*
G04 #@! TD*
D11*
G04 #@! TO.P,S17,1*
G04 #@! TO.N,P10*
X100925000Y107286000D03*
G04 #@! TO.P,S17,2*
G04 #@! TO.N,GND*
X112475000Y105086000D03*
G04 #@! TD*
D12*
G04 #@! TO.P,S18,1*
G04 #@! TO.N,P10*
X99200000Y97536000D03*
G04 #@! TO.P,S18,2*
G04 #@! TO.N,GND*
X104200000Y95436000D03*
G04 #@! TO.P,S18,1*
G04 #@! TO.N,P10*
X109200000Y97536000D03*
G04 #@! TO.P,S18,2*
G04 #@! TO.N,GND*
X104200000Y95436000D03*
G04 #@! TD*
D11*
G04 #@! TO.P,S19,1*
G04 #@! TO.N,P14*
X118725000Y68523000D03*
G04 #@! TO.P,S19,2*
G04 #@! TO.N,GND*
X130275000Y66323000D03*
G04 #@! TD*
D12*
G04 #@! TO.P,S20,1*
G04 #@! TO.N,P14*
X117000000Y58773000D03*
G04 #@! TO.P,S20,2*
G04 #@! TO.N,GND*
X122000000Y56673000D03*
G04 #@! TO.P,S20,1*
G04 #@! TO.N,P14*
X127000000Y58773000D03*
G04 #@! TO.P,S20,2*
G04 #@! TO.N,GND*
X122000000Y56673000D03*
G04 #@! TD*
D11*
G04 #@! TO.P,S21,1*
G04 #@! TO.N,P15*
X118725000Y85523000D03*
G04 #@! TO.P,S21,2*
G04 #@! TO.N,GND*
X130275000Y83323000D03*
G04 #@! TD*
D12*
G04 #@! TO.P,S22,1*
G04 #@! TO.N,P15*
X117000000Y75773000D03*
G04 #@! TO.P,S22,2*
G04 #@! TO.N,GND*
X122000000Y73673000D03*
G04 #@! TO.P,S22,1*
G04 #@! TO.N,P15*
X127000000Y75773000D03*
G04 #@! TO.P,S22,2*
G04 #@! TO.N,GND*
X122000000Y73673000D03*
G04 #@! TD*
D11*
G04 #@! TO.P,S23,1*
G04 #@! TO.N,P18*
X118725000Y102523000D03*
G04 #@! TO.P,S23,2*
G04 #@! TO.N,GND*
X130275000Y100323000D03*
G04 #@! TD*
D12*
G04 #@! TO.P,S24,1*
G04 #@! TO.N,P18*
X117000000Y92773000D03*
G04 #@! TO.P,S24,2*
G04 #@! TO.N,GND*
X122000000Y90673000D03*
G04 #@! TO.P,S24,1*
G04 #@! TO.N,P18*
X127000000Y92773000D03*
G04 #@! TO.P,S24,2*
G04 #@! TO.N,GND*
X122000000Y90673000D03*
G04 #@! TD*
D11*
G04 #@! TO.P,S25,1*
G04 #@! TO.N,P19*
X137725000Y65665500D03*
G04 #@! TO.P,S25,2*
G04 #@! TO.N,GND*
X149275000Y63465500D03*
G04 #@! TD*
D12*
G04 #@! TO.P,S26,1*
G04 #@! TO.N,P19*
X136000000Y55915500D03*
G04 #@! TO.P,S26,2*
G04 #@! TO.N,GND*
X141000000Y53815500D03*
G04 #@! TO.P,S26,1*
G04 #@! TO.N,P19*
X146000000Y55915500D03*
G04 #@! TO.P,S26,2*
G04 #@! TO.N,GND*
X141000000Y53815500D03*
G04 #@! TD*
D11*
G04 #@! TO.P,S27,1*
G04 #@! TO.N,P20*
X137725000Y82665500D03*
G04 #@! TO.P,S27,2*
G04 #@! TO.N,GND*
X149275000Y80465500D03*
G04 #@! TD*
D12*
G04 #@! TO.P,S28,1*
G04 #@! TO.N,P20*
X136000000Y72915500D03*
G04 #@! TO.P,S28,2*
G04 #@! TO.N,GND*
X141000000Y70815500D03*
G04 #@! TO.P,S28,1*
G04 #@! TO.N,P20*
X146000000Y72915500D03*
G04 #@! TO.P,S28,2*
G04 #@! TO.N,GND*
X141000000Y70815500D03*
G04 #@! TD*
D11*
G04 #@! TO.P,S29,1*
G04 #@! TO.N,P21*
X137725000Y99665500D03*
G04 #@! TO.P,S29,2*
G04 #@! TO.N,GND*
X149275000Y97465500D03*
G04 #@! TD*
D12*
G04 #@! TO.P,S30,1*
G04 #@! TO.N,P21*
X136000000Y89915500D03*
G04 #@! TO.P,S30,2*
G04 #@! TO.N,GND*
X141000000Y87815500D03*
G04 #@! TO.P,S30,1*
G04 #@! TO.N,P21*
X146000000Y89915500D03*
G04 #@! TO.P,S30,2*
G04 #@! TO.N,GND*
X141000000Y87815500D03*
G04 #@! TD*
G04 #@! TA.AperFunction,SMDPad,CuDef*
D13*
G04 #@! TO.P,S31,1*
G04 #@! TO.N,P7*
G36*
X136567968Y43271697D02*
G01*
X137019454Y45832197D01*
X139579954Y45380711D01*
X139128468Y42820211D01*
X136567968Y43271697D01*
G37*
G04 #@! TD.AperFunction*
G04 #@! TA.AperFunction,SMDPad,CuDef*
G04 #@! TO.P,S31,2*
G04 #@! TO.N,GND*
G36*
X147560472Y39099483D02*
G01*
X148011958Y41659983D01*
X150572458Y41208497D01*
X150120972Y38647997D01*
X147560472Y39099483D01*
G37*
G04 #@! TD.AperFunction*
G04 #@! TD*
D12*
G04 #@! TO.P,S32,1*
G04 #@! TO.N,P7*
X134682098Y35023871D03*
G04 #@! TO.P,S32,2*
G04 #@! TO.N,GND*
X139241476Y32087534D03*
G04 #@! TO.P,S32,1*
G04 #@! TO.N,P7*
X144530176Y33287390D03*
G04 #@! TO.P,S32,2*
G04 #@! TO.N,GND*
X139241476Y32087534D03*
G04 #@! TD*
G04 #@! TA.AperFunction,SMDPad,CuDef*
D13*
G04 #@! TO.P,S33,1*
G04 #@! TO.N,P8*
G36*
X156308300Y38807713D02*
G01*
X157197553Y41250914D01*
X159640754Y40361661D01*
X158751501Y37918460D01*
X156308300Y38807713D01*
G37*
G04 #@! TD.AperFunction*
G04 #@! TA.AperFunction,SMDPad,CuDef*
G04 #@! TO.P,S33,2*
G04 #@! TO.N,GND*
G36*
X166409305Y32790057D02*
G01*
X167298558Y35233258D01*
X169741759Y34344005D01*
X168852506Y31900804D01*
X166409305Y32790057D01*
G37*
G04 #@! TD.AperFunction*
G04 #@! TD*
D12*
G04 #@! TO.P,S34,1*
G04 #@! TO.N,P8*
X153018860Y31012669D03*
G04 #@! TO.P,S34,2*
G04 #@! TO.N,GND*
X156999081Y27329214D03*
G04 #@! TO.P,S34,1*
G04 #@! TO.N,P8*
X162415787Y27592467D03*
G04 #@! TO.P,S34,2*
G04 #@! TO.N,GND*
X156999081Y27329214D03*
G04 #@! TD*
G04 #@! TA.AperFunction,SMDPad,CuDef*
D13*
G04 #@! TO.P,S35,1*
G04 #@! TO.N,P9*
G36*
X174974934Y30983518D02*
G01*
X176274934Y33235184D01*
X178526600Y31935184D01*
X177226600Y29683518D01*
X174974934Y30983518D01*
G37*
G04 #@! TD.AperFunction*
G04 #@! TA.AperFunction,SMDPad,CuDef*
G04 #@! TO.P,S35,2*
G04 #@! TO.N,GND*
G36*
X183877527Y23303262D02*
G01*
X185177527Y25554928D01*
X187429193Y24254928D01*
X186129193Y22003262D01*
X183877527Y23303262D01*
G37*
G04 #@! TD.AperFunction*
G04 #@! TD*
D12*
G04 #@! TO.P,S36,1*
G04 #@! TO.N,P9*
X170381873Y23878103D03*
G04 #@! TO.P,S36,2*
G04 #@! TO.N,GND*
X173662000Y19559450D03*
G04 #@! TO.P,S36,1*
G04 #@! TO.N,P9*
X179042127Y18878103D03*
G04 #@! TO.P,S36,2*
G04 #@! TO.N,GND*
X173662000Y19559450D03*
G04 #@! TD*
D14*
G04 #@! TO.P,MCU1,*
G04 #@! TO.N,*
X153380000Y96685500D03*
X153380000Y94145500D03*
X153380000Y91605500D03*
X153380000Y89065500D03*
X153380000Y86525500D03*
X153380000Y83985500D03*
X153380000Y81445500D03*
X153380000Y78905500D03*
X153380000Y76365500D03*
X153380000Y73825500D03*
X153380000Y71285500D03*
X153380000Y68745500D03*
X168620000Y68745500D03*
X168620000Y71285500D03*
X168620000Y73825500D03*
X168620000Y76365500D03*
X168620000Y78905500D03*
X168620000Y81445500D03*
X168620000Y83985500D03*
X168620000Y86525500D03*
X168620000Y89065500D03*
X168620000Y91605500D03*
X168620000Y94145500D03*
X168620000Y96685500D03*
D15*
X168620000Y96685500D03*
G04 #@! TA.AperFunction,Conductor*
D16*
G04 #@! TD*
G04 #@! TO.N,*
G04 #@! TO.C,MCU1*
G36*
X155150000Y96810500D02*
G01*
X155150000Y96560500D01*
X154150000Y96560500D01*
X154150000Y96810500D01*
X155150000Y96810500D01*
G37*
G04 #@! TD.AperFunction*
G04 #@! TA.AperFunction,SMDPad,CuDef*
D13*
G04 #@! TO.P,MCU1,1*
G04 #@! TO.N,RAW*
G36*
X156424000Y97285500D02*
G01*
X156424000Y96085500D01*
X155174000Y96085500D01*
X155774000Y96685500D01*
X155174000Y97285500D01*
X156424000Y97285500D01*
G37*
G04 #@! TD.AperFunction*
G04 #@! TA.AperFunction,SMDPad,CuDef*
G04 #@! TO.P,MCU1,*
G04 #@! TO.N,*
G36*
X154958000Y97285500D02*
G01*
X155558000Y96685500D01*
X154958000Y96085500D01*
X154758000Y96085500D01*
X154758000Y97285500D01*
X154958000Y97285500D01*
G37*
G04 #@! TD.AperFunction*
G04 #@! TA.AperFunction,Conductor*
D16*
G04 #@! TD*
G04 #@! TO.N,*
G04 #@! TO.C,MCU1*
G36*
X155150000Y94270500D02*
G01*
X155150000Y94020500D01*
X154150000Y94020500D01*
X154150000Y94270500D01*
X155150000Y94270500D01*
G37*
G04 #@! TD.AperFunction*
G04 #@! TA.AperFunction,SMDPad,CuDef*
D13*
G04 #@! TO.P,MCU1,*
G04 #@! TO.N,*
G36*
X154958000Y94745500D02*
G01*
X155558000Y94145500D01*
X154958000Y93545500D01*
X154758000Y93545500D01*
X154758000Y94745500D01*
X154958000Y94745500D01*
G37*
G04 #@! TD.AperFunction*
G04 #@! TA.AperFunction,SMDPad,CuDef*
G04 #@! TO.P,MCU1,2*
G04 #@! TO.N,N/C*
G36*
X156424000Y94745500D02*
G01*
X156424000Y93545500D01*
X155174000Y93545500D01*
X155774000Y94145500D01*
X155174000Y94745500D01*
X156424000Y94745500D01*
G37*
G04 #@! TD.AperFunction*
G04 #@! TA.AperFunction,Conductor*
D16*
G04 #@! TD*
G04 #@! TO.N,*
G04 #@! TO.C,MCU1*
G36*
X155150000Y91730500D02*
G01*
X155150000Y91480500D01*
X154150000Y91480500D01*
X154150000Y91730500D01*
X155150000Y91730500D01*
G37*
G04 #@! TD.AperFunction*
G04 #@! TA.AperFunction,SMDPad,CuDef*
D13*
G04 #@! TO.P,MCU1,*
G04 #@! TO.N,*
G36*
X154958000Y92205500D02*
G01*
X155558000Y91605500D01*
X154958000Y91005500D01*
X154758000Y91005500D01*
X154758000Y92205500D01*
X154958000Y92205500D01*
G37*
G04 #@! TD.AperFunction*
G04 #@! TA.AperFunction,SMDPad,CuDef*
G04 #@! TO.P,MCU1,3*
G04 #@! TO.N,RST*
G36*
X156424000Y92205500D02*
G01*
X156424000Y91005500D01*
X155174000Y91005500D01*
X155774000Y91605500D01*
X155174000Y92205500D01*
X156424000Y92205500D01*
G37*
G04 #@! TD.AperFunction*
G04 #@! TA.AperFunction,Conductor*
D16*
G04 #@! TD*
G04 #@! TO.N,*
G04 #@! TO.C,MCU1*
G36*
X155150000Y89190500D02*
G01*
X155150000Y88940500D01*
X154150000Y88940500D01*
X154150000Y89190500D01*
X155150000Y89190500D01*
G37*
G04 #@! TD.AperFunction*
G04 #@! TA.AperFunction,SMDPad,CuDef*
D13*
G04 #@! TO.P,MCU1,*
G04 #@! TO.N,*
G36*
X154958000Y89665500D02*
G01*
X155558000Y89065500D01*
X154958000Y88465500D01*
X154758000Y88465500D01*
X154758000Y89665500D01*
X154958000Y89665500D01*
G37*
G04 #@! TD.AperFunction*
G04 #@! TA.AperFunction,SMDPad,CuDef*
G04 #@! TO.P,MCU1,4*
G04 #@! TO.N,VCC*
G36*
X156424000Y89665500D02*
G01*
X156424000Y88465500D01*
X155174000Y88465500D01*
X155774000Y89065500D01*
X155174000Y89665500D01*
X156424000Y89665500D01*
G37*
G04 #@! TD.AperFunction*
G04 #@! TA.AperFunction,Conductor*
D16*
G04 #@! TD*
G04 #@! TO.N,*
G04 #@! TO.C,MCU1*
G36*
X155150000Y86650500D02*
G01*
X155150000Y86400500D01*
X154150000Y86400500D01*
X154150000Y86650500D01*
X155150000Y86650500D01*
G37*
G04 #@! TD.AperFunction*
G04 #@! TA.AperFunction,SMDPad,CuDef*
D13*
G04 #@! TO.P,MCU1,*
G04 #@! TO.N,*
G36*
X154958000Y87125500D02*
G01*
X155558000Y86525500D01*
X154958000Y85925500D01*
X154758000Y85925500D01*
X154758000Y87125500D01*
X154958000Y87125500D01*
G37*
G04 #@! TD.AperFunction*
G04 #@! TA.AperFunction,SMDPad,CuDef*
G04 #@! TO.P,MCU1,5*
G04 #@! TO.N,P21*
G36*
X156424000Y87125500D02*
G01*
X156424000Y85925500D01*
X155174000Y85925500D01*
X155774000Y86525500D01*
X155174000Y87125500D01*
X156424000Y87125500D01*
G37*
G04 #@! TD.AperFunction*
G04 #@! TA.AperFunction,Conductor*
D16*
G04 #@! TD*
G04 #@! TO.N,*
G04 #@! TO.C,MCU1*
G36*
X155150000Y84110500D02*
G01*
X155150000Y83860500D01*
X154150000Y83860500D01*
X154150000Y84110500D01*
X155150000Y84110500D01*
G37*
G04 #@! TD.AperFunction*
G04 #@! TA.AperFunction,SMDPad,CuDef*
D13*
G04 #@! TO.P,MCU1,*
G04 #@! TO.N,*
G36*
X154958000Y84585500D02*
G01*
X155558000Y83985500D01*
X154958000Y83385500D01*
X154758000Y83385500D01*
X154758000Y84585500D01*
X154958000Y84585500D01*
G37*
G04 #@! TD.AperFunction*
G04 #@! TA.AperFunction,SMDPad,CuDef*
G04 #@! TO.P,MCU1,6*
G04 #@! TO.N,P20*
G36*
X156424000Y84585500D02*
G01*
X156424000Y83385500D01*
X155174000Y83385500D01*
X155774000Y83985500D01*
X155174000Y84585500D01*
X156424000Y84585500D01*
G37*
G04 #@! TD.AperFunction*
G04 #@! TA.AperFunction,Conductor*
D16*
G04 #@! TD*
G04 #@! TO.N,*
G04 #@! TO.C,MCU1*
G36*
X155150000Y81570500D02*
G01*
X155150000Y81320500D01*
X154150000Y81320500D01*
X154150000Y81570500D01*
X155150000Y81570500D01*
G37*
G04 #@! TD.AperFunction*
G04 #@! TA.AperFunction,SMDPad,CuDef*
D13*
G04 #@! TO.P,MCU1,*
G04 #@! TO.N,*
G36*
X154958000Y82045500D02*
G01*
X155558000Y81445500D01*
X154958000Y80845500D01*
X154758000Y80845500D01*
X154758000Y82045500D01*
X154958000Y82045500D01*
G37*
G04 #@! TD.AperFunction*
G04 #@! TA.AperFunction,SMDPad,CuDef*
G04 #@! TO.P,MCU1,7*
G04 #@! TO.N,P19*
G36*
X156424000Y82045500D02*
G01*
X156424000Y80845500D01*
X155174000Y80845500D01*
X155774000Y81445500D01*
X155174000Y82045500D01*
X156424000Y82045500D01*
G37*
G04 #@! TD.AperFunction*
G04 #@! TA.AperFunction,Conductor*
D16*
G04 #@! TD*
G04 #@! TO.N,*
G04 #@! TO.C,MCU1*
G36*
X155150000Y79030500D02*
G01*
X155150000Y78780500D01*
X154150000Y78780500D01*
X154150000Y79030500D01*
X155150000Y79030500D01*
G37*
G04 #@! TD.AperFunction*
G04 #@! TA.AperFunction,SMDPad,CuDef*
D13*
G04 #@! TO.P,MCU1,*
G04 #@! TO.N,*
G36*
X154958000Y79505500D02*
G01*
X155558000Y78905500D01*
X154958000Y78305500D01*
X154758000Y78305500D01*
X154758000Y79505500D01*
X154958000Y79505500D01*
G37*
G04 #@! TD.AperFunction*
G04 #@! TA.AperFunction,SMDPad,CuDef*
G04 #@! TO.P,MCU1,8*
G04 #@! TO.N,P18*
G36*
X156424000Y79505500D02*
G01*
X156424000Y78305500D01*
X155174000Y78305500D01*
X155774000Y78905500D01*
X155174000Y79505500D01*
X156424000Y79505500D01*
G37*
G04 #@! TD.AperFunction*
G04 #@! TA.AperFunction,Conductor*
D16*
G04 #@! TD*
G04 #@! TO.N,*
G04 #@! TO.C,MCU1*
G36*
X155150000Y76490500D02*
G01*
X155150000Y76240500D01*
X154150000Y76240500D01*
X154150000Y76490500D01*
X155150000Y76490500D01*
G37*
G04 #@! TD.AperFunction*
G04 #@! TA.AperFunction,SMDPad,CuDef*
D13*
G04 #@! TO.P,MCU1,*
G04 #@! TO.N,*
G36*
X154958000Y76965500D02*
G01*
X155558000Y76365500D01*
X154958000Y75765500D01*
X154758000Y75765500D01*
X154758000Y76965500D01*
X154958000Y76965500D01*
G37*
G04 #@! TD.AperFunction*
G04 #@! TA.AperFunction,SMDPad,CuDef*
G04 #@! TO.P,MCU1,9*
G04 #@! TO.N,P15*
G36*
X156424000Y76965500D02*
G01*
X156424000Y75765500D01*
X155174000Y75765500D01*
X155774000Y76365500D01*
X155174000Y76965500D01*
X156424000Y76965500D01*
G37*
G04 #@! TD.AperFunction*
G04 #@! TA.AperFunction,Conductor*
D16*
G04 #@! TD*
G04 #@! TO.N,*
G04 #@! TO.C,MCU1*
G36*
X155150000Y73950500D02*
G01*
X155150000Y73700500D01*
X154150000Y73700500D01*
X154150000Y73950500D01*
X155150000Y73950500D01*
G37*
G04 #@! TD.AperFunction*
G04 #@! TA.AperFunction,SMDPad,CuDef*
D13*
G04 #@! TO.P,MCU1,*
G04 #@! TO.N,*
G36*
X154958000Y74425500D02*
G01*
X155558000Y73825500D01*
X154958000Y73225500D01*
X154758000Y73225500D01*
X154758000Y74425500D01*
X154958000Y74425500D01*
G37*
G04 #@! TD.AperFunction*
G04 #@! TA.AperFunction,SMDPad,CuDef*
G04 #@! TO.P,MCU1,10*
G04 #@! TO.N,P14*
G36*
X156424000Y74425500D02*
G01*
X156424000Y73225500D01*
X155174000Y73225500D01*
X155774000Y73825500D01*
X155174000Y74425500D01*
X156424000Y74425500D01*
G37*
G04 #@! TD.AperFunction*
G04 #@! TA.AperFunction,Conductor*
D16*
G04 #@! TD*
G04 #@! TO.N,*
G04 #@! TO.C,MCU1*
G36*
X155150000Y71410500D02*
G01*
X155150000Y71160500D01*
X154150000Y71160500D01*
X154150000Y71410500D01*
X155150000Y71410500D01*
G37*
G04 #@! TD.AperFunction*
G04 #@! TA.AperFunction,SMDPad,CuDef*
D13*
G04 #@! TO.P,MCU1,*
G04 #@! TO.N,*
G36*
X154958000Y71885500D02*
G01*
X155558000Y71285500D01*
X154958000Y70685500D01*
X154758000Y70685500D01*
X154758000Y71885500D01*
X154958000Y71885500D01*
G37*
G04 #@! TD.AperFunction*
G04 #@! TA.AperFunction,SMDPad,CuDef*
G04 #@! TO.P,MCU1,11*
G04 #@! TO.N,P16*
G36*
X156424000Y71885500D02*
G01*
X156424000Y70685500D01*
X155174000Y70685500D01*
X155774000Y71285500D01*
X155174000Y71885500D01*
X156424000Y71885500D01*
G37*
G04 #@! TD.AperFunction*
G04 #@! TA.AperFunction,Conductor*
D16*
G04 #@! TD*
G04 #@! TO.N,*
G04 #@! TO.C,MCU1*
G36*
X155150000Y68870500D02*
G01*
X155150000Y68620500D01*
X154150000Y68620500D01*
X154150000Y68870500D01*
X155150000Y68870500D01*
G37*
G04 #@! TD.AperFunction*
G04 #@! TA.AperFunction,SMDPad,CuDef*
D13*
G04 #@! TO.P,MCU1,*
G04 #@! TO.N,*
G36*
X154958000Y69345500D02*
G01*
X155558000Y68745500D01*
X154958000Y68145500D01*
X154758000Y68145500D01*
X154758000Y69345500D01*
X154958000Y69345500D01*
G37*
G04 #@! TD.AperFunction*
G04 #@! TA.AperFunction,SMDPad,CuDef*
G04 #@! TO.P,MCU1,12*
G04 #@! TO.N,P10*
G36*
X156424000Y69345500D02*
G01*
X156424000Y68145500D01*
X155174000Y68145500D01*
X155774000Y68745500D01*
X155174000Y69345500D01*
X156424000Y69345500D01*
G37*
G04 #@! TD.AperFunction*
G04 #@! TA.AperFunction,Conductor*
D16*
G04 #@! TD*
G04 #@! TO.N,*
G04 #@! TO.C,MCU1*
G36*
X166850000Y96560500D02*
G01*
X166850000Y96810500D01*
X167850000Y96810500D01*
X167850000Y96560500D01*
X166850000Y96560500D01*
G37*
G04 #@! TD.AperFunction*
G04 #@! TA.AperFunction,SMDPad,CuDef*
D13*
G04 #@! TO.P,MCU1,*
G04 #@! TO.N,*
G36*
X167042000Y96085500D02*
G01*
X166442000Y96685500D01*
X167042000Y97285500D01*
X167242000Y97285500D01*
X167242000Y96085500D01*
X167042000Y96085500D01*
G37*
G04 #@! TD.AperFunction*
G04 #@! TA.AperFunction,SMDPad,CuDef*
G04 #@! TO.P,MCU1,24*
G04 #@! TO.N,P1*
G36*
X165576000Y96085500D02*
G01*
X165576000Y97285500D01*
X166826000Y97285500D01*
X166226000Y96685500D01*
X166826000Y96085500D01*
X165576000Y96085500D01*
G37*
G04 #@! TD.AperFunction*
G04 #@! TA.AperFunction,SMDPad,CuDef*
G04 #@! TO.P,MCU1,23*
G04 #@! TO.N,P0*
G36*
X165576000Y93545500D02*
G01*
X165576000Y94745500D01*
X166826000Y94745500D01*
X166226000Y94145500D01*
X166826000Y93545500D01*
X165576000Y93545500D01*
G37*
G04 #@! TD.AperFunction*
G04 #@! TA.AperFunction,Conductor*
D16*
G04 #@! TD*
G04 #@! TO.N,*
G04 #@! TO.C,MCU1*
G36*
X166850000Y94020500D02*
G01*
X166850000Y94270500D01*
X167850000Y94270500D01*
X167850000Y94020500D01*
X166850000Y94020500D01*
G37*
G04 #@! TD.AperFunction*
G04 #@! TA.AperFunction,SMDPad,CuDef*
D13*
G04 #@! TO.P,MCU1,*
G04 #@! TO.N,*
G36*
X167042000Y93545500D02*
G01*
X166442000Y94145500D01*
X167042000Y94745500D01*
X167242000Y94745500D01*
X167242000Y93545500D01*
X167042000Y93545500D01*
G37*
G04 #@! TD.AperFunction*
G04 #@! TA.AperFunction,SMDPad,CuDef*
G04 #@! TO.P,MCU1,22*
G04 #@! TO.N,GND*
G36*
X165576000Y91005500D02*
G01*
X165576000Y92205500D01*
X166826000Y92205500D01*
X166226000Y91605500D01*
X166826000Y91005500D01*
X165576000Y91005500D01*
G37*
G04 #@! TD.AperFunction*
G04 #@! TA.AperFunction,Conductor*
D16*
G04 #@! TD*
G04 #@! TO.N,*
G04 #@! TO.C,MCU1*
G36*
X166850000Y91480500D02*
G01*
X166850000Y91730500D01*
X167850000Y91730500D01*
X167850000Y91480500D01*
X166850000Y91480500D01*
G37*
G04 #@! TD.AperFunction*
G04 #@! TA.AperFunction,SMDPad,CuDef*
D13*
G04 #@! TO.P,MCU1,*
G04 #@! TO.N,*
G36*
X167042000Y91005500D02*
G01*
X166442000Y91605500D01*
X167042000Y92205500D01*
X167242000Y92205500D01*
X167242000Y91005500D01*
X167042000Y91005500D01*
G37*
G04 #@! TD.AperFunction*
G04 #@! TA.AperFunction,SMDPad,CuDef*
G04 #@! TO.P,MCU1,21*
G04 #@! TO.N,GND*
G36*
X165576000Y88465500D02*
G01*
X165576000Y89665500D01*
X166826000Y89665500D01*
X166226000Y89065500D01*
X166826000Y88465500D01*
X165576000Y88465500D01*
G37*
G04 #@! TD.AperFunction*
G04 #@! TA.AperFunction,Conductor*
D16*
G04 #@! TD*
G04 #@! TO.N,*
G04 #@! TO.C,MCU1*
G36*
X166850000Y88940500D02*
G01*
X166850000Y89190500D01*
X167850000Y89190500D01*
X167850000Y88940500D01*
X166850000Y88940500D01*
G37*
G04 #@! TD.AperFunction*
G04 #@! TA.AperFunction,SMDPad,CuDef*
D13*
G04 #@! TO.P,MCU1,*
G04 #@! TO.N,*
G36*
X167042000Y88465500D02*
G01*
X166442000Y89065500D01*
X167042000Y89665500D01*
X167242000Y89665500D01*
X167242000Y88465500D01*
X167042000Y88465500D01*
G37*
G04 #@! TD.AperFunction*
G04 #@! TA.AperFunction,SMDPad,CuDef*
G04 #@! TO.P,MCU1,20*
G04 #@! TO.N,P2*
G36*
X165576000Y85925500D02*
G01*
X165576000Y87125500D01*
X166826000Y87125500D01*
X166226000Y86525500D01*
X166826000Y85925500D01*
X165576000Y85925500D01*
G37*
G04 #@! TD.AperFunction*
G04 #@! TA.AperFunction,Conductor*
D16*
G04 #@! TD*
G04 #@! TO.N,*
G04 #@! TO.C,MCU1*
G36*
X166850000Y86400500D02*
G01*
X166850000Y86650500D01*
X167850000Y86650500D01*
X167850000Y86400500D01*
X166850000Y86400500D01*
G37*
G04 #@! TD.AperFunction*
G04 #@! TA.AperFunction,SMDPad,CuDef*
D13*
G04 #@! TO.P,MCU1,*
G04 #@! TO.N,*
G36*
X167042000Y85925500D02*
G01*
X166442000Y86525500D01*
X167042000Y87125500D01*
X167242000Y87125500D01*
X167242000Y85925500D01*
X167042000Y85925500D01*
G37*
G04 #@! TD.AperFunction*
G04 #@! TA.AperFunction,SMDPad,CuDef*
G04 #@! TO.P,MCU1,19*
G04 #@! TO.N,P3*
G36*
X165576000Y83385500D02*
G01*
X165576000Y84585500D01*
X166826000Y84585500D01*
X166226000Y83985500D01*
X166826000Y83385500D01*
X165576000Y83385500D01*
G37*
G04 #@! TD.AperFunction*
G04 #@! TA.AperFunction,Conductor*
D16*
G04 #@! TD*
G04 #@! TO.N,*
G04 #@! TO.C,MCU1*
G36*
X166850000Y83860500D02*
G01*
X166850000Y84110500D01*
X167850000Y84110500D01*
X167850000Y83860500D01*
X166850000Y83860500D01*
G37*
G04 #@! TD.AperFunction*
G04 #@! TA.AperFunction,SMDPad,CuDef*
D13*
G04 #@! TO.P,MCU1,*
G04 #@! TO.N,*
G36*
X167042000Y83385500D02*
G01*
X166442000Y83985500D01*
X167042000Y84585500D01*
X167242000Y84585500D01*
X167242000Y83385500D01*
X167042000Y83385500D01*
G37*
G04 #@! TD.AperFunction*
G04 #@! TA.AperFunction,SMDPad,CuDef*
G04 #@! TO.P,MCU1,18*
G04 #@! TO.N,P4*
G36*
X165576000Y80845500D02*
G01*
X165576000Y82045500D01*
X166826000Y82045500D01*
X166226000Y81445500D01*
X166826000Y80845500D01*
X165576000Y80845500D01*
G37*
G04 #@! TD.AperFunction*
G04 #@! TA.AperFunction,Conductor*
D16*
G04 #@! TD*
G04 #@! TO.N,*
G04 #@! TO.C,MCU1*
G36*
X166850000Y81320500D02*
G01*
X166850000Y81570500D01*
X167850000Y81570500D01*
X167850000Y81320500D01*
X166850000Y81320500D01*
G37*
G04 #@! TD.AperFunction*
G04 #@! TA.AperFunction,SMDPad,CuDef*
D13*
G04 #@! TO.P,MCU1,*
G04 #@! TO.N,*
G36*
X167042000Y80845500D02*
G01*
X166442000Y81445500D01*
X167042000Y82045500D01*
X167242000Y82045500D01*
X167242000Y80845500D01*
X167042000Y80845500D01*
G37*
G04 #@! TD.AperFunction*
G04 #@! TA.AperFunction,SMDPad,CuDef*
G04 #@! TO.P,MCU1,17*
G04 #@! TO.N,P5*
G36*
X165576000Y78305500D02*
G01*
X165576000Y79505500D01*
X166826000Y79505500D01*
X166226000Y78905500D01*
X166826000Y78305500D01*
X165576000Y78305500D01*
G37*
G04 #@! TD.AperFunction*
G04 #@! TA.AperFunction,Conductor*
D16*
G04 #@! TD*
G04 #@! TO.N,*
G04 #@! TO.C,MCU1*
G36*
X166850000Y78780500D02*
G01*
X166850000Y79030500D01*
X167850000Y79030500D01*
X167850000Y78780500D01*
X166850000Y78780500D01*
G37*
G04 #@! TD.AperFunction*
G04 #@! TA.AperFunction,SMDPad,CuDef*
D13*
G04 #@! TO.P,MCU1,*
G04 #@! TO.N,*
G36*
X167042000Y78305500D02*
G01*
X166442000Y78905500D01*
X167042000Y79505500D01*
X167242000Y79505500D01*
X167242000Y78305500D01*
X167042000Y78305500D01*
G37*
G04 #@! TD.AperFunction*
G04 #@! TA.AperFunction,SMDPad,CuDef*
G04 #@! TO.P,MCU1,16*
G04 #@! TO.N,P6*
G36*
X165576000Y75765500D02*
G01*
X165576000Y76965500D01*
X166826000Y76965500D01*
X166226000Y76365500D01*
X166826000Y75765500D01*
X165576000Y75765500D01*
G37*
G04 #@! TD.AperFunction*
G04 #@! TA.AperFunction,Conductor*
D16*
G04 #@! TD*
G04 #@! TO.N,*
G04 #@! TO.C,MCU1*
G36*
X166850000Y76240500D02*
G01*
X166850000Y76490500D01*
X167850000Y76490500D01*
X167850000Y76240500D01*
X166850000Y76240500D01*
G37*
G04 #@! TD.AperFunction*
G04 #@! TA.AperFunction,SMDPad,CuDef*
D13*
G04 #@! TO.P,MCU1,*
G04 #@! TO.N,*
G36*
X167042000Y75765500D02*
G01*
X166442000Y76365500D01*
X167042000Y76965500D01*
X167242000Y76965500D01*
X167242000Y75765500D01*
X167042000Y75765500D01*
G37*
G04 #@! TD.AperFunction*
G04 #@! TA.AperFunction,SMDPad,CuDef*
G04 #@! TO.P,MCU1,15*
G04 #@! TO.N,P7*
G36*
X165576000Y73225500D02*
G01*
X165576000Y74425500D01*
X166826000Y74425500D01*
X166226000Y73825500D01*
X166826000Y73225500D01*
X165576000Y73225500D01*
G37*
G04 #@! TD.AperFunction*
G04 #@! TA.AperFunction,Conductor*
D16*
G04 #@! TD*
G04 #@! TO.N,*
G04 #@! TO.C,MCU1*
G36*
X166850000Y73700500D02*
G01*
X166850000Y73950500D01*
X167850000Y73950500D01*
X167850000Y73700500D01*
X166850000Y73700500D01*
G37*
G04 #@! TD.AperFunction*
G04 #@! TA.AperFunction,SMDPad,CuDef*
D13*
G04 #@! TO.P,MCU1,*
G04 #@! TO.N,*
G36*
X167042000Y73225500D02*
G01*
X166442000Y73825500D01*
X167042000Y74425500D01*
X167242000Y74425500D01*
X167242000Y73225500D01*
X167042000Y73225500D01*
G37*
G04 #@! TD.AperFunction*
G04 #@! TA.AperFunction,SMDPad,CuDef*
G04 #@! TO.P,MCU1,14*
G04 #@! TO.N,P8*
G36*
X165576000Y70685500D02*
G01*
X165576000Y71885500D01*
X166826000Y71885500D01*
X166226000Y71285500D01*
X166826000Y70685500D01*
X165576000Y70685500D01*
G37*
G04 #@! TD.AperFunction*
G04 #@! TA.AperFunction,Conductor*
D16*
G04 #@! TD*
G04 #@! TO.N,*
G04 #@! TO.C,MCU1*
G36*
X166850000Y71160500D02*
G01*
X166850000Y71410500D01*
X167850000Y71410500D01*
X167850000Y71160500D01*
X166850000Y71160500D01*
G37*
G04 #@! TD.AperFunction*
G04 #@! TA.AperFunction,SMDPad,CuDef*
D13*
G04 #@! TO.P,MCU1,*
G04 #@! TO.N,*
G36*
X167042000Y70685500D02*
G01*
X166442000Y71285500D01*
X167042000Y71885500D01*
X167242000Y71885500D01*
X167242000Y70685500D01*
X167042000Y70685500D01*
G37*
G04 #@! TD.AperFunction*
G04 #@! TA.AperFunction,SMDPad,CuDef*
G04 #@! TO.P,MCU1,13*
G04 #@! TO.N,P9*
G36*
X165576000Y68145500D02*
G01*
X165576000Y69345500D01*
X166826000Y69345500D01*
X166226000Y68745500D01*
X166826000Y68145500D01*
X165576000Y68145500D01*
G37*
G04 #@! TD.AperFunction*
G04 #@! TA.AperFunction,Conductor*
D16*
G04 #@! TD*
G04 #@! TO.N,*
G04 #@! TO.C,MCU1*
G36*
X166850000Y68620500D02*
G01*
X166850000Y68870500D01*
X167850000Y68870500D01*
X167850000Y68620500D01*
X166850000Y68620500D01*
G37*
G04 #@! TD.AperFunction*
G04 #@! TA.AperFunction,SMDPad,CuDef*
D13*
G04 #@! TO.P,MCU1,*
G04 #@! TO.N,*
G36*
X167042000Y68145500D02*
G01*
X166442000Y68745500D01*
X167042000Y69345500D01*
X167242000Y69345500D01*
X167242000Y68145500D01*
X167042000Y68145500D01*
G37*
G04 #@! TD.AperFunction*
G04 #@! TA.AperFunction,Conductor*
D16*
G04 #@! TD*
G04 #@! TO.N,P0*
G04 #@! TO.C,MCU1*
G36*
X160113151Y94149234D02*
G01*
X160113151Y94151633D01*
X160113510Y94155280D01*
X160113731Y94159000D01*
X160114115Y94161428D01*
X160114353Y94163841D01*
X160115063Y94167413D01*
X160115641Y94171063D01*
X160116267Y94173467D01*
X160116746Y94175873D01*
X160117800Y94179346D01*
X160118720Y94182880D01*
X160119586Y94185234D01*
X160120307Y94187611D01*
X160121675Y94190915D01*
X160122936Y94194342D01*
X160124044Y94196633D01*
X160125001Y94198944D01*
X160126681Y94202087D01*
X160128252Y94205336D01*
X160129584Y94207519D01*
X160130784Y94209763D01*
X160132740Y94212691D01*
X160134614Y94215761D01*
X160136183Y94217844D01*
X160137599Y94219962D01*
X160139002Y94221672D01*
X160139815Y94222662D01*
X160141964Y94225514D01*
X160143740Y94227445D01*
X160145381Y94229445D01*
X160147841Y94231905D01*
X160150231Y94234504D01*
X160152203Y94236267D01*
X160154055Y94238119D01*
X160156731Y94240315D01*
X160159335Y94242643D01*
X160161492Y94244222D01*
X160163538Y94245901D01*
X160166380Y94247800D01*
X160169190Y94249857D01*
X160171522Y94251236D01*
X160173737Y94252716D01*
X160176734Y94254318D01*
X160179702Y94256073D01*
X160182174Y94257226D01*
X160184556Y94258499D01*
X160187670Y94259789D01*
X160190769Y94261234D01*
X160193375Y94262152D01*
X160195889Y94263193D01*
X160199084Y94264162D01*
X160202289Y94265291D01*
X160204998Y94265956D01*
X160207627Y94266754D01*
X160210874Y94267400D01*
X160214148Y94268204D01*
X160216938Y94268606D01*
X160219659Y94269147D01*
X160222935Y94269470D01*
X160226236Y94269945D01*
X160229072Y94270074D01*
X160231867Y94270349D01*
X160235133Y94270349D01*
X160238436Y94270499D01*
X160241303Y94270349D01*
X160244133Y94270349D01*
X160247341Y94270033D01*
X160250631Y94269861D01*
X160253504Y94269426D01*
X160256341Y94269147D01*
X160259490Y94268521D01*
X160262707Y94268034D01*
X160265533Y94267319D01*
X160268373Y94266754D01*
X160271431Y94265826D01*
X160274546Y94265038D01*
X160277315Y94264041D01*
X160280111Y94263193D01*
X160283029Y94261985D01*
X160286036Y94260902D01*
X160288714Y94259630D01*
X160291444Y94258499D01*
X160294209Y94257021D01*
X160297069Y94255663D01*
X160299633Y94254122D01*
X160302263Y94252716D01*
X160304847Y94250989D01*
X160307537Y94249373D01*
X160309969Y94247567D01*
X160312462Y94245901D01*
X160314842Y94243948D01*
X160317341Y94242092D01*
X160319604Y94240040D01*
X160321945Y94238119D01*
X160324105Y94235959D01*
X160326388Y94233889D01*
X161055776Y93504500D01*
X165008224Y93504500D01*
X165737612Y94233889D01*
X165738854Y94235114D01*
X165748016Y94243191D01*
X165757921Y94250334D01*
X165768475Y94256477D01*
X165779579Y94261561D01*
X165791126Y94265537D01*
X165803007Y94268367D01*
X165815105Y94270025D01*
X165827309Y94270493D01*
X165839500Y94269769D01*
X165851563Y94267859D01*
X165863380Y94264780D01*
X165874842Y94260564D01*
X165885836Y94255248D01*
X165896261Y94248886D01*
X165906014Y94241536D01*
X165915004Y94233269D01*
X165923143Y94224165D01*
X165930357Y94214310D01*
X165936573Y94203798D01*
X165941734Y94192731D01*
X165945791Y94181211D01*
X165948704Y94169352D01*
X165950445Y94157264D01*
X165950999Y94145064D01*
X165950361Y94132869D01*
X165948534Y94120793D01*
X165945538Y94108954D01*
X165941402Y94097464D01*
X165936163Y94086431D01*
X165929873Y94075963D01*
X165922592Y94066159D01*
X165914389Y94057112D01*
X165148388Y93291112D01*
X165148107Y93290834D01*
X165148079Y93290804D01*
X165148045Y93290773D01*
X165147146Y93289886D01*
X165143035Y93286262D01*
X165139004Y93282632D01*
X165138475Y93282242D01*
X165137985Y93281810D01*
X165133557Y93278617D01*
X165129174Y93275385D01*
X165128614Y93275051D01*
X165128080Y93274666D01*
X165123334Y93271904D01*
X165118684Y93269132D01*
X165118096Y93268855D01*
X165117525Y93268523D01*
X165112532Y93266237D01*
X165107634Y93263932D01*
X165107021Y93263714D01*
X165106421Y93263439D01*
X165101274Y93261667D01*
X165096129Y93259835D01*
X165095486Y93259675D01*
X165094874Y93259464D01*
X165089579Y93258202D01*
X165084279Y93256881D01*
X165083637Y93256786D01*
X165082994Y93256633D01*
X165077559Y93255889D01*
X165072198Y93255097D01*
X165071545Y93255065D01*
X165070895Y93254976D01*
X165065451Y93254767D01*
X165060000Y93254500D01*
X161004000Y93254500D01*
X161003602Y93254503D01*
X161003564Y93254501D01*
X161003520Y93254503D01*
X161002255Y93254512D01*
X160996787Y93254856D01*
X160991368Y93255140D01*
X160990722Y93255238D01*
X160990066Y93255279D01*
X160984699Y93256149D01*
X160979293Y93256966D01*
X160978653Y93257128D01*
X160978011Y93257232D01*
X160972749Y93258622D01*
X160967454Y93259962D01*
X160966841Y93260183D01*
X160966204Y93260351D01*
X160961061Y93262263D01*
X160955963Y93264099D01*
X160955375Y93264378D01*
X160954757Y93264608D01*
X160949861Y93266996D01*
X160944931Y93269337D01*
X160944365Y93269677D01*
X160943781Y93269962D01*
X160939162Y93272803D01*
X160934463Y93275627D01*
X160933937Y93276018D01*
X160933379Y93276361D01*
X160929004Y93279682D01*
X160924659Y93282909D01*
X160924181Y93283343D01*
X160923652Y93283744D01*
X160919608Y93287488D01*
X160915612Y93291112D01*
X160149611Y94057112D01*
X160148386Y94058354D01*
X160146927Y94060009D01*
X160145381Y94061555D01*
X160142916Y94064559D01*
X160140309Y94067516D01*
X160139002Y94069328D01*
X160137599Y94071038D01*
X160135452Y94074251D01*
X160133166Y94077421D01*
X160132035Y94079365D01*
X160130784Y94081237D01*
X160128971Y94084630D01*
X160127023Y94087975D01*
X160126071Y94090054D01*
X160125001Y94092056D01*
X160123545Y94095571D01*
X160121939Y94099079D01*
X160121184Y94101271D01*
X160120307Y94103389D01*
X160119211Y94107001D01*
X160117963Y94110626D01*
X160117420Y94112904D01*
X160116746Y94115127D01*
X160116012Y94118815D01*
X160115133Y94122507D01*
X160114811Y94124855D01*
X160114353Y94127159D01*
X160113988Y94130864D01*
X160113475Y94134605D01*
X160113383Y94137008D01*
X160113151Y94139367D01*
X160113151Y94143054D01*
X160113007Y94146809D01*
X160113151Y94149234D01*
G37*
G04 #@! TD.AperFunction*
G04 #@! TA.AperFunction,Conductor*
G04 #@! TO.N,GND*
G04 #@! TO.C,MCU1*
G36*
X161886849Y94141766D02*
G01*
X161886849Y94139367D01*
X161886490Y94135720D01*
X161886269Y94132000D01*
X161885885Y94129572D01*
X161885647Y94127159D01*
X161884937Y94123587D01*
X161884359Y94119937D01*
X161883733Y94117533D01*
X161883254Y94115127D01*
X161882200Y94111654D01*
X161881280Y94108120D01*
X161880414Y94105766D01*
X161879693Y94103389D01*
X161878325Y94100085D01*
X161877064Y94096658D01*
X161875956Y94094367D01*
X161874999Y94092056D01*
X161873319Y94088913D01*
X161871748Y94085664D01*
X161870416Y94083481D01*
X161869216Y94081237D01*
X161867260Y94078309D01*
X161865386Y94075239D01*
X161863817Y94073156D01*
X161862401Y94071038D01*
X161860998Y94069328D01*
X161860185Y94068338D01*
X161858036Y94065486D01*
X161856260Y94063555D01*
X161854619Y94061555D01*
X161852159Y94059095D01*
X161849769Y94056496D01*
X161847797Y94054733D01*
X161845945Y94052881D01*
X161843269Y94050685D01*
X161840665Y94048357D01*
X161838508Y94046778D01*
X161836462Y94045099D01*
X161833620Y94043200D01*
X161830810Y94041143D01*
X161828478Y94039764D01*
X161826263Y94038284D01*
X161823266Y94036682D01*
X161820298Y94034927D01*
X161817826Y94033774D01*
X161815444Y94032501D01*
X161812330Y94031211D01*
X161809231Y94029766D01*
X161806625Y94028848D01*
X161804111Y94027807D01*
X161800916Y94026838D01*
X161797711Y94025709D01*
X161795002Y94025044D01*
X161792373Y94024246D01*
X161789126Y94023600D01*
X161785852Y94022796D01*
X161783062Y94022394D01*
X161780341Y94021853D01*
X161777065Y94021530D01*
X161773764Y94021055D01*
X161770928Y94020926D01*
X161768133Y94020651D01*
X161764867Y94020651D01*
X161761564Y94020501D01*
X161758697Y94020651D01*
X161755867Y94020651D01*
X161752659Y94020967D01*
X161749369Y94021139D01*
X161746496Y94021574D01*
X161743659Y94021853D01*
X161740510Y94022479D01*
X161737293Y94022966D01*
X161734467Y94023681D01*
X161731627Y94024246D01*
X161728569Y94025174D01*
X161725454Y94025962D01*
X161722685Y94026959D01*
X161719889Y94027807D01*
X161716971Y94029015D01*
X161713964Y94030098D01*
X161711286Y94031370D01*
X161708556Y94032501D01*
X161705791Y94033979D01*
X161702931Y94035337D01*
X161700367Y94036878D01*
X161697737Y94038284D01*
X161695153Y94040011D01*
X161692463Y94041627D01*
X161690031Y94043433D01*
X161687538Y94045099D01*
X161685158Y94047052D01*
X161682659Y94048908D01*
X161680396Y94050960D01*
X161678055Y94052881D01*
X161675895Y94055041D01*
X161673612Y94057111D01*
X160944224Y94786500D01*
X156991776Y94786500D01*
X156262388Y94057111D01*
X156261146Y94055886D01*
X156251984Y94047809D01*
X156242079Y94040666D01*
X156231525Y94034523D01*
X156220421Y94029439D01*
X156208874Y94025463D01*
X156196993Y94022633D01*
X156184895Y94020975D01*
X156172691Y94020507D01*
X156160500Y94021231D01*
X156148437Y94023141D01*
X156136620Y94026220D01*
X156125158Y94030436D01*
X156114164Y94035752D01*
X156103739Y94042114D01*
X156093986Y94049464D01*
X156084996Y94057731D01*
X156076857Y94066835D01*
X156069643Y94076690D01*
X156063427Y94087202D01*
X156058266Y94098269D01*
X156054209Y94109789D01*
X156051296Y94121648D01*
X156049555Y94133736D01*
X156049001Y94145936D01*
X156049639Y94158131D01*
X156051466Y94170207D01*
X156054462Y94182046D01*
X156058598Y94193536D01*
X156063837Y94204569D01*
X156070127Y94215037D01*
X156077408Y94224841D01*
X156085611Y94233888D01*
X156851612Y94999888D01*
X156851893Y95000166D01*
X156851921Y95000196D01*
X156851955Y95000227D01*
X156852854Y95001114D01*
X156856965Y95004738D01*
X156860996Y95008368D01*
X156861525Y95008758D01*
X156862015Y95009190D01*
X156866443Y95012383D01*
X156870826Y95015615D01*
X156871386Y95015949D01*
X156871920Y95016334D01*
X156876666Y95019096D01*
X156881316Y95021868D01*
X156881904Y95022145D01*
X156882475Y95022477D01*
X156887468Y95024763D01*
X156892366Y95027068D01*
X156892979Y95027286D01*
X156893579Y95027561D01*
X156898726Y95029333D01*
X156903871Y95031165D01*
X156904514Y95031325D01*
X156905126Y95031536D01*
X156910421Y95032798D01*
X156915721Y95034119D01*
X156916363Y95034214D01*
X156917006Y95034367D01*
X156922441Y95035111D01*
X156927802Y95035903D01*
X156928455Y95035935D01*
X156929105Y95036024D01*
X156934549Y95036233D01*
X156940000Y95036500D01*
X160996000Y95036500D01*
X160996398Y95036497D01*
X160996436Y95036499D01*
X160996480Y95036497D01*
X160997745Y95036488D01*
X161003213Y95036144D01*
X161008632Y95035860D01*
X161009278Y95035762D01*
X161009934Y95035721D01*
X161015301Y95034851D01*
X161020707Y95034034D01*
X161021347Y95033872D01*
X161021989Y95033768D01*
X161027251Y95032378D01*
X161032546Y95031038D01*
X161033159Y95030817D01*
X161033796Y95030649D01*
X161038939Y95028737D01*
X161044037Y95026901D01*
X161044625Y95026622D01*
X161045243Y95026392D01*
X161050139Y95024004D01*
X161055069Y95021663D01*
X161055635Y95021323D01*
X161056219Y95021038D01*
X161060838Y95018197D01*
X161065537Y95015373D01*
X161066063Y95014982D01*
X161066621Y95014639D01*
X161070996Y95011318D01*
X161075341Y95008091D01*
X161075819Y95007657D01*
X161076348Y95007256D01*
X161080392Y95003512D01*
X161084388Y94999888D01*
X161850389Y94233888D01*
X161851614Y94232646D01*
X161853073Y94230991D01*
X161854619Y94229445D01*
X161857084Y94226441D01*
X161859691Y94223484D01*
X161860998Y94221672D01*
X161862401Y94219962D01*
X161864548Y94216749D01*
X161866834Y94213579D01*
X161867965Y94211635D01*
X161869216Y94209763D01*
X161871029Y94206370D01*
X161872977Y94203025D01*
X161873929Y94200946D01*
X161874999Y94198944D01*
X161876455Y94195429D01*
X161878061Y94191921D01*
X161878816Y94189729D01*
X161879693Y94187611D01*
X161880789Y94183999D01*
X161882037Y94180374D01*
X161882580Y94178096D01*
X161883254Y94175873D01*
X161883988Y94172185D01*
X161884867Y94168493D01*
X161885189Y94166145D01*
X161885647Y94163841D01*
X161886012Y94160136D01*
X161886525Y94156395D01*
X161886617Y94153992D01*
X161886849Y94151633D01*
X161886849Y94147946D01*
X161886993Y94144191D01*
X161886849Y94141766D01*
G37*
G04 #@! TD.AperFunction*
D17*
X161762000Y94145500D03*
G04 #@! TO.N,P0*
X160238000Y94145500D03*
G04 #@! TO.N,P1*
X160238000Y96685500D03*
G04 #@! TO.N,RAW*
X161762000Y96685500D03*
G04 #@! TA.AperFunction,Conductor*
D16*
G04 #@! TO.N,P1*
G36*
X160113151Y96689234D02*
G01*
X160113151Y96691633D01*
X160113510Y96695280D01*
X160113731Y96699000D01*
X160114115Y96701428D01*
X160114353Y96703841D01*
X160115063Y96707413D01*
X160115641Y96711063D01*
X160116267Y96713467D01*
X160116746Y96715873D01*
X160117800Y96719346D01*
X160118720Y96722880D01*
X160119586Y96725234D01*
X160120307Y96727611D01*
X160121675Y96730915D01*
X160122936Y96734342D01*
X160124044Y96736633D01*
X160125001Y96738944D01*
X160126681Y96742087D01*
X160128252Y96745336D01*
X160129584Y96747519D01*
X160130784Y96749763D01*
X160132740Y96752691D01*
X160134614Y96755761D01*
X160136183Y96757844D01*
X160137599Y96759962D01*
X160139002Y96761672D01*
X160139815Y96762662D01*
X160141964Y96765514D01*
X160143740Y96767445D01*
X160145381Y96769445D01*
X160147841Y96771905D01*
X160150231Y96774504D01*
X160152203Y96776267D01*
X160154055Y96778119D01*
X160156731Y96780315D01*
X160159335Y96782643D01*
X160161492Y96784222D01*
X160163538Y96785901D01*
X160166380Y96787800D01*
X160169190Y96789857D01*
X160171522Y96791236D01*
X160173737Y96792716D01*
X160176734Y96794318D01*
X160179702Y96796073D01*
X160182174Y96797226D01*
X160184556Y96798499D01*
X160187670Y96799789D01*
X160190769Y96801234D01*
X160193375Y96802152D01*
X160195889Y96803193D01*
X160199084Y96804162D01*
X160202289Y96805291D01*
X160204998Y96805956D01*
X160207627Y96806754D01*
X160210874Y96807400D01*
X160214148Y96808204D01*
X160216938Y96808606D01*
X160219659Y96809147D01*
X160222935Y96809470D01*
X160226236Y96809945D01*
X160229072Y96810074D01*
X160231867Y96810349D01*
X160235133Y96810349D01*
X160238436Y96810499D01*
X160241303Y96810349D01*
X160244133Y96810349D01*
X160247341Y96810033D01*
X160250631Y96809861D01*
X160253504Y96809426D01*
X160256341Y96809147D01*
X160259490Y96808521D01*
X160262707Y96808034D01*
X160265533Y96807319D01*
X160268373Y96806754D01*
X160271431Y96805826D01*
X160274546Y96805038D01*
X160277315Y96804041D01*
X160280111Y96803193D01*
X160283029Y96801985D01*
X160286036Y96800902D01*
X160288714Y96799630D01*
X160291444Y96798499D01*
X160294209Y96797021D01*
X160297069Y96795663D01*
X160299633Y96794122D01*
X160302263Y96792716D01*
X160304847Y96790989D01*
X160307537Y96789373D01*
X160309969Y96787567D01*
X160312462Y96785901D01*
X160314842Y96783948D01*
X160317341Y96782092D01*
X160319604Y96780040D01*
X160321945Y96778119D01*
X160324105Y96775959D01*
X160326388Y96773889D01*
X161055776Y96044500D01*
X165008224Y96044500D01*
X165737612Y96773889D01*
X165738854Y96775114D01*
X165748016Y96783191D01*
X165757921Y96790334D01*
X165768475Y96796477D01*
X165779579Y96801561D01*
X165791126Y96805537D01*
X165803007Y96808367D01*
X165815105Y96810025D01*
X165827309Y96810493D01*
X165839500Y96809769D01*
X165851563Y96807859D01*
X165863380Y96804780D01*
X165874842Y96800564D01*
X165885836Y96795248D01*
X165896261Y96788886D01*
X165906014Y96781536D01*
X165915004Y96773269D01*
X165923143Y96764165D01*
X165930357Y96754310D01*
X165936573Y96743798D01*
X165941734Y96732731D01*
X165945791Y96721211D01*
X165948704Y96709352D01*
X165950445Y96697264D01*
X165950999Y96685064D01*
X165950361Y96672869D01*
X165948534Y96660793D01*
X165945538Y96648954D01*
X165941402Y96637464D01*
X165936163Y96626431D01*
X165929873Y96615963D01*
X165922592Y96606159D01*
X165914389Y96597112D01*
X165148388Y95831112D01*
X165148107Y95830834D01*
X165148079Y95830804D01*
X165148045Y95830773D01*
X165147146Y95829886D01*
X165143035Y95826262D01*
X165139004Y95822632D01*
X165138475Y95822242D01*
X165137985Y95821810D01*
X165133557Y95818617D01*
X165129174Y95815385D01*
X165128614Y95815051D01*
X165128080Y95814666D01*
X165123334Y95811904D01*
X165118684Y95809132D01*
X165118096Y95808855D01*
X165117525Y95808523D01*
X165112532Y95806237D01*
X165107634Y95803932D01*
X165107021Y95803714D01*
X165106421Y95803439D01*
X165101274Y95801667D01*
X165096129Y95799835D01*
X165095486Y95799675D01*
X165094874Y95799464D01*
X165089579Y95798202D01*
X165084279Y95796881D01*
X165083637Y95796786D01*
X165082994Y95796633D01*
X165077559Y95795889D01*
X165072198Y95795097D01*
X165071545Y95795065D01*
X165070895Y95794976D01*
X165065451Y95794767D01*
X165060000Y95794500D01*
X161004000Y95794500D01*
X161003602Y95794503D01*
X161003564Y95794501D01*
X161003520Y95794503D01*
X161002255Y95794512D01*
X160996787Y95794856D01*
X160991368Y95795140D01*
X160990722Y95795238D01*
X160990066Y95795279D01*
X160984699Y95796149D01*
X160979293Y95796966D01*
X160978653Y95797128D01*
X160978011Y95797232D01*
X160972749Y95798622D01*
X160967454Y95799962D01*
X160966841Y95800183D01*
X160966204Y95800351D01*
X160961061Y95802263D01*
X160955963Y95804099D01*
X160955375Y95804378D01*
X160954757Y95804608D01*
X160949861Y95806996D01*
X160944931Y95809337D01*
X160944365Y95809677D01*
X160943781Y95809962D01*
X160939162Y95812803D01*
X160934463Y95815627D01*
X160933937Y95816018D01*
X160933379Y95816361D01*
X160929004Y95819682D01*
X160924659Y95822909D01*
X160924181Y95823343D01*
X160923652Y95823744D01*
X160919608Y95827488D01*
X160915612Y95831112D01*
X160149611Y96597112D01*
X160148386Y96598354D01*
X160146927Y96600009D01*
X160145381Y96601555D01*
X160142916Y96604559D01*
X160140309Y96607516D01*
X160139002Y96609328D01*
X160137599Y96611038D01*
X160135452Y96614251D01*
X160133166Y96617421D01*
X160132035Y96619365D01*
X160130784Y96621237D01*
X160128971Y96624630D01*
X160127023Y96627975D01*
X160126071Y96630054D01*
X160125001Y96632056D01*
X160123545Y96635571D01*
X160121939Y96639079D01*
X160121184Y96641271D01*
X160120307Y96643389D01*
X160119211Y96647001D01*
X160117963Y96650626D01*
X160117420Y96652904D01*
X160116746Y96655127D01*
X160116012Y96658815D01*
X160115133Y96662507D01*
X160114811Y96664855D01*
X160114353Y96667159D01*
X160113988Y96670864D01*
X160113475Y96674605D01*
X160113383Y96677008D01*
X160113151Y96679367D01*
X160113151Y96683054D01*
X160113007Y96686809D01*
X160113151Y96689234D01*
G37*
G04 #@! TD.AperFunction*
G04 #@! TA.AperFunction,Conductor*
G04 #@! TO.N,RAW*
G36*
X161886849Y96681766D02*
G01*
X161886849Y96679367D01*
X161886490Y96675720D01*
X161886269Y96672000D01*
X161885885Y96669572D01*
X161885647Y96667159D01*
X161884937Y96663587D01*
X161884359Y96659937D01*
X161883733Y96657533D01*
X161883254Y96655127D01*
X161882200Y96651654D01*
X161881280Y96648120D01*
X161880414Y96645766D01*
X161879693Y96643389D01*
X161878325Y96640085D01*
X161877064Y96636658D01*
X161875956Y96634367D01*
X161874999Y96632056D01*
X161873319Y96628913D01*
X161871748Y96625664D01*
X161870416Y96623481D01*
X161869216Y96621237D01*
X161867260Y96618309D01*
X161865386Y96615239D01*
X161863817Y96613156D01*
X161862401Y96611038D01*
X161860998Y96609328D01*
X161860185Y96608338D01*
X161858036Y96605486D01*
X161856260Y96603555D01*
X161854619Y96601555D01*
X161852159Y96599095D01*
X161849769Y96596496D01*
X161847797Y96594733D01*
X161845945Y96592881D01*
X161843269Y96590685D01*
X161840665Y96588357D01*
X161838508Y96586778D01*
X161836462Y96585099D01*
X161833620Y96583200D01*
X161830810Y96581143D01*
X161828478Y96579764D01*
X161826263Y96578284D01*
X161823266Y96576682D01*
X161820298Y96574927D01*
X161817826Y96573774D01*
X161815444Y96572501D01*
X161812330Y96571211D01*
X161809231Y96569766D01*
X161806625Y96568848D01*
X161804111Y96567807D01*
X161800916Y96566838D01*
X161797711Y96565709D01*
X161795002Y96565044D01*
X161792373Y96564246D01*
X161789126Y96563600D01*
X161785852Y96562796D01*
X161783062Y96562394D01*
X161780341Y96561853D01*
X161777065Y96561530D01*
X161773764Y96561055D01*
X161770928Y96560926D01*
X161768133Y96560651D01*
X161764867Y96560651D01*
X161761564Y96560501D01*
X161758697Y96560651D01*
X161755867Y96560651D01*
X161752659Y96560967D01*
X161749369Y96561139D01*
X161746496Y96561574D01*
X161743659Y96561853D01*
X161740510Y96562479D01*
X161737293Y96562966D01*
X161734467Y96563681D01*
X161731627Y96564246D01*
X161728569Y96565174D01*
X161725454Y96565962D01*
X161722685Y96566959D01*
X161719889Y96567807D01*
X161716971Y96569015D01*
X161713964Y96570098D01*
X161711286Y96571370D01*
X161708556Y96572501D01*
X161705791Y96573979D01*
X161702931Y96575337D01*
X161700367Y96576878D01*
X161697737Y96578284D01*
X161695153Y96580011D01*
X161692463Y96581627D01*
X161690031Y96583433D01*
X161687538Y96585099D01*
X161685158Y96587052D01*
X161682659Y96588908D01*
X161680396Y96590960D01*
X161678055Y96592881D01*
X161675895Y96595041D01*
X161673612Y96597111D01*
X160944224Y97326500D01*
X156991776Y97326500D01*
X156262388Y96597111D01*
X156261146Y96595886D01*
X156251984Y96587809D01*
X156242079Y96580666D01*
X156231525Y96574523D01*
X156220421Y96569439D01*
X156208874Y96565463D01*
X156196993Y96562633D01*
X156184895Y96560975D01*
X156172691Y96560507D01*
X156160500Y96561231D01*
X156148437Y96563141D01*
X156136620Y96566220D01*
X156125158Y96570436D01*
X156114164Y96575752D01*
X156103739Y96582114D01*
X156093986Y96589464D01*
X156084996Y96597731D01*
X156076857Y96606835D01*
X156069643Y96616690D01*
X156063427Y96627202D01*
X156058266Y96638269D01*
X156054209Y96649789D01*
X156051296Y96661648D01*
X156049555Y96673736D01*
X156049001Y96685936D01*
X156049639Y96698131D01*
X156051466Y96710207D01*
X156054462Y96722046D01*
X156058598Y96733536D01*
X156063837Y96744569D01*
X156070127Y96755037D01*
X156077408Y96764841D01*
X156085611Y96773888D01*
X156851612Y97539888D01*
X156851893Y97540166D01*
X156851921Y97540196D01*
X156851955Y97540227D01*
X156852854Y97541114D01*
X156856965Y97544738D01*
X156860996Y97548368D01*
X156861525Y97548758D01*
X156862015Y97549190D01*
X156866443Y97552383D01*
X156870826Y97555615D01*
X156871386Y97555949D01*
X156871920Y97556334D01*
X156876666Y97559096D01*
X156881316Y97561868D01*
X156881904Y97562145D01*
X156882475Y97562477D01*
X156887468Y97564763D01*
X156892366Y97567068D01*
X156892979Y97567286D01*
X156893579Y97567561D01*
X156898726Y97569333D01*
X156903871Y97571165D01*
X156904514Y97571325D01*
X156905126Y97571536D01*
X156910421Y97572798D01*
X156915721Y97574119D01*
X156916363Y97574214D01*
X156917006Y97574367D01*
X156922441Y97575111D01*
X156927802Y97575903D01*
X156928455Y97575935D01*
X156929105Y97576024D01*
X156934549Y97576233D01*
X156940000Y97576500D01*
X160996000Y97576500D01*
X160996398Y97576497D01*
X160996436Y97576499D01*
X160996480Y97576497D01*
X160997745Y97576488D01*
X161003213Y97576144D01*
X161008632Y97575860D01*
X161009278Y97575762D01*
X161009934Y97575721D01*
X161015301Y97574851D01*
X161020707Y97574034D01*
X161021347Y97573872D01*
X161021989Y97573768D01*
X161027251Y97572378D01*
X161032546Y97571038D01*
X161033159Y97570817D01*
X161033796Y97570649D01*
X161038939Y97568737D01*
X161044037Y97566901D01*
X161044625Y97566622D01*
X161045243Y97566392D01*
X161050139Y97564004D01*
X161055069Y97561663D01*
X161055635Y97561323D01*
X161056219Y97561038D01*
X161060838Y97558197D01*
X161065537Y97555373D01*
X161066063Y97554982D01*
X161066621Y97554639D01*
X161070996Y97551318D01*
X161075341Y97548091D01*
X161075819Y97547657D01*
X161076348Y97547256D01*
X161080392Y97543512D01*
X161084388Y97539888D01*
X161850389Y96773888D01*
X161851614Y96772646D01*
X161853073Y96770991D01*
X161854619Y96769445D01*
X161857084Y96766441D01*
X161859691Y96763484D01*
X161860998Y96761672D01*
X161862401Y96759962D01*
X161864548Y96756749D01*
X161866834Y96753579D01*
X161867965Y96751635D01*
X161869216Y96749763D01*
X161871029Y96746370D01*
X161872977Y96743025D01*
X161873929Y96740946D01*
X161874999Y96738944D01*
X161876455Y96735429D01*
X161878061Y96731921D01*
X161878816Y96729729D01*
X161879693Y96727611D01*
X161880789Y96723999D01*
X161882037Y96720374D01*
X161882580Y96718096D01*
X161883254Y96715873D01*
X161883988Y96712185D01*
X161884867Y96708493D01*
X161885189Y96706145D01*
X161885647Y96703841D01*
X161886012Y96700136D01*
X161886525Y96696395D01*
X161886617Y96693992D01*
X161886849Y96691633D01*
X161886849Y96687946D01*
X161886993Y96684191D01*
X161886849Y96681766D01*
G37*
G04 #@! TD.AperFunction*
D17*
G04 #@! TO.N,GND*
X160238000Y91605500D03*
G04 #@! TO.N,RST*
X161762000Y91605500D03*
G04 #@! TA.AperFunction,Conductor*
D16*
G04 #@! TO.N,GND*
G36*
X160113151Y91609234D02*
G01*
X160113151Y91611633D01*
X160113510Y91615280D01*
X160113731Y91619000D01*
X160114115Y91621428D01*
X160114353Y91623841D01*
X160115063Y91627413D01*
X160115641Y91631063D01*
X160116267Y91633467D01*
X160116746Y91635873D01*
X160117800Y91639346D01*
X160118720Y91642880D01*
X160119586Y91645234D01*
X160120307Y91647611D01*
X160121675Y91650915D01*
X160122936Y91654342D01*
X160124044Y91656633D01*
X160125001Y91658944D01*
X160126681Y91662087D01*
X160128252Y91665336D01*
X160129584Y91667519D01*
X160130784Y91669763D01*
X160132740Y91672691D01*
X160134614Y91675761D01*
X160136183Y91677844D01*
X160137599Y91679962D01*
X160139002Y91681672D01*
X160139815Y91682662D01*
X160141964Y91685514D01*
X160143740Y91687445D01*
X160145381Y91689445D01*
X160147841Y91691905D01*
X160150231Y91694504D01*
X160152203Y91696267D01*
X160154055Y91698119D01*
X160156731Y91700315D01*
X160159335Y91702643D01*
X160161492Y91704222D01*
X160163538Y91705901D01*
X160166380Y91707800D01*
X160169190Y91709857D01*
X160171522Y91711236D01*
X160173737Y91712716D01*
X160176734Y91714318D01*
X160179702Y91716073D01*
X160182174Y91717226D01*
X160184556Y91718499D01*
X160187670Y91719789D01*
X160190769Y91721234D01*
X160193375Y91722152D01*
X160195889Y91723193D01*
X160199084Y91724162D01*
X160202289Y91725291D01*
X160204998Y91725956D01*
X160207627Y91726754D01*
X160210874Y91727400D01*
X160214148Y91728204D01*
X160216938Y91728606D01*
X160219659Y91729147D01*
X160222935Y91729470D01*
X160226236Y91729945D01*
X160229072Y91730074D01*
X160231867Y91730349D01*
X160235133Y91730349D01*
X160238436Y91730499D01*
X160241303Y91730349D01*
X160244133Y91730349D01*
X160247341Y91730033D01*
X160250631Y91729861D01*
X160253504Y91729426D01*
X160256341Y91729147D01*
X160259490Y91728521D01*
X160262707Y91728034D01*
X160265533Y91727319D01*
X160268373Y91726754D01*
X160271431Y91725826D01*
X160274546Y91725038D01*
X160277315Y91724041D01*
X160280111Y91723193D01*
X160283029Y91721985D01*
X160286036Y91720902D01*
X160288714Y91719630D01*
X160291444Y91718499D01*
X160294209Y91717021D01*
X160297069Y91715663D01*
X160299633Y91714122D01*
X160302263Y91712716D01*
X160304847Y91710989D01*
X160307537Y91709373D01*
X160309969Y91707567D01*
X160312462Y91705901D01*
X160314842Y91703948D01*
X160317341Y91702092D01*
X160319604Y91700040D01*
X160321945Y91698119D01*
X160324105Y91695959D01*
X160326388Y91693889D01*
X161055776Y90964500D01*
X165008224Y90964500D01*
X165737612Y91693889D01*
X165738854Y91695114D01*
X165748016Y91703191D01*
X165757921Y91710334D01*
X165768475Y91716477D01*
X165779579Y91721561D01*
X165791126Y91725537D01*
X165803007Y91728367D01*
X165815105Y91730025D01*
X165827309Y91730493D01*
X165839500Y91729769D01*
X165851563Y91727859D01*
X165863380Y91724780D01*
X165874842Y91720564D01*
X165885836Y91715248D01*
X165896261Y91708886D01*
X165906014Y91701536D01*
X165915004Y91693269D01*
X165923143Y91684165D01*
X165930357Y91674310D01*
X165936573Y91663798D01*
X165941734Y91652731D01*
X165945791Y91641211D01*
X165948704Y91629352D01*
X165950445Y91617264D01*
X165950999Y91605064D01*
X165950361Y91592869D01*
X165948534Y91580793D01*
X165945538Y91568954D01*
X165941402Y91557464D01*
X165936163Y91546431D01*
X165929873Y91535963D01*
X165922592Y91526159D01*
X165914389Y91517112D01*
X165148388Y90751112D01*
X165148107Y90750834D01*
X165148079Y90750804D01*
X165148045Y90750773D01*
X165147146Y90749886D01*
X165143035Y90746262D01*
X165139004Y90742632D01*
X165138475Y90742242D01*
X165137985Y90741810D01*
X165133557Y90738617D01*
X165129174Y90735385D01*
X165128614Y90735051D01*
X165128080Y90734666D01*
X165123334Y90731904D01*
X165118684Y90729132D01*
X165118096Y90728855D01*
X165117525Y90728523D01*
X165112532Y90726237D01*
X165107634Y90723932D01*
X165107021Y90723714D01*
X165106421Y90723439D01*
X165101274Y90721667D01*
X165096129Y90719835D01*
X165095486Y90719675D01*
X165094874Y90719464D01*
X165089579Y90718202D01*
X165084279Y90716881D01*
X165083637Y90716786D01*
X165082994Y90716633D01*
X165077559Y90715889D01*
X165072198Y90715097D01*
X165071545Y90715065D01*
X165070895Y90714976D01*
X165065451Y90714767D01*
X165060000Y90714500D01*
X161004000Y90714500D01*
X161003602Y90714503D01*
X161003564Y90714501D01*
X161003520Y90714503D01*
X161002255Y90714512D01*
X160996787Y90714856D01*
X160991368Y90715140D01*
X160990722Y90715238D01*
X160990066Y90715279D01*
X160984699Y90716149D01*
X160979293Y90716966D01*
X160978653Y90717128D01*
X160978011Y90717232D01*
X160972749Y90718622D01*
X160967454Y90719962D01*
X160966841Y90720183D01*
X160966204Y90720351D01*
X160961061Y90722263D01*
X160955963Y90724099D01*
X160955375Y90724378D01*
X160954757Y90724608D01*
X160949861Y90726996D01*
X160944931Y90729337D01*
X160944365Y90729677D01*
X160943781Y90729962D01*
X160939162Y90732803D01*
X160934463Y90735627D01*
X160933937Y90736018D01*
X160933379Y90736361D01*
X160929004Y90739682D01*
X160924659Y90742909D01*
X160924181Y90743343D01*
X160923652Y90743744D01*
X160919608Y90747488D01*
X160915612Y90751112D01*
X160149611Y91517112D01*
X160148386Y91518354D01*
X160146927Y91520009D01*
X160145381Y91521555D01*
X160142916Y91524559D01*
X160140309Y91527516D01*
X160139002Y91529328D01*
X160137599Y91531038D01*
X160135452Y91534251D01*
X160133166Y91537421D01*
X160132035Y91539365D01*
X160130784Y91541237D01*
X160128971Y91544630D01*
X160127023Y91547975D01*
X160126071Y91550054D01*
X160125001Y91552056D01*
X160123545Y91555571D01*
X160121939Y91559079D01*
X160121184Y91561271D01*
X160120307Y91563389D01*
X160119211Y91567001D01*
X160117963Y91570626D01*
X160117420Y91572904D01*
X160116746Y91575127D01*
X160116012Y91578815D01*
X160115133Y91582507D01*
X160114811Y91584855D01*
X160114353Y91587159D01*
X160113988Y91590864D01*
X160113475Y91594605D01*
X160113383Y91597008D01*
X160113151Y91599367D01*
X160113151Y91603054D01*
X160113007Y91606809D01*
X160113151Y91609234D01*
G37*
G04 #@! TD.AperFunction*
G04 #@! TA.AperFunction,Conductor*
G04 #@! TO.N,RST*
G36*
X161886849Y91601766D02*
G01*
X161886849Y91599367D01*
X161886490Y91595720D01*
X161886269Y91592000D01*
X161885885Y91589572D01*
X161885647Y91587159D01*
X161884937Y91583587D01*
X161884359Y91579937D01*
X161883733Y91577533D01*
X161883254Y91575127D01*
X161882200Y91571654D01*
X161881280Y91568120D01*
X161880414Y91565766D01*
X161879693Y91563389D01*
X161878325Y91560085D01*
X161877064Y91556658D01*
X161875956Y91554367D01*
X161874999Y91552056D01*
X161873319Y91548913D01*
X161871748Y91545664D01*
X161870416Y91543481D01*
X161869216Y91541237D01*
X161867260Y91538309D01*
X161865386Y91535239D01*
X161863817Y91533156D01*
X161862401Y91531038D01*
X161860998Y91529328D01*
X161860185Y91528338D01*
X161858036Y91525486D01*
X161856260Y91523555D01*
X161854619Y91521555D01*
X161852159Y91519095D01*
X161849769Y91516496D01*
X161847797Y91514733D01*
X161845945Y91512881D01*
X161843269Y91510685D01*
X161840665Y91508357D01*
X161838508Y91506778D01*
X161836462Y91505099D01*
X161833620Y91503200D01*
X161830810Y91501143D01*
X161828478Y91499764D01*
X161826263Y91498284D01*
X161823266Y91496682D01*
X161820298Y91494927D01*
X161817826Y91493774D01*
X161815444Y91492501D01*
X161812330Y91491211D01*
X161809231Y91489766D01*
X161806625Y91488848D01*
X161804111Y91487807D01*
X161800916Y91486838D01*
X161797711Y91485709D01*
X161795002Y91485044D01*
X161792373Y91484246D01*
X161789126Y91483600D01*
X161785852Y91482796D01*
X161783062Y91482394D01*
X161780341Y91481853D01*
X161777065Y91481530D01*
X161773764Y91481055D01*
X161770928Y91480926D01*
X161768133Y91480651D01*
X161764867Y91480651D01*
X161761564Y91480501D01*
X161758697Y91480651D01*
X161755867Y91480651D01*
X161752659Y91480967D01*
X161749369Y91481139D01*
X161746496Y91481574D01*
X161743659Y91481853D01*
X161740510Y91482479D01*
X161737293Y91482966D01*
X161734467Y91483681D01*
X161731627Y91484246D01*
X161728569Y91485174D01*
X161725454Y91485962D01*
X161722685Y91486959D01*
X161719889Y91487807D01*
X161716971Y91489015D01*
X161713964Y91490098D01*
X161711286Y91491370D01*
X161708556Y91492501D01*
X161705791Y91493979D01*
X161702931Y91495337D01*
X161700367Y91496878D01*
X161697737Y91498284D01*
X161695153Y91500011D01*
X161692463Y91501627D01*
X161690031Y91503433D01*
X161687538Y91505099D01*
X161685158Y91507052D01*
X161682659Y91508908D01*
X161680396Y91510960D01*
X161678055Y91512881D01*
X161675895Y91515041D01*
X161673612Y91517111D01*
X160944224Y92246500D01*
X156991776Y92246500D01*
X156262388Y91517111D01*
X156261146Y91515886D01*
X156251984Y91507809D01*
X156242079Y91500666D01*
X156231525Y91494523D01*
X156220421Y91489439D01*
X156208874Y91485463D01*
X156196993Y91482633D01*
X156184895Y91480975D01*
X156172691Y91480507D01*
X156160500Y91481231D01*
X156148437Y91483141D01*
X156136620Y91486220D01*
X156125158Y91490436D01*
X156114164Y91495752D01*
X156103739Y91502114D01*
X156093986Y91509464D01*
X156084996Y91517731D01*
X156076857Y91526835D01*
X156069643Y91536690D01*
X156063427Y91547202D01*
X156058266Y91558269D01*
X156054209Y91569789D01*
X156051296Y91581648D01*
X156049555Y91593736D01*
X156049001Y91605936D01*
X156049639Y91618131D01*
X156051466Y91630207D01*
X156054462Y91642046D01*
X156058598Y91653536D01*
X156063837Y91664569D01*
X156070127Y91675037D01*
X156077408Y91684841D01*
X156085611Y91693888D01*
X156851612Y92459888D01*
X156851893Y92460166D01*
X156851921Y92460196D01*
X156851955Y92460227D01*
X156852854Y92461114D01*
X156856965Y92464738D01*
X156860996Y92468368D01*
X156861525Y92468758D01*
X156862015Y92469190D01*
X156866443Y92472383D01*
X156870826Y92475615D01*
X156871386Y92475949D01*
X156871920Y92476334D01*
X156876666Y92479096D01*
X156881316Y92481868D01*
X156881904Y92482145D01*
X156882475Y92482477D01*
X156887468Y92484763D01*
X156892366Y92487068D01*
X156892979Y92487286D01*
X156893579Y92487561D01*
X156898726Y92489333D01*
X156903871Y92491165D01*
X156904514Y92491325D01*
X156905126Y92491536D01*
X156910421Y92492798D01*
X156915721Y92494119D01*
X156916363Y92494214D01*
X156917006Y92494367D01*
X156922441Y92495111D01*
X156927802Y92495903D01*
X156928455Y92495935D01*
X156929105Y92496024D01*
X156934549Y92496233D01*
X156940000Y92496500D01*
X160996000Y92496500D01*
X160996398Y92496497D01*
X160996436Y92496499D01*
X160996480Y92496497D01*
X160997745Y92496488D01*
X161003213Y92496144D01*
X161008632Y92495860D01*
X161009278Y92495762D01*
X161009934Y92495721D01*
X161015301Y92494851D01*
X161020707Y92494034D01*
X161021347Y92493872D01*
X161021989Y92493768D01*
X161027251Y92492378D01*
X161032546Y92491038D01*
X161033159Y92490817D01*
X161033796Y92490649D01*
X161038939Y92488737D01*
X161044037Y92486901D01*
X161044625Y92486622D01*
X161045243Y92486392D01*
X161050139Y92484004D01*
X161055069Y92481663D01*
X161055635Y92481323D01*
X161056219Y92481038D01*
X161060838Y92478197D01*
X161065537Y92475373D01*
X161066063Y92474982D01*
X161066621Y92474639D01*
X161070996Y92471318D01*
X161075341Y92468091D01*
X161075819Y92467657D01*
X161076348Y92467256D01*
X161080392Y92463512D01*
X161084388Y92459888D01*
X161850389Y91693888D01*
X161851614Y91692646D01*
X161853073Y91690991D01*
X161854619Y91689445D01*
X161857084Y91686441D01*
X161859691Y91683484D01*
X161860998Y91681672D01*
X161862401Y91679962D01*
X161864548Y91676749D01*
X161866834Y91673579D01*
X161867965Y91671635D01*
X161869216Y91669763D01*
X161871029Y91666370D01*
X161872977Y91663025D01*
X161873929Y91660946D01*
X161874999Y91658944D01*
X161876455Y91655429D01*
X161878061Y91651921D01*
X161878816Y91649729D01*
X161879693Y91647611D01*
X161880789Y91643999D01*
X161882037Y91640374D01*
X161882580Y91638096D01*
X161883254Y91635873D01*
X161883988Y91632185D01*
X161884867Y91628493D01*
X161885189Y91626145D01*
X161885647Y91623841D01*
X161886012Y91620136D01*
X161886525Y91616395D01*
X161886617Y91613992D01*
X161886849Y91611633D01*
X161886849Y91607946D01*
X161886993Y91604191D01*
X161886849Y91601766D01*
G37*
G04 #@! TD.AperFunction*
D17*
G04 #@! TO.N,GND*
X160238000Y89065500D03*
G04 #@! TO.N,VCC*
X161762000Y89065500D03*
G04 #@! TA.AperFunction,Conductor*
D16*
G04 #@! TO.N,GND*
G36*
X160113151Y89069234D02*
G01*
X160113151Y89071633D01*
X160113510Y89075280D01*
X160113731Y89079000D01*
X160114115Y89081428D01*
X160114353Y89083841D01*
X160115063Y89087413D01*
X160115641Y89091063D01*
X160116267Y89093467D01*
X160116746Y89095873D01*
X160117800Y89099346D01*
X160118720Y89102880D01*
X160119586Y89105234D01*
X160120307Y89107611D01*
X160121675Y89110915D01*
X160122936Y89114342D01*
X160124044Y89116633D01*
X160125001Y89118944D01*
X160126681Y89122087D01*
X160128252Y89125336D01*
X160129584Y89127519D01*
X160130784Y89129763D01*
X160132740Y89132691D01*
X160134614Y89135761D01*
X160136183Y89137844D01*
X160137599Y89139962D01*
X160139002Y89141672D01*
X160139815Y89142662D01*
X160141964Y89145514D01*
X160143740Y89147445D01*
X160145381Y89149445D01*
X160147841Y89151905D01*
X160150231Y89154504D01*
X160152203Y89156267D01*
X160154055Y89158119D01*
X160156731Y89160315D01*
X160159335Y89162643D01*
X160161492Y89164222D01*
X160163538Y89165901D01*
X160166380Y89167800D01*
X160169190Y89169857D01*
X160171522Y89171236D01*
X160173737Y89172716D01*
X160176734Y89174318D01*
X160179702Y89176073D01*
X160182174Y89177226D01*
X160184556Y89178499D01*
X160187670Y89179789D01*
X160190769Y89181234D01*
X160193375Y89182152D01*
X160195889Y89183193D01*
X160199084Y89184162D01*
X160202289Y89185291D01*
X160204998Y89185956D01*
X160207627Y89186754D01*
X160210874Y89187400D01*
X160214148Y89188204D01*
X160216938Y89188606D01*
X160219659Y89189147D01*
X160222935Y89189470D01*
X160226236Y89189945D01*
X160229072Y89190074D01*
X160231867Y89190349D01*
X160235133Y89190349D01*
X160238436Y89190499D01*
X160241303Y89190349D01*
X160244133Y89190349D01*
X160247341Y89190033D01*
X160250631Y89189861D01*
X160253504Y89189426D01*
X160256341Y89189147D01*
X160259490Y89188521D01*
X160262707Y89188034D01*
X160265533Y89187319D01*
X160268373Y89186754D01*
X160271431Y89185826D01*
X160274546Y89185038D01*
X160277315Y89184041D01*
X160280111Y89183193D01*
X160283029Y89181985D01*
X160286036Y89180902D01*
X160288714Y89179630D01*
X160291444Y89178499D01*
X160294209Y89177021D01*
X160297069Y89175663D01*
X160299633Y89174122D01*
X160302263Y89172716D01*
X160304847Y89170989D01*
X160307537Y89169373D01*
X160309969Y89167567D01*
X160312462Y89165901D01*
X160314842Y89163948D01*
X160317341Y89162092D01*
X160319604Y89160040D01*
X160321945Y89158119D01*
X160324105Y89155959D01*
X160326388Y89153889D01*
X161055776Y88424500D01*
X165008224Y88424500D01*
X165737612Y89153889D01*
X165738854Y89155114D01*
X165748016Y89163191D01*
X165757921Y89170334D01*
X165768475Y89176477D01*
X165779579Y89181561D01*
X165791126Y89185537D01*
X165803007Y89188367D01*
X165815105Y89190025D01*
X165827309Y89190493D01*
X165839500Y89189769D01*
X165851563Y89187859D01*
X165863380Y89184780D01*
X165874842Y89180564D01*
X165885836Y89175248D01*
X165896261Y89168886D01*
X165906014Y89161536D01*
X165915004Y89153269D01*
X165923143Y89144165D01*
X165930357Y89134310D01*
X165936573Y89123798D01*
X165941734Y89112731D01*
X165945791Y89101211D01*
X165948704Y89089352D01*
X165950445Y89077264D01*
X165950999Y89065064D01*
X165950361Y89052869D01*
X165948534Y89040793D01*
X165945538Y89028954D01*
X165941402Y89017464D01*
X165936163Y89006431D01*
X165929873Y88995963D01*
X165922592Y88986159D01*
X165914389Y88977112D01*
X165148388Y88211112D01*
X165148107Y88210834D01*
X165148079Y88210804D01*
X165148045Y88210773D01*
X165147146Y88209886D01*
X165143035Y88206262D01*
X165139004Y88202632D01*
X165138475Y88202242D01*
X165137985Y88201810D01*
X165133557Y88198617D01*
X165129174Y88195385D01*
X165128614Y88195051D01*
X165128080Y88194666D01*
X165123334Y88191904D01*
X165118684Y88189132D01*
X165118096Y88188855D01*
X165117525Y88188523D01*
X165112532Y88186237D01*
X165107634Y88183932D01*
X165107021Y88183714D01*
X165106421Y88183439D01*
X165101274Y88181667D01*
X165096129Y88179835D01*
X165095486Y88179675D01*
X165094874Y88179464D01*
X165089579Y88178202D01*
X165084279Y88176881D01*
X165083637Y88176786D01*
X165082994Y88176633D01*
X165077559Y88175889D01*
X165072198Y88175097D01*
X165071545Y88175065D01*
X165070895Y88174976D01*
X165065451Y88174767D01*
X165060000Y88174500D01*
X161004000Y88174500D01*
X161003602Y88174503D01*
X161003564Y88174501D01*
X161003520Y88174503D01*
X161002255Y88174512D01*
X160996787Y88174856D01*
X160991368Y88175140D01*
X160990722Y88175238D01*
X160990066Y88175279D01*
X160984699Y88176149D01*
X160979293Y88176966D01*
X160978653Y88177128D01*
X160978011Y88177232D01*
X160972749Y88178622D01*
X160967454Y88179962D01*
X160966841Y88180183D01*
X160966204Y88180351D01*
X160961061Y88182263D01*
X160955963Y88184099D01*
X160955375Y88184378D01*
X160954757Y88184608D01*
X160949861Y88186996D01*
X160944931Y88189337D01*
X160944365Y88189677D01*
X160943781Y88189962D01*
X160939162Y88192803D01*
X160934463Y88195627D01*
X160933937Y88196018D01*
X160933379Y88196361D01*
X160929004Y88199682D01*
X160924659Y88202909D01*
X160924181Y88203343D01*
X160923652Y88203744D01*
X160919608Y88207488D01*
X160915612Y88211112D01*
X160149611Y88977112D01*
X160148386Y88978354D01*
X160146927Y88980009D01*
X160145381Y88981555D01*
X160142916Y88984559D01*
X160140309Y88987516D01*
X160139002Y88989328D01*
X160137599Y88991038D01*
X160135452Y88994251D01*
X160133166Y88997421D01*
X160132035Y88999365D01*
X160130784Y89001237D01*
X160128971Y89004630D01*
X160127023Y89007975D01*
X160126071Y89010054D01*
X160125001Y89012056D01*
X160123545Y89015571D01*
X160121939Y89019079D01*
X160121184Y89021271D01*
X160120307Y89023389D01*
X160119211Y89027001D01*
X160117963Y89030626D01*
X160117420Y89032904D01*
X160116746Y89035127D01*
X160116012Y89038815D01*
X160115133Y89042507D01*
X160114811Y89044855D01*
X160114353Y89047159D01*
X160113988Y89050864D01*
X160113475Y89054605D01*
X160113383Y89057008D01*
X160113151Y89059367D01*
X160113151Y89063054D01*
X160113007Y89066809D01*
X160113151Y89069234D01*
G37*
G04 #@! TD.AperFunction*
G04 #@! TA.AperFunction,Conductor*
G04 #@! TO.N,VCC*
G36*
X161886849Y89061766D02*
G01*
X161886849Y89059367D01*
X161886490Y89055720D01*
X161886269Y89052000D01*
X161885885Y89049572D01*
X161885647Y89047159D01*
X161884937Y89043587D01*
X161884359Y89039937D01*
X161883733Y89037533D01*
X161883254Y89035127D01*
X161882200Y89031654D01*
X161881280Y89028120D01*
X161880414Y89025766D01*
X161879693Y89023389D01*
X161878325Y89020085D01*
X161877064Y89016658D01*
X161875956Y89014367D01*
X161874999Y89012056D01*
X161873319Y89008913D01*
X161871748Y89005664D01*
X161870416Y89003481D01*
X161869216Y89001237D01*
X161867260Y88998309D01*
X161865386Y88995239D01*
X161863817Y88993156D01*
X161862401Y88991038D01*
X161860998Y88989328D01*
X161860185Y88988338D01*
X161858036Y88985486D01*
X161856260Y88983555D01*
X161854619Y88981555D01*
X161852159Y88979095D01*
X161849769Y88976496D01*
X161847797Y88974733D01*
X161845945Y88972881D01*
X161843269Y88970685D01*
X161840665Y88968357D01*
X161838508Y88966778D01*
X161836462Y88965099D01*
X161833620Y88963200D01*
X161830810Y88961143D01*
X161828478Y88959764D01*
X161826263Y88958284D01*
X161823266Y88956682D01*
X161820298Y88954927D01*
X161817826Y88953774D01*
X161815444Y88952501D01*
X161812330Y88951211D01*
X161809231Y88949766D01*
X161806625Y88948848D01*
X161804111Y88947807D01*
X161800916Y88946838D01*
X161797711Y88945709D01*
X161795002Y88945044D01*
X161792373Y88944246D01*
X161789126Y88943600D01*
X161785852Y88942796D01*
X161783062Y88942394D01*
X161780341Y88941853D01*
X161777065Y88941530D01*
X161773764Y88941055D01*
X161770928Y88940926D01*
X161768133Y88940651D01*
X161764867Y88940651D01*
X161761564Y88940501D01*
X161758697Y88940651D01*
X161755867Y88940651D01*
X161752659Y88940967D01*
X161749369Y88941139D01*
X161746496Y88941574D01*
X161743659Y88941853D01*
X161740510Y88942479D01*
X161737293Y88942966D01*
X161734467Y88943681D01*
X161731627Y88944246D01*
X161728569Y88945174D01*
X161725454Y88945962D01*
X161722685Y88946959D01*
X161719889Y88947807D01*
X161716971Y88949015D01*
X161713964Y88950098D01*
X161711286Y88951370D01*
X161708556Y88952501D01*
X161705791Y88953979D01*
X161702931Y88955337D01*
X161700367Y88956878D01*
X161697737Y88958284D01*
X161695153Y88960011D01*
X161692463Y88961627D01*
X161690031Y88963433D01*
X161687538Y88965099D01*
X161685158Y88967052D01*
X161682659Y88968908D01*
X161680396Y88970960D01*
X161678055Y88972881D01*
X161675895Y88975041D01*
X161673612Y88977111D01*
X160944224Y89706500D01*
X156991776Y89706500D01*
X156262388Y88977111D01*
X156261146Y88975886D01*
X156251984Y88967809D01*
X156242079Y88960666D01*
X156231525Y88954523D01*
X156220421Y88949439D01*
X156208874Y88945463D01*
X156196993Y88942633D01*
X156184895Y88940975D01*
X156172691Y88940507D01*
X156160500Y88941231D01*
X156148437Y88943141D01*
X156136620Y88946220D01*
X156125158Y88950436D01*
X156114164Y88955752D01*
X156103739Y88962114D01*
X156093986Y88969464D01*
X156084996Y88977731D01*
X156076857Y88986835D01*
X156069643Y88996690D01*
X156063427Y89007202D01*
X156058266Y89018269D01*
X156054209Y89029789D01*
X156051296Y89041648D01*
X156049555Y89053736D01*
X156049001Y89065936D01*
X156049639Y89078131D01*
X156051466Y89090207D01*
X156054462Y89102046D01*
X156058598Y89113536D01*
X156063837Y89124569D01*
X156070127Y89135037D01*
X156077408Y89144841D01*
X156085611Y89153888D01*
X156851612Y89919888D01*
X156851893Y89920166D01*
X156851921Y89920196D01*
X156851955Y89920227D01*
X156852854Y89921114D01*
X156856965Y89924738D01*
X156860996Y89928368D01*
X156861525Y89928758D01*
X156862015Y89929190D01*
X156866443Y89932383D01*
X156870826Y89935615D01*
X156871386Y89935949D01*
X156871920Y89936334D01*
X156876666Y89939096D01*
X156881316Y89941868D01*
X156881904Y89942145D01*
X156882475Y89942477D01*
X156887468Y89944763D01*
X156892366Y89947068D01*
X156892979Y89947286D01*
X156893579Y89947561D01*
X156898726Y89949333D01*
X156903871Y89951165D01*
X156904514Y89951325D01*
X156905126Y89951536D01*
X156910421Y89952798D01*
X156915721Y89954119D01*
X156916363Y89954214D01*
X156917006Y89954367D01*
X156922441Y89955111D01*
X156927802Y89955903D01*
X156928455Y89955935D01*
X156929105Y89956024D01*
X156934549Y89956233D01*
X156940000Y89956500D01*
X160996000Y89956500D01*
X160996398Y89956497D01*
X160996436Y89956499D01*
X160996480Y89956497D01*
X160997745Y89956488D01*
X161003213Y89956144D01*
X161008632Y89955860D01*
X161009278Y89955762D01*
X161009934Y89955721D01*
X161015301Y89954851D01*
X161020707Y89954034D01*
X161021347Y89953872D01*
X161021989Y89953768D01*
X161027251Y89952378D01*
X161032546Y89951038D01*
X161033159Y89950817D01*
X161033796Y89950649D01*
X161038939Y89948737D01*
X161044037Y89946901D01*
X161044625Y89946622D01*
X161045243Y89946392D01*
X161050139Y89944004D01*
X161055069Y89941663D01*
X161055635Y89941323D01*
X161056219Y89941038D01*
X161060838Y89938197D01*
X161065537Y89935373D01*
X161066063Y89934982D01*
X161066621Y89934639D01*
X161070996Y89931318D01*
X161075341Y89928091D01*
X161075819Y89927657D01*
X161076348Y89927256D01*
X161080392Y89923512D01*
X161084388Y89919888D01*
X161850389Y89153888D01*
X161851614Y89152646D01*
X161853073Y89150991D01*
X161854619Y89149445D01*
X161857084Y89146441D01*
X161859691Y89143484D01*
X161860998Y89141672D01*
X161862401Y89139962D01*
X161864548Y89136749D01*
X161866834Y89133579D01*
X161867965Y89131635D01*
X161869216Y89129763D01*
X161871029Y89126370D01*
X161872977Y89123025D01*
X161873929Y89120946D01*
X161874999Y89118944D01*
X161876455Y89115429D01*
X161878061Y89111921D01*
X161878816Y89109729D01*
X161879693Y89107611D01*
X161880789Y89103999D01*
X161882037Y89100374D01*
X161882580Y89098096D01*
X161883254Y89095873D01*
X161883988Y89092185D01*
X161884867Y89088493D01*
X161885189Y89086145D01*
X161885647Y89083841D01*
X161886012Y89080136D01*
X161886525Y89076395D01*
X161886617Y89073992D01*
X161886849Y89071633D01*
X161886849Y89067946D01*
X161886993Y89064191D01*
X161886849Y89061766D01*
G37*
G04 #@! TD.AperFunction*
D17*
G04 #@! TO.N,P2*
X160238000Y86525500D03*
G04 #@! TO.N,P21*
X161762000Y86525500D03*
G04 #@! TA.AperFunction,Conductor*
D16*
G04 #@! TO.N,P2*
G36*
X160113151Y86529234D02*
G01*
X160113151Y86531633D01*
X160113510Y86535280D01*
X160113731Y86539000D01*
X160114115Y86541428D01*
X160114353Y86543841D01*
X160115063Y86547413D01*
X160115641Y86551063D01*
X160116267Y86553467D01*
X160116746Y86555873D01*
X160117800Y86559346D01*
X160118720Y86562880D01*
X160119586Y86565234D01*
X160120307Y86567611D01*
X160121675Y86570915D01*
X160122936Y86574342D01*
X160124044Y86576633D01*
X160125001Y86578944D01*
X160126681Y86582087D01*
X160128252Y86585336D01*
X160129584Y86587519D01*
X160130784Y86589763D01*
X160132740Y86592691D01*
X160134614Y86595761D01*
X160136183Y86597844D01*
X160137599Y86599962D01*
X160139002Y86601672D01*
X160139815Y86602662D01*
X160141964Y86605514D01*
X160143740Y86607445D01*
X160145381Y86609445D01*
X160147841Y86611905D01*
X160150231Y86614504D01*
X160152203Y86616267D01*
X160154055Y86618119D01*
X160156731Y86620315D01*
X160159335Y86622643D01*
X160161492Y86624222D01*
X160163538Y86625901D01*
X160166380Y86627800D01*
X160169190Y86629857D01*
X160171522Y86631236D01*
X160173737Y86632716D01*
X160176734Y86634318D01*
X160179702Y86636073D01*
X160182174Y86637226D01*
X160184556Y86638499D01*
X160187670Y86639789D01*
X160190769Y86641234D01*
X160193375Y86642152D01*
X160195889Y86643193D01*
X160199084Y86644162D01*
X160202289Y86645291D01*
X160204998Y86645956D01*
X160207627Y86646754D01*
X160210874Y86647400D01*
X160214148Y86648204D01*
X160216938Y86648606D01*
X160219659Y86649147D01*
X160222935Y86649470D01*
X160226236Y86649945D01*
X160229072Y86650074D01*
X160231867Y86650349D01*
X160235133Y86650349D01*
X160238436Y86650499D01*
X160241303Y86650349D01*
X160244133Y86650349D01*
X160247341Y86650033D01*
X160250631Y86649861D01*
X160253504Y86649426D01*
X160256341Y86649147D01*
X160259490Y86648521D01*
X160262707Y86648034D01*
X160265533Y86647319D01*
X160268373Y86646754D01*
X160271431Y86645826D01*
X160274546Y86645038D01*
X160277315Y86644041D01*
X160280111Y86643193D01*
X160283029Y86641985D01*
X160286036Y86640902D01*
X160288714Y86639630D01*
X160291444Y86638499D01*
X160294209Y86637021D01*
X160297069Y86635663D01*
X160299633Y86634122D01*
X160302263Y86632716D01*
X160304847Y86630989D01*
X160307537Y86629373D01*
X160309969Y86627567D01*
X160312462Y86625901D01*
X160314842Y86623948D01*
X160317341Y86622092D01*
X160319604Y86620040D01*
X160321945Y86618119D01*
X160324105Y86615959D01*
X160326388Y86613889D01*
X161055776Y85884500D01*
X165008224Y85884500D01*
X165737612Y86613889D01*
X165738854Y86615114D01*
X165748016Y86623191D01*
X165757921Y86630334D01*
X165768475Y86636477D01*
X165779579Y86641561D01*
X165791126Y86645537D01*
X165803007Y86648367D01*
X165815105Y86650025D01*
X165827309Y86650493D01*
X165839500Y86649769D01*
X165851563Y86647859D01*
X165863380Y86644780D01*
X165874842Y86640564D01*
X165885836Y86635248D01*
X165896261Y86628886D01*
X165906014Y86621536D01*
X165915004Y86613269D01*
X165923143Y86604165D01*
X165930357Y86594310D01*
X165936573Y86583798D01*
X165941734Y86572731D01*
X165945791Y86561211D01*
X165948704Y86549352D01*
X165950445Y86537264D01*
X165950999Y86525064D01*
X165950361Y86512869D01*
X165948534Y86500793D01*
X165945538Y86488954D01*
X165941402Y86477464D01*
X165936163Y86466431D01*
X165929873Y86455963D01*
X165922592Y86446159D01*
X165914389Y86437112D01*
X165148388Y85671112D01*
X165148107Y85670834D01*
X165148079Y85670804D01*
X165148045Y85670773D01*
X165147146Y85669886D01*
X165143035Y85666262D01*
X165139004Y85662632D01*
X165138475Y85662242D01*
X165137985Y85661810D01*
X165133557Y85658617D01*
X165129174Y85655385D01*
X165128614Y85655051D01*
X165128080Y85654666D01*
X165123334Y85651904D01*
X165118684Y85649132D01*
X165118096Y85648855D01*
X165117525Y85648523D01*
X165112532Y85646237D01*
X165107634Y85643932D01*
X165107021Y85643714D01*
X165106421Y85643439D01*
X165101274Y85641667D01*
X165096129Y85639835D01*
X165095486Y85639675D01*
X165094874Y85639464D01*
X165089579Y85638202D01*
X165084279Y85636881D01*
X165083637Y85636786D01*
X165082994Y85636633D01*
X165077559Y85635889D01*
X165072198Y85635097D01*
X165071545Y85635065D01*
X165070895Y85634976D01*
X165065451Y85634767D01*
X165060000Y85634500D01*
X161004000Y85634500D01*
X161003602Y85634503D01*
X161003564Y85634501D01*
X161003520Y85634503D01*
X161002255Y85634512D01*
X160996787Y85634856D01*
X160991368Y85635140D01*
X160990722Y85635238D01*
X160990066Y85635279D01*
X160984699Y85636149D01*
X160979293Y85636966D01*
X160978653Y85637128D01*
X160978011Y85637232D01*
X160972749Y85638622D01*
X160967454Y85639962D01*
X160966841Y85640183D01*
X160966204Y85640351D01*
X160961061Y85642263D01*
X160955963Y85644099D01*
X160955375Y85644378D01*
X160954757Y85644608D01*
X160949861Y85646996D01*
X160944931Y85649337D01*
X160944365Y85649677D01*
X160943781Y85649962D01*
X160939162Y85652803D01*
X160934463Y85655627D01*
X160933937Y85656018D01*
X160933379Y85656361D01*
X160929004Y85659682D01*
X160924659Y85662909D01*
X160924181Y85663343D01*
X160923652Y85663744D01*
X160919608Y85667488D01*
X160915612Y85671112D01*
X160149611Y86437112D01*
X160148386Y86438354D01*
X160146927Y86440009D01*
X160145381Y86441555D01*
X160142916Y86444559D01*
X160140309Y86447516D01*
X160139002Y86449328D01*
X160137599Y86451038D01*
X160135452Y86454251D01*
X160133166Y86457421D01*
X160132035Y86459365D01*
X160130784Y86461237D01*
X160128971Y86464630D01*
X160127023Y86467975D01*
X160126071Y86470054D01*
X160125001Y86472056D01*
X160123545Y86475571D01*
X160121939Y86479079D01*
X160121184Y86481271D01*
X160120307Y86483389D01*
X160119211Y86487001D01*
X160117963Y86490626D01*
X160117420Y86492904D01*
X160116746Y86495127D01*
X160116012Y86498815D01*
X160115133Y86502507D01*
X160114811Y86504855D01*
X160114353Y86507159D01*
X160113988Y86510864D01*
X160113475Y86514605D01*
X160113383Y86517008D01*
X160113151Y86519367D01*
X160113151Y86523054D01*
X160113007Y86526809D01*
X160113151Y86529234D01*
G37*
G04 #@! TD.AperFunction*
G04 #@! TA.AperFunction,Conductor*
G04 #@! TO.N,P21*
G36*
X161886849Y86521766D02*
G01*
X161886849Y86519367D01*
X161886490Y86515720D01*
X161886269Y86512000D01*
X161885885Y86509572D01*
X161885647Y86507159D01*
X161884937Y86503587D01*
X161884359Y86499937D01*
X161883733Y86497533D01*
X161883254Y86495127D01*
X161882200Y86491654D01*
X161881280Y86488120D01*
X161880414Y86485766D01*
X161879693Y86483389D01*
X161878325Y86480085D01*
X161877064Y86476658D01*
X161875956Y86474367D01*
X161874999Y86472056D01*
X161873319Y86468913D01*
X161871748Y86465664D01*
X161870416Y86463481D01*
X161869216Y86461237D01*
X161867260Y86458309D01*
X161865386Y86455239D01*
X161863817Y86453156D01*
X161862401Y86451038D01*
X161860998Y86449328D01*
X161860185Y86448338D01*
X161858036Y86445486D01*
X161856260Y86443555D01*
X161854619Y86441555D01*
X161852159Y86439095D01*
X161849769Y86436496D01*
X161847797Y86434733D01*
X161845945Y86432881D01*
X161843269Y86430685D01*
X161840665Y86428357D01*
X161838508Y86426778D01*
X161836462Y86425099D01*
X161833620Y86423200D01*
X161830810Y86421143D01*
X161828478Y86419764D01*
X161826263Y86418284D01*
X161823266Y86416682D01*
X161820298Y86414927D01*
X161817826Y86413774D01*
X161815444Y86412501D01*
X161812330Y86411211D01*
X161809231Y86409766D01*
X161806625Y86408848D01*
X161804111Y86407807D01*
X161800916Y86406838D01*
X161797711Y86405709D01*
X161795002Y86405044D01*
X161792373Y86404246D01*
X161789126Y86403600D01*
X161785852Y86402796D01*
X161783062Y86402394D01*
X161780341Y86401853D01*
X161777065Y86401530D01*
X161773764Y86401055D01*
X161770928Y86400926D01*
X161768133Y86400651D01*
X161764867Y86400651D01*
X161761564Y86400501D01*
X161758697Y86400651D01*
X161755867Y86400651D01*
X161752659Y86400967D01*
X161749369Y86401139D01*
X161746496Y86401574D01*
X161743659Y86401853D01*
X161740510Y86402479D01*
X161737293Y86402966D01*
X161734467Y86403681D01*
X161731627Y86404246D01*
X161728569Y86405174D01*
X161725454Y86405962D01*
X161722685Y86406959D01*
X161719889Y86407807D01*
X161716971Y86409015D01*
X161713964Y86410098D01*
X161711286Y86411370D01*
X161708556Y86412501D01*
X161705791Y86413979D01*
X161702931Y86415337D01*
X161700367Y86416878D01*
X161697737Y86418284D01*
X161695153Y86420011D01*
X161692463Y86421627D01*
X161690031Y86423433D01*
X161687538Y86425099D01*
X161685158Y86427052D01*
X161682659Y86428908D01*
X161680396Y86430960D01*
X161678055Y86432881D01*
X161675895Y86435041D01*
X161673612Y86437111D01*
X160944224Y87166500D01*
X156991776Y87166500D01*
X156262388Y86437111D01*
X156261146Y86435886D01*
X156251984Y86427809D01*
X156242079Y86420666D01*
X156231525Y86414523D01*
X156220421Y86409439D01*
X156208874Y86405463D01*
X156196993Y86402633D01*
X156184895Y86400975D01*
X156172691Y86400507D01*
X156160500Y86401231D01*
X156148437Y86403141D01*
X156136620Y86406220D01*
X156125158Y86410436D01*
X156114164Y86415752D01*
X156103739Y86422114D01*
X156093986Y86429464D01*
X156084996Y86437731D01*
X156076857Y86446835D01*
X156069643Y86456690D01*
X156063427Y86467202D01*
X156058266Y86478269D01*
X156054209Y86489789D01*
X156051296Y86501648D01*
X156049555Y86513736D01*
X156049001Y86525936D01*
X156049639Y86538131D01*
X156051466Y86550207D01*
X156054462Y86562046D01*
X156058598Y86573536D01*
X156063837Y86584569D01*
X156070127Y86595037D01*
X156077408Y86604841D01*
X156085611Y86613888D01*
X156851612Y87379888D01*
X156851893Y87380166D01*
X156851921Y87380196D01*
X156851955Y87380227D01*
X156852854Y87381114D01*
X156856965Y87384738D01*
X156860996Y87388368D01*
X156861525Y87388758D01*
X156862015Y87389190D01*
X156866443Y87392383D01*
X156870826Y87395615D01*
X156871386Y87395949D01*
X156871920Y87396334D01*
X156876666Y87399096D01*
X156881316Y87401868D01*
X156881904Y87402145D01*
X156882475Y87402477D01*
X156887468Y87404763D01*
X156892366Y87407068D01*
X156892979Y87407286D01*
X156893579Y87407561D01*
X156898726Y87409333D01*
X156903871Y87411165D01*
X156904514Y87411325D01*
X156905126Y87411536D01*
X156910421Y87412798D01*
X156915721Y87414119D01*
X156916363Y87414214D01*
X156917006Y87414367D01*
X156922441Y87415111D01*
X156927802Y87415903D01*
X156928455Y87415935D01*
X156929105Y87416024D01*
X156934549Y87416233D01*
X156940000Y87416500D01*
X160996000Y87416500D01*
X160996398Y87416497D01*
X160996436Y87416499D01*
X160996480Y87416497D01*
X160997745Y87416488D01*
X161003213Y87416144D01*
X161008632Y87415860D01*
X161009278Y87415762D01*
X161009934Y87415721D01*
X161015301Y87414851D01*
X161020707Y87414034D01*
X161021347Y87413872D01*
X161021989Y87413768D01*
X161027251Y87412378D01*
X161032546Y87411038D01*
X161033159Y87410817D01*
X161033796Y87410649D01*
X161038939Y87408737D01*
X161044037Y87406901D01*
X161044625Y87406622D01*
X161045243Y87406392D01*
X161050139Y87404004D01*
X161055069Y87401663D01*
X161055635Y87401323D01*
X161056219Y87401038D01*
X161060838Y87398197D01*
X161065537Y87395373D01*
X161066063Y87394982D01*
X161066621Y87394639D01*
X161070996Y87391318D01*
X161075341Y87388091D01*
X161075819Y87387657D01*
X161076348Y87387256D01*
X161080392Y87383512D01*
X161084388Y87379888D01*
X161850389Y86613888D01*
X161851614Y86612646D01*
X161853073Y86610991D01*
X161854619Y86609445D01*
X161857084Y86606441D01*
X161859691Y86603484D01*
X161860998Y86601672D01*
X161862401Y86599962D01*
X161864548Y86596749D01*
X161866834Y86593579D01*
X161867965Y86591635D01*
X161869216Y86589763D01*
X161871029Y86586370D01*
X161872977Y86583025D01*
X161873929Y86580946D01*
X161874999Y86578944D01*
X161876455Y86575429D01*
X161878061Y86571921D01*
X161878816Y86569729D01*
X161879693Y86567611D01*
X161880789Y86563999D01*
X161882037Y86560374D01*
X161882580Y86558096D01*
X161883254Y86555873D01*
X161883988Y86552185D01*
X161884867Y86548493D01*
X161885189Y86546145D01*
X161885647Y86543841D01*
X161886012Y86540136D01*
X161886525Y86536395D01*
X161886617Y86533992D01*
X161886849Y86531633D01*
X161886849Y86527946D01*
X161886993Y86524191D01*
X161886849Y86521766D01*
G37*
G04 #@! TD.AperFunction*
D17*
G04 #@! TO.N,P3*
X160238000Y83985500D03*
G04 #@! TO.N,P20*
X161762000Y83985500D03*
G04 #@! TA.AperFunction,Conductor*
D16*
G04 #@! TO.N,P3*
G36*
X160113151Y83989234D02*
G01*
X160113151Y83991633D01*
X160113510Y83995280D01*
X160113731Y83999000D01*
X160114115Y84001428D01*
X160114353Y84003841D01*
X160115063Y84007413D01*
X160115641Y84011063D01*
X160116267Y84013467D01*
X160116746Y84015873D01*
X160117800Y84019346D01*
X160118720Y84022880D01*
X160119586Y84025234D01*
X160120307Y84027611D01*
X160121675Y84030915D01*
X160122936Y84034342D01*
X160124044Y84036633D01*
X160125001Y84038944D01*
X160126681Y84042087D01*
X160128252Y84045336D01*
X160129584Y84047519D01*
X160130784Y84049763D01*
X160132740Y84052691D01*
X160134614Y84055761D01*
X160136183Y84057844D01*
X160137599Y84059962D01*
X160139002Y84061672D01*
X160139815Y84062662D01*
X160141964Y84065514D01*
X160143740Y84067445D01*
X160145381Y84069445D01*
X160147841Y84071905D01*
X160150231Y84074504D01*
X160152203Y84076267D01*
X160154055Y84078119D01*
X160156731Y84080315D01*
X160159335Y84082643D01*
X160161492Y84084222D01*
X160163538Y84085901D01*
X160166380Y84087800D01*
X160169190Y84089857D01*
X160171522Y84091236D01*
X160173737Y84092716D01*
X160176734Y84094318D01*
X160179702Y84096073D01*
X160182174Y84097226D01*
X160184556Y84098499D01*
X160187670Y84099789D01*
X160190769Y84101234D01*
X160193375Y84102152D01*
X160195889Y84103193D01*
X160199084Y84104162D01*
X160202289Y84105291D01*
X160204998Y84105956D01*
X160207627Y84106754D01*
X160210874Y84107400D01*
X160214148Y84108204D01*
X160216938Y84108606D01*
X160219659Y84109147D01*
X160222935Y84109470D01*
X160226236Y84109945D01*
X160229072Y84110074D01*
X160231867Y84110349D01*
X160235133Y84110349D01*
X160238436Y84110499D01*
X160241303Y84110349D01*
X160244133Y84110349D01*
X160247341Y84110033D01*
X160250631Y84109861D01*
X160253504Y84109426D01*
X160256341Y84109147D01*
X160259490Y84108521D01*
X160262707Y84108034D01*
X160265533Y84107319D01*
X160268373Y84106754D01*
X160271431Y84105826D01*
X160274546Y84105038D01*
X160277315Y84104041D01*
X160280111Y84103193D01*
X160283029Y84101985D01*
X160286036Y84100902D01*
X160288714Y84099630D01*
X160291444Y84098499D01*
X160294209Y84097021D01*
X160297069Y84095663D01*
X160299633Y84094122D01*
X160302263Y84092716D01*
X160304847Y84090989D01*
X160307537Y84089373D01*
X160309969Y84087567D01*
X160312462Y84085901D01*
X160314842Y84083948D01*
X160317341Y84082092D01*
X160319604Y84080040D01*
X160321945Y84078119D01*
X160324105Y84075959D01*
X160326388Y84073889D01*
X161055776Y83344500D01*
X165008224Y83344500D01*
X165737612Y84073889D01*
X165738854Y84075114D01*
X165748016Y84083191D01*
X165757921Y84090334D01*
X165768475Y84096477D01*
X165779579Y84101561D01*
X165791126Y84105537D01*
X165803007Y84108367D01*
X165815105Y84110025D01*
X165827309Y84110493D01*
X165839500Y84109769D01*
X165851563Y84107859D01*
X165863380Y84104780D01*
X165874842Y84100564D01*
X165885836Y84095248D01*
X165896261Y84088886D01*
X165906014Y84081536D01*
X165915004Y84073269D01*
X165923143Y84064165D01*
X165930357Y84054310D01*
X165936573Y84043798D01*
X165941734Y84032731D01*
X165945791Y84021211D01*
X165948704Y84009352D01*
X165950445Y83997264D01*
X165950999Y83985064D01*
X165950361Y83972869D01*
X165948534Y83960793D01*
X165945538Y83948954D01*
X165941402Y83937464D01*
X165936163Y83926431D01*
X165929873Y83915963D01*
X165922592Y83906159D01*
X165914389Y83897112D01*
X165148388Y83131112D01*
X165148107Y83130834D01*
X165148079Y83130804D01*
X165148045Y83130773D01*
X165147146Y83129886D01*
X165143035Y83126262D01*
X165139004Y83122632D01*
X165138475Y83122242D01*
X165137985Y83121810D01*
X165133557Y83118617D01*
X165129174Y83115385D01*
X165128614Y83115051D01*
X165128080Y83114666D01*
X165123334Y83111904D01*
X165118684Y83109132D01*
X165118096Y83108855D01*
X165117525Y83108523D01*
X165112532Y83106237D01*
X165107634Y83103932D01*
X165107021Y83103714D01*
X165106421Y83103439D01*
X165101274Y83101667D01*
X165096129Y83099835D01*
X165095486Y83099675D01*
X165094874Y83099464D01*
X165089579Y83098202D01*
X165084279Y83096881D01*
X165083637Y83096786D01*
X165082994Y83096633D01*
X165077559Y83095889D01*
X165072198Y83095097D01*
X165071545Y83095065D01*
X165070895Y83094976D01*
X165065451Y83094767D01*
X165060000Y83094500D01*
X161004000Y83094500D01*
X161003602Y83094503D01*
X161003564Y83094501D01*
X161003520Y83094503D01*
X161002255Y83094512D01*
X160996787Y83094856D01*
X160991368Y83095140D01*
X160990722Y83095238D01*
X160990066Y83095279D01*
X160984699Y83096149D01*
X160979293Y83096966D01*
X160978653Y83097128D01*
X160978011Y83097232D01*
X160972749Y83098622D01*
X160967454Y83099962D01*
X160966841Y83100183D01*
X160966204Y83100351D01*
X160961061Y83102263D01*
X160955963Y83104099D01*
X160955375Y83104378D01*
X160954757Y83104608D01*
X160949861Y83106996D01*
X160944931Y83109337D01*
X160944365Y83109677D01*
X160943781Y83109962D01*
X160939162Y83112803D01*
X160934463Y83115627D01*
X160933937Y83116018D01*
X160933379Y83116361D01*
X160929004Y83119682D01*
X160924659Y83122909D01*
X160924181Y83123343D01*
X160923652Y83123744D01*
X160919608Y83127488D01*
X160915612Y83131112D01*
X160149611Y83897112D01*
X160148386Y83898354D01*
X160146927Y83900009D01*
X160145381Y83901555D01*
X160142916Y83904559D01*
X160140309Y83907516D01*
X160139002Y83909328D01*
X160137599Y83911038D01*
X160135452Y83914251D01*
X160133166Y83917421D01*
X160132035Y83919365D01*
X160130784Y83921237D01*
X160128971Y83924630D01*
X160127023Y83927975D01*
X160126071Y83930054D01*
X160125001Y83932056D01*
X160123545Y83935571D01*
X160121939Y83939079D01*
X160121184Y83941271D01*
X160120307Y83943389D01*
X160119211Y83947001D01*
X160117963Y83950626D01*
X160117420Y83952904D01*
X160116746Y83955127D01*
X160116012Y83958815D01*
X160115133Y83962507D01*
X160114811Y83964855D01*
X160114353Y83967159D01*
X160113988Y83970864D01*
X160113475Y83974605D01*
X160113383Y83977008D01*
X160113151Y83979367D01*
X160113151Y83983054D01*
X160113007Y83986809D01*
X160113151Y83989234D01*
G37*
G04 #@! TD.AperFunction*
G04 #@! TA.AperFunction,Conductor*
G04 #@! TO.N,P20*
G36*
X161886849Y83981766D02*
G01*
X161886849Y83979367D01*
X161886490Y83975720D01*
X161886269Y83972000D01*
X161885885Y83969572D01*
X161885647Y83967159D01*
X161884937Y83963587D01*
X161884359Y83959937D01*
X161883733Y83957533D01*
X161883254Y83955127D01*
X161882200Y83951654D01*
X161881280Y83948120D01*
X161880414Y83945766D01*
X161879693Y83943389D01*
X161878325Y83940085D01*
X161877064Y83936658D01*
X161875956Y83934367D01*
X161874999Y83932056D01*
X161873319Y83928913D01*
X161871748Y83925664D01*
X161870416Y83923481D01*
X161869216Y83921237D01*
X161867260Y83918309D01*
X161865386Y83915239D01*
X161863817Y83913156D01*
X161862401Y83911038D01*
X161860998Y83909328D01*
X161860185Y83908338D01*
X161858036Y83905486D01*
X161856260Y83903555D01*
X161854619Y83901555D01*
X161852159Y83899095D01*
X161849769Y83896496D01*
X161847797Y83894733D01*
X161845945Y83892881D01*
X161843269Y83890685D01*
X161840665Y83888357D01*
X161838508Y83886778D01*
X161836462Y83885099D01*
X161833620Y83883200D01*
X161830810Y83881143D01*
X161828478Y83879764D01*
X161826263Y83878284D01*
X161823266Y83876682D01*
X161820298Y83874927D01*
X161817826Y83873774D01*
X161815444Y83872501D01*
X161812330Y83871211D01*
X161809231Y83869766D01*
X161806625Y83868848D01*
X161804111Y83867807D01*
X161800916Y83866838D01*
X161797711Y83865709D01*
X161795002Y83865044D01*
X161792373Y83864246D01*
X161789126Y83863600D01*
X161785852Y83862796D01*
X161783062Y83862394D01*
X161780341Y83861853D01*
X161777065Y83861530D01*
X161773764Y83861055D01*
X161770928Y83860926D01*
X161768133Y83860651D01*
X161764867Y83860651D01*
X161761564Y83860501D01*
X161758697Y83860651D01*
X161755867Y83860651D01*
X161752659Y83860967D01*
X161749369Y83861139D01*
X161746496Y83861574D01*
X161743659Y83861853D01*
X161740510Y83862479D01*
X161737293Y83862966D01*
X161734467Y83863681D01*
X161731627Y83864246D01*
X161728569Y83865174D01*
X161725454Y83865962D01*
X161722685Y83866959D01*
X161719889Y83867807D01*
X161716971Y83869015D01*
X161713964Y83870098D01*
X161711286Y83871370D01*
X161708556Y83872501D01*
X161705791Y83873979D01*
X161702931Y83875337D01*
X161700367Y83876878D01*
X161697737Y83878284D01*
X161695153Y83880011D01*
X161692463Y83881627D01*
X161690031Y83883433D01*
X161687538Y83885099D01*
X161685158Y83887052D01*
X161682659Y83888908D01*
X161680396Y83890960D01*
X161678055Y83892881D01*
X161675895Y83895041D01*
X161673612Y83897111D01*
X160944224Y84626500D01*
X156991776Y84626500D01*
X156262388Y83897111D01*
X156261146Y83895886D01*
X156251984Y83887809D01*
X156242079Y83880666D01*
X156231525Y83874523D01*
X156220421Y83869439D01*
X156208874Y83865463D01*
X156196993Y83862633D01*
X156184895Y83860975D01*
X156172691Y83860507D01*
X156160500Y83861231D01*
X156148437Y83863141D01*
X156136620Y83866220D01*
X156125158Y83870436D01*
X156114164Y83875752D01*
X156103739Y83882114D01*
X156093986Y83889464D01*
X156084996Y83897731D01*
X156076857Y83906835D01*
X156069643Y83916690D01*
X156063427Y83927202D01*
X156058266Y83938269D01*
X156054209Y83949789D01*
X156051296Y83961648D01*
X156049555Y83973736D01*
X156049001Y83985936D01*
X156049639Y83998131D01*
X156051466Y84010207D01*
X156054462Y84022046D01*
X156058598Y84033536D01*
X156063837Y84044569D01*
X156070127Y84055037D01*
X156077408Y84064841D01*
X156085611Y84073888D01*
X156851612Y84839888D01*
X156851893Y84840166D01*
X156851921Y84840196D01*
X156851955Y84840227D01*
X156852854Y84841114D01*
X156856965Y84844738D01*
X156860996Y84848368D01*
X156861525Y84848758D01*
X156862015Y84849190D01*
X156866443Y84852383D01*
X156870826Y84855615D01*
X156871386Y84855949D01*
X156871920Y84856334D01*
X156876666Y84859096D01*
X156881316Y84861868D01*
X156881904Y84862145D01*
X156882475Y84862477D01*
X156887468Y84864763D01*
X156892366Y84867068D01*
X156892979Y84867286D01*
X156893579Y84867561D01*
X156898726Y84869333D01*
X156903871Y84871165D01*
X156904514Y84871325D01*
X156905126Y84871536D01*
X156910421Y84872798D01*
X156915721Y84874119D01*
X156916363Y84874214D01*
X156917006Y84874367D01*
X156922441Y84875111D01*
X156927802Y84875903D01*
X156928455Y84875935D01*
X156929105Y84876024D01*
X156934549Y84876233D01*
X156940000Y84876500D01*
X160996000Y84876500D01*
X160996398Y84876497D01*
X160996436Y84876499D01*
X160996480Y84876497D01*
X160997745Y84876488D01*
X161003213Y84876144D01*
X161008632Y84875860D01*
X161009278Y84875762D01*
X161009934Y84875721D01*
X161015301Y84874851D01*
X161020707Y84874034D01*
X161021347Y84873872D01*
X161021989Y84873768D01*
X161027251Y84872378D01*
X161032546Y84871038D01*
X161033159Y84870817D01*
X161033796Y84870649D01*
X161038939Y84868737D01*
X161044037Y84866901D01*
X161044625Y84866622D01*
X161045243Y84866392D01*
X161050139Y84864004D01*
X161055069Y84861663D01*
X161055635Y84861323D01*
X161056219Y84861038D01*
X161060838Y84858197D01*
X161065537Y84855373D01*
X161066063Y84854982D01*
X161066621Y84854639D01*
X161070996Y84851318D01*
X161075341Y84848091D01*
X161075819Y84847657D01*
X161076348Y84847256D01*
X161080392Y84843512D01*
X161084388Y84839888D01*
X161850389Y84073888D01*
X161851614Y84072646D01*
X161853073Y84070991D01*
X161854619Y84069445D01*
X161857084Y84066441D01*
X161859691Y84063484D01*
X161860998Y84061672D01*
X161862401Y84059962D01*
X161864548Y84056749D01*
X161866834Y84053579D01*
X161867965Y84051635D01*
X161869216Y84049763D01*
X161871029Y84046370D01*
X161872977Y84043025D01*
X161873929Y84040946D01*
X161874999Y84038944D01*
X161876455Y84035429D01*
X161878061Y84031921D01*
X161878816Y84029729D01*
X161879693Y84027611D01*
X161880789Y84023999D01*
X161882037Y84020374D01*
X161882580Y84018096D01*
X161883254Y84015873D01*
X161883988Y84012185D01*
X161884867Y84008493D01*
X161885189Y84006145D01*
X161885647Y84003841D01*
X161886012Y84000136D01*
X161886525Y83996395D01*
X161886617Y83993992D01*
X161886849Y83991633D01*
X161886849Y83987946D01*
X161886993Y83984191D01*
X161886849Y83981766D01*
G37*
G04 #@! TD.AperFunction*
D17*
G04 #@! TO.N,P4*
X160238000Y81445500D03*
G04 #@! TO.N,P19*
X161762000Y81445500D03*
G04 #@! TA.AperFunction,Conductor*
D16*
G04 #@! TO.N,P4*
G36*
X160113151Y81449234D02*
G01*
X160113151Y81451633D01*
X160113510Y81455280D01*
X160113731Y81459000D01*
X160114115Y81461428D01*
X160114353Y81463841D01*
X160115063Y81467413D01*
X160115641Y81471063D01*
X160116267Y81473467D01*
X160116746Y81475873D01*
X160117800Y81479346D01*
X160118720Y81482880D01*
X160119586Y81485234D01*
X160120307Y81487611D01*
X160121675Y81490915D01*
X160122936Y81494342D01*
X160124044Y81496633D01*
X160125001Y81498944D01*
X160126681Y81502087D01*
X160128252Y81505336D01*
X160129584Y81507519D01*
X160130784Y81509763D01*
X160132740Y81512691D01*
X160134614Y81515761D01*
X160136183Y81517844D01*
X160137599Y81519962D01*
X160139002Y81521672D01*
X160139815Y81522662D01*
X160141964Y81525514D01*
X160143740Y81527445D01*
X160145381Y81529445D01*
X160147841Y81531905D01*
X160150231Y81534504D01*
X160152203Y81536267D01*
X160154055Y81538119D01*
X160156731Y81540315D01*
X160159335Y81542643D01*
X160161492Y81544222D01*
X160163538Y81545901D01*
X160166380Y81547800D01*
X160169190Y81549857D01*
X160171522Y81551236D01*
X160173737Y81552716D01*
X160176734Y81554318D01*
X160179702Y81556073D01*
X160182174Y81557226D01*
X160184556Y81558499D01*
X160187670Y81559789D01*
X160190769Y81561234D01*
X160193375Y81562152D01*
X160195889Y81563193D01*
X160199084Y81564162D01*
X160202289Y81565291D01*
X160204998Y81565956D01*
X160207627Y81566754D01*
X160210874Y81567400D01*
X160214148Y81568204D01*
X160216938Y81568606D01*
X160219659Y81569147D01*
X160222935Y81569470D01*
X160226236Y81569945D01*
X160229072Y81570074D01*
X160231867Y81570349D01*
X160235133Y81570349D01*
X160238436Y81570499D01*
X160241303Y81570349D01*
X160244133Y81570349D01*
X160247341Y81570033D01*
X160250631Y81569861D01*
X160253504Y81569426D01*
X160256341Y81569147D01*
X160259490Y81568521D01*
X160262707Y81568034D01*
X160265533Y81567319D01*
X160268373Y81566754D01*
X160271431Y81565826D01*
X160274546Y81565038D01*
X160277315Y81564041D01*
X160280111Y81563193D01*
X160283029Y81561985D01*
X160286036Y81560902D01*
X160288714Y81559630D01*
X160291444Y81558499D01*
X160294209Y81557021D01*
X160297069Y81555663D01*
X160299633Y81554122D01*
X160302263Y81552716D01*
X160304847Y81550989D01*
X160307537Y81549373D01*
X160309969Y81547567D01*
X160312462Y81545901D01*
X160314842Y81543948D01*
X160317341Y81542092D01*
X160319604Y81540040D01*
X160321945Y81538119D01*
X160324105Y81535959D01*
X160326388Y81533889D01*
X161055776Y80804500D01*
X165008224Y80804500D01*
X165737612Y81533889D01*
X165738854Y81535114D01*
X165748016Y81543191D01*
X165757921Y81550334D01*
X165768475Y81556477D01*
X165779579Y81561561D01*
X165791126Y81565537D01*
X165803007Y81568367D01*
X165815105Y81570025D01*
X165827309Y81570493D01*
X165839500Y81569769D01*
X165851563Y81567859D01*
X165863380Y81564780D01*
X165874842Y81560564D01*
X165885836Y81555248D01*
X165896261Y81548886D01*
X165906014Y81541536D01*
X165915004Y81533269D01*
X165923143Y81524165D01*
X165930357Y81514310D01*
X165936573Y81503798D01*
X165941734Y81492731D01*
X165945791Y81481211D01*
X165948704Y81469352D01*
X165950445Y81457264D01*
X165950999Y81445064D01*
X165950361Y81432869D01*
X165948534Y81420793D01*
X165945538Y81408954D01*
X165941402Y81397464D01*
X165936163Y81386431D01*
X165929873Y81375963D01*
X165922592Y81366159D01*
X165914389Y81357112D01*
X165148388Y80591112D01*
X165148107Y80590834D01*
X165148079Y80590804D01*
X165148045Y80590773D01*
X165147146Y80589886D01*
X165143035Y80586262D01*
X165139004Y80582632D01*
X165138475Y80582242D01*
X165137985Y80581810D01*
X165133557Y80578617D01*
X165129174Y80575385D01*
X165128614Y80575051D01*
X165128080Y80574666D01*
X165123334Y80571904D01*
X165118684Y80569132D01*
X165118096Y80568855D01*
X165117525Y80568523D01*
X165112532Y80566237D01*
X165107634Y80563932D01*
X165107021Y80563714D01*
X165106421Y80563439D01*
X165101274Y80561667D01*
X165096129Y80559835D01*
X165095486Y80559675D01*
X165094874Y80559464D01*
X165089579Y80558202D01*
X165084279Y80556881D01*
X165083637Y80556786D01*
X165082994Y80556633D01*
X165077559Y80555889D01*
X165072198Y80555097D01*
X165071545Y80555065D01*
X165070895Y80554976D01*
X165065451Y80554767D01*
X165060000Y80554500D01*
X161004000Y80554500D01*
X161003602Y80554503D01*
X161003564Y80554501D01*
X161003520Y80554503D01*
X161002255Y80554512D01*
X160996787Y80554856D01*
X160991368Y80555140D01*
X160990722Y80555238D01*
X160990066Y80555279D01*
X160984699Y80556149D01*
X160979293Y80556966D01*
X160978653Y80557128D01*
X160978011Y80557232D01*
X160972749Y80558622D01*
X160967454Y80559962D01*
X160966841Y80560183D01*
X160966204Y80560351D01*
X160961061Y80562263D01*
X160955963Y80564099D01*
X160955375Y80564378D01*
X160954757Y80564608D01*
X160949861Y80566996D01*
X160944931Y80569337D01*
X160944365Y80569677D01*
X160943781Y80569962D01*
X160939162Y80572803D01*
X160934463Y80575627D01*
X160933937Y80576018D01*
X160933379Y80576361D01*
X160929004Y80579682D01*
X160924659Y80582909D01*
X160924181Y80583343D01*
X160923652Y80583744D01*
X160919608Y80587488D01*
X160915612Y80591112D01*
X160149611Y81357112D01*
X160148386Y81358354D01*
X160146927Y81360009D01*
X160145381Y81361555D01*
X160142916Y81364559D01*
X160140309Y81367516D01*
X160139002Y81369328D01*
X160137599Y81371038D01*
X160135452Y81374251D01*
X160133166Y81377421D01*
X160132035Y81379365D01*
X160130784Y81381237D01*
X160128971Y81384630D01*
X160127023Y81387975D01*
X160126071Y81390054D01*
X160125001Y81392056D01*
X160123545Y81395571D01*
X160121939Y81399079D01*
X160121184Y81401271D01*
X160120307Y81403389D01*
X160119211Y81407001D01*
X160117963Y81410626D01*
X160117420Y81412904D01*
X160116746Y81415127D01*
X160116012Y81418815D01*
X160115133Y81422507D01*
X160114811Y81424855D01*
X160114353Y81427159D01*
X160113988Y81430864D01*
X160113475Y81434605D01*
X160113383Y81437008D01*
X160113151Y81439367D01*
X160113151Y81443054D01*
X160113007Y81446809D01*
X160113151Y81449234D01*
G37*
G04 #@! TD.AperFunction*
G04 #@! TA.AperFunction,Conductor*
G04 #@! TO.N,P19*
G36*
X161886849Y81441766D02*
G01*
X161886849Y81439367D01*
X161886490Y81435720D01*
X161886269Y81432000D01*
X161885885Y81429572D01*
X161885647Y81427159D01*
X161884937Y81423587D01*
X161884359Y81419937D01*
X161883733Y81417533D01*
X161883254Y81415127D01*
X161882200Y81411654D01*
X161881280Y81408120D01*
X161880414Y81405766D01*
X161879693Y81403389D01*
X161878325Y81400085D01*
X161877064Y81396658D01*
X161875956Y81394367D01*
X161874999Y81392056D01*
X161873319Y81388913D01*
X161871748Y81385664D01*
X161870416Y81383481D01*
X161869216Y81381237D01*
X161867260Y81378309D01*
X161865386Y81375239D01*
X161863817Y81373156D01*
X161862401Y81371038D01*
X161860998Y81369328D01*
X161860185Y81368338D01*
X161858036Y81365486D01*
X161856260Y81363555D01*
X161854619Y81361555D01*
X161852159Y81359095D01*
X161849769Y81356496D01*
X161847797Y81354733D01*
X161845945Y81352881D01*
X161843269Y81350685D01*
X161840665Y81348357D01*
X161838508Y81346778D01*
X161836462Y81345099D01*
X161833620Y81343200D01*
X161830810Y81341143D01*
X161828478Y81339764D01*
X161826263Y81338284D01*
X161823266Y81336682D01*
X161820298Y81334927D01*
X161817826Y81333774D01*
X161815444Y81332501D01*
X161812330Y81331211D01*
X161809231Y81329766D01*
X161806625Y81328848D01*
X161804111Y81327807D01*
X161800916Y81326838D01*
X161797711Y81325709D01*
X161795002Y81325044D01*
X161792373Y81324246D01*
X161789126Y81323600D01*
X161785852Y81322796D01*
X161783062Y81322394D01*
X161780341Y81321853D01*
X161777065Y81321530D01*
X161773764Y81321055D01*
X161770928Y81320926D01*
X161768133Y81320651D01*
X161764867Y81320651D01*
X161761564Y81320501D01*
X161758697Y81320651D01*
X161755867Y81320651D01*
X161752659Y81320967D01*
X161749369Y81321139D01*
X161746496Y81321574D01*
X161743659Y81321853D01*
X161740510Y81322479D01*
X161737293Y81322966D01*
X161734467Y81323681D01*
X161731627Y81324246D01*
X161728569Y81325174D01*
X161725454Y81325962D01*
X161722685Y81326959D01*
X161719889Y81327807D01*
X161716971Y81329015D01*
X161713964Y81330098D01*
X161711286Y81331370D01*
X161708556Y81332501D01*
X161705791Y81333979D01*
X161702931Y81335337D01*
X161700367Y81336878D01*
X161697737Y81338284D01*
X161695153Y81340011D01*
X161692463Y81341627D01*
X161690031Y81343433D01*
X161687538Y81345099D01*
X161685158Y81347052D01*
X161682659Y81348908D01*
X161680396Y81350960D01*
X161678055Y81352881D01*
X161675895Y81355041D01*
X161673612Y81357111D01*
X160944224Y82086500D01*
X156991776Y82086500D01*
X156262388Y81357111D01*
X156261146Y81355886D01*
X156251984Y81347809D01*
X156242079Y81340666D01*
X156231525Y81334523D01*
X156220421Y81329439D01*
X156208874Y81325463D01*
X156196993Y81322633D01*
X156184895Y81320975D01*
X156172691Y81320507D01*
X156160500Y81321231D01*
X156148437Y81323141D01*
X156136620Y81326220D01*
X156125158Y81330436D01*
X156114164Y81335752D01*
X156103739Y81342114D01*
X156093986Y81349464D01*
X156084996Y81357731D01*
X156076857Y81366835D01*
X156069643Y81376690D01*
X156063427Y81387202D01*
X156058266Y81398269D01*
X156054209Y81409789D01*
X156051296Y81421648D01*
X156049555Y81433736D01*
X156049001Y81445936D01*
X156049639Y81458131D01*
X156051466Y81470207D01*
X156054462Y81482046D01*
X156058598Y81493536D01*
X156063837Y81504569D01*
X156070127Y81515037D01*
X156077408Y81524841D01*
X156085611Y81533888D01*
X156851612Y82299888D01*
X156851893Y82300166D01*
X156851921Y82300196D01*
X156851955Y82300227D01*
X156852854Y82301114D01*
X156856965Y82304738D01*
X156860996Y82308368D01*
X156861525Y82308758D01*
X156862015Y82309190D01*
X156866443Y82312383D01*
X156870826Y82315615D01*
X156871386Y82315949D01*
X156871920Y82316334D01*
X156876666Y82319096D01*
X156881316Y82321868D01*
X156881904Y82322145D01*
X156882475Y82322477D01*
X156887468Y82324763D01*
X156892366Y82327068D01*
X156892979Y82327286D01*
X156893579Y82327561D01*
X156898726Y82329333D01*
X156903871Y82331165D01*
X156904514Y82331325D01*
X156905126Y82331536D01*
X156910421Y82332798D01*
X156915721Y82334119D01*
X156916363Y82334214D01*
X156917006Y82334367D01*
X156922441Y82335111D01*
X156927802Y82335903D01*
X156928455Y82335935D01*
X156929105Y82336024D01*
X156934549Y82336233D01*
X156940000Y82336500D01*
X160996000Y82336500D01*
X160996398Y82336497D01*
X160996436Y82336499D01*
X160996480Y82336497D01*
X160997745Y82336488D01*
X161003213Y82336144D01*
X161008632Y82335860D01*
X161009278Y82335762D01*
X161009934Y82335721D01*
X161015301Y82334851D01*
X161020707Y82334034D01*
X161021347Y82333872D01*
X161021989Y82333768D01*
X161027251Y82332378D01*
X161032546Y82331038D01*
X161033159Y82330817D01*
X161033796Y82330649D01*
X161038939Y82328737D01*
X161044037Y82326901D01*
X161044625Y82326622D01*
X161045243Y82326392D01*
X161050139Y82324004D01*
X161055069Y82321663D01*
X161055635Y82321323D01*
X161056219Y82321038D01*
X161060838Y82318197D01*
X161065537Y82315373D01*
X161066063Y82314982D01*
X161066621Y82314639D01*
X161070996Y82311318D01*
X161075341Y82308091D01*
X161075819Y82307657D01*
X161076348Y82307256D01*
X161080392Y82303512D01*
X161084388Y82299888D01*
X161850389Y81533888D01*
X161851614Y81532646D01*
X161853073Y81530991D01*
X161854619Y81529445D01*
X161857084Y81526441D01*
X161859691Y81523484D01*
X161860998Y81521672D01*
X161862401Y81519962D01*
X161864548Y81516749D01*
X161866834Y81513579D01*
X161867965Y81511635D01*
X161869216Y81509763D01*
X161871029Y81506370D01*
X161872977Y81503025D01*
X161873929Y81500946D01*
X161874999Y81498944D01*
X161876455Y81495429D01*
X161878061Y81491921D01*
X161878816Y81489729D01*
X161879693Y81487611D01*
X161880789Y81483999D01*
X161882037Y81480374D01*
X161882580Y81478096D01*
X161883254Y81475873D01*
X161883988Y81472185D01*
X161884867Y81468493D01*
X161885189Y81466145D01*
X161885647Y81463841D01*
X161886012Y81460136D01*
X161886525Y81456395D01*
X161886617Y81453992D01*
X161886849Y81451633D01*
X161886849Y81447946D01*
X161886993Y81444191D01*
X161886849Y81441766D01*
G37*
G04 #@! TD.AperFunction*
D17*
G04 #@! TO.N,P5*
X160238000Y78905500D03*
G04 #@! TO.N,P18*
X161762000Y78905500D03*
G04 #@! TA.AperFunction,Conductor*
D16*
G04 #@! TO.N,P5*
G36*
X160113151Y78909234D02*
G01*
X160113151Y78911633D01*
X160113510Y78915280D01*
X160113731Y78919000D01*
X160114115Y78921428D01*
X160114353Y78923841D01*
X160115063Y78927413D01*
X160115641Y78931063D01*
X160116267Y78933467D01*
X160116746Y78935873D01*
X160117800Y78939346D01*
X160118720Y78942880D01*
X160119586Y78945234D01*
X160120307Y78947611D01*
X160121675Y78950915D01*
X160122936Y78954342D01*
X160124044Y78956633D01*
X160125001Y78958944D01*
X160126681Y78962087D01*
X160128252Y78965336D01*
X160129584Y78967519D01*
X160130784Y78969763D01*
X160132740Y78972691D01*
X160134614Y78975761D01*
X160136183Y78977844D01*
X160137599Y78979962D01*
X160139002Y78981672D01*
X160139815Y78982662D01*
X160141964Y78985514D01*
X160143740Y78987445D01*
X160145381Y78989445D01*
X160147841Y78991905D01*
X160150231Y78994504D01*
X160152203Y78996267D01*
X160154055Y78998119D01*
X160156731Y79000315D01*
X160159335Y79002643D01*
X160161492Y79004222D01*
X160163538Y79005901D01*
X160166380Y79007800D01*
X160169190Y79009857D01*
X160171522Y79011236D01*
X160173737Y79012716D01*
X160176734Y79014318D01*
X160179702Y79016073D01*
X160182174Y79017226D01*
X160184556Y79018499D01*
X160187670Y79019789D01*
X160190769Y79021234D01*
X160193375Y79022152D01*
X160195889Y79023193D01*
X160199084Y79024162D01*
X160202289Y79025291D01*
X160204998Y79025956D01*
X160207627Y79026754D01*
X160210874Y79027400D01*
X160214148Y79028204D01*
X160216938Y79028606D01*
X160219659Y79029147D01*
X160222935Y79029470D01*
X160226236Y79029945D01*
X160229072Y79030074D01*
X160231867Y79030349D01*
X160235133Y79030349D01*
X160238436Y79030499D01*
X160241303Y79030349D01*
X160244133Y79030349D01*
X160247341Y79030033D01*
X160250631Y79029861D01*
X160253504Y79029426D01*
X160256341Y79029147D01*
X160259490Y79028521D01*
X160262707Y79028034D01*
X160265533Y79027319D01*
X160268373Y79026754D01*
X160271431Y79025826D01*
X160274546Y79025038D01*
X160277315Y79024041D01*
X160280111Y79023193D01*
X160283029Y79021985D01*
X160286036Y79020902D01*
X160288714Y79019630D01*
X160291444Y79018499D01*
X160294209Y79017021D01*
X160297069Y79015663D01*
X160299633Y79014122D01*
X160302263Y79012716D01*
X160304847Y79010989D01*
X160307537Y79009373D01*
X160309969Y79007567D01*
X160312462Y79005901D01*
X160314842Y79003948D01*
X160317341Y79002092D01*
X160319604Y79000040D01*
X160321945Y78998119D01*
X160324105Y78995959D01*
X160326388Y78993889D01*
X161055776Y78264500D01*
X165008224Y78264500D01*
X165737612Y78993889D01*
X165738854Y78995114D01*
X165748016Y79003191D01*
X165757921Y79010334D01*
X165768475Y79016477D01*
X165779579Y79021561D01*
X165791126Y79025537D01*
X165803007Y79028367D01*
X165815105Y79030025D01*
X165827309Y79030493D01*
X165839500Y79029769D01*
X165851563Y79027859D01*
X165863380Y79024780D01*
X165874842Y79020564D01*
X165885836Y79015248D01*
X165896261Y79008886D01*
X165906014Y79001536D01*
X165915004Y78993269D01*
X165923143Y78984165D01*
X165930357Y78974310D01*
X165936573Y78963798D01*
X165941734Y78952731D01*
X165945791Y78941211D01*
X165948704Y78929352D01*
X165950445Y78917264D01*
X165950999Y78905064D01*
X165950361Y78892869D01*
X165948534Y78880793D01*
X165945538Y78868954D01*
X165941402Y78857464D01*
X165936163Y78846431D01*
X165929873Y78835963D01*
X165922592Y78826159D01*
X165914389Y78817112D01*
X165148388Y78051112D01*
X165148107Y78050834D01*
X165148079Y78050804D01*
X165148045Y78050773D01*
X165147146Y78049886D01*
X165143035Y78046262D01*
X165139004Y78042632D01*
X165138475Y78042242D01*
X165137985Y78041810D01*
X165133557Y78038617D01*
X165129174Y78035385D01*
X165128614Y78035051D01*
X165128080Y78034666D01*
X165123334Y78031904D01*
X165118684Y78029132D01*
X165118096Y78028855D01*
X165117525Y78028523D01*
X165112532Y78026237D01*
X165107634Y78023932D01*
X165107021Y78023714D01*
X165106421Y78023439D01*
X165101274Y78021667D01*
X165096129Y78019835D01*
X165095486Y78019675D01*
X165094874Y78019464D01*
X165089579Y78018202D01*
X165084279Y78016881D01*
X165083637Y78016786D01*
X165082994Y78016633D01*
X165077559Y78015889D01*
X165072198Y78015097D01*
X165071545Y78015065D01*
X165070895Y78014976D01*
X165065451Y78014767D01*
X165060000Y78014500D01*
X161004000Y78014500D01*
X161003602Y78014503D01*
X161003564Y78014501D01*
X161003520Y78014503D01*
X161002255Y78014512D01*
X160996787Y78014856D01*
X160991368Y78015140D01*
X160990722Y78015238D01*
X160990066Y78015279D01*
X160984699Y78016149D01*
X160979293Y78016966D01*
X160978653Y78017128D01*
X160978011Y78017232D01*
X160972749Y78018622D01*
X160967454Y78019962D01*
X160966841Y78020183D01*
X160966204Y78020351D01*
X160961061Y78022263D01*
X160955963Y78024099D01*
X160955375Y78024378D01*
X160954757Y78024608D01*
X160949861Y78026996D01*
X160944931Y78029337D01*
X160944365Y78029677D01*
X160943781Y78029962D01*
X160939162Y78032803D01*
X160934463Y78035627D01*
X160933937Y78036018D01*
X160933379Y78036361D01*
X160929004Y78039682D01*
X160924659Y78042909D01*
X160924181Y78043343D01*
X160923652Y78043744D01*
X160919608Y78047488D01*
X160915612Y78051112D01*
X160149611Y78817112D01*
X160148386Y78818354D01*
X160146927Y78820009D01*
X160145381Y78821555D01*
X160142916Y78824559D01*
X160140309Y78827516D01*
X160139002Y78829328D01*
X160137599Y78831038D01*
X160135452Y78834251D01*
X160133166Y78837421D01*
X160132035Y78839365D01*
X160130784Y78841237D01*
X160128971Y78844630D01*
X160127023Y78847975D01*
X160126071Y78850054D01*
X160125001Y78852056D01*
X160123545Y78855571D01*
X160121939Y78859079D01*
X160121184Y78861271D01*
X160120307Y78863389D01*
X160119211Y78867001D01*
X160117963Y78870626D01*
X160117420Y78872904D01*
X160116746Y78875127D01*
X160116012Y78878815D01*
X160115133Y78882507D01*
X160114811Y78884855D01*
X160114353Y78887159D01*
X160113988Y78890864D01*
X160113475Y78894605D01*
X160113383Y78897008D01*
X160113151Y78899367D01*
X160113151Y78903054D01*
X160113007Y78906809D01*
X160113151Y78909234D01*
G37*
G04 #@! TD.AperFunction*
G04 #@! TA.AperFunction,Conductor*
G04 #@! TO.N,P18*
G36*
X161886849Y78901766D02*
G01*
X161886849Y78899367D01*
X161886490Y78895720D01*
X161886269Y78892000D01*
X161885885Y78889572D01*
X161885647Y78887159D01*
X161884937Y78883587D01*
X161884359Y78879937D01*
X161883733Y78877533D01*
X161883254Y78875127D01*
X161882200Y78871654D01*
X161881280Y78868120D01*
X161880414Y78865766D01*
X161879693Y78863389D01*
X161878325Y78860085D01*
X161877064Y78856658D01*
X161875956Y78854367D01*
X161874999Y78852056D01*
X161873319Y78848913D01*
X161871748Y78845664D01*
X161870416Y78843481D01*
X161869216Y78841237D01*
X161867260Y78838309D01*
X161865386Y78835239D01*
X161863817Y78833156D01*
X161862401Y78831038D01*
X161860998Y78829328D01*
X161860185Y78828338D01*
X161858036Y78825486D01*
X161856260Y78823555D01*
X161854619Y78821555D01*
X161852159Y78819095D01*
X161849769Y78816496D01*
X161847797Y78814733D01*
X161845945Y78812881D01*
X161843269Y78810685D01*
X161840665Y78808357D01*
X161838508Y78806778D01*
X161836462Y78805099D01*
X161833620Y78803200D01*
X161830810Y78801143D01*
X161828478Y78799764D01*
X161826263Y78798284D01*
X161823266Y78796682D01*
X161820298Y78794927D01*
X161817826Y78793774D01*
X161815444Y78792501D01*
X161812330Y78791211D01*
X161809231Y78789766D01*
X161806625Y78788848D01*
X161804111Y78787807D01*
X161800916Y78786838D01*
X161797711Y78785709D01*
X161795002Y78785044D01*
X161792373Y78784246D01*
X161789126Y78783600D01*
X161785852Y78782796D01*
X161783062Y78782394D01*
X161780341Y78781853D01*
X161777065Y78781530D01*
X161773764Y78781055D01*
X161770928Y78780926D01*
X161768133Y78780651D01*
X161764867Y78780651D01*
X161761564Y78780501D01*
X161758697Y78780651D01*
X161755867Y78780651D01*
X161752659Y78780967D01*
X161749369Y78781139D01*
X161746496Y78781574D01*
X161743659Y78781853D01*
X161740510Y78782479D01*
X161737293Y78782966D01*
X161734467Y78783681D01*
X161731627Y78784246D01*
X161728569Y78785174D01*
X161725454Y78785962D01*
X161722685Y78786959D01*
X161719889Y78787807D01*
X161716971Y78789015D01*
X161713964Y78790098D01*
X161711286Y78791370D01*
X161708556Y78792501D01*
X161705791Y78793979D01*
X161702931Y78795337D01*
X161700367Y78796878D01*
X161697737Y78798284D01*
X161695153Y78800011D01*
X161692463Y78801627D01*
X161690031Y78803433D01*
X161687538Y78805099D01*
X161685158Y78807052D01*
X161682659Y78808908D01*
X161680396Y78810960D01*
X161678055Y78812881D01*
X161675895Y78815041D01*
X161673612Y78817111D01*
X160944224Y79546500D01*
X156991776Y79546500D01*
X156262388Y78817111D01*
X156261146Y78815886D01*
X156251984Y78807809D01*
X156242079Y78800666D01*
X156231525Y78794523D01*
X156220421Y78789439D01*
X156208874Y78785463D01*
X156196993Y78782633D01*
X156184895Y78780975D01*
X156172691Y78780507D01*
X156160500Y78781231D01*
X156148437Y78783141D01*
X156136620Y78786220D01*
X156125158Y78790436D01*
X156114164Y78795752D01*
X156103739Y78802114D01*
X156093986Y78809464D01*
X156084996Y78817731D01*
X156076857Y78826835D01*
X156069643Y78836690D01*
X156063427Y78847202D01*
X156058266Y78858269D01*
X156054209Y78869789D01*
X156051296Y78881648D01*
X156049555Y78893736D01*
X156049001Y78905936D01*
X156049639Y78918131D01*
X156051466Y78930207D01*
X156054462Y78942046D01*
X156058598Y78953536D01*
X156063837Y78964569D01*
X156070127Y78975037D01*
X156077408Y78984841D01*
X156085611Y78993888D01*
X156851612Y79759888D01*
X156851893Y79760166D01*
X156851921Y79760196D01*
X156851955Y79760227D01*
X156852854Y79761114D01*
X156856965Y79764738D01*
X156860996Y79768368D01*
X156861525Y79768758D01*
X156862015Y79769190D01*
X156866443Y79772383D01*
X156870826Y79775615D01*
X156871386Y79775949D01*
X156871920Y79776334D01*
X156876666Y79779096D01*
X156881316Y79781868D01*
X156881904Y79782145D01*
X156882475Y79782477D01*
X156887468Y79784763D01*
X156892366Y79787068D01*
X156892979Y79787286D01*
X156893579Y79787561D01*
X156898726Y79789333D01*
X156903871Y79791165D01*
X156904514Y79791325D01*
X156905126Y79791536D01*
X156910421Y79792798D01*
X156915721Y79794119D01*
X156916363Y79794214D01*
X156917006Y79794367D01*
X156922441Y79795111D01*
X156927802Y79795903D01*
X156928455Y79795935D01*
X156929105Y79796024D01*
X156934549Y79796233D01*
X156940000Y79796500D01*
X160996000Y79796500D01*
X160996398Y79796497D01*
X160996436Y79796499D01*
X160996480Y79796497D01*
X160997745Y79796488D01*
X161003213Y79796144D01*
X161008632Y79795860D01*
X161009278Y79795762D01*
X161009934Y79795721D01*
X161015301Y79794851D01*
X161020707Y79794034D01*
X161021347Y79793872D01*
X161021989Y79793768D01*
X161027251Y79792378D01*
X161032546Y79791038D01*
X161033159Y79790817D01*
X161033796Y79790649D01*
X161038939Y79788737D01*
X161044037Y79786901D01*
X161044625Y79786622D01*
X161045243Y79786392D01*
X161050139Y79784004D01*
X161055069Y79781663D01*
X161055635Y79781323D01*
X161056219Y79781038D01*
X161060838Y79778197D01*
X161065537Y79775373D01*
X161066063Y79774982D01*
X161066621Y79774639D01*
X161070996Y79771318D01*
X161075341Y79768091D01*
X161075819Y79767657D01*
X161076348Y79767256D01*
X161080392Y79763512D01*
X161084388Y79759888D01*
X161850389Y78993888D01*
X161851614Y78992646D01*
X161853073Y78990991D01*
X161854619Y78989445D01*
X161857084Y78986441D01*
X161859691Y78983484D01*
X161860998Y78981672D01*
X161862401Y78979962D01*
X161864548Y78976749D01*
X161866834Y78973579D01*
X161867965Y78971635D01*
X161869216Y78969763D01*
X161871029Y78966370D01*
X161872977Y78963025D01*
X161873929Y78960946D01*
X161874999Y78958944D01*
X161876455Y78955429D01*
X161878061Y78951921D01*
X161878816Y78949729D01*
X161879693Y78947611D01*
X161880789Y78943999D01*
X161882037Y78940374D01*
X161882580Y78938096D01*
X161883254Y78935873D01*
X161883988Y78932185D01*
X161884867Y78928493D01*
X161885189Y78926145D01*
X161885647Y78923841D01*
X161886012Y78920136D01*
X161886525Y78916395D01*
X161886617Y78913992D01*
X161886849Y78911633D01*
X161886849Y78907946D01*
X161886993Y78904191D01*
X161886849Y78901766D01*
G37*
G04 #@! TD.AperFunction*
D17*
G04 #@! TO.N,P6*
X160238000Y76365500D03*
G04 #@! TO.N,P15*
X161762000Y76365500D03*
G04 #@! TA.AperFunction,Conductor*
D16*
G04 #@! TO.N,P6*
G36*
X160113151Y76369234D02*
G01*
X160113151Y76371633D01*
X160113510Y76375280D01*
X160113731Y76379000D01*
X160114115Y76381428D01*
X160114353Y76383841D01*
X160115063Y76387413D01*
X160115641Y76391063D01*
X160116267Y76393467D01*
X160116746Y76395873D01*
X160117800Y76399346D01*
X160118720Y76402880D01*
X160119586Y76405234D01*
X160120307Y76407611D01*
X160121675Y76410915D01*
X160122936Y76414342D01*
X160124044Y76416633D01*
X160125001Y76418944D01*
X160126681Y76422087D01*
X160128252Y76425336D01*
X160129584Y76427519D01*
X160130784Y76429763D01*
X160132740Y76432691D01*
X160134614Y76435761D01*
X160136183Y76437844D01*
X160137599Y76439962D01*
X160139002Y76441672D01*
X160139815Y76442662D01*
X160141964Y76445514D01*
X160143740Y76447445D01*
X160145381Y76449445D01*
X160147841Y76451905D01*
X160150231Y76454504D01*
X160152203Y76456267D01*
X160154055Y76458119D01*
X160156731Y76460315D01*
X160159335Y76462643D01*
X160161492Y76464222D01*
X160163538Y76465901D01*
X160166380Y76467800D01*
X160169190Y76469857D01*
X160171522Y76471236D01*
X160173737Y76472716D01*
X160176734Y76474318D01*
X160179702Y76476073D01*
X160182174Y76477226D01*
X160184556Y76478499D01*
X160187670Y76479789D01*
X160190769Y76481234D01*
X160193375Y76482152D01*
X160195889Y76483193D01*
X160199084Y76484162D01*
X160202289Y76485291D01*
X160204998Y76485956D01*
X160207627Y76486754D01*
X160210874Y76487400D01*
X160214148Y76488204D01*
X160216938Y76488606D01*
X160219659Y76489147D01*
X160222935Y76489470D01*
X160226236Y76489945D01*
X160229072Y76490074D01*
X160231867Y76490349D01*
X160235133Y76490349D01*
X160238436Y76490499D01*
X160241303Y76490349D01*
X160244133Y76490349D01*
X160247341Y76490033D01*
X160250631Y76489861D01*
X160253504Y76489426D01*
X160256341Y76489147D01*
X160259490Y76488521D01*
X160262707Y76488034D01*
X160265533Y76487319D01*
X160268373Y76486754D01*
X160271431Y76485826D01*
X160274546Y76485038D01*
X160277315Y76484041D01*
X160280111Y76483193D01*
X160283029Y76481985D01*
X160286036Y76480902D01*
X160288714Y76479630D01*
X160291444Y76478499D01*
X160294209Y76477021D01*
X160297069Y76475663D01*
X160299633Y76474122D01*
X160302263Y76472716D01*
X160304847Y76470989D01*
X160307537Y76469373D01*
X160309969Y76467567D01*
X160312462Y76465901D01*
X160314842Y76463948D01*
X160317341Y76462092D01*
X160319604Y76460040D01*
X160321945Y76458119D01*
X160324105Y76455959D01*
X160326388Y76453889D01*
X161055776Y75724500D01*
X165008224Y75724500D01*
X165737612Y76453889D01*
X165738854Y76455114D01*
X165748016Y76463191D01*
X165757921Y76470334D01*
X165768475Y76476477D01*
X165779579Y76481561D01*
X165791126Y76485537D01*
X165803007Y76488367D01*
X165815105Y76490025D01*
X165827309Y76490493D01*
X165839500Y76489769D01*
X165851563Y76487859D01*
X165863380Y76484780D01*
X165874842Y76480564D01*
X165885836Y76475248D01*
X165896261Y76468886D01*
X165906014Y76461536D01*
X165915004Y76453269D01*
X165923143Y76444165D01*
X165930357Y76434310D01*
X165936573Y76423798D01*
X165941734Y76412731D01*
X165945791Y76401211D01*
X165948704Y76389352D01*
X165950445Y76377264D01*
X165950999Y76365064D01*
X165950361Y76352869D01*
X165948534Y76340793D01*
X165945538Y76328954D01*
X165941402Y76317464D01*
X165936163Y76306431D01*
X165929873Y76295963D01*
X165922592Y76286159D01*
X165914389Y76277112D01*
X165148388Y75511112D01*
X165148107Y75510834D01*
X165148079Y75510804D01*
X165148045Y75510773D01*
X165147146Y75509886D01*
X165143035Y75506262D01*
X165139004Y75502632D01*
X165138475Y75502242D01*
X165137985Y75501810D01*
X165133557Y75498617D01*
X165129174Y75495385D01*
X165128614Y75495051D01*
X165128080Y75494666D01*
X165123334Y75491904D01*
X165118684Y75489132D01*
X165118096Y75488855D01*
X165117525Y75488523D01*
X165112532Y75486237D01*
X165107634Y75483932D01*
X165107021Y75483714D01*
X165106421Y75483439D01*
X165101274Y75481667D01*
X165096129Y75479835D01*
X165095486Y75479675D01*
X165094874Y75479464D01*
X165089579Y75478202D01*
X165084279Y75476881D01*
X165083637Y75476786D01*
X165082994Y75476633D01*
X165077559Y75475889D01*
X165072198Y75475097D01*
X165071545Y75475065D01*
X165070895Y75474976D01*
X165065451Y75474767D01*
X165060000Y75474500D01*
X161004000Y75474500D01*
X161003602Y75474503D01*
X161003564Y75474501D01*
X161003520Y75474503D01*
X161002255Y75474512D01*
X160996787Y75474856D01*
X160991368Y75475140D01*
X160990722Y75475238D01*
X160990066Y75475279D01*
X160984699Y75476149D01*
X160979293Y75476966D01*
X160978653Y75477128D01*
X160978011Y75477232D01*
X160972749Y75478622D01*
X160967454Y75479962D01*
X160966841Y75480183D01*
X160966204Y75480351D01*
X160961061Y75482263D01*
X160955963Y75484099D01*
X160955375Y75484378D01*
X160954757Y75484608D01*
X160949861Y75486996D01*
X160944931Y75489337D01*
X160944365Y75489677D01*
X160943781Y75489962D01*
X160939162Y75492803D01*
X160934463Y75495627D01*
X160933937Y75496018D01*
X160933379Y75496361D01*
X160929004Y75499682D01*
X160924659Y75502909D01*
X160924181Y75503343D01*
X160923652Y75503744D01*
X160919608Y75507488D01*
X160915612Y75511112D01*
X160149611Y76277112D01*
X160148386Y76278354D01*
X160146927Y76280009D01*
X160145381Y76281555D01*
X160142916Y76284559D01*
X160140309Y76287516D01*
X160139002Y76289328D01*
X160137599Y76291038D01*
X160135452Y76294251D01*
X160133166Y76297421D01*
X160132035Y76299365D01*
X160130784Y76301237D01*
X160128971Y76304630D01*
X160127023Y76307975D01*
X160126071Y76310054D01*
X160125001Y76312056D01*
X160123545Y76315571D01*
X160121939Y76319079D01*
X160121184Y76321271D01*
X160120307Y76323389D01*
X160119211Y76327001D01*
X160117963Y76330626D01*
X160117420Y76332904D01*
X160116746Y76335127D01*
X160116012Y76338815D01*
X160115133Y76342507D01*
X160114811Y76344855D01*
X160114353Y76347159D01*
X160113988Y76350864D01*
X160113475Y76354605D01*
X160113383Y76357008D01*
X160113151Y76359367D01*
X160113151Y76363054D01*
X160113007Y76366809D01*
X160113151Y76369234D01*
G37*
G04 #@! TD.AperFunction*
G04 #@! TA.AperFunction,Conductor*
G04 #@! TO.N,P15*
G36*
X161886849Y76361766D02*
G01*
X161886849Y76359367D01*
X161886490Y76355720D01*
X161886269Y76352000D01*
X161885885Y76349572D01*
X161885647Y76347159D01*
X161884937Y76343587D01*
X161884359Y76339937D01*
X161883733Y76337533D01*
X161883254Y76335127D01*
X161882200Y76331654D01*
X161881280Y76328120D01*
X161880414Y76325766D01*
X161879693Y76323389D01*
X161878325Y76320085D01*
X161877064Y76316658D01*
X161875956Y76314367D01*
X161874999Y76312056D01*
X161873319Y76308913D01*
X161871748Y76305664D01*
X161870416Y76303481D01*
X161869216Y76301237D01*
X161867260Y76298309D01*
X161865386Y76295239D01*
X161863817Y76293156D01*
X161862401Y76291038D01*
X161860998Y76289328D01*
X161860185Y76288338D01*
X161858036Y76285486D01*
X161856260Y76283555D01*
X161854619Y76281555D01*
X161852159Y76279095D01*
X161849769Y76276496D01*
X161847797Y76274733D01*
X161845945Y76272881D01*
X161843269Y76270685D01*
X161840665Y76268357D01*
X161838508Y76266778D01*
X161836462Y76265099D01*
X161833620Y76263200D01*
X161830810Y76261143D01*
X161828478Y76259764D01*
X161826263Y76258284D01*
X161823266Y76256682D01*
X161820298Y76254927D01*
X161817826Y76253774D01*
X161815444Y76252501D01*
X161812330Y76251211D01*
X161809231Y76249766D01*
X161806625Y76248848D01*
X161804111Y76247807D01*
X161800916Y76246838D01*
X161797711Y76245709D01*
X161795002Y76245044D01*
X161792373Y76244246D01*
X161789126Y76243600D01*
X161785852Y76242796D01*
X161783062Y76242394D01*
X161780341Y76241853D01*
X161777065Y76241530D01*
X161773764Y76241055D01*
X161770928Y76240926D01*
X161768133Y76240651D01*
X161764867Y76240651D01*
X161761564Y76240501D01*
X161758697Y76240651D01*
X161755867Y76240651D01*
X161752659Y76240967D01*
X161749369Y76241139D01*
X161746496Y76241574D01*
X161743659Y76241853D01*
X161740510Y76242479D01*
X161737293Y76242966D01*
X161734467Y76243681D01*
X161731627Y76244246D01*
X161728569Y76245174D01*
X161725454Y76245962D01*
X161722685Y76246959D01*
X161719889Y76247807D01*
X161716971Y76249015D01*
X161713964Y76250098D01*
X161711286Y76251370D01*
X161708556Y76252501D01*
X161705791Y76253979D01*
X161702931Y76255337D01*
X161700367Y76256878D01*
X161697737Y76258284D01*
X161695153Y76260011D01*
X161692463Y76261627D01*
X161690031Y76263433D01*
X161687538Y76265099D01*
X161685158Y76267052D01*
X161682659Y76268908D01*
X161680396Y76270960D01*
X161678055Y76272881D01*
X161675895Y76275041D01*
X161673612Y76277111D01*
X160944224Y77006500D01*
X156991776Y77006500D01*
X156262388Y76277111D01*
X156261146Y76275886D01*
X156251984Y76267809D01*
X156242079Y76260666D01*
X156231525Y76254523D01*
X156220421Y76249439D01*
X156208874Y76245463D01*
X156196993Y76242633D01*
X156184895Y76240975D01*
X156172691Y76240507D01*
X156160500Y76241231D01*
X156148437Y76243141D01*
X156136620Y76246220D01*
X156125158Y76250436D01*
X156114164Y76255752D01*
X156103739Y76262114D01*
X156093986Y76269464D01*
X156084996Y76277731D01*
X156076857Y76286835D01*
X156069643Y76296690D01*
X156063427Y76307202D01*
X156058266Y76318269D01*
X156054209Y76329789D01*
X156051296Y76341648D01*
X156049555Y76353736D01*
X156049001Y76365936D01*
X156049639Y76378131D01*
X156051466Y76390207D01*
X156054462Y76402046D01*
X156058598Y76413536D01*
X156063837Y76424569D01*
X156070127Y76435037D01*
X156077408Y76444841D01*
X156085611Y76453888D01*
X156851612Y77219888D01*
X156851893Y77220166D01*
X156851921Y77220196D01*
X156851955Y77220227D01*
X156852854Y77221114D01*
X156856965Y77224738D01*
X156860996Y77228368D01*
X156861525Y77228758D01*
X156862015Y77229190D01*
X156866443Y77232383D01*
X156870826Y77235615D01*
X156871386Y77235949D01*
X156871920Y77236334D01*
X156876666Y77239096D01*
X156881316Y77241868D01*
X156881904Y77242145D01*
X156882475Y77242477D01*
X156887468Y77244763D01*
X156892366Y77247068D01*
X156892979Y77247286D01*
X156893579Y77247561D01*
X156898726Y77249333D01*
X156903871Y77251165D01*
X156904514Y77251325D01*
X156905126Y77251536D01*
X156910421Y77252798D01*
X156915721Y77254119D01*
X156916363Y77254214D01*
X156917006Y77254367D01*
X156922441Y77255111D01*
X156927802Y77255903D01*
X156928455Y77255935D01*
X156929105Y77256024D01*
X156934549Y77256233D01*
X156940000Y77256500D01*
X160996000Y77256500D01*
X160996398Y77256497D01*
X160996436Y77256499D01*
X160996480Y77256497D01*
X160997745Y77256488D01*
X161003213Y77256144D01*
X161008632Y77255860D01*
X161009278Y77255762D01*
X161009934Y77255721D01*
X161015301Y77254851D01*
X161020707Y77254034D01*
X161021347Y77253872D01*
X161021989Y77253768D01*
X161027251Y77252378D01*
X161032546Y77251038D01*
X161033159Y77250817D01*
X161033796Y77250649D01*
X161038939Y77248737D01*
X161044037Y77246901D01*
X161044625Y77246622D01*
X161045243Y77246392D01*
X161050139Y77244004D01*
X161055069Y77241663D01*
X161055635Y77241323D01*
X161056219Y77241038D01*
X161060838Y77238197D01*
X161065537Y77235373D01*
X161066063Y77234982D01*
X161066621Y77234639D01*
X161070996Y77231318D01*
X161075341Y77228091D01*
X161075819Y77227657D01*
X161076348Y77227256D01*
X161080392Y77223512D01*
X161084388Y77219888D01*
X161850389Y76453888D01*
X161851614Y76452646D01*
X161853073Y76450991D01*
X161854619Y76449445D01*
X161857084Y76446441D01*
X161859691Y76443484D01*
X161860998Y76441672D01*
X161862401Y76439962D01*
X161864548Y76436749D01*
X161866834Y76433579D01*
X161867965Y76431635D01*
X161869216Y76429763D01*
X161871029Y76426370D01*
X161872977Y76423025D01*
X161873929Y76420946D01*
X161874999Y76418944D01*
X161876455Y76415429D01*
X161878061Y76411921D01*
X161878816Y76409729D01*
X161879693Y76407611D01*
X161880789Y76403999D01*
X161882037Y76400374D01*
X161882580Y76398096D01*
X161883254Y76395873D01*
X161883988Y76392185D01*
X161884867Y76388493D01*
X161885189Y76386145D01*
X161885647Y76383841D01*
X161886012Y76380136D01*
X161886525Y76376395D01*
X161886617Y76373992D01*
X161886849Y76371633D01*
X161886849Y76367946D01*
X161886993Y76364191D01*
X161886849Y76361766D01*
G37*
G04 #@! TD.AperFunction*
D17*
G04 #@! TO.N,P7*
X160238000Y73825500D03*
G04 #@! TO.N,P14*
X161762000Y73825500D03*
G04 #@! TA.AperFunction,Conductor*
D16*
G04 #@! TO.N,P7*
G36*
X160113151Y73829234D02*
G01*
X160113151Y73831633D01*
X160113510Y73835280D01*
X160113731Y73839000D01*
X160114115Y73841428D01*
X160114353Y73843841D01*
X160115063Y73847413D01*
X160115641Y73851063D01*
X160116267Y73853467D01*
X160116746Y73855873D01*
X160117800Y73859346D01*
X160118720Y73862880D01*
X160119586Y73865234D01*
X160120307Y73867611D01*
X160121675Y73870915D01*
X160122936Y73874342D01*
X160124044Y73876633D01*
X160125001Y73878944D01*
X160126681Y73882087D01*
X160128252Y73885336D01*
X160129584Y73887519D01*
X160130784Y73889763D01*
X160132740Y73892691D01*
X160134614Y73895761D01*
X160136183Y73897844D01*
X160137599Y73899962D01*
X160139002Y73901672D01*
X160139815Y73902662D01*
X160141964Y73905514D01*
X160143740Y73907445D01*
X160145381Y73909445D01*
X160147841Y73911905D01*
X160150231Y73914504D01*
X160152203Y73916267D01*
X160154055Y73918119D01*
X160156731Y73920315D01*
X160159335Y73922643D01*
X160161492Y73924222D01*
X160163538Y73925901D01*
X160166380Y73927800D01*
X160169190Y73929857D01*
X160171522Y73931236D01*
X160173737Y73932716D01*
X160176734Y73934318D01*
X160179702Y73936073D01*
X160182174Y73937226D01*
X160184556Y73938499D01*
X160187670Y73939789D01*
X160190769Y73941234D01*
X160193375Y73942152D01*
X160195889Y73943193D01*
X160199084Y73944162D01*
X160202289Y73945291D01*
X160204998Y73945956D01*
X160207627Y73946754D01*
X160210874Y73947400D01*
X160214148Y73948204D01*
X160216938Y73948606D01*
X160219659Y73949147D01*
X160222935Y73949470D01*
X160226236Y73949945D01*
X160229072Y73950074D01*
X160231867Y73950349D01*
X160235133Y73950349D01*
X160238436Y73950499D01*
X160241303Y73950349D01*
X160244133Y73950349D01*
X160247341Y73950033D01*
X160250631Y73949861D01*
X160253504Y73949426D01*
X160256341Y73949147D01*
X160259490Y73948521D01*
X160262707Y73948034D01*
X160265533Y73947319D01*
X160268373Y73946754D01*
X160271431Y73945826D01*
X160274546Y73945038D01*
X160277315Y73944041D01*
X160280111Y73943193D01*
X160283029Y73941985D01*
X160286036Y73940902D01*
X160288714Y73939630D01*
X160291444Y73938499D01*
X160294209Y73937021D01*
X160297069Y73935663D01*
X160299633Y73934122D01*
X160302263Y73932716D01*
X160304847Y73930989D01*
X160307537Y73929373D01*
X160309969Y73927567D01*
X160312462Y73925901D01*
X160314842Y73923948D01*
X160317341Y73922092D01*
X160319604Y73920040D01*
X160321945Y73918119D01*
X160324105Y73915959D01*
X160326388Y73913889D01*
X161055776Y73184500D01*
X165008224Y73184500D01*
X165737612Y73913889D01*
X165738854Y73915114D01*
X165748016Y73923191D01*
X165757921Y73930334D01*
X165768475Y73936477D01*
X165779579Y73941561D01*
X165791126Y73945537D01*
X165803007Y73948367D01*
X165815105Y73950025D01*
X165827309Y73950493D01*
X165839500Y73949769D01*
X165851563Y73947859D01*
X165863380Y73944780D01*
X165874842Y73940564D01*
X165885836Y73935248D01*
X165896261Y73928886D01*
X165906014Y73921536D01*
X165915004Y73913269D01*
X165923143Y73904165D01*
X165930357Y73894310D01*
X165936573Y73883798D01*
X165941734Y73872731D01*
X165945791Y73861211D01*
X165948704Y73849352D01*
X165950445Y73837264D01*
X165950999Y73825064D01*
X165950361Y73812869D01*
X165948534Y73800793D01*
X165945538Y73788954D01*
X165941402Y73777464D01*
X165936163Y73766431D01*
X165929873Y73755963D01*
X165922592Y73746159D01*
X165914389Y73737112D01*
X165148388Y72971112D01*
X165148107Y72970834D01*
X165148079Y72970804D01*
X165148045Y72970773D01*
X165147146Y72969886D01*
X165143035Y72966262D01*
X165139004Y72962632D01*
X165138475Y72962242D01*
X165137985Y72961810D01*
X165133557Y72958617D01*
X165129174Y72955385D01*
X165128614Y72955051D01*
X165128080Y72954666D01*
X165123334Y72951904D01*
X165118684Y72949132D01*
X165118096Y72948855D01*
X165117525Y72948523D01*
X165112532Y72946237D01*
X165107634Y72943932D01*
X165107021Y72943714D01*
X165106421Y72943439D01*
X165101274Y72941667D01*
X165096129Y72939835D01*
X165095486Y72939675D01*
X165094874Y72939464D01*
X165089579Y72938202D01*
X165084279Y72936881D01*
X165083637Y72936786D01*
X165082994Y72936633D01*
X165077559Y72935889D01*
X165072198Y72935097D01*
X165071545Y72935065D01*
X165070895Y72934976D01*
X165065451Y72934767D01*
X165060000Y72934500D01*
X161004000Y72934500D01*
X161003602Y72934503D01*
X161003564Y72934501D01*
X161003520Y72934503D01*
X161002255Y72934512D01*
X160996787Y72934856D01*
X160991368Y72935140D01*
X160990722Y72935238D01*
X160990066Y72935279D01*
X160984699Y72936149D01*
X160979293Y72936966D01*
X160978653Y72937128D01*
X160978011Y72937232D01*
X160972749Y72938622D01*
X160967454Y72939962D01*
X160966841Y72940183D01*
X160966204Y72940351D01*
X160961061Y72942263D01*
X160955963Y72944099D01*
X160955375Y72944378D01*
X160954757Y72944608D01*
X160949861Y72946996D01*
X160944931Y72949337D01*
X160944365Y72949677D01*
X160943781Y72949962D01*
X160939162Y72952803D01*
X160934463Y72955627D01*
X160933937Y72956018D01*
X160933379Y72956361D01*
X160929004Y72959682D01*
X160924659Y72962909D01*
X160924181Y72963343D01*
X160923652Y72963744D01*
X160919608Y72967488D01*
X160915612Y72971112D01*
X160149611Y73737112D01*
X160148386Y73738354D01*
X160146927Y73740009D01*
X160145381Y73741555D01*
X160142916Y73744559D01*
X160140309Y73747516D01*
X160139002Y73749328D01*
X160137599Y73751038D01*
X160135452Y73754251D01*
X160133166Y73757421D01*
X160132035Y73759365D01*
X160130784Y73761237D01*
X160128971Y73764630D01*
X160127023Y73767975D01*
X160126071Y73770054D01*
X160125001Y73772056D01*
X160123545Y73775571D01*
X160121939Y73779079D01*
X160121184Y73781271D01*
X160120307Y73783389D01*
X160119211Y73787001D01*
X160117963Y73790626D01*
X160117420Y73792904D01*
X160116746Y73795127D01*
X160116012Y73798815D01*
X160115133Y73802507D01*
X160114811Y73804855D01*
X160114353Y73807159D01*
X160113988Y73810864D01*
X160113475Y73814605D01*
X160113383Y73817008D01*
X160113151Y73819367D01*
X160113151Y73823054D01*
X160113007Y73826809D01*
X160113151Y73829234D01*
G37*
G04 #@! TD.AperFunction*
G04 #@! TA.AperFunction,Conductor*
G04 #@! TO.N,P14*
G36*
X161886849Y73821766D02*
G01*
X161886849Y73819367D01*
X161886490Y73815720D01*
X161886269Y73812000D01*
X161885885Y73809572D01*
X161885647Y73807159D01*
X161884937Y73803587D01*
X161884359Y73799937D01*
X161883733Y73797533D01*
X161883254Y73795127D01*
X161882200Y73791654D01*
X161881280Y73788120D01*
X161880414Y73785766D01*
X161879693Y73783389D01*
X161878325Y73780085D01*
X161877064Y73776658D01*
X161875956Y73774367D01*
X161874999Y73772056D01*
X161873319Y73768913D01*
X161871748Y73765664D01*
X161870416Y73763481D01*
X161869216Y73761237D01*
X161867260Y73758309D01*
X161865386Y73755239D01*
X161863817Y73753156D01*
X161862401Y73751038D01*
X161860998Y73749328D01*
X161860185Y73748338D01*
X161858036Y73745486D01*
X161856260Y73743555D01*
X161854619Y73741555D01*
X161852159Y73739095D01*
X161849769Y73736496D01*
X161847797Y73734733D01*
X161845945Y73732881D01*
X161843269Y73730685D01*
X161840665Y73728357D01*
X161838508Y73726778D01*
X161836462Y73725099D01*
X161833620Y73723200D01*
X161830810Y73721143D01*
X161828478Y73719764D01*
X161826263Y73718284D01*
X161823266Y73716682D01*
X161820298Y73714927D01*
X161817826Y73713774D01*
X161815444Y73712501D01*
X161812330Y73711211D01*
X161809231Y73709766D01*
X161806625Y73708848D01*
X161804111Y73707807D01*
X161800916Y73706838D01*
X161797711Y73705709D01*
X161795002Y73705044D01*
X161792373Y73704246D01*
X161789126Y73703600D01*
X161785852Y73702796D01*
X161783062Y73702394D01*
X161780341Y73701853D01*
X161777065Y73701530D01*
X161773764Y73701055D01*
X161770928Y73700926D01*
X161768133Y73700651D01*
X161764867Y73700651D01*
X161761564Y73700501D01*
X161758697Y73700651D01*
X161755867Y73700651D01*
X161752659Y73700967D01*
X161749369Y73701139D01*
X161746496Y73701574D01*
X161743659Y73701853D01*
X161740510Y73702479D01*
X161737293Y73702966D01*
X161734467Y73703681D01*
X161731627Y73704246D01*
X161728569Y73705174D01*
X161725454Y73705962D01*
X161722685Y73706959D01*
X161719889Y73707807D01*
X161716971Y73709015D01*
X161713964Y73710098D01*
X161711286Y73711370D01*
X161708556Y73712501D01*
X161705791Y73713979D01*
X161702931Y73715337D01*
X161700367Y73716878D01*
X161697737Y73718284D01*
X161695153Y73720011D01*
X161692463Y73721627D01*
X161690031Y73723433D01*
X161687538Y73725099D01*
X161685158Y73727052D01*
X161682659Y73728908D01*
X161680396Y73730960D01*
X161678055Y73732881D01*
X161675895Y73735041D01*
X161673612Y73737111D01*
X160944224Y74466500D01*
X156991776Y74466500D01*
X156262388Y73737111D01*
X156261146Y73735886D01*
X156251984Y73727809D01*
X156242079Y73720666D01*
X156231525Y73714523D01*
X156220421Y73709439D01*
X156208874Y73705463D01*
X156196993Y73702633D01*
X156184895Y73700975D01*
X156172691Y73700507D01*
X156160500Y73701231D01*
X156148437Y73703141D01*
X156136620Y73706220D01*
X156125158Y73710436D01*
X156114164Y73715752D01*
X156103739Y73722114D01*
X156093986Y73729464D01*
X156084996Y73737731D01*
X156076857Y73746835D01*
X156069643Y73756690D01*
X156063427Y73767202D01*
X156058266Y73778269D01*
X156054209Y73789789D01*
X156051296Y73801648D01*
X156049555Y73813736D01*
X156049001Y73825936D01*
X156049639Y73838131D01*
X156051466Y73850207D01*
X156054462Y73862046D01*
X156058598Y73873536D01*
X156063837Y73884569D01*
X156070127Y73895037D01*
X156077408Y73904841D01*
X156085611Y73913888D01*
X156851612Y74679888D01*
X156851893Y74680166D01*
X156851921Y74680196D01*
X156851955Y74680227D01*
X156852854Y74681114D01*
X156856965Y74684738D01*
X156860996Y74688368D01*
X156861525Y74688758D01*
X156862015Y74689190D01*
X156866443Y74692383D01*
X156870826Y74695615D01*
X156871386Y74695949D01*
X156871920Y74696334D01*
X156876666Y74699096D01*
X156881316Y74701868D01*
X156881904Y74702145D01*
X156882475Y74702477D01*
X156887468Y74704763D01*
X156892366Y74707068D01*
X156892979Y74707286D01*
X156893579Y74707561D01*
X156898726Y74709333D01*
X156903871Y74711165D01*
X156904514Y74711325D01*
X156905126Y74711536D01*
X156910421Y74712798D01*
X156915721Y74714119D01*
X156916363Y74714214D01*
X156917006Y74714367D01*
X156922441Y74715111D01*
X156927802Y74715903D01*
X156928455Y74715935D01*
X156929105Y74716024D01*
X156934549Y74716233D01*
X156940000Y74716500D01*
X160996000Y74716500D01*
X160996398Y74716497D01*
X160996436Y74716499D01*
X160996480Y74716497D01*
X160997745Y74716488D01*
X161003213Y74716144D01*
X161008632Y74715860D01*
X161009278Y74715762D01*
X161009934Y74715721D01*
X161015301Y74714851D01*
X161020707Y74714034D01*
X161021347Y74713872D01*
X161021989Y74713768D01*
X161027251Y74712378D01*
X161032546Y74711038D01*
X161033159Y74710817D01*
X161033796Y74710649D01*
X161038939Y74708737D01*
X161044037Y74706901D01*
X161044625Y74706622D01*
X161045243Y74706392D01*
X161050139Y74704004D01*
X161055069Y74701663D01*
X161055635Y74701323D01*
X161056219Y74701038D01*
X161060838Y74698197D01*
X161065537Y74695373D01*
X161066063Y74694982D01*
X161066621Y74694639D01*
X161070996Y74691318D01*
X161075341Y74688091D01*
X161075819Y74687657D01*
X161076348Y74687256D01*
X161080392Y74683512D01*
X161084388Y74679888D01*
X161850389Y73913888D01*
X161851614Y73912646D01*
X161853073Y73910991D01*
X161854619Y73909445D01*
X161857084Y73906441D01*
X161859691Y73903484D01*
X161860998Y73901672D01*
X161862401Y73899962D01*
X161864548Y73896749D01*
X161866834Y73893579D01*
X161867965Y73891635D01*
X161869216Y73889763D01*
X161871029Y73886370D01*
X161872977Y73883025D01*
X161873929Y73880946D01*
X161874999Y73878944D01*
X161876455Y73875429D01*
X161878061Y73871921D01*
X161878816Y73869729D01*
X161879693Y73867611D01*
X161880789Y73863999D01*
X161882037Y73860374D01*
X161882580Y73858096D01*
X161883254Y73855873D01*
X161883988Y73852185D01*
X161884867Y73848493D01*
X161885189Y73846145D01*
X161885647Y73843841D01*
X161886012Y73840136D01*
X161886525Y73836395D01*
X161886617Y73833992D01*
X161886849Y73831633D01*
X161886849Y73827946D01*
X161886993Y73824191D01*
X161886849Y73821766D01*
G37*
G04 #@! TD.AperFunction*
D17*
G04 #@! TO.N,P8*
X160238000Y71285500D03*
G04 #@! TO.N,P16*
X161762000Y71285500D03*
G04 #@! TA.AperFunction,Conductor*
D16*
G04 #@! TO.N,P8*
G36*
X160113151Y71289234D02*
G01*
X160113151Y71291633D01*
X160113510Y71295280D01*
X160113731Y71299000D01*
X160114115Y71301428D01*
X160114353Y71303841D01*
X160115063Y71307413D01*
X160115641Y71311063D01*
X160116267Y71313467D01*
X160116746Y71315873D01*
X160117800Y71319346D01*
X160118720Y71322880D01*
X160119586Y71325234D01*
X160120307Y71327611D01*
X160121675Y71330915D01*
X160122936Y71334342D01*
X160124044Y71336633D01*
X160125001Y71338944D01*
X160126681Y71342087D01*
X160128252Y71345336D01*
X160129584Y71347519D01*
X160130784Y71349763D01*
X160132740Y71352691D01*
X160134614Y71355761D01*
X160136183Y71357844D01*
X160137599Y71359962D01*
X160139002Y71361672D01*
X160139815Y71362662D01*
X160141964Y71365514D01*
X160143740Y71367445D01*
X160145381Y71369445D01*
X160147841Y71371905D01*
X160150231Y71374504D01*
X160152203Y71376267D01*
X160154055Y71378119D01*
X160156731Y71380315D01*
X160159335Y71382643D01*
X160161492Y71384222D01*
X160163538Y71385901D01*
X160166380Y71387800D01*
X160169190Y71389857D01*
X160171522Y71391236D01*
X160173737Y71392716D01*
X160176734Y71394318D01*
X160179702Y71396073D01*
X160182174Y71397226D01*
X160184556Y71398499D01*
X160187670Y71399789D01*
X160190769Y71401234D01*
X160193375Y71402152D01*
X160195889Y71403193D01*
X160199084Y71404162D01*
X160202289Y71405291D01*
X160204998Y71405956D01*
X160207627Y71406754D01*
X160210874Y71407400D01*
X160214148Y71408204D01*
X160216938Y71408606D01*
X160219659Y71409147D01*
X160222935Y71409470D01*
X160226236Y71409945D01*
X160229072Y71410074D01*
X160231867Y71410349D01*
X160235133Y71410349D01*
X160238436Y71410499D01*
X160241303Y71410349D01*
X160244133Y71410349D01*
X160247341Y71410033D01*
X160250631Y71409861D01*
X160253504Y71409426D01*
X160256341Y71409147D01*
X160259490Y71408521D01*
X160262707Y71408034D01*
X160265533Y71407319D01*
X160268373Y71406754D01*
X160271431Y71405826D01*
X160274546Y71405038D01*
X160277315Y71404041D01*
X160280111Y71403193D01*
X160283029Y71401985D01*
X160286036Y71400902D01*
X160288714Y71399630D01*
X160291444Y71398499D01*
X160294209Y71397021D01*
X160297069Y71395663D01*
X160299633Y71394122D01*
X160302263Y71392716D01*
X160304847Y71390989D01*
X160307537Y71389373D01*
X160309969Y71387567D01*
X160312462Y71385901D01*
X160314842Y71383948D01*
X160317341Y71382092D01*
X160319604Y71380040D01*
X160321945Y71378119D01*
X160324105Y71375959D01*
X160326388Y71373889D01*
X161055776Y70644500D01*
X165008224Y70644500D01*
X165737612Y71373889D01*
X165738854Y71375114D01*
X165748016Y71383191D01*
X165757921Y71390334D01*
X165768475Y71396477D01*
X165779579Y71401561D01*
X165791126Y71405537D01*
X165803007Y71408367D01*
X165815105Y71410025D01*
X165827309Y71410493D01*
X165839500Y71409769D01*
X165851563Y71407859D01*
X165863380Y71404780D01*
X165874842Y71400564D01*
X165885836Y71395248D01*
X165896261Y71388886D01*
X165906014Y71381536D01*
X165915004Y71373269D01*
X165923143Y71364165D01*
X165930357Y71354310D01*
X165936573Y71343798D01*
X165941734Y71332731D01*
X165945791Y71321211D01*
X165948704Y71309352D01*
X165950445Y71297264D01*
X165950999Y71285064D01*
X165950361Y71272869D01*
X165948534Y71260793D01*
X165945538Y71248954D01*
X165941402Y71237464D01*
X165936163Y71226431D01*
X165929873Y71215963D01*
X165922592Y71206159D01*
X165914389Y71197112D01*
X165148388Y70431112D01*
X165148107Y70430834D01*
X165148079Y70430804D01*
X165148045Y70430773D01*
X165147146Y70429886D01*
X165143035Y70426262D01*
X165139004Y70422632D01*
X165138475Y70422242D01*
X165137985Y70421810D01*
X165133557Y70418617D01*
X165129174Y70415385D01*
X165128614Y70415051D01*
X165128080Y70414666D01*
X165123334Y70411904D01*
X165118684Y70409132D01*
X165118096Y70408855D01*
X165117525Y70408523D01*
X165112532Y70406237D01*
X165107634Y70403932D01*
X165107021Y70403714D01*
X165106421Y70403439D01*
X165101274Y70401667D01*
X165096129Y70399835D01*
X165095486Y70399675D01*
X165094874Y70399464D01*
X165089579Y70398202D01*
X165084279Y70396881D01*
X165083637Y70396786D01*
X165082994Y70396633D01*
X165077559Y70395889D01*
X165072198Y70395097D01*
X165071545Y70395065D01*
X165070895Y70394976D01*
X165065451Y70394767D01*
X165060000Y70394500D01*
X161004000Y70394500D01*
X161003602Y70394503D01*
X161003564Y70394501D01*
X161003520Y70394503D01*
X161002255Y70394512D01*
X160996787Y70394856D01*
X160991368Y70395140D01*
X160990722Y70395238D01*
X160990066Y70395279D01*
X160984699Y70396149D01*
X160979293Y70396966D01*
X160978653Y70397128D01*
X160978011Y70397232D01*
X160972749Y70398622D01*
X160967454Y70399962D01*
X160966841Y70400183D01*
X160966204Y70400351D01*
X160961061Y70402263D01*
X160955963Y70404099D01*
X160955375Y70404378D01*
X160954757Y70404608D01*
X160949861Y70406996D01*
X160944931Y70409337D01*
X160944365Y70409677D01*
X160943781Y70409962D01*
X160939162Y70412803D01*
X160934463Y70415627D01*
X160933937Y70416018D01*
X160933379Y70416361D01*
X160929004Y70419682D01*
X160924659Y70422909D01*
X160924181Y70423343D01*
X160923652Y70423744D01*
X160919608Y70427488D01*
X160915612Y70431112D01*
X160149611Y71197112D01*
X160148386Y71198354D01*
X160146927Y71200009D01*
X160145381Y71201555D01*
X160142916Y71204559D01*
X160140309Y71207516D01*
X160139002Y71209328D01*
X160137599Y71211038D01*
X160135452Y71214251D01*
X160133166Y71217421D01*
X160132035Y71219365D01*
X160130784Y71221237D01*
X160128971Y71224630D01*
X160127023Y71227975D01*
X160126071Y71230054D01*
X160125001Y71232056D01*
X160123545Y71235571D01*
X160121939Y71239079D01*
X160121184Y71241271D01*
X160120307Y71243389D01*
X160119211Y71247001D01*
X160117963Y71250626D01*
X160117420Y71252904D01*
X160116746Y71255127D01*
X160116012Y71258815D01*
X160115133Y71262507D01*
X160114811Y71264855D01*
X160114353Y71267159D01*
X160113988Y71270864D01*
X160113475Y71274605D01*
X160113383Y71277008D01*
X160113151Y71279367D01*
X160113151Y71283054D01*
X160113007Y71286809D01*
X160113151Y71289234D01*
G37*
G04 #@! TD.AperFunction*
G04 #@! TA.AperFunction,Conductor*
G04 #@! TO.N,P16*
G36*
X161886849Y71281766D02*
G01*
X161886849Y71279367D01*
X161886490Y71275720D01*
X161886269Y71272000D01*
X161885885Y71269572D01*
X161885647Y71267159D01*
X161884937Y71263587D01*
X161884359Y71259937D01*
X161883733Y71257533D01*
X161883254Y71255127D01*
X161882200Y71251654D01*
X161881280Y71248120D01*
X161880414Y71245766D01*
X161879693Y71243389D01*
X161878325Y71240085D01*
X161877064Y71236658D01*
X161875956Y71234367D01*
X161874999Y71232056D01*
X161873319Y71228913D01*
X161871748Y71225664D01*
X161870416Y71223481D01*
X161869216Y71221237D01*
X161867260Y71218309D01*
X161865386Y71215239D01*
X161863817Y71213156D01*
X161862401Y71211038D01*
X161860998Y71209328D01*
X161860185Y71208338D01*
X161858036Y71205486D01*
X161856260Y71203555D01*
X161854619Y71201555D01*
X161852159Y71199095D01*
X161849769Y71196496D01*
X161847797Y71194733D01*
X161845945Y71192881D01*
X161843269Y71190685D01*
X161840665Y71188357D01*
X161838508Y71186778D01*
X161836462Y71185099D01*
X161833620Y71183200D01*
X161830810Y71181143D01*
X161828478Y71179764D01*
X161826263Y71178284D01*
X161823266Y71176682D01*
X161820298Y71174927D01*
X161817826Y71173774D01*
X161815444Y71172501D01*
X161812330Y71171211D01*
X161809231Y71169766D01*
X161806625Y71168848D01*
X161804111Y71167807D01*
X161800916Y71166838D01*
X161797711Y71165709D01*
X161795002Y71165044D01*
X161792373Y71164246D01*
X161789126Y71163600D01*
X161785852Y71162796D01*
X161783062Y71162394D01*
X161780341Y71161853D01*
X161777065Y71161530D01*
X161773764Y71161055D01*
X161770928Y71160926D01*
X161768133Y71160651D01*
X161764867Y71160651D01*
X161761564Y71160501D01*
X161758697Y71160651D01*
X161755867Y71160651D01*
X161752659Y71160967D01*
X161749369Y71161139D01*
X161746496Y71161574D01*
X161743659Y71161853D01*
X161740510Y71162479D01*
X161737293Y71162966D01*
X161734467Y71163681D01*
X161731627Y71164246D01*
X161728569Y71165174D01*
X161725454Y71165962D01*
X161722685Y71166959D01*
X161719889Y71167807D01*
X161716971Y71169015D01*
X161713964Y71170098D01*
X161711286Y71171370D01*
X161708556Y71172501D01*
X161705791Y71173979D01*
X161702931Y71175337D01*
X161700367Y71176878D01*
X161697737Y71178284D01*
X161695153Y71180011D01*
X161692463Y71181627D01*
X161690031Y71183433D01*
X161687538Y71185099D01*
X161685158Y71187052D01*
X161682659Y71188908D01*
X161680396Y71190960D01*
X161678055Y71192881D01*
X161675895Y71195041D01*
X161673612Y71197111D01*
X160944224Y71926500D01*
X156991776Y71926500D01*
X156262388Y71197111D01*
X156261146Y71195886D01*
X156251984Y71187809D01*
X156242079Y71180666D01*
X156231525Y71174523D01*
X156220421Y71169439D01*
X156208874Y71165463D01*
X156196993Y71162633D01*
X156184895Y71160975D01*
X156172691Y71160507D01*
X156160500Y71161231D01*
X156148437Y71163141D01*
X156136620Y71166220D01*
X156125158Y71170436D01*
X156114164Y71175752D01*
X156103739Y71182114D01*
X156093986Y71189464D01*
X156084996Y71197731D01*
X156076857Y71206835D01*
X156069643Y71216690D01*
X156063427Y71227202D01*
X156058266Y71238269D01*
X156054209Y71249789D01*
X156051296Y71261648D01*
X156049555Y71273736D01*
X156049001Y71285936D01*
X156049639Y71298131D01*
X156051466Y71310207D01*
X156054462Y71322046D01*
X156058598Y71333536D01*
X156063837Y71344569D01*
X156070127Y71355037D01*
X156077408Y71364841D01*
X156085611Y71373888D01*
X156851612Y72139888D01*
X156851893Y72140166D01*
X156851921Y72140196D01*
X156851955Y72140227D01*
X156852854Y72141114D01*
X156856965Y72144738D01*
X156860996Y72148368D01*
X156861525Y72148758D01*
X156862015Y72149190D01*
X156866443Y72152383D01*
X156870826Y72155615D01*
X156871386Y72155949D01*
X156871920Y72156334D01*
X156876666Y72159096D01*
X156881316Y72161868D01*
X156881904Y72162145D01*
X156882475Y72162477D01*
X156887468Y72164763D01*
X156892366Y72167068D01*
X156892979Y72167286D01*
X156893579Y72167561D01*
X156898726Y72169333D01*
X156903871Y72171165D01*
X156904514Y72171325D01*
X156905126Y72171536D01*
X156910421Y72172798D01*
X156915721Y72174119D01*
X156916363Y72174214D01*
X156917006Y72174367D01*
X156922441Y72175111D01*
X156927802Y72175903D01*
X156928455Y72175935D01*
X156929105Y72176024D01*
X156934549Y72176233D01*
X156940000Y72176500D01*
X160996000Y72176500D01*
X160996398Y72176497D01*
X160996436Y72176499D01*
X160996480Y72176497D01*
X160997745Y72176488D01*
X161003213Y72176144D01*
X161008632Y72175860D01*
X161009278Y72175762D01*
X161009934Y72175721D01*
X161015301Y72174851D01*
X161020707Y72174034D01*
X161021347Y72173872D01*
X161021989Y72173768D01*
X161027251Y72172378D01*
X161032546Y72171038D01*
X161033159Y72170817D01*
X161033796Y72170649D01*
X161038939Y72168737D01*
X161044037Y72166901D01*
X161044625Y72166622D01*
X161045243Y72166392D01*
X161050139Y72164004D01*
X161055069Y72161663D01*
X161055635Y72161323D01*
X161056219Y72161038D01*
X161060838Y72158197D01*
X161065537Y72155373D01*
X161066063Y72154982D01*
X161066621Y72154639D01*
X161070996Y72151318D01*
X161075341Y72148091D01*
X161075819Y72147657D01*
X161076348Y72147256D01*
X161080392Y72143512D01*
X161084388Y72139888D01*
X161850389Y71373888D01*
X161851614Y71372646D01*
X161853073Y71370991D01*
X161854619Y71369445D01*
X161857084Y71366441D01*
X161859691Y71363484D01*
X161860998Y71361672D01*
X161862401Y71359962D01*
X161864548Y71356749D01*
X161866834Y71353579D01*
X161867965Y71351635D01*
X161869216Y71349763D01*
X161871029Y71346370D01*
X161872977Y71343025D01*
X161873929Y71340946D01*
X161874999Y71338944D01*
X161876455Y71335429D01*
X161878061Y71331921D01*
X161878816Y71329729D01*
X161879693Y71327611D01*
X161880789Y71323999D01*
X161882037Y71320374D01*
X161882580Y71318096D01*
X161883254Y71315873D01*
X161883988Y71312185D01*
X161884867Y71308493D01*
X161885189Y71306145D01*
X161885647Y71303841D01*
X161886012Y71300136D01*
X161886525Y71296395D01*
X161886617Y71293992D01*
X161886849Y71291633D01*
X161886849Y71287946D01*
X161886993Y71284191D01*
X161886849Y71281766D01*
G37*
G04 #@! TD.AperFunction*
D17*
G04 #@! TO.N,P9*
X160238000Y68745500D03*
G04 #@! TO.N,P10*
X161762000Y68745500D03*
G04 #@! TA.AperFunction,Conductor*
D16*
G04 #@! TO.N,P9*
G36*
X160113151Y68749234D02*
G01*
X160113151Y68751633D01*
X160113510Y68755280D01*
X160113731Y68759000D01*
X160114115Y68761428D01*
X160114353Y68763841D01*
X160115063Y68767413D01*
X160115641Y68771063D01*
X160116267Y68773467D01*
X160116746Y68775873D01*
X160117800Y68779346D01*
X160118720Y68782880D01*
X160119586Y68785234D01*
X160120307Y68787611D01*
X160121675Y68790915D01*
X160122936Y68794342D01*
X160124044Y68796633D01*
X160125001Y68798944D01*
X160126681Y68802087D01*
X160128252Y68805336D01*
X160129584Y68807519D01*
X160130784Y68809763D01*
X160132740Y68812691D01*
X160134614Y68815761D01*
X160136183Y68817844D01*
X160137599Y68819962D01*
X160139002Y68821672D01*
X160139815Y68822662D01*
X160141964Y68825514D01*
X160143740Y68827445D01*
X160145381Y68829445D01*
X160147841Y68831905D01*
X160150231Y68834504D01*
X160152203Y68836267D01*
X160154055Y68838119D01*
X160156731Y68840315D01*
X160159335Y68842643D01*
X160161492Y68844222D01*
X160163538Y68845901D01*
X160166380Y68847800D01*
X160169190Y68849857D01*
X160171522Y68851236D01*
X160173737Y68852716D01*
X160176734Y68854318D01*
X160179702Y68856073D01*
X160182174Y68857226D01*
X160184556Y68858499D01*
X160187670Y68859789D01*
X160190769Y68861234D01*
X160193375Y68862152D01*
X160195889Y68863193D01*
X160199084Y68864162D01*
X160202289Y68865291D01*
X160204998Y68865956D01*
X160207627Y68866754D01*
X160210874Y68867400D01*
X160214148Y68868204D01*
X160216938Y68868606D01*
X160219659Y68869147D01*
X160222935Y68869470D01*
X160226236Y68869945D01*
X160229072Y68870074D01*
X160231867Y68870349D01*
X160235133Y68870349D01*
X160238436Y68870499D01*
X160241303Y68870349D01*
X160244133Y68870349D01*
X160247341Y68870033D01*
X160250631Y68869861D01*
X160253504Y68869426D01*
X160256341Y68869147D01*
X160259490Y68868521D01*
X160262707Y68868034D01*
X160265533Y68867319D01*
X160268373Y68866754D01*
X160271431Y68865826D01*
X160274546Y68865038D01*
X160277315Y68864041D01*
X160280111Y68863193D01*
X160283029Y68861985D01*
X160286036Y68860902D01*
X160288714Y68859630D01*
X160291444Y68858499D01*
X160294209Y68857021D01*
X160297069Y68855663D01*
X160299633Y68854122D01*
X160302263Y68852716D01*
X160304847Y68850989D01*
X160307537Y68849373D01*
X160309969Y68847567D01*
X160312462Y68845901D01*
X160314842Y68843948D01*
X160317341Y68842092D01*
X160319604Y68840040D01*
X160321945Y68838119D01*
X160324105Y68835959D01*
X160326388Y68833889D01*
X161055776Y68104500D01*
X165008224Y68104500D01*
X165737612Y68833889D01*
X165738854Y68835114D01*
X165748016Y68843191D01*
X165757921Y68850334D01*
X165768475Y68856477D01*
X165779579Y68861561D01*
X165791126Y68865537D01*
X165803007Y68868367D01*
X165815105Y68870025D01*
X165827309Y68870493D01*
X165839500Y68869769D01*
X165851563Y68867859D01*
X165863380Y68864780D01*
X165874842Y68860564D01*
X165885836Y68855248D01*
X165896261Y68848886D01*
X165906014Y68841536D01*
X165915004Y68833269D01*
X165923143Y68824165D01*
X165930357Y68814310D01*
X165936573Y68803798D01*
X165941734Y68792731D01*
X165945791Y68781211D01*
X165948704Y68769352D01*
X165950445Y68757264D01*
X165950999Y68745064D01*
X165950361Y68732869D01*
X165948534Y68720793D01*
X165945538Y68708954D01*
X165941402Y68697464D01*
X165936163Y68686431D01*
X165929873Y68675963D01*
X165922592Y68666159D01*
X165914389Y68657112D01*
X165148388Y67891112D01*
X165148107Y67890834D01*
X165148079Y67890804D01*
X165148045Y67890773D01*
X165147146Y67889886D01*
X165143035Y67886262D01*
X165139004Y67882632D01*
X165138475Y67882242D01*
X165137985Y67881810D01*
X165133557Y67878617D01*
X165129174Y67875385D01*
X165128614Y67875051D01*
X165128080Y67874666D01*
X165123334Y67871904D01*
X165118684Y67869132D01*
X165118096Y67868855D01*
X165117525Y67868523D01*
X165112532Y67866237D01*
X165107634Y67863932D01*
X165107021Y67863714D01*
X165106421Y67863439D01*
X165101274Y67861667D01*
X165096129Y67859835D01*
X165095486Y67859675D01*
X165094874Y67859464D01*
X165089579Y67858202D01*
X165084279Y67856881D01*
X165083637Y67856786D01*
X165082994Y67856633D01*
X165077559Y67855889D01*
X165072198Y67855097D01*
X165071545Y67855065D01*
X165070895Y67854976D01*
X165065451Y67854767D01*
X165060000Y67854500D01*
X161004000Y67854500D01*
X161003602Y67854503D01*
X161003564Y67854501D01*
X161003520Y67854503D01*
X161002255Y67854512D01*
X160996787Y67854856D01*
X160991368Y67855140D01*
X160990722Y67855238D01*
X160990066Y67855279D01*
X160984699Y67856149D01*
X160979293Y67856966D01*
X160978653Y67857128D01*
X160978011Y67857232D01*
X160972749Y67858622D01*
X160967454Y67859962D01*
X160966841Y67860183D01*
X160966204Y67860351D01*
X160961061Y67862263D01*
X160955963Y67864099D01*
X160955375Y67864378D01*
X160954757Y67864608D01*
X160949861Y67866996D01*
X160944931Y67869337D01*
X160944365Y67869677D01*
X160943781Y67869962D01*
X160939162Y67872803D01*
X160934463Y67875627D01*
X160933937Y67876018D01*
X160933379Y67876361D01*
X160929004Y67879682D01*
X160924659Y67882909D01*
X160924181Y67883343D01*
X160923652Y67883744D01*
X160919608Y67887488D01*
X160915612Y67891112D01*
X160149611Y68657112D01*
X160148386Y68658354D01*
X160146927Y68660009D01*
X160145381Y68661555D01*
X160142916Y68664559D01*
X160140309Y68667516D01*
X160139002Y68669328D01*
X160137599Y68671038D01*
X160135452Y68674251D01*
X160133166Y68677421D01*
X160132035Y68679365D01*
X160130784Y68681237D01*
X160128971Y68684630D01*
X160127023Y68687975D01*
X160126071Y68690054D01*
X160125001Y68692056D01*
X160123545Y68695571D01*
X160121939Y68699079D01*
X160121184Y68701271D01*
X160120307Y68703389D01*
X160119211Y68707001D01*
X160117963Y68710626D01*
X160117420Y68712904D01*
X160116746Y68715127D01*
X160116012Y68718815D01*
X160115133Y68722507D01*
X160114811Y68724855D01*
X160114353Y68727159D01*
X160113988Y68730864D01*
X160113475Y68734605D01*
X160113383Y68737008D01*
X160113151Y68739367D01*
X160113151Y68743054D01*
X160113007Y68746809D01*
X160113151Y68749234D01*
G37*
G04 #@! TD.AperFunction*
G04 #@! TA.AperFunction,Conductor*
G04 #@! TO.N,P10*
G36*
X161886849Y68741766D02*
G01*
X161886849Y68739367D01*
X161886490Y68735720D01*
X161886269Y68732000D01*
X161885885Y68729572D01*
X161885647Y68727159D01*
X161884937Y68723587D01*
X161884359Y68719937D01*
X161883733Y68717533D01*
X161883254Y68715127D01*
X161882200Y68711654D01*
X161881280Y68708120D01*
X161880414Y68705766D01*
X161879693Y68703389D01*
X161878325Y68700085D01*
X161877064Y68696658D01*
X161875956Y68694367D01*
X161874999Y68692056D01*
X161873319Y68688913D01*
X161871748Y68685664D01*
X161870416Y68683481D01*
X161869216Y68681237D01*
X161867260Y68678309D01*
X161865386Y68675239D01*
X161863817Y68673156D01*
X161862401Y68671038D01*
X161860998Y68669328D01*
X161860185Y68668338D01*
X161858036Y68665486D01*
X161856260Y68663555D01*
X161854619Y68661555D01*
X161852159Y68659095D01*
X161849769Y68656496D01*
X161847797Y68654733D01*
X161845945Y68652881D01*
X161843269Y68650685D01*
X161840665Y68648357D01*
X161838508Y68646778D01*
X161836462Y68645099D01*
X161833620Y68643200D01*
X161830810Y68641143D01*
X161828478Y68639764D01*
X161826263Y68638284D01*
X161823266Y68636682D01*
X161820298Y68634927D01*
X161817826Y68633774D01*
X161815444Y68632501D01*
X161812330Y68631211D01*
X161809231Y68629766D01*
X161806625Y68628848D01*
X161804111Y68627807D01*
X161800916Y68626838D01*
X161797711Y68625709D01*
X161795002Y68625044D01*
X161792373Y68624246D01*
X161789126Y68623600D01*
X161785852Y68622796D01*
X161783062Y68622394D01*
X161780341Y68621853D01*
X161777065Y68621530D01*
X161773764Y68621055D01*
X161770928Y68620926D01*
X161768133Y68620651D01*
X161764867Y68620651D01*
X161761564Y68620501D01*
X161758697Y68620651D01*
X161755867Y68620651D01*
X161752659Y68620967D01*
X161749369Y68621139D01*
X161746496Y68621574D01*
X161743659Y68621853D01*
X161740510Y68622479D01*
X161737293Y68622966D01*
X161734467Y68623681D01*
X161731627Y68624246D01*
X161728569Y68625174D01*
X161725454Y68625962D01*
X161722685Y68626959D01*
X161719889Y68627807D01*
X161716971Y68629015D01*
X161713964Y68630098D01*
X161711286Y68631370D01*
X161708556Y68632501D01*
X161705791Y68633979D01*
X161702931Y68635337D01*
X161700367Y68636878D01*
X161697737Y68638284D01*
X161695153Y68640011D01*
X161692463Y68641627D01*
X161690031Y68643433D01*
X161687538Y68645099D01*
X161685158Y68647052D01*
X161682659Y68648908D01*
X161680396Y68650960D01*
X161678055Y68652881D01*
X161675895Y68655041D01*
X161673612Y68657111D01*
X160944224Y69386500D01*
X156991776Y69386500D01*
X156262388Y68657111D01*
X156261146Y68655886D01*
X156251984Y68647809D01*
X156242079Y68640666D01*
X156231525Y68634523D01*
X156220421Y68629439D01*
X156208874Y68625463D01*
X156196993Y68622633D01*
X156184895Y68620975D01*
X156172691Y68620507D01*
X156160500Y68621231D01*
X156148437Y68623141D01*
X156136620Y68626220D01*
X156125158Y68630436D01*
X156114164Y68635752D01*
X156103739Y68642114D01*
X156093986Y68649464D01*
X156084996Y68657731D01*
X156076857Y68666835D01*
X156069643Y68676690D01*
X156063427Y68687202D01*
X156058266Y68698269D01*
X156054209Y68709789D01*
X156051296Y68721648D01*
X156049555Y68733736D01*
X156049001Y68745936D01*
X156049639Y68758131D01*
X156051466Y68770207D01*
X156054462Y68782046D01*
X156058598Y68793536D01*
X156063837Y68804569D01*
X156070127Y68815037D01*
X156077408Y68824841D01*
X156085611Y68833888D01*
X156851612Y69599888D01*
X156851893Y69600166D01*
X156851921Y69600196D01*
X156851955Y69600227D01*
X156852854Y69601114D01*
X156856965Y69604738D01*
X156860996Y69608368D01*
X156861525Y69608758D01*
X156862015Y69609190D01*
X156866443Y69612383D01*
X156870826Y69615615D01*
X156871386Y69615949D01*
X156871920Y69616334D01*
X156876666Y69619096D01*
X156881316Y69621868D01*
X156881904Y69622145D01*
X156882475Y69622477D01*
X156887468Y69624763D01*
X156892366Y69627068D01*
X156892979Y69627286D01*
X156893579Y69627561D01*
X156898726Y69629333D01*
X156903871Y69631165D01*
X156904514Y69631325D01*
X156905126Y69631536D01*
X156910421Y69632798D01*
X156915721Y69634119D01*
X156916363Y69634214D01*
X156917006Y69634367D01*
X156922441Y69635111D01*
X156927802Y69635903D01*
X156928455Y69635935D01*
X156929105Y69636024D01*
X156934549Y69636233D01*
X156940000Y69636500D01*
X160996000Y69636500D01*
X160996398Y69636497D01*
X160996436Y69636499D01*
X160996480Y69636497D01*
X160997745Y69636488D01*
X161003213Y69636144D01*
X161008632Y69635860D01*
X161009278Y69635762D01*
X161009934Y69635721D01*
X161015301Y69634851D01*
X161020707Y69634034D01*
X161021347Y69633872D01*
X161021989Y69633768D01*
X161027251Y69632378D01*
X161032546Y69631038D01*
X161033159Y69630817D01*
X161033796Y69630649D01*
X161038939Y69628737D01*
X161044037Y69626901D01*
X161044625Y69626622D01*
X161045243Y69626392D01*
X161050139Y69624004D01*
X161055069Y69621663D01*
X161055635Y69621323D01*
X161056219Y69621038D01*
X161060838Y69618197D01*
X161065537Y69615373D01*
X161066063Y69614982D01*
X161066621Y69614639D01*
X161070996Y69611318D01*
X161075341Y69608091D01*
X161075819Y69607657D01*
X161076348Y69607256D01*
X161080392Y69603512D01*
X161084388Y69599888D01*
X161850389Y68833888D01*
X161851614Y68832646D01*
X161853073Y68830991D01*
X161854619Y68829445D01*
X161857084Y68826441D01*
X161859691Y68823484D01*
X161860998Y68821672D01*
X161862401Y68819962D01*
X161864548Y68816749D01*
X161866834Y68813579D01*
X161867965Y68811635D01*
X161869216Y68809763D01*
X161871029Y68806370D01*
X161872977Y68803025D01*
X161873929Y68800946D01*
X161874999Y68798944D01*
X161876455Y68795429D01*
X161878061Y68791921D01*
X161878816Y68789729D01*
X161879693Y68787611D01*
X161880789Y68783999D01*
X161882037Y68780374D01*
X161882580Y68778096D01*
X161883254Y68775873D01*
X161883988Y68772185D01*
X161884867Y68768493D01*
X161885189Y68766145D01*
X161885647Y68763841D01*
X161886012Y68760136D01*
X161886525Y68756395D01*
X161886617Y68753992D01*
X161886849Y68751633D01*
X161886849Y68747946D01*
X161886993Y68744191D01*
X161886849Y68741766D01*
G37*
G04 #@! TD.AperFunction*
G04 #@! TD*
D18*
G04 #@! TO.P,T1,*
G04 #@! TO.N,*
X169000000Y58215500D03*
X169000000Y61215500D03*
G04 #@! TD*
G04 #@! TO.P,T2,*
G04 #@! TO.N,*
X169000000Y58215500D03*
X169000000Y61215500D03*
D19*
G04 #@! TO.P,T2,1*
G04 #@! TO.N,Braw*
X166925000Y61965500D03*
G04 #@! TO.P,T2,2*
G04 #@! TO.N,Bplus*
X166925000Y58965500D03*
G04 #@! TO.P,T2,3*
G04 #@! TO.N,N/C*
X166925000Y57465500D03*
D20*
G04 #@! TO.P,T2,*
G04 #@! TO.N,*
X170100000Y56015500D03*
X167900000Y56015500D03*
X167900000Y63415500D03*
X170100000Y63415500D03*
G04 #@! TD*
G04 #@! TA.AperFunction,ComponentPad*
D21*
G04 #@! TO.P,PAD1,1*
G04 #@! TO.N,Braw*
G36*
X159411756Y53338694D02*
G01*
X159448159Y53333294D01*
X159483857Y53324353D01*
X159518506Y53311955D01*
X159551774Y53296220D01*
X159583339Y53277301D01*
X159612897Y53255379D01*
X159640165Y53230665D01*
X159664879Y53203397D01*
X159686801Y53173839D01*
X159705720Y53142274D01*
X159721455Y53109006D01*
X159733853Y53074357D01*
X159742794Y53038659D01*
X159748194Y53002256D01*
X159750000Y52965500D01*
X159750000Y51465500D01*
X159748194Y51428744D01*
X159742794Y51392341D01*
X159733853Y51356643D01*
X159721455Y51321994D01*
X159705720Y51288726D01*
X159686801Y51257161D01*
X159664879Y51227603D01*
X159640165Y51200335D01*
X159612897Y51175621D01*
X159583339Y51153699D01*
X159551774Y51134780D01*
X159518506Y51119045D01*
X159483857Y51106647D01*
X159448159Y51097706D01*
X159411756Y51092306D01*
X159375000Y51090500D01*
X158625000Y51090500D01*
X158588244Y51092306D01*
X158551841Y51097706D01*
X158516143Y51106647D01*
X158481494Y51119045D01*
X158448226Y51134780D01*
X158416661Y51153699D01*
X158387103Y51175621D01*
X158359835Y51200335D01*
X158335121Y51227603D01*
X158313199Y51257161D01*
X158294280Y51288726D01*
X158278545Y51321994D01*
X158266147Y51356643D01*
X158257206Y51392341D01*
X158251806Y51428744D01*
X158250000Y51465500D01*
X158250000Y52965500D01*
X158251806Y53002256D01*
X158257206Y53038659D01*
X158266147Y53074357D01*
X158278545Y53109006D01*
X158294280Y53142274D01*
X158313199Y53173839D01*
X158335121Y53203397D01*
X158359835Y53230665D01*
X158387103Y53255379D01*
X158416661Y53277301D01*
X158448226Y53296220D01*
X158481494Y53311955D01*
X158516143Y53324353D01*
X158551841Y53333294D01*
X158588244Y53338694D01*
X158625000Y53340500D01*
X159375000Y53340500D01*
X159411756Y53338694D01*
G37*
G04 #@! TD.AperFunction*
G04 #@! TA.AperFunction,ComponentPad*
G04 #@! TO.P,PAD1,2*
G04 #@! TO.N,Bminus*
G36*
X161411756Y53338694D02*
G01*
X161448159Y53333294D01*
X161483857Y53324353D01*
X161518506Y53311955D01*
X161551774Y53296220D01*
X161583339Y53277301D01*
X161612897Y53255379D01*
X161640165Y53230665D01*
X161664879Y53203397D01*
X161686801Y53173839D01*
X161705720Y53142274D01*
X161721455Y53109006D01*
X161733853Y53074357D01*
X161742794Y53038659D01*
X161748194Y53002256D01*
X161750000Y52965500D01*
X161750000Y51465500D01*
X161748194Y51428744D01*
X161742794Y51392341D01*
X161733853Y51356643D01*
X161721455Y51321994D01*
X161705720Y51288726D01*
X161686801Y51257161D01*
X161664879Y51227603D01*
X161640165Y51200335D01*
X161612897Y51175621D01*
X161583339Y51153699D01*
X161551774Y51134780D01*
X161518506Y51119045D01*
X161483857Y51106647D01*
X161448159Y51097706D01*
X161411756Y51092306D01*
X161375000Y51090500D01*
X160625000Y51090500D01*
X160588244Y51092306D01*
X160551841Y51097706D01*
X160516143Y51106647D01*
X160481494Y51119045D01*
X160448226Y51134780D01*
X160416661Y51153699D01*
X160387103Y51175621D01*
X160359835Y51200335D01*
X160335121Y51227603D01*
X160313199Y51257161D01*
X160294280Y51288726D01*
X160278545Y51321994D01*
X160266147Y51356643D01*
X160257206Y51392341D01*
X160251806Y51428744D01*
X160250000Y51465500D01*
X160250000Y52965500D01*
X160251806Y53002256D01*
X160257206Y53038659D01*
X160266147Y53074357D01*
X160278545Y53109006D01*
X160294280Y53142274D01*
X160313199Y53173839D01*
X160335121Y53203397D01*
X160359835Y53230665D01*
X160387103Y53255379D01*
X160416661Y53277301D01*
X160448226Y53296220D01*
X160481494Y53311955D01*
X160516143Y53324353D01*
X160551841Y53333294D01*
X160588244Y53338694D01*
X160625000Y53340500D01*
X161375000Y53340500D01*
X161411756Y53338694D01*
G37*
G04 #@! TD.AperFunction*
G04 #@! TA.AperFunction,ComponentPad*
G04 #@! TO.P,PAD1,1*
G04 #@! TO.N,Braw*
G36*
X163411756Y53338694D02*
G01*
X163448159Y53333294D01*
X163483857Y53324353D01*
X163518506Y53311955D01*
X163551774Y53296220D01*
X163583339Y53277301D01*
X163612897Y53255379D01*
X163640165Y53230665D01*
X163664879Y53203397D01*
X163686801Y53173839D01*
X163705720Y53142274D01*
X163721455Y53109006D01*
X163733853Y53074357D01*
X163742794Y53038659D01*
X163748194Y53002256D01*
X163750000Y52965500D01*
X163750000Y51465500D01*
X163748194Y51428744D01*
X163742794Y51392341D01*
X163733853Y51356643D01*
X163721455Y51321994D01*
X163705720Y51288726D01*
X163686801Y51257161D01*
X163664879Y51227603D01*
X163640165Y51200335D01*
X163612897Y51175621D01*
X163583339Y51153699D01*
X163551774Y51134780D01*
X163518506Y51119045D01*
X163483857Y51106647D01*
X163448159Y51097706D01*
X163411756Y51092306D01*
X163375000Y51090500D01*
X162625000Y51090500D01*
X162588244Y51092306D01*
X162551841Y51097706D01*
X162516143Y51106647D01*
X162481494Y51119045D01*
X162448226Y51134780D01*
X162416661Y51153699D01*
X162387103Y51175621D01*
X162359835Y51200335D01*
X162335121Y51227603D01*
X162313199Y51257161D01*
X162294280Y51288726D01*
X162278545Y51321994D01*
X162266147Y51356643D01*
X162257206Y51392341D01*
X162251806Y51428744D01*
X162250000Y51465500D01*
X162250000Y52965500D01*
X162251806Y53002256D01*
X162257206Y53038659D01*
X162266147Y53074357D01*
X162278545Y53109006D01*
X162294280Y53142274D01*
X162313199Y53173839D01*
X162335121Y53203397D01*
X162359835Y53230665D01*
X162387103Y53255379D01*
X162416661Y53277301D01*
X162448226Y53296220D01*
X162481494Y53311955D01*
X162516143Y53324353D01*
X162551841Y53333294D01*
X162588244Y53338694D01*
X162625000Y53340500D01*
X163375000Y53340500D01*
X163411756Y53338694D01*
G37*
G04 #@! TD.AperFunction*
G04 #@! TD*
D22*
G04 #@! TO.P,B1,2*
G04 #@! TO.N,GND*
X168500000Y48965500D03*
G04 #@! TO.P,B1,1*
G04 #@! TO.N,RST*
X168500000Y42465500D03*
G04 #@! TD*
D17*
G04 #@! TO.N,P6*
X164939000Y77252500D03*
G04 #@! TO.N,GND*
X148021800Y37236400D03*
X170109400Y30132100D03*
X158752700Y90593300D03*
G04 #@! TO.N,P5*
X165826000Y80175500D03*
G04 #@! TO.N,P4*
X116818600Y104027500D03*
X113050400Y92773000D03*
X164939000Y82332500D03*
G04 #@! TO.N,P3*
X164697900Y84872500D03*
G04 #@! TO.N,P2*
X165826000Y87747900D03*
G04 #@! TO.N,P0*
X159550000Y93409500D03*
G04 #@! TO.N,P1*
X139039400Y87459400D03*
X159557300Y95936200D03*
G04 #@! TO.N,P16*
X136751400Y87812000D03*
X157143100Y70398500D03*
G04 #@! TO.N,P10*
X119566100Y97997900D03*
X156749300Y67247600D03*
G04 #@! TO.N,P14*
X157774500Y72938500D03*
G04 #@! TO.N,P15*
X132477900Y68035300D03*
X166713100Y66239500D03*
X167685600Y77425600D03*
X152138700Y79645400D03*
X147425300Y77862600D03*
G04 #@! TO.N,P18*
X146119900Y88083400D03*
X157774500Y78018500D03*
G04 #@! TO.N,P19*
X146806800Y74395800D03*
X157774500Y80558500D03*
G04 #@! TO.N,P20*
X154520700Y82693500D03*
G04 #@! TO.N,P21*
X157008500Y85638500D03*
G04 #@! TO.N,P7*
X164212100Y74680200D03*
G04 #@! TO.N,P8*
X154923500Y66985100D03*
X164718300Y72192900D03*
G04 #@! TO.N,P9*
X164697900Y69632500D03*
G04 #@! TO.N,RAW*
X162523800Y97447300D03*
G04 #@! TO.N,RST*
X162498000Y92341500D03*
G04 #@! TO.N,VCC*
X157692400Y88116000D03*
G04 #@! TO.N,Bplus*
X165699500Y60465500D03*
G04 #@! TD*
D23*
G04 #@! TO.N,P6*
X165826000Y76365500D02*
X165250700Y76365500D01*
X164939000Y77252500D02*
X165250700Y76940800D01*
X165250700Y76940800D02*
X165250700Y76365500D01*
X63000000Y46200000D02*
X64825400Y48025400D01*
X64825400Y48025400D02*
X64825400Y55849600D01*
X64825400Y55849600D02*
X64725000Y55950000D01*
D24*
G04 #@! TO.N,GND*
X132025300Y66323000D02*
X136517800Y70815500D01*
X136517800Y70815500D02*
X141000000Y70815500D01*
X141000000Y70815500D02*
X145439100Y75254600D01*
X145439100Y75254600D02*
X146930200Y75254600D01*
X146930200Y75254600D02*
X149275000Y77599400D01*
X149275000Y77599400D02*
X149275000Y80465500D01*
X170319000Y30341700D02*
X170319000Y32750500D01*
X170109400Y30132100D02*
X170319000Y30341700D01*
X173662000Y19559500D02*
X173662000Y27489600D01*
X173662000Y27489600D02*
X170809900Y30341700D01*
X170809900Y30341700D02*
X170319000Y30341700D01*
X148021800Y38126300D02*
X148709100Y38126300D01*
X145142000Y38266300D02*
X147506800Y38266300D01*
X147506800Y38266300D02*
X147646800Y38126300D01*
X147646800Y38126300D02*
X148021800Y38126300D01*
X148021800Y38126300D02*
X148021800Y37236400D01*
X130275000Y100323000D02*
X125512000Y105086000D01*
X125512000Y105086000D02*
X112475000Y105086000D01*
X124959300Y88638800D02*
X130174800Y93854300D01*
X130174800Y93854300D02*
X130174800Y95054400D01*
X130174800Y95054400D02*
X130275000Y95154600D01*
X130275000Y95154600D02*
X130275000Y100323000D01*
X139241500Y32087500D02*
X139241500Y32365800D01*
X139241500Y32365800D02*
X145142000Y38266300D01*
X145142000Y38266300D02*
X143829000Y39579300D01*
X143829000Y39579300D02*
X143829000Y50986500D01*
X143829000Y50986500D02*
X141000000Y53815500D01*
X122000000Y72951200D02*
X116091000Y72951200D01*
X116091000Y72951200D02*
X114225300Y71085500D01*
X125037500Y68328500D02*
X125037500Y69913700D01*
X125037500Y69913700D02*
X122000000Y72951200D01*
X122000000Y72951200D02*
X122000000Y73673000D01*
X112475000Y71085500D02*
X114225300Y71085500D01*
X168075500Y33567000D02*
X170319000Y32750500D01*
X91228100Y69370000D02*
X94275000Y66323000D01*
X86925000Y73673000D02*
X91228100Y69370000D01*
X84538500Y55211500D02*
X84538500Y55247400D01*
X84538500Y55247400D02*
X88164900Y58873800D01*
X88164900Y58873800D02*
X88164900Y66306800D01*
X88164900Y66306800D02*
X91228100Y69370000D01*
X84538500Y55211500D02*
X83077000Y53750000D01*
X83077000Y53750000D02*
X76275000Y53750000D01*
X86000000Y56673000D02*
X84538500Y55211500D01*
X76275000Y87750000D02*
X83077000Y87750000D01*
X83077000Y87750000D02*
X86000000Y90673000D01*
X76275000Y87750000D02*
X76275000Y81296900D01*
X76275000Y81296900D02*
X71001600Y76023500D01*
X71001600Y76023500D02*
X76275000Y70750000D01*
X68000000Y78100000D02*
X68925000Y78100000D01*
X68925000Y78100000D02*
X71001600Y76023500D01*
X107157800Y76402800D02*
X112475000Y71085500D01*
X72780500Y51185500D02*
X73235300Y51640300D01*
X73235300Y51640300D02*
X74165300Y51640300D01*
X74165300Y51640300D02*
X76275000Y53750000D01*
X68000000Y44100000D02*
X68000000Y46405000D01*
X68000000Y46405000D02*
X72780500Y51185500D01*
X68000000Y61100000D02*
X70164900Y58935100D01*
X70164900Y58935100D02*
X70164900Y53801000D01*
X70164900Y53801000D02*
X72780500Y51185500D01*
X88288700Y88620700D02*
X88288700Y75036700D01*
X88288700Y75036700D02*
X86925000Y73673000D01*
X86000000Y90673000D02*
X86236400Y90673000D01*
X86236400Y90673000D02*
X88288700Y88620700D01*
X88288700Y88620700D02*
X88977300Y88620700D01*
X86000000Y73673000D02*
X86925000Y73673000D01*
X88977300Y88620700D02*
X94275000Y83323000D01*
X94275000Y100323000D02*
X94275000Y93918400D01*
X94275000Y93918400D02*
X88977300Y88620700D01*
X104200000Y78435500D02*
X105125000Y78435500D01*
X105125000Y78435500D02*
X107157800Y76402800D01*
X112222000Y88338500D02*
X112222000Y81467000D01*
X112222000Y81467000D02*
X107157800Y76402800D01*
X112222000Y88338500D02*
X112475000Y88085500D01*
X107159100Y93401400D02*
X112222000Y88338500D01*
X104200000Y95436000D02*
X105124500Y95436000D01*
X105124500Y95436000D02*
X107159100Y93401400D01*
X112475000Y105086000D02*
X112475000Y98717300D01*
X112475000Y98717300D02*
X107159100Y93401400D01*
X125037500Y68328500D02*
X128269500Y68328500D01*
X128269500Y68328500D02*
X130275000Y66323000D01*
X124959300Y88638800D02*
X130275000Y83323000D01*
X122000000Y90673000D02*
X122925000Y90673000D01*
X122925000Y90673000D02*
X124959300Y88638800D01*
X149275000Y63465500D02*
X149275000Y60644400D01*
X149275000Y60644400D02*
X146181200Y57550600D01*
X146181200Y57550600D02*
X144735100Y57550600D01*
X144735100Y57550600D02*
X141000000Y53815500D01*
X130275000Y66323000D02*
X132025300Y66323000D01*
X149066500Y40154000D02*
X148709100Y38126300D01*
X185653400Y23779100D02*
X184543700Y21857000D01*
X184543700Y21857000D02*
X184543600Y21857100D01*
X184543600Y21857100D02*
X184168100Y21857100D01*
X184168100Y21857100D02*
X179691700Y17380700D01*
X179691700Y17380700D02*
X175840800Y17380700D01*
X175840800Y17380700D02*
X173662000Y19559500D01*
X122000000Y56673000D02*
X125037500Y59710500D01*
X125037500Y59710500D02*
X125037500Y68328500D01*
X149275000Y93929900D02*
X149275000Y97465500D01*
X158752700Y90408300D02*
X155677400Y90408300D01*
X155677400Y90408300D02*
X155604600Y90335500D01*
X155604600Y90335500D02*
X152869400Y90335500D01*
X152869400Y90335500D02*
X149275000Y93929900D01*
X141000000Y87815500D02*
X144866700Y91682200D01*
X144866700Y91682200D02*
X147027300Y91682200D01*
X147027300Y91682200D02*
X149275000Y93929900D01*
X165826000Y90408300D02*
X158752700Y90408300D01*
X158752700Y90408300D02*
X158752700Y90593300D01*
X165826000Y90408300D02*
X165826000Y91605500D01*
X165826000Y89065500D02*
X165826000Y90408300D01*
X168075500Y33567000D02*
X168892000Y35810500D01*
X168500000Y48965500D02*
X169964200Y47501300D01*
X169964200Y47501300D02*
X169964200Y36882600D01*
X169964200Y36882600D02*
X168892100Y35810500D01*
X168892100Y35810500D02*
X168892000Y35810500D01*
D23*
G04 #@! TO.N,P5*
X64903100Y63200000D02*
X63000000Y63200000D01*
X73000000Y63200000D02*
X64903100Y63200000D01*
X64903100Y63200000D02*
X64903100Y72771900D01*
X64903100Y72771900D02*
X64725000Y72950000D01*
X165826000Y78905500D02*
X165826000Y80175500D01*
G04 #@! TO.N,P4*
X116818600Y104027500D02*
X113050400Y100259300D01*
X113050400Y100259300D02*
X113050400Y92773000D01*
X63000000Y80200000D02*
X64825400Y82025400D01*
X64825400Y82025400D02*
X64825400Y89849600D01*
X64825400Y89849600D02*
X64725000Y89950000D01*
X165826000Y81445500D02*
X165250700Y81445500D01*
X165250700Y81445500D02*
X165250700Y82020800D01*
X165250700Y82020800D02*
X164939000Y82332500D01*
G04 #@! TO.N,P3*
X81000000Y58773000D02*
X82825400Y60598400D01*
X82825400Y60598400D02*
X82825400Y68422600D01*
X82825400Y68422600D02*
X82725000Y68523000D01*
X165826000Y83985500D02*
X165250700Y83985500D01*
X165250700Y83985500D02*
X165250700Y84319700D01*
X165250700Y84319700D02*
X164697900Y84872500D01*
G04 #@! TO.N,P2*
X81000000Y75773000D02*
X82825400Y77598400D01*
X82825400Y77598400D02*
X82825400Y85422600D01*
X82825400Y85422600D02*
X82725000Y85523000D01*
X165826000Y87450800D02*
X165826000Y87747900D01*
X165826000Y86525500D02*
X165826000Y87450800D01*
G04 #@! TO.N,P0*
X165250700Y94145500D02*
X164514700Y93409500D01*
X164514700Y93409500D02*
X159550000Y93409500D01*
X81000000Y92773000D02*
X82825400Y94598400D01*
X82825400Y94598400D02*
X82825400Y102422600D01*
X82825400Y102422600D02*
X82725000Y102523000D01*
X165826000Y94145500D02*
X165250700Y94145500D01*
G04 #@! TO.N,P1*
X159557300Y95936200D02*
X159180900Y95559800D01*
X159180900Y95559800D02*
X152872800Y95559800D01*
X152872800Y95559800D02*
X151824200Y96608400D01*
X151824200Y96608400D02*
X151824200Y98024800D01*
X151824200Y98024800D02*
X150509200Y99339800D01*
X150509200Y99339800D02*
X145231100Y99339800D01*
X145231100Y99339800D02*
X143717200Y97825900D01*
X143717200Y97825900D02*
X143717200Y92945000D01*
X143717200Y92945000D02*
X139039400Y88267200D01*
X139039400Y88267200D02*
X139039400Y87459400D01*
X165250700Y96685500D02*
X164501400Y95936200D01*
X164501400Y95936200D02*
X159557300Y95936200D01*
X101103100Y63535500D02*
X99200000Y63535500D01*
X109200000Y63535500D02*
X101103100Y63535500D01*
X101103100Y63535500D02*
X101103100Y73107400D01*
X101103100Y73107400D02*
X100925000Y73285500D01*
X165826000Y96685500D02*
X165250700Y96685500D01*
G04 #@! TO.N,P16*
X136751400Y87812000D02*
X139303500Y85259900D01*
X139303500Y85259900D02*
X148181100Y85259900D01*
X148181100Y85259900D02*
X151413400Y82027600D01*
X151413400Y82027600D02*
X151413400Y74143700D01*
X151413400Y74143700D02*
X153001600Y72555500D01*
X153001600Y72555500D02*
X155311900Y72555500D01*
X155311900Y72555500D02*
X156581900Y71285500D01*
X156581900Y71285500D02*
X157143100Y70724300D01*
X157143100Y70724300D02*
X157143100Y70398500D01*
X156174000Y71285500D02*
X156581900Y71285500D01*
X99200000Y80535500D02*
X101025400Y82360900D01*
X101025400Y82360900D02*
X101025400Y90185100D01*
X101025400Y90185100D02*
X100925000Y90285500D01*
G04 #@! TO.N,P10*
X119566100Y97997900D02*
X119566100Y91131900D01*
X119566100Y91131900D02*
X124771700Y85926300D01*
X124771700Y85926300D02*
X124771700Y82914300D01*
X124771700Y82914300D02*
X126221000Y81465000D01*
X126221000Y81465000D02*
X133395100Y81465000D01*
X133395100Y81465000D02*
X136427900Y84497800D01*
X136427900Y84497800D02*
X148304100Y84497800D01*
X148304100Y84497800D02*
X150963100Y81838800D01*
X150963100Y81838800D02*
X150963100Y72041200D01*
X150963100Y72041200D02*
X152988800Y70015500D01*
X152988800Y70015500D02*
X155191700Y70015500D01*
X155191700Y70015500D02*
X156461700Y68745500D01*
X156461700Y68745500D02*
X156749300Y68745500D01*
X156174000Y68745500D02*
X156461700Y68745500D01*
X101103100Y97536000D02*
X99200000Y97536000D01*
X109200000Y97536000D02*
X101103100Y97536000D01*
X101103100Y97536000D02*
X101103100Y107107900D01*
X101103100Y107107900D02*
X100925000Y107286000D01*
X156749300Y68745500D02*
X156749300Y67247600D01*
G04 #@! TO.N,P14*
X117000000Y58773000D02*
X118825400Y60598400D01*
X118825400Y60598400D02*
X118825400Y68422600D01*
X118825400Y68422600D02*
X118725000Y68523000D01*
X156174000Y73825500D02*
X156887500Y73825500D01*
X156887500Y73825500D02*
X157774500Y72938500D01*
G04 #@! TO.N,P15*
X166713100Y66239500D02*
X167790800Y66239500D01*
X167790800Y66239500D02*
X169772400Y68221100D01*
X169772400Y68221100D02*
X169772400Y76809100D01*
X169772400Y76809100D02*
X169088500Y77493000D01*
X169088500Y77493000D02*
X167753000Y77493000D01*
X167753000Y77493000D02*
X167685600Y77425600D01*
X152138700Y79645400D02*
X152138700Y78526500D01*
X152138700Y78526500D02*
X152893700Y77771500D01*
X152893700Y77771500D02*
X155693300Y77771500D01*
X155693300Y77771500D02*
X156174000Y77290800D01*
X156174000Y76365500D02*
X156174000Y77290800D01*
X132477900Y71570400D02*
X138764400Y71570400D01*
X138764400Y71570400D02*
X145085800Y77891800D01*
X145085800Y77891800D02*
X147396100Y77891800D01*
X147396100Y77891800D02*
X147425300Y77862600D01*
X127000000Y75773000D02*
X131202600Y71570400D01*
X131202600Y71570400D02*
X132477900Y71570400D01*
X132477900Y68035300D02*
X132477900Y71570400D01*
X127000000Y75773000D02*
X118903100Y75773000D01*
X118903100Y75773000D02*
X117000000Y75773000D01*
X118903100Y75773000D02*
X118903100Y85344900D01*
X118903100Y85344900D02*
X118725000Y85523000D01*
G04 #@! TO.N,P18*
X146119900Y88083400D02*
X152254600Y81948700D01*
X152254600Y81948700D02*
X152254600Y80941300D01*
X152254600Y80941300D02*
X153020400Y80175500D01*
X153020400Y80175500D02*
X155829300Y80175500D01*
X155829300Y80175500D02*
X156174000Y79830800D01*
X156174000Y78905500D02*
X156174000Y79830800D01*
X156174000Y78905500D02*
X156887500Y78905500D01*
X156887500Y78905500D02*
X157774500Y78018500D01*
X117000000Y92773000D02*
X118825400Y94598400D01*
X118825400Y94598400D02*
X118825400Y102422600D01*
X118825400Y102422600D02*
X118725000Y102523000D01*
G04 #@! TO.N,P19*
X137775200Y65615300D02*
X137725000Y65665500D01*
X136000000Y55915500D02*
X137825400Y57740900D01*
X137825400Y57740900D02*
X137825400Y65565100D01*
X137825400Y65565100D02*
X137775200Y65615300D01*
X137775200Y65615300D02*
X143901300Y71741400D01*
X143901300Y71741400D02*
X143901300Y72713800D01*
X143901300Y72713800D02*
X145583300Y74395800D01*
X145583300Y74395800D02*
X146806800Y74395800D01*
X156174000Y81445500D02*
X156887500Y81445500D01*
X156887500Y81445500D02*
X157774500Y80558500D01*
G04 #@! TO.N,P20*
X156174000Y83985500D02*
X156174000Y83060200D01*
X156174000Y83060200D02*
X154887400Y83060200D01*
X154887400Y83060200D02*
X154520700Y82693500D01*
X136000000Y72915500D02*
X137825400Y74740900D01*
X137825400Y74740900D02*
X137825400Y82565100D01*
X137825400Y82565100D02*
X137725000Y82665500D01*
G04 #@! TO.N,P21*
X136000000Y89915500D02*
X138314100Y87601400D01*
X138314100Y87601400D02*
X138314100Y87159000D01*
X138314100Y87159000D02*
X139038400Y86434700D01*
X139038400Y86434700D02*
X142519200Y86434700D01*
X142519200Y86434700D02*
X146000000Y89915500D01*
X156174000Y85600200D02*
X156970200Y85600200D01*
X156970200Y85600200D02*
X157008500Y85638500D01*
X146000000Y89915500D02*
X150580600Y85334900D01*
X150580600Y85334900D02*
X155908700Y85334900D01*
X155908700Y85334900D02*
X156174000Y85600200D01*
X136000000Y89915500D02*
X137903100Y91818600D01*
X137903100Y91818600D02*
X137903100Y99487400D01*
X137903100Y99487400D02*
X137725000Y99665500D01*
X156174000Y86525500D02*
X156174000Y85600200D01*
G04 #@! TO.N,P7*
X134682100Y35023900D02*
X138074000Y38415800D01*
X138074000Y38415800D02*
X138074000Y44326200D01*
X165826000Y73825500D02*
X165066800Y73825500D01*
X165066800Y73825500D02*
X164212100Y74680200D01*
G04 #@! TO.N,P8*
X157974500Y39584700D02*
X155891300Y40342900D01*
X154923500Y66985100D02*
X154923500Y42635700D01*
X154923500Y42635700D02*
X155891300Y41667900D01*
X155891300Y41667900D02*
X155891300Y40342900D01*
X153018900Y31012700D02*
X157974500Y35968300D01*
X157974500Y35968300D02*
X157974500Y39584700D01*
X165826000Y71285500D02*
X165701200Y71285500D01*
X165651000Y71285500D02*
X165701200Y71285500D01*
X165651000Y71285500D02*
X165250700Y71285500D01*
X165250700Y71285500D02*
X165250700Y71660500D01*
X165250700Y71660500D02*
X164718300Y72192900D01*
G04 #@! TO.N,P9*
X165538400Y68745500D02*
X157894700Y61101800D01*
X157894700Y61101800D02*
X157894700Y51196400D01*
X157894700Y51196400D02*
X162918600Y46172500D01*
X162918600Y46172500D02*
X162918600Y30497200D01*
X162918600Y30497200D02*
X169537700Y23878100D01*
X169537700Y23878100D02*
X170381900Y23878100D01*
X165538400Y68745500D02*
X165250700Y68745500D01*
X165826000Y68745500D02*
X165538400Y68745500D01*
X179042100Y18878100D02*
X179042100Y25428400D01*
X179042100Y25428400D02*
X176750800Y27719700D01*
X176750800Y27719700D02*
X176750800Y31459400D01*
X165250700Y68745500D02*
X165250700Y69079700D01*
X165250700Y69079700D02*
X164697900Y69632500D01*
D24*
G04 #@! TO.N,RAW*
X156874300Y96685500D02*
X157770900Y97582100D01*
X157770900Y97582100D02*
X162389000Y97582100D01*
X162389000Y97582100D02*
X162523800Y97447300D01*
X156174000Y96685500D02*
X156874300Y96685500D01*
D23*
G04 #@! TO.N,RST*
X168500000Y42465500D02*
X167174600Y43790900D01*
X167174600Y43790900D02*
X167174600Y53639800D01*
X167174600Y53639800D02*
X168675400Y55140600D01*
X168675400Y55140600D02*
X168675400Y56865200D01*
X168675400Y56865200D02*
X168174600Y57366000D01*
X168174600Y57366000D02*
X168174600Y61590400D01*
X168174600Y61590400D02*
X169125800Y62541600D01*
X169125800Y62541600D02*
X169125800Y66844600D01*
X169125800Y66844600D02*
X170272800Y67991600D01*
X170272800Y67991600D02*
X170272800Y91575400D01*
X170272800Y91575400D02*
X169102800Y92745400D01*
X169102800Y92745400D02*
X162901900Y92745400D01*
X162901900Y92745400D02*
X162498000Y92341500D01*
X156749300Y91605500D02*
X157485300Y92341500D01*
X157485300Y92341500D02*
X162498000Y92341500D01*
X156174000Y91605500D02*
X156749300Y91605500D01*
D24*
G04 #@! TO.N,VCC*
X156874300Y89065500D02*
X156874300Y88934100D01*
X156874300Y88934100D02*
X157692400Y88116000D01*
X156174000Y89065500D02*
X156874300Y89065500D01*
G04 #@! TO.N,Braw*
X166925000Y61965500D02*
X165849700Y61965500D01*
X165849700Y61965500D02*
X163000100Y59115900D01*
X163000100Y59115900D02*
X163000100Y52215500D01*
X163000100Y52215500D02*
X163000000Y52215500D01*
X163000000Y52215500D02*
X163000000Y52567500D01*
X163000000Y52567500D02*
X161723000Y53844500D01*
X161723000Y53844500D02*
X160294100Y53844500D01*
X160294100Y53844500D02*
X159000000Y52550400D01*
X159000000Y52550400D02*
X159000000Y52215500D01*
G04 #@! TO.N,Bplus*
X165849700Y58965500D02*
X165849700Y60315300D01*
X165849700Y60315300D02*
X165699500Y60465500D01*
X166925000Y58965500D02*
X165849700Y58965500D01*
G04 #@! TD*
M02*
