M48
; DRILL file {KiCad (6.0.7-1)-1} date 2022 October 05, Wednesday 14:36:49
; FORMAT={-:-/ absolute / inch / decimal}
; #@! TF.CreationDate,2022-10-05T14:36:49+03:00
; #@! TF.GenerationSoftware,Kicad,Pcbnew,(6.0.7-1)-1
; #@! TF.FileFunction,NonPlated,1,2,NPTH
FMAT,2
INCH
; #@! TA.AperFunction,NonPlated,NPTH,ComponentDrill
T1C0.0354
; #@! TA.AperFunction,NonPlated,NPTH,ComponentDrill
T2C0.0670
; #@! TA.AperFunction,NonPlated,NPTH,ComponentDrill
T3C0.1181
; #@! TA.AperFunction,NonPlated,NPTH,ComponentDrill
T4C0.1350
%
G90
G05
T1
X6.6535Y2.4101
X6.6535Y2.4101
X6.6535Y2.2919
X6.6535Y2.2919
T2
X2.4606Y3.3071
X2.4606Y3.3071
X2.4606Y2.6378
X2.4606Y2.6378
X2.4606Y1.9685
X2.4606Y1.9685
X2.8937Y3.3071
X2.8937Y3.3071
X2.8937Y2.6378
X2.8937Y2.6378
X2.8937Y1.9685
X2.8937Y1.9685
X3.1693Y3.8021
X3.1693Y3.8021
X3.1693Y3.1328
X3.1693Y3.1328
X3.1693Y2.4635
X3.1693Y2.4635
X3.6024Y3.8021
X3.6024Y3.8021
X3.6024Y3.1328
X3.6024Y3.1328
X3.6024Y2.4635
X3.6024Y2.4635
X3.8858Y3.9896
X3.8858Y3.9896
X3.8858Y3.3203
X3.8858Y3.3203
X3.8858Y2.651
X3.8858Y2.651
X4.3189Y3.9896
X4.3189Y3.9896
X4.3189Y3.3203
X4.3189Y3.3203
X4.3189Y2.651
X4.3189Y2.651
X4.5866Y3.8021
X4.5866Y3.8021
X4.5866Y3.1328
X4.5866Y3.1328
X4.5866Y2.4635
X4.5866Y2.4635
X5.0197Y3.8021
X5.0197Y3.8021
X5.0197Y3.1328
X5.0197Y3.1328
X5.0197Y2.4635
X5.0197Y2.4635
X5.309Y1.5296
X5.309Y1.5296
X5.3346Y3.6896
X5.3346Y3.6896
X5.3346Y3.0203
X5.3346Y3.0203
X5.3346Y2.351
X5.3346Y2.351
X5.7355Y1.4544
X5.7355Y1.4544
X5.7677Y3.6896
X5.7677Y3.6896
X5.7677Y3.0203
X5.7677Y3.0203
X5.7677Y2.351
X5.7677Y2.351
X6.0571Y1.3683
X6.0571Y1.3683
X6.464Y1.2202
X6.464Y1.2202
X6.7657Y1.0795
X6.7657Y1.0795
X7.1407Y0.863
X7.1407Y0.863
T3
X2.4803Y3.4547
X2.4803Y2.7854
X2.4803Y2.1161
X2.6772Y3.5413
X2.6772Y3.5413
X2.6772Y2.872
X2.6772Y2.872
X2.6772Y2.2028
X2.6772Y2.2028
X2.874Y3.4547
X2.874Y2.7854
X2.874Y2.1161
X3.189Y3.9497
X3.189Y3.2804
X3.189Y2.6111
X3.3858Y4.0363
X3.3858Y4.0363
X3.3858Y3.367
X3.3858Y3.367
X3.3858Y2.6978
X3.3858Y2.6978
X3.5827Y3.9497
X3.5827Y3.2804
X3.5827Y2.6111
X3.9055Y4.1372
X3.9055Y3.4679
X3.9055Y2.7986
X4.1024Y4.2238
X4.1024Y4.2238
X4.1024Y3.5545
X4.1024Y3.5545
X4.1024Y2.8853
X4.1024Y2.8853
X4.2992Y4.1372
X4.2992Y3.4679
X4.2992Y2.7986
X4.6063Y3.9497
X4.6063Y3.2804
X4.6063Y2.6111
X4.8031Y4.0363
X4.8031Y4.0363
X4.8031Y3.367
X4.8031Y3.367
X4.8031Y2.6978
X4.8031Y2.6978
X5.0Y3.9497
X5.0Y3.2804
X5.0Y2.6111
X5.3541Y1.6716
X5.3543Y3.8372
X5.3543Y3.1679
X5.3543Y2.4986
X5.5512Y3.9238
X5.5512Y3.9238
X5.5512Y3.2545
X5.5512Y3.2545
X5.5512Y2.5853
X5.5512Y2.5853
X5.563Y1.7227
X5.563Y1.7227
X5.7418Y1.6033
X5.748Y3.8372
X5.748Y3.1679
X5.748Y2.4986
X6.126Y1.5003
X6.3406Y1.5144
X6.3406Y1.5144
X6.496Y1.3656
X6.8566Y1.1975
X7.0703Y1.1741
X7.0703Y1.1741
X7.1975Y1.0007
T4
X2.6772Y3.3071
X2.6772Y3.3071
X2.6772Y2.6378
X2.6772Y2.6378
X2.6772Y1.9685
X2.6772Y1.9685
X3.3858Y3.8021
X3.3858Y3.8021
X3.3858Y3.1328
X3.3858Y3.1328
X3.3858Y2.4635
X3.3858Y2.4635
X4.1024Y3.9896
X4.1024Y3.9896
X4.1024Y3.3203
X4.1024Y3.3203
X4.1024Y2.651
X4.1024Y2.651
X4.8031Y3.8021
X4.8031Y3.8021
X4.8031Y3.1328
X4.8031Y3.1328
X4.8031Y2.4635
X4.8031Y2.4635
X5.5223Y1.492
X5.5223Y1.492
X5.5512Y3.6896
X5.5512Y3.6896
X5.5512Y3.0203
X5.5512Y3.0203
X5.5512Y2.351
X5.5512Y2.351
X6.2605Y1.2942
X6.2605Y1.2942
X6.9532Y0.9712
X6.9532Y0.9712
T0
M30
