%TF.GenerationSoftware,KiCad,Pcbnew,(6.0.7-1)-1*%
%TF.CreationDate,2022-10-05T14:36:59+03:00*%
%TF.ProjectId,board,626f6172-642e-46b6-9963-61645f706362,v1.0.0*%
%TF.SameCoordinates,Original*%
%TF.FileFunction,Legend,Top*%
%TF.FilePolarity,Positive*%
%FSLAX46Y46*%
G04 Gerber Fmt 4.6, Leading zero omitted, Abs format (unit mm)*
G04 Created by KiCad (PCBNEW (6.0.7-1)-1) date 2022-10-05 14:36:59*
%MOMM*%
%LPD*%
G01*
G04 APERTURE LIST*
G04 Aperture macros list*
%AMRoundRect*
0 Rectangle with rounded corners*
0 $1 Rounding radius*
0 $2 $3 $4 $5 $6 $7 $8 $9 X,Y pos of 4 corners*
0 Add a 4 corners polygon primitive as box body*
4,1,4,$2,$3,$4,$5,$6,$7,$8,$9,$2,$3,0*
0 Add four circle primitives for the rounded corners*
1,1,$1+$1,$2,$3*
1,1,$1+$1,$4,$5*
1,1,$1+$1,$6,$7*
1,1,$1+$1,$8,$9*
0 Add four rect primitives between the rounded corners*
20,1,$1+$1,$2,$3,$4,$5,0*
20,1,$1+$1,$4,$5,$6,$7,0*
20,1,$1+$1,$6,$7,$8,$9,0*
20,1,$1+$1,$8,$9,$2,$3,0*%
G04 Aperture macros list end*
%ADD10C,0.250000*%
%ADD11C,0.300000*%
%ADD12C,0.150000*%
%ADD13RoundRect,0.375000X-0.375000X-0.750000X0.375000X-0.750000X0.375000X0.750000X-0.375000X0.750000X0*%
%ADD14C,2.000000*%
G04 APERTURE END LIST*
D10*
X104698539Y39351039D02*
X104750875Y40349669D01*
X104988643Y40337208D01*
X105128813Y40282178D01*
X105218936Y40182086D01*
X105261505Y40084486D01*
X105299090Y39891779D01*
X105291614Y39749117D01*
X105234091Y39561394D01*
X105181553Y39468779D01*
X105081461Y39378656D01*
X104936307Y39338578D01*
X104698539Y39351039D01*
X105697168Y39298703D02*
X105749504Y40297333D01*
X106267814Y39268797D01*
X106320149Y40267427D01*
X106710751Y39531690D02*
X107186289Y39506768D01*
X106600690Y39251352D02*
X106985903Y40232536D01*
X107266443Y39216461D01*
X108315119Y39209187D02*
X108407734Y39156649D01*
X108597949Y39146680D01*
X108695549Y39189249D01*
X108748087Y39281865D01*
X108750579Y39329419D01*
X108708010Y39427018D01*
X108615394Y39479556D01*
X108472733Y39487033D01*
X108380118Y39539571D01*
X108337548Y39637171D01*
X108340040Y39684725D01*
X108392579Y39777340D01*
X108490178Y39819910D01*
X108632840Y39812433D01*
X108725455Y39759895D01*
X109108378Y39787511D02*
X109263702Y39111789D01*
X109478839Y39577358D01*
X109644132Y39091852D01*
X109869238Y39747636D01*
X110597700Y39089562D02*
X110500101Y39046992D01*
X110309885Y39056961D01*
X110217270Y39109499D01*
X110174701Y39207099D01*
X110194638Y39587529D01*
X110247176Y39680145D01*
X110344776Y39722714D01*
X110534991Y39712745D01*
X110627607Y39660207D01*
X110670176Y39562608D01*
X110665192Y39467500D01*
X110184669Y39397314D01*
X111453669Y39044702D02*
X111356069Y39002133D01*
X111165854Y39012102D01*
X111073238Y39064640D01*
X111030669Y39162240D01*
X111050606Y39542670D01*
X111103145Y39635285D01*
X111200744Y39677855D01*
X111390959Y39667886D01*
X111483575Y39615348D01*
X111526144Y39517748D01*
X111521160Y39422641D01*
X111040638Y39352455D01*
X111961605Y39637980D02*
X111909269Y38639350D01*
X111959113Y39590426D02*
X112056712Y39632995D01*
X112246928Y39623027D01*
X112339543Y39570489D01*
X112384605Y39520443D01*
X112427174Y39422843D01*
X112412221Y39137520D01*
X112359683Y39044905D01*
X112309637Y38999843D01*
X112212037Y38957274D01*
X112021822Y38967242D01*
X111929206Y39019781D01*
X113530880Y39555738D02*
X113733758Y38877524D01*
X114006418Y39530816D01*
X114875049Y38817711D02*
X114304404Y38847617D01*
X114589726Y38832664D02*
X114642062Y39831294D01*
X114539478Y39693617D01*
X114439386Y39603494D01*
X114341786Y39560924D01*
X115308018Y38890389D02*
X115353079Y38840343D01*
X115303033Y38795281D01*
X115257972Y38845327D01*
X115308018Y38890389D01*
X115303033Y38795281D01*
X116021122Y39759020D02*
X116116230Y39754036D01*
X116208845Y39701498D01*
X116253907Y39651452D01*
X116296476Y39553852D01*
X116334061Y39361145D01*
X116321600Y39123376D01*
X116264078Y38935653D01*
X116211539Y38843037D01*
X116161493Y38797976D01*
X116063894Y38755406D01*
X115968786Y38760391D01*
X115876171Y38812929D01*
X115831109Y38862975D01*
X115788540Y38960575D01*
X115750955Y39153282D01*
X115763416Y39391051D01*
X115820938Y39578774D01*
X115873476Y39671389D01*
X115923522Y39716451D01*
X116021122Y39759020D01*
D11*
%TO.C,G\u002A\u002A\u002A*%
X103738000Y42157428D02*
X103665428Y42012285D01*
X103665428Y41794571D01*
X103738000Y41576857D01*
X103883142Y41431714D01*
X104028285Y41359142D01*
X104318571Y41286571D01*
X104536285Y41286571D01*
X104826571Y41359142D01*
X104971714Y41431714D01*
X105116857Y41576857D01*
X105189428Y41794571D01*
X105189428Y41939714D01*
X105116857Y42157428D01*
X105044285Y42230000D01*
X104536285Y42230000D01*
X104536285Y41939714D01*
X103665428Y43100857D02*
X104028285Y43100857D01*
X103883142Y42738000D02*
X104028285Y43100857D01*
X103883142Y43463714D01*
X104318571Y42883142D02*
X104028285Y43100857D01*
X104318571Y43318571D01*
X103665428Y44262000D02*
X104028285Y44262000D01*
X103883142Y43899142D02*
X104028285Y44262000D01*
X103883142Y44624857D01*
X104318571Y44044285D02*
X104028285Y44262000D01*
X104318571Y44479714D01*
X103665428Y45423142D02*
X104028285Y45423142D01*
X103883142Y45060285D02*
X104028285Y45423142D01*
X103883142Y45786000D01*
X104318571Y45205428D02*
X104028285Y45423142D01*
X104318571Y45640857D01*
D12*
%TO.C,MCU1*%
%TO.C,PAD1*%
X158561904Y50472642D02*
X158676190Y50434547D01*
X158714285Y50396452D01*
X158752380Y50320261D01*
X158752380Y50205976D01*
X158714285Y50129785D01*
X158676190Y50091690D01*
X158600000Y50053595D01*
X158295238Y50053595D01*
X158295238Y50853595D01*
X158561904Y50853595D01*
X158638095Y50815500D01*
X158676190Y50777404D01*
X158714285Y50701214D01*
X158714285Y50625023D01*
X158676190Y50548833D01*
X158638095Y50510738D01*
X158561904Y50472642D01*
X158295238Y50472642D01*
X159095238Y50358357D02*
X159704761Y50358357D01*
X159400000Y50053595D02*
X159400000Y50663119D01*
X160561904Y50472642D02*
X160676190Y50434547D01*
X160714285Y50396452D01*
X160752380Y50320261D01*
X160752380Y50205976D01*
X160714285Y50129785D01*
X160676190Y50091690D01*
X160600000Y50053595D01*
X160295238Y50053595D01*
X160295238Y50853595D01*
X160561904Y50853595D01*
X160638095Y50815500D01*
X160676190Y50777404D01*
X160714285Y50701214D01*
X160714285Y50625023D01*
X160676190Y50548833D01*
X160638095Y50510738D01*
X160561904Y50472642D01*
X160295238Y50472642D01*
X161095238Y50358357D02*
X161704761Y50358357D01*
X162561904Y50472642D02*
X162676190Y50434547D01*
X162714285Y50396452D01*
X162752380Y50320261D01*
X162752380Y50205976D01*
X162714285Y50129785D01*
X162676190Y50091690D01*
X162600000Y50053595D01*
X162295238Y50053595D01*
X162295238Y50853595D01*
X162561904Y50853595D01*
X162638095Y50815500D01*
X162676190Y50777404D01*
X162714285Y50701214D01*
X162714285Y50625023D01*
X162676190Y50548833D01*
X162638095Y50510738D01*
X162561904Y50472642D01*
X162295238Y50472642D01*
X163095238Y50358357D02*
X163704761Y50358357D01*
X163400000Y50053595D02*
X163400000Y50663119D01*
%TO.C,B1*%
X168952380Y44263119D02*
X168476190Y43929785D01*
X168952380Y43691690D02*
X167952380Y43691690D01*
X167952380Y44072642D01*
X168000000Y44167880D01*
X168047619Y44215500D01*
X168142857Y44263119D01*
X168285714Y44263119D01*
X168380952Y44215500D01*
X168428571Y44167880D01*
X168476190Y44072642D01*
X168476190Y43691690D01*
X168428571Y44691690D02*
X168428571Y45025023D01*
X168952380Y45167880D02*
X168952380Y44691690D01*
X167952380Y44691690D01*
X167952380Y45167880D01*
X168904761Y45548833D02*
X168952380Y45691690D01*
X168952380Y45929785D01*
X168904761Y46025023D01*
X168857142Y46072642D01*
X168761904Y46120261D01*
X168666666Y46120261D01*
X168571428Y46072642D01*
X168523809Y46025023D01*
X168476190Y45929785D01*
X168428571Y45739309D01*
X168380952Y45644071D01*
X168333333Y45596452D01*
X168238095Y45548833D01*
X168142857Y45548833D01*
X168047619Y45596452D01*
X168000000Y45644071D01*
X167952380Y45739309D01*
X167952380Y45977404D01*
X168000000Y46120261D01*
X168428571Y46548833D02*
X168428571Y46882166D01*
X168952380Y47025023D02*
X168952380Y46548833D01*
X167952380Y46548833D01*
X167952380Y47025023D01*
X167952380Y47310738D02*
X167952380Y47882166D01*
X168952380Y47596452D02*
X167952380Y47596452D01*
%TO.C,G\u002A\u002A\u002A*%
G36*
X113765535Y45572925D02*
G01*
X113878761Y45570758D01*
X113990406Y45567005D01*
X114095173Y45561785D01*
X114187765Y45555211D01*
X114262884Y45547402D01*
X114286134Y45544072D01*
X114482551Y45503522D01*
X114689498Y45443054D01*
X114903881Y45363713D01*
X115122608Y45266544D01*
X115156250Y45250175D01*
X115335826Y45155541D01*
X115497014Y45056490D01*
X115646423Y44948318D01*
X115790663Y44826322D01*
X115904818Y44717564D01*
X116023576Y44591978D01*
X116123637Y44469089D01*
X116207202Y44344584D01*
X116276473Y44214149D01*
X116333651Y44073472D01*
X116380935Y43918238D01*
X116420527Y43744134D01*
X116431703Y43684997D01*
X116444837Y43614752D01*
X116458286Y43546662D01*
X116470605Y43487819D01*
X116480346Y43445317D01*
X116481634Y43440257D01*
X116488084Y43402928D01*
X116493201Y43348740D01*
X116496955Y43282557D01*
X116499311Y43209241D01*
X116500240Y43133658D01*
X116499708Y43060669D01*
X116497684Y42995139D01*
X116494134Y42941930D01*
X116489029Y42905907D01*
X116485231Y42894610D01*
X116475964Y42872781D01*
X116462168Y42833206D01*
X116445977Y42782233D01*
X116434779Y42744610D01*
X116397663Y42635742D01*
X116352360Y42534346D01*
X116301693Y42445856D01*
X116248486Y42375706D01*
X116236582Y42363135D01*
X116158314Y42300402D01*
X116062319Y42249714D01*
X115953709Y42212950D01*
X115837596Y42191986D01*
X115758973Y42187717D01*
X115679763Y42193471D01*
X115621113Y42211582D01*
X115581530Y42242627D01*
X115569430Y42261184D01*
X115560865Y42286828D01*
X115550503Y42331861D01*
X115539420Y42390840D01*
X115528689Y42458318D01*
X115524223Y42490294D01*
X115462267Y42868109D01*
X115378828Y43234235D01*
X115274059Y43588159D01*
X115148115Y43929369D01*
X115001147Y44257350D01*
X114987352Y44285282D01*
X114874985Y44496165D01*
X114759421Y44682886D01*
X114639732Y44846183D01*
X114514990Y44986791D01*
X114384267Y45105446D01*
X114246634Y45202884D01*
X114101164Y45279842D01*
X113946927Y45337055D01*
X113782997Y45375260D01*
X113608444Y45395191D01*
X113586095Y45396422D01*
X113389678Y45393809D01*
X113187235Y45367158D01*
X112979116Y45316605D01*
X112765671Y45242285D01*
X112547249Y45144335D01*
X112324201Y45022888D01*
X112096875Y44878082D01*
X111917976Y44749874D01*
X111851959Y44699148D01*
X111784141Y44645035D01*
X111720938Y44592784D01*
X111668767Y44547646D01*
X111651067Y44531492D01*
X111589607Y44475879D01*
X111543504Y44438499D01*
X111511783Y44418657D01*
X111493471Y44415660D01*
X111490986Y44417347D01*
X111489357Y44427150D01*
X111497962Y44444901D01*
X111518086Y44472066D01*
X111551013Y44510110D01*
X111598026Y44560500D01*
X111660409Y44624703D01*
X111739447Y44704184D01*
X111760834Y44725495D01*
X111829896Y44793183D01*
X111899486Y44859540D01*
X111965767Y44921042D01*
X112024898Y44974161D01*
X112073043Y45015374D01*
X112097910Y45035070D01*
X112261696Y45146367D01*
X112442391Y45249312D01*
X112634798Y45341800D01*
X112833717Y45421726D01*
X113033952Y45486986D01*
X113230303Y45535474D01*
X113402773Y45563429D01*
X113469348Y45568760D01*
X113555531Y45572043D01*
X113656026Y45573392D01*
X113765535Y45572925D01*
G37*
G36*
X108168750Y45730619D02*
G01*
X108281689Y45730171D01*
X108374019Y45729109D01*
X108450126Y45727204D01*
X108514398Y45724226D01*
X108571222Y45719948D01*
X108624985Y45714139D01*
X108680075Y45706572D01*
X108706250Y45702566D01*
X108860754Y45675993D01*
X108997758Y45646691D01*
X109123963Y45612484D01*
X109246074Y45571196D01*
X109370793Y45520654D01*
X109504822Y45458681D01*
X109593082Y45414810D01*
X109820689Y45289865D01*
X110025578Y45157592D01*
X110207483Y45018234D01*
X110366132Y44872036D01*
X110501258Y44719244D01*
X110612590Y44560102D01*
X110689413Y44417680D01*
X110725085Y44337558D01*
X110756694Y44257087D01*
X110785080Y44172954D01*
X110811082Y44081843D01*
X110835541Y43980440D01*
X110859296Y43865431D01*
X110883186Y43733499D01*
X110908052Y43581332D01*
X110918697Y43512500D01*
X110956952Y43274750D01*
X110996235Y43057927D01*
X111037572Y42857959D01*
X111081993Y42670772D01*
X111130524Y42492294D01*
X111184194Y42318451D01*
X111244030Y42145170D01*
X111303547Y41987500D01*
X111408154Y41741848D01*
X111520481Y41519883D01*
X111640665Y41321467D01*
X111768841Y41146464D01*
X111905145Y40994738D01*
X112049712Y40866154D01*
X112202678Y40760576D01*
X112364179Y40677867D01*
X112534349Y40617891D01*
X112704773Y40581756D01*
X112906244Y40564041D01*
X113108254Y40570103D01*
X113306676Y40599742D01*
X113368750Y40614176D01*
X113526653Y40662128D01*
X113695912Y40727987D01*
X113872907Y40809640D01*
X114054019Y40904975D01*
X114235629Y41011879D01*
X114414119Y41128240D01*
X114585868Y41251945D01*
X114747259Y41380881D01*
X114872564Y41492048D01*
X114919659Y41535389D01*
X114960652Y41571806D01*
X114991954Y41598210D01*
X115009977Y41611511D01*
X115012451Y41612500D01*
X115025410Y41609537D01*
X115028229Y41599655D01*
X115019699Y41581359D01*
X114998613Y41553155D01*
X114963762Y41513549D01*
X114913938Y41461048D01*
X114847931Y41394159D01*
X114786027Y41332609D01*
X114660765Y41210763D01*
X114548059Y41105664D01*
X114444739Y41014620D01*
X114347636Y40934941D01*
X114253581Y40863938D01*
X114159405Y40798920D01*
X114150000Y40792736D01*
X113940409Y40670207D01*
X113717537Y40567623D01*
X113483723Y40485409D01*
X113241305Y40423990D01*
X112992622Y40383791D01*
X112740013Y40365238D01*
X112485816Y40368756D01*
X112232371Y40394769D01*
X112093750Y40418899D01*
X111872367Y40470605D01*
X111665250Y40535016D01*
X111463636Y40615109D01*
X111325000Y40680154D01*
X111200003Y40744734D01*
X111088002Y40808585D01*
X110984502Y40875024D01*
X110885008Y40947368D01*
X110785025Y41028931D01*
X110680059Y41123030D01*
X110565616Y41232981D01*
X110536286Y41262051D01*
X110437690Y41362285D01*
X110356207Y41450171D01*
X110289472Y41529037D01*
X110235122Y41602207D01*
X110190793Y41673010D01*
X110154121Y41744771D01*
X110122743Y41820817D01*
X110106460Y41866940D01*
X110093409Y41907261D01*
X110081518Y41947812D01*
X110070203Y41991532D01*
X110058876Y42041361D01*
X110046955Y42100240D01*
X110033851Y42171110D01*
X110018981Y42256909D01*
X110001759Y42360579D01*
X109981600Y42485059D01*
X109974196Y42531250D01*
X109932976Y42779047D01*
X109891939Y43004731D01*
X109850313Y43211172D01*
X109807326Y43401239D01*
X109762207Y43577801D01*
X109714184Y43743726D01*
X109662485Y43901885D01*
X109606339Y44055147D01*
X109544974Y44206379D01*
X109490055Y44331250D01*
X109381266Y44553103D01*
X109266954Y44751141D01*
X109146334Y44926093D01*
X109018624Y45078688D01*
X108883041Y45209658D01*
X108738802Y45319731D01*
X108585123Y45409639D01*
X108421222Y45480111D01*
X108246315Y45531877D01*
X108188829Y45544423D01*
X108116812Y45554251D01*
X108027643Y45559354D01*
X107928685Y45559902D01*
X107827305Y45556063D01*
X107730865Y45548006D01*
X107646731Y45535899D01*
X107625000Y45531505D01*
X107487148Y45495185D01*
X107335944Y45444661D01*
X107176773Y45382275D01*
X107015025Y45310367D01*
X106856087Y45231280D01*
X106705346Y45147356D01*
X106618750Y45094165D01*
X106467073Y44992112D01*
X106310312Y44877499D01*
X106158408Y44757747D01*
X106082280Y44693882D01*
X106013829Y44635563D01*
X105961837Y44592564D01*
X105924284Y44563370D01*
X105899147Y44546466D01*
X105884405Y44540336D01*
X105879192Y44541641D01*
X105881702Y44556015D01*
X105900521Y44584775D01*
X105933357Y44625604D01*
X105977919Y44676186D01*
X106031915Y44734201D01*
X106093052Y44797335D01*
X106159040Y44863268D01*
X106227587Y44929684D01*
X106296400Y44994266D01*
X106363188Y45054696D01*
X106425659Y45108658D01*
X106481522Y45153833D01*
X106494248Y45163529D01*
X106707487Y45310220D01*
X106930550Y45438133D01*
X107160297Y45545820D01*
X107393586Y45631834D01*
X107627278Y45694726D01*
X107663053Y45702255D01*
X107707170Y45710814D01*
X107747634Y45717502D01*
X107788369Y45722539D01*
X107833296Y45726146D01*
X107886336Y45728543D01*
X107951411Y45729949D01*
X108032443Y45730584D01*
X108133354Y45730669D01*
X108168750Y45730619D01*
G37*
G36*
X114637010Y43666436D02*
G01*
X114637167Y43649656D01*
X114632293Y43628426D01*
X114618977Y43588677D01*
X114598841Y43534772D01*
X114573505Y43471079D01*
X114549092Y43412500D01*
X114475689Y43245901D01*
X114393295Y43069344D01*
X114304303Y42887401D01*
X114211107Y42704645D01*
X114116101Y42525649D01*
X114021680Y42354987D01*
X113930238Y42197229D01*
X113844169Y42056951D01*
X113818389Y42016863D01*
X113704995Y41850923D01*
X113594701Y41705756D01*
X113488082Y41581942D01*
X113385713Y41480063D01*
X113288169Y41400701D01*
X113196026Y41344437D01*
X113125171Y41316024D01*
X113084901Y41307487D01*
X113032240Y41301032D01*
X112973122Y41296809D01*
X112913481Y41294969D01*
X112859249Y41295662D01*
X112816359Y41299040D01*
X112790746Y41305253D01*
X112787556Y41307443D01*
X112786906Y41314175D01*
X112793956Y41327012D01*
X112809932Y41347196D01*
X112836059Y41375969D01*
X112873562Y41414571D01*
X112923666Y41464243D01*
X112987597Y41526227D01*
X113066580Y41601762D01*
X113161841Y41692092D01*
X113241793Y41767550D01*
X113466611Y41988377D01*
X113672189Y42209777D01*
X113861611Y42435847D01*
X114037960Y42670685D01*
X114204321Y42918388D01*
X114363778Y43183053D01*
X114512888Y43456250D01*
X114545441Y43518174D01*
X114575092Y43573752D01*
X114599416Y43618505D01*
X114615990Y43647949D01*
X114620864Y43655906D01*
X114633154Y43672201D01*
X114637010Y43666436D01*
G37*
G36*
X114025739Y44064934D02*
G01*
X114021495Y44047151D01*
X114009078Y44012408D01*
X113988929Y43961249D01*
X113961486Y43894219D01*
X113927188Y43811862D01*
X113914372Y43781250D01*
X113824906Y43570023D01*
X113742144Y43379779D01*
X113664728Y43207834D01*
X113591304Y43051504D01*
X113520513Y42908107D01*
X113451000Y42774959D01*
X113381408Y42649377D01*
X113310381Y42528679D01*
X113236561Y42410180D01*
X113168652Y42306250D01*
X113093726Y42199509D01*
X113010293Y42090494D01*
X112921594Y41982802D01*
X112830869Y41880026D01*
X112741359Y41785761D01*
X112656304Y41703602D01*
X112578945Y41637143D01*
X112537871Y41606507D01*
X112442000Y41554776D01*
X112329406Y41520412D01*
X112201841Y41503940D01*
X112193750Y41503532D01*
X112121243Y41502160D01*
X112070977Y41506373D01*
X112040651Y41516972D01*
X112027967Y41534759D01*
X112030598Y41560447D01*
X112041802Y41575693D01*
X112069163Y41605251D01*
X112110246Y41646719D01*
X112162616Y41697697D01*
X112223839Y41755784D01*
X112291479Y41818578D01*
X112304005Y41830064D01*
X112485278Y41998754D01*
X112649079Y42157288D01*
X112798819Y42309250D01*
X112937914Y42458222D01*
X113069777Y42607788D01*
X113197822Y42761529D01*
X113231816Y42803761D01*
X113336177Y42938958D01*
X113433963Y43075890D01*
X113528920Y43220220D01*
X113624790Y43377611D01*
X113712793Y43531250D01*
X113789737Y43668761D01*
X113854995Y43784954D01*
X113909006Y43880373D01*
X113952211Y43955564D01*
X113985047Y44011071D01*
X114007954Y44047438D01*
X114021372Y44065211D01*
X114025739Y44064934D01*
G37*
G36*
X113184947Y44155411D02*
G01*
X113184418Y44133023D01*
X113175717Y44106250D01*
X113135234Y44011020D01*
X113084803Y43898772D01*
X113026762Y43774258D01*
X112963452Y43642234D01*
X112897212Y43507450D01*
X112830381Y43374662D01*
X112765299Y43248621D01*
X112704305Y43134082D01*
X112649739Y43035798D01*
X112643548Y43025000D01*
X112550346Y42868797D01*
X112457195Y42723665D01*
X112365499Y42591398D01*
X112276659Y42473788D01*
X112192077Y42372630D01*
X112113157Y42289715D01*
X112041300Y42226838D01*
X111994393Y42194788D01*
X111915409Y42159178D01*
X111823712Y42135104D01*
X111729976Y42125266D01*
X111719248Y42125170D01*
X111653773Y42127655D01*
X111611342Y42135007D01*
X111590410Y42147598D01*
X111587500Y42156853D01*
X111596319Y42169509D01*
X111621142Y42196579D01*
X111659518Y42235612D01*
X111708995Y42284160D01*
X111767122Y42339771D01*
X111821875Y42391112D01*
X111999897Y42559736D01*
X112159496Y42718187D01*
X112303286Y42869798D01*
X112433882Y43017900D01*
X112553900Y43165826D01*
X112665955Y43316907D01*
X112772662Y43474475D01*
X112876637Y43641861D01*
X112980494Y43822398D01*
X113059766Y43968217D01*
X113093450Y44030260D01*
X113123959Y44084162D01*
X113149074Y44126183D01*
X113166576Y44152580D01*
X113173401Y44159883D01*
X113184947Y44155411D01*
G37*
G36*
X108997377Y44397749D02*
G01*
X109044302Y44393975D01*
X109079628Y44387060D01*
X109097053Y44377289D01*
X109097593Y44376093D01*
X109090853Y44360801D01*
X109066872Y44331543D01*
X109027565Y44290418D01*
X108974850Y44239523D01*
X108961093Y44226713D01*
X108718837Y43993746D01*
X108492934Y43758609D01*
X108284714Y43522928D01*
X108095508Y43288330D01*
X107926646Y43056443D01*
X107779456Y42828893D01*
X107687675Y42668709D01*
X107657298Y42614452D01*
X107631809Y42572652D01*
X107613187Y42546301D01*
X107603409Y42538391D01*
X107602528Y42539870D01*
X107606305Y42562108D01*
X107621380Y42603723D01*
X107646552Y42662439D01*
X107680619Y42735983D01*
X107722380Y42822080D01*
X107770634Y42918455D01*
X107824178Y43022833D01*
X107881813Y43132942D01*
X107942335Y43246505D01*
X108004544Y43361249D01*
X108067238Y43474898D01*
X108129216Y43585179D01*
X108189276Y43689818D01*
X108246216Y43786539D01*
X108298836Y43873068D01*
X108345775Y43946887D01*
X108407160Y44031471D01*
X108478298Y44114282D01*
X108555440Y44192044D01*
X108634836Y44261484D01*
X108712738Y44319327D01*
X108785397Y44362298D01*
X108849065Y44387122D01*
X108850000Y44387356D01*
X108893925Y44394726D01*
X108945151Y44398095D01*
X108997377Y44397749D01*
G37*
G36*
X102726583Y46432224D02*
G01*
X102995388Y46386981D01*
X103254934Y46318701D01*
X103505432Y46227340D01*
X103747096Y46112856D01*
X103917413Y46015053D01*
X104023008Y45945940D01*
X104133989Y45866568D01*
X104243691Y45782100D01*
X104345447Y45697698D01*
X104432591Y45618524D01*
X104444713Y45606705D01*
X104557220Y45487216D01*
X104654663Y45364478D01*
X104738034Y45235930D01*
X104808326Y45099015D01*
X104866531Y44951171D01*
X104913642Y44789842D01*
X104950652Y44612466D01*
X104978554Y44416485D01*
X104998339Y44199339D01*
X105000000Y44175000D01*
X105032116Y43849916D01*
X105085034Y43536716D01*
X105159604Y43232224D01*
X105256674Y42933261D01*
X105377094Y42636649D01*
X105456005Y42468434D01*
X105568354Y42257790D01*
X105687130Y42070586D01*
X105813318Y41905865D01*
X105947899Y41762669D01*
X106091857Y41640038D01*
X106246174Y41537014D01*
X106411832Y41452639D01*
X106553713Y41397744D01*
X106601970Y41382179D01*
X106643869Y41371092D01*
X106685981Y41363512D01*
X106734876Y41358472D01*
X106797123Y41355002D01*
X106858543Y41352781D01*
X107009907Y41351850D01*
X107150364Y41359948D01*
X107284491Y41378200D01*
X107416866Y41407732D01*
X107552065Y41449667D01*
X107694667Y41505133D01*
X107849249Y41575252D01*
X107934736Y41617302D01*
X108077243Y41694349D01*
X108230524Y41786954D01*
X108389333Y41891481D01*
X108548422Y42004296D01*
X108702544Y42121765D01*
X108846453Y42240253D01*
X108893991Y42281783D01*
X108939254Y42321608D01*
X108977571Y42354575D01*
X109005224Y42377538D01*
X109018496Y42387353D01*
X109018978Y42387500D01*
X109025091Y42379546D01*
X109013999Y42355326D01*
X108985425Y42314303D01*
X108972902Y42297997D01*
X108939994Y42259118D01*
X108892328Y42207170D01*
X108833663Y42145879D01*
X108767759Y42078971D01*
X108698374Y42010173D01*
X108629267Y41943211D01*
X108564199Y41881811D01*
X108506929Y41829700D01*
X108461215Y41790605D01*
X108460182Y41789769D01*
X108332451Y41693398D01*
X108192045Y41599365D01*
X108044596Y41510839D01*
X107895737Y41430989D01*
X107751102Y41362981D01*
X107616324Y41309984D01*
X107593096Y41302135D01*
X107394906Y41243667D01*
X107202861Y41201292D01*
X107009118Y41173774D01*
X106805834Y41159880D01*
X106675000Y41157567D01*
X106528390Y41159711D01*
X106397577Y41167193D01*
X106273719Y41181098D01*
X106147979Y41202511D01*
X106011516Y41232518D01*
X105958365Y41245557D01*
X105708569Y41319412D01*
X105463342Y41413901D01*
X105227895Y41526732D01*
X105007440Y41655611D01*
X104969820Y41680292D01*
X104788978Y41808646D01*
X104631226Y41937400D01*
X104494717Y42068760D01*
X104377605Y42204931D01*
X104278044Y42348117D01*
X104194189Y42500523D01*
X104124194Y42664354D01*
X104107705Y42710047D01*
X104087805Y42769817D01*
X104070922Y42827374D01*
X104056444Y42886359D01*
X104043761Y42950411D01*
X104032263Y43023170D01*
X104021339Y43108275D01*
X104010377Y43209365D01*
X103998769Y43330080D01*
X103992994Y43393750D01*
X103983483Y43496161D01*
X103973145Y43600728D01*
X103962581Y43701816D01*
X103952394Y43793795D01*
X103943185Y43871034D01*
X103936881Y43918750D01*
X103898407Y44135952D01*
X103844575Y44357897D01*
X103776938Y44580949D01*
X103697049Y44801473D01*
X103606459Y45015832D01*
X103506722Y45220392D01*
X103399388Y45411516D01*
X103286011Y45585568D01*
X103168143Y45738915D01*
X103151372Y45758524D01*
X103011424Y45902533D01*
X102861376Y46023971D01*
X102702060Y46122551D01*
X102534312Y46197985D01*
X102358963Y46249986D01*
X102176850Y46278268D01*
X101988804Y46282543D01*
X101795660Y46262525D01*
X101725371Y46249385D01*
X101525447Y46197350D01*
X101318351Y46123786D01*
X101106755Y46030143D01*
X100893334Y45917870D01*
X100680761Y45788419D01*
X100471708Y45643240D01*
X100268848Y45483783D01*
X100190194Y45416465D01*
X100116781Y45352946D01*
X100061261Y45306866D01*
X100023612Y45278229D01*
X100003811Y45267038D01*
X100001834Y45273298D01*
X100017658Y45297012D01*
X100051259Y45338186D01*
X100102614Y45396822D01*
X100129699Y45426908D01*
X100271550Y45576475D01*
X100416911Y45716435D01*
X100562351Y45843824D01*
X100704437Y45955680D01*
X100839734Y46049040D01*
X100877859Y46072621D01*
X101102355Y46195675D01*
X101325044Y46294005D01*
X101545790Y46367561D01*
X101764456Y46416294D01*
X101862500Y46430154D01*
X102160350Y46453767D01*
X102448308Y46454472D01*
X102726583Y46432224D01*
G37*
G36*
X108630916Y45016463D02*
G01*
X108674667Y45012066D01*
X108698852Y45003133D01*
X108706091Y44988952D01*
X108704017Y44979239D01*
X108693727Y44967307D01*
X108667346Y44940853D01*
X108627280Y44902171D01*
X108575935Y44853558D01*
X108515718Y44797307D01*
X108449034Y44735714D01*
X108439954Y44727377D01*
X108229268Y44530794D01*
X108037850Y44344846D01*
X107863715Y44167007D01*
X107704875Y43994752D01*
X107559343Y43825554D01*
X107425132Y43656889D01*
X107300257Y43486230D01*
X107182729Y43311052D01*
X107070563Y43128829D01*
X106961771Y42937036D01*
X106854367Y42733147D01*
X106824170Y42673341D01*
X106789455Y42605260D01*
X106757793Y42545547D01*
X106731075Y42497577D01*
X106711191Y42464723D01*
X106700029Y42450361D01*
X106699091Y42450000D01*
X106693649Y42451355D01*
X106691351Y42457179D01*
X106693074Y42470105D01*
X106699692Y42492768D01*
X106712082Y42527802D01*
X106731119Y42577843D01*
X106757680Y42645525D01*
X106792639Y42733481D01*
X106796733Y42743750D01*
X106868245Y42920034D01*
X106935516Y43078975D01*
X107001522Y43227165D01*
X107069240Y43371196D01*
X107141649Y43517658D01*
X107181678Y43596066D01*
X107261491Y43748384D01*
X107334738Y43882173D01*
X107404325Y44002040D01*
X107473157Y44112593D01*
X107544140Y44218439D01*
X107620181Y44324184D01*
X107704184Y44434437D01*
X107736050Y44475000D01*
X107786513Y44535839D01*
X107845789Y44602493D01*
X107910563Y44671686D01*
X107977519Y44740139D01*
X108043341Y44804576D01*
X108104714Y44861719D01*
X108158323Y44908290D01*
X108200852Y44941013D01*
X108218750Y44952151D01*
X108297038Y44983684D01*
X108394461Y45004705D01*
X108512637Y45015518D01*
X108564978Y45017037D01*
X108630916Y45016463D01*
G37*
G36*
X107893243Y45231137D02*
G01*
X107918076Y45221028D01*
X107922047Y45215285D01*
X107914509Y45203525D01*
X107890863Y45175999D01*
X107852811Y45134489D01*
X107802053Y45080777D01*
X107740291Y45016643D01*
X107669224Y44943867D01*
X107590555Y44864232D01*
X107505983Y44779518D01*
X107504244Y44777785D01*
X107344526Y44617496D01*
X107201854Y44471602D01*
X107074519Y44337970D01*
X106960812Y44214465D01*
X106859024Y44098952D01*
X106767446Y43989296D01*
X106684369Y43883362D01*
X106608085Y43779015D01*
X106536885Y43674122D01*
X106469060Y43566546D01*
X106402901Y43454153D01*
X106336700Y43334809D01*
X106311341Y43287500D01*
X106253047Y43177966D01*
X106205341Y43088665D01*
X106167157Y43017709D01*
X106137434Y42963208D01*
X106115108Y42923276D01*
X106099117Y42896025D01*
X106088396Y42879567D01*
X106081885Y42872014D01*
X106078518Y42871478D01*
X106077821Y42872786D01*
X106080230Y42892978D01*
X106093055Y42933158D01*
X106115240Y42991106D01*
X106145724Y43064597D01*
X106183451Y43151412D01*
X106227361Y43249326D01*
X106276397Y43356120D01*
X106329500Y43469569D01*
X106385612Y43587452D01*
X106443674Y43707548D01*
X106502629Y43827633D01*
X106561417Y43945486D01*
X106618981Y44058885D01*
X106674263Y44165608D01*
X106726204Y44263432D01*
X106773745Y44350136D01*
X106815829Y44423498D01*
X106818543Y44428076D01*
X106917577Y44584612D01*
X107020202Y44727693D01*
X107124763Y44855588D01*
X107229605Y44966569D01*
X107333074Y45058905D01*
X107433516Y45130868D01*
X107529276Y45180728D01*
X107544214Y45186600D01*
X107602234Y45204726D01*
X107666705Y45219057D01*
X107732835Y45229227D01*
X107795830Y45234873D01*
X107850897Y45235631D01*
X107893243Y45231137D01*
G37*
G36*
X97151122Y46610459D02*
G01*
X97418946Y46564107D01*
X97678149Y46494348D01*
X97928407Y46401326D01*
X98169397Y46285183D01*
X98400796Y46146063D01*
X98622282Y45984109D01*
X98833530Y45799465D01*
X98899314Y45735211D01*
X99028635Y45596101D01*
X99135210Y45460326D01*
X99220594Y45325350D01*
X99286343Y45188639D01*
X99334010Y45047656D01*
X99343331Y45011248D01*
X99352840Y44967902D01*
X99365664Y44903789D01*
X99381081Y44822815D01*
X99398370Y44728885D01*
X99416809Y44625906D01*
X99435677Y44517782D01*
X99450132Y44432961D01*
X99481432Y44249712D01*
X99510065Y44087860D01*
X99536756Y43944033D01*
X99562230Y43814861D01*
X99587209Y43696972D01*
X99612419Y43586994D01*
X99638585Y43481556D01*
X99666430Y43377285D01*
X99696678Y43270811D01*
X99708308Y43231250D01*
X99778383Y43019125D01*
X99862267Y42806927D01*
X99957382Y42600000D01*
X100061151Y42403688D01*
X100170996Y42223336D01*
X100247876Y42112500D01*
X100382565Y41945931D01*
X100524357Y41803052D01*
X100673118Y41683957D01*
X100828718Y41588737D01*
X100991023Y41517484D01*
X101159901Y41470291D01*
X101172974Y41467696D01*
X101236496Y41459069D01*
X101318249Y41453321D01*
X101411635Y41450434D01*
X101510054Y41450390D01*
X101606905Y41453174D01*
X101695589Y41458766D01*
X101769506Y41467151D01*
X101782737Y41469300D01*
X101907574Y41497445D01*
X102046626Y41540198D01*
X102195343Y41595643D01*
X102349176Y41661867D01*
X102503577Y41736956D01*
X102653997Y41818995D01*
X102747980Y41875453D01*
X102895635Y41973399D01*
X103055565Y42090067D01*
X103225597Y42223775D01*
X103403556Y42372843D01*
X103496825Y42454380D01*
X103521313Y42473890D01*
X103530240Y42475641D01*
X103524291Y42460874D01*
X103504153Y42430833D01*
X103470511Y42386759D01*
X103436037Y42344283D01*
X103246571Y42133298D01*
X103046271Y41944834D01*
X102835069Y41778847D01*
X102612895Y41635293D01*
X102379679Y41514130D01*
X102135353Y41415314D01*
X101879845Y41338801D01*
X101798961Y41319737D01*
X101537375Y41274494D01*
X101274717Y41254126D01*
X101011548Y41258563D01*
X100748429Y41287733D01*
X100485920Y41341565D01*
X100224583Y41419989D01*
X99964978Y41522933D01*
X99877976Y41563139D01*
X99693918Y41657010D01*
X99529001Y41754016D01*
X99377384Y41858188D01*
X99233224Y41973556D01*
X99090680Y42104151D01*
X99083097Y42111537D01*
X98975732Y42221291D01*
X98887325Y42322896D01*
X98814890Y42420182D01*
X98755441Y42516975D01*
X98732233Y42561182D01*
X98700434Y42627800D01*
X98672341Y42693836D01*
X98647174Y42762344D01*
X98624156Y42836376D01*
X98602509Y42918983D01*
X98581454Y43013219D01*
X98560214Y43122136D01*
X98538010Y43248785D01*
X98514065Y43396219D01*
X98505641Y43450000D01*
X98464622Y43700356D01*
X98422611Y43929036D01*
X98378815Y44139359D01*
X98332439Y44334647D01*
X98282686Y44518222D01*
X98228764Y44693405D01*
X98169876Y44863519D01*
X98162767Y44882861D01*
X98125468Y44977358D01*
X98079535Y45083615D01*
X98027569Y45196376D01*
X97972169Y45310383D01*
X97915933Y45420380D01*
X97861462Y45521110D01*
X97811354Y45607317D01*
X97780621Y45655676D01*
X97646764Y45839299D01*
X97506855Y45998804D01*
X97360942Y46134153D01*
X97209071Y46245307D01*
X97051290Y46332230D01*
X96887645Y46394882D01*
X96850000Y46405636D01*
X96785405Y46418297D01*
X96702209Y46427633D01*
X96606602Y46433513D01*
X96504779Y46435805D01*
X96402933Y46434378D01*
X96307255Y46429099D01*
X96223939Y46419837D01*
X96218944Y46419069D01*
X96020075Y46376780D01*
X95814520Y46311598D01*
X95603667Y46224290D01*
X95388908Y46115623D01*
X95171631Y45986364D01*
X94953226Y45837280D01*
X94735084Y45669138D01*
X94518595Y45482704D01*
X94513556Y45478125D01*
X94468903Y45438440D01*
X94430243Y45405836D01*
X94401614Y45383597D01*
X94387056Y45375012D01*
X94386829Y45375000D01*
X94382244Y45383210D01*
X94393841Y45406414D01*
X94419600Y45442467D01*
X94457500Y45489226D01*
X94505522Y45544547D01*
X94561645Y45606287D01*
X94623849Y45672301D01*
X94690113Y45740447D01*
X94758416Y45808581D01*
X94826739Y45874559D01*
X94893062Y45936238D01*
X94955362Y45991475D01*
X95011621Y46038124D01*
X95012500Y46038819D01*
X95214626Y46183041D01*
X95431960Y46308840D01*
X95661969Y46415406D01*
X95902121Y46501933D01*
X96149885Y46567611D01*
X96402727Y46611633D01*
X96658116Y46633190D01*
X96875000Y46633260D01*
X97151122Y46610459D01*
G37*
G36*
X103174512Y44511553D02*
G01*
X103166040Y44479532D01*
X103146074Y44425868D01*
X103132980Y44393750D01*
X103093160Y44301296D01*
X103043563Y44191484D01*
X102986427Y44068881D01*
X102923989Y43938053D01*
X102858486Y43803565D01*
X102792156Y43669986D01*
X102727235Y43541880D01*
X102665962Y43423815D01*
X102610573Y43320356D01*
X102580451Y43266048D01*
X102476550Y43087815D01*
X102372817Y42921154D01*
X102270855Y42768355D01*
X102172264Y42631709D01*
X102078644Y42513510D01*
X101991596Y42416047D01*
X101974364Y42398492D01*
X101881650Y42318709D01*
X101779911Y42254033D01*
X101674880Y42207662D01*
X101593878Y42186171D01*
X101548017Y42180435D01*
X101493725Y42177438D01*
X101437356Y42177046D01*
X101385263Y42179121D01*
X101343802Y42183529D01*
X101319326Y42190134D01*
X101316619Y42192098D01*
X101322067Y42203531D01*
X101343389Y42228999D01*
X101377957Y42265721D01*
X101423146Y42310917D01*
X101476329Y42361806D01*
X101481250Y42366413D01*
X101575823Y42455825D01*
X101675229Y42551651D01*
X101776811Y42651195D01*
X101877911Y42751762D01*
X101975874Y42850655D01*
X102068044Y42945178D01*
X102151763Y43032635D01*
X102224376Y43110331D01*
X102283226Y43175568D01*
X102314910Y43212500D01*
X102411501Y43331530D01*
X102501621Y43448885D01*
X102587797Y43568359D01*
X102672557Y43693752D01*
X102758429Y43828860D01*
X102847938Y43977479D01*
X102943614Y44143408D01*
X102992991Y44231250D01*
X103034863Y44305723D01*
X103073564Y44373529D01*
X103107177Y44431391D01*
X103133784Y44476034D01*
X103151471Y44504179D01*
X103157254Y44512053D01*
X103171559Y44522279D01*
X103174512Y44511553D01*
G37*
G36*
X102562088Y44925449D02*
G01*
X102562073Y44921875D01*
X102557037Y44907372D01*
X102542849Y44872588D01*
X102520599Y44820049D01*
X102491378Y44752280D01*
X102456278Y44671804D01*
X102416389Y44581147D01*
X102372802Y44482833D01*
X102358177Y44450000D01*
X102264376Y44241547D01*
X102178228Y44054354D01*
X102098560Y43886291D01*
X102024195Y43735226D01*
X101953961Y43599031D01*
X101886682Y43475575D01*
X101821184Y43362729D01*
X101756292Y43258361D01*
X101690833Y43160342D01*
X101623631Y43066541D01*
X101553513Y42974830D01*
X101525284Y42939369D01*
X101473051Y42877784D01*
X101410740Y42809676D01*
X101342074Y42738631D01*
X101270779Y42668236D01*
X101200580Y42602079D01*
X101135202Y42543746D01*
X101078369Y42496825D01*
X101033806Y42464902D01*
X101030413Y42462820D01*
X100967671Y42431301D01*
X100897462Y42406335D01*
X100824071Y42388309D01*
X100751784Y42377610D01*
X100684889Y42374625D01*
X100627671Y42379742D01*
X100584418Y42393348D01*
X100559414Y42415830D01*
X100557459Y42420104D01*
X100556939Y42431863D01*
X100564289Y42448068D01*
X100581214Y42470491D01*
X100609420Y42500904D01*
X100650612Y42541082D01*
X100706496Y42592796D01*
X100778778Y42657820D01*
X100829591Y42702953D01*
X101100320Y42952351D01*
X101348513Y43201528D01*
X101576478Y43453025D01*
X101786527Y43709381D01*
X101968294Y43955057D01*
X102029801Y44045984D01*
X102099394Y44154989D01*
X102174379Y44277591D01*
X102252064Y44409310D01*
X102329756Y44545666D01*
X102399476Y44672380D01*
X102448545Y44762560D01*
X102487270Y44832075D01*
X102516690Y44882519D01*
X102537843Y44915485D01*
X102551769Y44932566D01*
X102559504Y44935356D01*
X102562088Y44925449D01*
G37*
G36*
X101625277Y44842330D02*
G01*
X101619745Y44819201D01*
X101605520Y44779661D01*
X101583162Y44725821D01*
X101575755Y44708998D01*
X101549091Y44647656D01*
X101521631Y44582138D01*
X101498312Y44524271D01*
X101493297Y44511314D01*
X101470867Y44457513D01*
X101438460Y44386399D01*
X101398358Y44302450D01*
X101352842Y44210142D01*
X101304192Y44113951D01*
X101254690Y44018355D01*
X101206617Y43927830D01*
X101162255Y43846853D01*
X101123884Y43779900D01*
X101103655Y43746685D01*
X101013269Y43609230D01*
X100922660Y43482462D01*
X100833785Y43368739D01*
X100748600Y43270419D01*
X100669060Y43189863D01*
X100597123Y43129429D01*
X100584193Y43120221D01*
X100522693Y43084183D01*
X100453514Y43053924D01*
X100381944Y43030732D01*
X100313272Y43015896D01*
X100252787Y43010705D01*
X100205777Y43016446D01*
X100188853Y43023898D01*
X100182834Y43030367D01*
X100182344Y43040291D01*
X100188747Y43055270D01*
X100203403Y43076905D01*
X100227674Y43106794D01*
X100262924Y43146540D01*
X100310513Y43197741D01*
X100371804Y43261999D01*
X100448159Y43340912D01*
X100531124Y43426035D01*
X100677218Y43577110D01*
X100806623Y43714428D01*
X100921473Y43840682D01*
X101023904Y43958566D01*
X101116050Y44070776D01*
X101200046Y44180005D01*
X101278026Y44288947D01*
X101352126Y44400296D01*
X101424480Y44516747D01*
X101497223Y44640994D01*
X101505906Y44656250D01*
X101538483Y44713268D01*
X101567937Y44764141D01*
X101591440Y44804029D01*
X101606163Y44828095D01*
X101608026Y44830906D01*
X101621557Y44846936D01*
X101625277Y44842330D01*
G37*
G36*
X97622315Y45287127D02*
G01*
X97638707Y45281343D01*
X97643833Y45269611D01*
X97636879Y45250436D01*
X97617035Y45222320D01*
X97583487Y45183768D01*
X97535425Y45133283D01*
X97472036Y45069368D01*
X97392507Y44990527D01*
X97310766Y44909822D01*
X97172555Y44772222D01*
X97050704Y44648147D01*
X96942832Y44534569D01*
X96846561Y44428465D01*
X96759511Y44326808D01*
X96679304Y44226574D01*
X96603560Y44124736D01*
X96529899Y44018269D01*
X96455944Y43904148D01*
X96379314Y43779347D01*
X96297631Y43640841D01*
X96255629Y43568078D01*
X96204147Y43478854D01*
X96163489Y43409540D01*
X96132392Y43358164D01*
X96109591Y43322753D01*
X96093823Y43301335D01*
X96083823Y43291935D01*
X96078781Y43292051D01*
X96079435Y43307849D01*
X96091126Y43343339D01*
X96112761Y43396351D01*
X96143249Y43464718D01*
X96181494Y43546271D01*
X96226405Y43638841D01*
X96276888Y43740261D01*
X96331850Y43848361D01*
X96390198Y43960974D01*
X96450839Y44075931D01*
X96512680Y44191063D01*
X96574627Y44304203D01*
X96635588Y44413182D01*
X96694469Y44515831D01*
X96703465Y44531250D01*
X96785819Y44669133D01*
X96859915Y44786519D01*
X96927604Y44885776D01*
X96990734Y44969272D01*
X97051154Y45039375D01*
X97110715Y45098454D01*
X97171266Y45148877D01*
X97204705Y45173119D01*
X97274594Y45218279D01*
X97335538Y45248993D01*
X97396349Y45268415D01*
X97465835Y45279701D01*
X97513656Y45283767D01*
X97558977Y45286843D01*
X97595467Y45288462D01*
X97622315Y45287127D01*
G37*
G36*
X93373180Y45403742D02*
G01*
X93387291Y45388130D01*
X93399901Y45369788D01*
X93411754Y45346124D01*
X93423595Y45314547D01*
X93436169Y45272468D01*
X93450221Y45217294D01*
X93466496Y45146435D01*
X93485737Y45057300D01*
X93508691Y44947298D01*
X93519567Y44894498D01*
X93559588Y44702358D01*
X93596143Y44532576D01*
X93629775Y44382834D01*
X93661029Y44250812D01*
X93690448Y44134193D01*
X93718578Y44030659D01*
X93738177Y43963451D01*
X93820430Y43717482D01*
X93914446Y43486293D01*
X94019394Y43271045D01*
X94134440Y43072904D01*
X94258754Y42893032D01*
X94391503Y42732593D01*
X94531855Y42592751D01*
X94678978Y42474668D01*
X94832039Y42379510D01*
X94892778Y42349042D01*
X95007325Y42300538D01*
X95118219Y42265256D01*
X95231078Y42242308D01*
X95351519Y42230805D01*
X95485159Y42229858D01*
X95606250Y42236169D01*
X95755180Y42252695D01*
X95902341Y42281228D01*
X96052771Y42323153D01*
X96211508Y42379856D01*
X96367421Y42445464D01*
X96548098Y42534871D01*
X96739109Y42646379D01*
X96940581Y42780075D01*
X97152640Y42936045D01*
X97375412Y43114375D01*
X97503201Y43222582D01*
X97524323Y43238319D01*
X97530002Y43236255D01*
X97520923Y43217694D01*
X97497770Y43183936D01*
X97461227Y43136286D01*
X97451367Y43123952D01*
X97281980Y42932557D01*
X97093650Y42754749D01*
X96889611Y42592985D01*
X96673095Y42449719D01*
X96447334Y42327407D01*
X96335296Y42276287D01*
X96086263Y42181480D01*
X95837322Y42110876D01*
X95586979Y42064340D01*
X95333737Y42041735D01*
X95076102Y42042925D01*
X94812578Y42067774D01*
X94552211Y42113859D01*
X94354985Y42165669D01*
X94151455Y42236516D01*
X93946088Y42323989D01*
X93743348Y42425678D01*
X93547703Y42539174D01*
X93363617Y42662067D01*
X93195556Y42791945D01*
X93049598Y42924789D01*
X92936735Y43049031D01*
X92840448Y43181048D01*
X92758064Y43325311D01*
X92686912Y43486289D01*
X92646086Y43600000D01*
X92577371Y43833644D01*
X92530233Y44056367D01*
X92504573Y44269707D01*
X92500295Y44475203D01*
X92517301Y44674393D01*
X92555494Y44868814D01*
X92563632Y44899833D01*
X92610580Y45034909D01*
X92673926Y45153028D01*
X92721172Y45217961D01*
X92790340Y45293397D01*
X92862686Y45350380D01*
X92942810Y45391036D01*
X93035312Y45417488D01*
X93144789Y45431862D01*
X93189900Y45434518D01*
X93336051Y45440872D01*
X93373180Y45403742D01*
G37*
G36*
X97172767Y45896960D02*
G01*
X97207993Y45889418D01*
X97223761Y45876067D01*
X97225000Y45869467D01*
X97216255Y45856198D01*
X97191736Y45828588D01*
X97154011Y45789281D01*
X97105653Y45740919D01*
X97049230Y45686146D01*
X97015625Y45654181D01*
X96895531Y45539746D01*
X96775521Y45423460D01*
X96657910Y45307679D01*
X96545015Y45194757D01*
X96439150Y45087048D01*
X96342631Y44986908D01*
X96257773Y44896690D01*
X96186893Y44818750D01*
X96135042Y44758740D01*
X96043607Y44643491D01*
X95944669Y44509057D01*
X95840676Y44359188D01*
X95734078Y44197633D01*
X95627322Y44028142D01*
X95522856Y43854465D01*
X95423129Y43680350D01*
X95380841Y43603575D01*
X95332645Y43515919D01*
X95295426Y43450601D01*
X95269023Y43407576D01*
X95253279Y43386799D01*
X95248032Y43388226D01*
X95253124Y43411812D01*
X95268395Y43457511D01*
X95293686Y43525279D01*
X95317203Y43585666D01*
X95381237Y43742769D01*
X95453089Y43909521D01*
X95530577Y44081392D01*
X95611519Y44253851D01*
X95693732Y44422370D01*
X95775036Y44582418D01*
X95853248Y44729465D01*
X95926185Y44858981D01*
X95949608Y44898573D01*
X96111603Y45150135D01*
X96282068Y45379075D01*
X96461928Y45586609D01*
X96524549Y45651665D01*
X96610141Y45732447D01*
X96689852Y45793708D01*
X96769305Y45838121D01*
X96854124Y45868361D01*
X96949930Y45887103D01*
X97037258Y45895550D01*
X97116413Y45898927D01*
X97172767Y45896960D01*
G37*
G36*
X96394316Y46118633D02*
G01*
X96433459Y46109426D01*
X96449596Y46092742D01*
X96450000Y46088864D01*
X96441242Y46076993D01*
X96416919Y46051210D01*
X96379955Y46014430D01*
X96333274Y45969568D01*
X96284375Y45923770D01*
X96063281Y45714426D01*
X95862018Y45513602D01*
X95678229Y45318303D01*
X95509553Y45125534D01*
X95353634Y44932300D01*
X95208111Y44735606D01*
X95070626Y44532456D01*
X94938822Y44319857D01*
X94810338Y44094812D01*
X94737525Y43959517D01*
X94691189Y43872743D01*
X94655367Y43808042D01*
X94630064Y43765475D01*
X94615290Y43745106D01*
X94611053Y43746997D01*
X94617359Y43771213D01*
X94634218Y43817815D01*
X94661636Y43886867D01*
X94699622Y43978432D01*
X94748185Y44092572D01*
X94756750Y44112500D01*
X94865534Y44360714D01*
X94968778Y44586492D01*
X95067475Y44791525D01*
X95162617Y44977509D01*
X95255194Y45146137D01*
X95346200Y45299103D01*
X95436626Y45438101D01*
X95527465Y45564826D01*
X95619707Y45680970D01*
X95714345Y45788229D01*
X95774927Y45851280D01*
X95853785Y45928281D01*
X95921764Y45988032D01*
X95983343Y46033011D01*
X96043000Y46065698D01*
X96105212Y46088569D01*
X96174458Y46104105D01*
X96250000Y46114238D01*
X96332914Y46120268D01*
X96394316Y46118633D01*
G37*
%TO.C,MCU1*%
X154650000Y97955500D02*
X154650000Y95415500D01*
X154650000Y97955500D02*
X152110000Y97955500D01*
X154650000Y95415500D02*
X152110000Y95415500D01*
X152110000Y95415500D02*
X152110000Y97955500D01*
%TO.C,T1*%
X170350000Y57765500D02*
X170350000Y61665500D01*
X170350000Y59715500D02*
X170350000Y63015500D01*
X170350000Y63015500D02*
X167500000Y63015500D01*
X167500000Y63015500D02*
X167500000Y56415500D01*
X167500000Y56415500D02*
X170350000Y56415500D01*
X170350000Y59715500D02*
X170350000Y56415500D01*
%TO.C,B1*%
X166750000Y48715500D02*
X166750000Y42715500D01*
X166750000Y42715500D02*
X167000000Y42715500D01*
X166750000Y48715500D02*
X167000000Y48715500D01*
X170250000Y48715500D02*
X170000000Y48715500D01*
X170250000Y48715500D02*
X170250000Y42715500D01*
X170250000Y42715500D02*
X170000000Y42715500D01*
%TD*%
D13*
%TO.C,PAD1*%
X159000000Y52215500D03*
X161000000Y52215500D03*
X163000000Y52215500D03*
%TD*%
D14*
%TO.C,B1*%
X168500000Y48965500D03*
X168500000Y42465500D03*
%TD*%
M02*
