%TF.GenerationSoftware,KiCad,Pcbnew,(6.0.7-1)-1*%
%TF.CreationDate,2022-10-05T14:36:59+03:00*%
%TF.ProjectId,board,626f6172-642e-46b6-9963-61645f706362,v1.0.0*%
%TF.SameCoordinates,Original*%
%TF.FileFunction,Profile,NP*%
%FSLAX46Y46*%
G04 Gerber Fmt 4.6, Leading zero omitted, Abs format (unit mm)*
G04 Created by KiCad (PCBNEW (6.0.7-1)-1) date 2022-10-05 14:36:59*
%MOMM*%
%LPD*%
G01*
G04 APERTURE LIST*
%TA.AperFunction,Profile*%
%ADD10C,0.150000*%
%TD*%
G04 APERTURE END LIST*
D10*
X58900000Y40400000D02*
X76362107Y40400000D01*
X57900000Y41400000D02*
X57900000Y92600000D01*
X58900000Y93600000D02*
X74900000Y93600000D01*
X76900000Y106173000D02*
X93100000Y106173000D01*
X75900000Y94600000D02*
X75900000Y105173000D01*
X95100000Y110935500D02*
X113300000Y110935500D01*
X114300000Y109935500D02*
X114300000Y107173000D01*
X94100000Y107173000D02*
X94100000Y109935500D01*
X115300000Y106173000D02*
X131100000Y106173000D01*
X132100000Y105173000D02*
X132100000Y104315500D01*
X151100000Y101365500D02*
X151100000Y102315500D01*
X133100000Y103315500D02*
X150100000Y103315500D01*
X178789978Y12441778D02*
G75*
G03*
X181522028Y13173828I1000000J1732050D01*
G01*
X181522029Y13173828D02*
X189022029Y26164210D01*
X189022029Y26164210D02*
G75*
G03*
X188374085Y28844898I-1732051J1000000D01*
G01*
X151100000Y102315500D02*
G75*
G03*
X150100000Y103315500I-1000000J0D01*
G01*
X132100000Y104315500D02*
G75*
G03*
X133100000Y103315500I1000000J0D01*
G01*
X132100000Y105173000D02*
G75*
G03*
X131100000Y106173000I-1000000J0D01*
G01*
X114300000Y107173000D02*
G75*
G03*
X115300000Y106173000I1000000J0D01*
G01*
X114300000Y109935500D02*
G75*
G03*
X113300000Y110935500I-1000000J0D01*
G01*
X95100000Y110935500D02*
G75*
G03*
X94100000Y109935500I0J-1000000D01*
G01*
X93100000Y106173000D02*
G75*
G03*
X94100000Y107173000I0J1000000D01*
G01*
X76900000Y106173000D02*
G75*
G03*
X75900000Y105173000I0J-1000000D01*
G01*
X74900000Y93600000D02*
G75*
G03*
X75900000Y94600000I0J1000000D01*
G01*
X58900000Y93600000D02*
G75*
G03*
X57900000Y92600000I0J-1000000D01*
G01*
X57900000Y41400000D02*
G75*
G03*
X58900000Y40400000I1000000J0D01*
G01*
X171288969Y46087542D02*
X188205108Y28982080D01*
X178789978Y12441778D02*
X127662129Y29450048D01*
X127555520Y29479080D02*
X76571152Y40377906D01*
X171000000Y46790703D02*
X171000000Y99365500D01*
X171000000Y99365500D02*
G75*
G03*
X169000000Y101365500I-2000000J0D01*
G01*
X169000000Y101365500D02*
X151100000Y101365500D01*
X76571152Y40377906D02*
G75*
G03*
X76362107Y40400000I-209045J-977906D01*
G01*
X127662129Y29450048D02*
G75*
G03*
X127555520Y29479080I-315654J-948874D01*
G01*
X188205108Y28982080D02*
G75*
G03*
X188374085Y28844897I711030J703161D01*
G01*
X171000000Y46790703D02*
G75*
G03*
X171288969Y46087542I1000000J0D01*
G01*
M02*
