%TF.GenerationSoftware,KiCad,Pcbnew,(6.0.7-1)-1*%
%TF.CreationDate,2022-10-05T14:36:59+03:00*%
%TF.ProjectId,board,626f6172-642e-46b6-9963-61645f706362,v1.0.0*%
%TF.SameCoordinates,Original*%
%TF.FileFunction,Paste,Bot*%
%TF.FilePolarity,Positive*%
%FSLAX46Y46*%
G04 Gerber Fmt 4.6, Leading zero omitted, Abs format (unit mm)*
G04 Created by KiCad (PCBNEW (6.0.7-1)-1) date 2022-10-05 14:36:59*
%MOMM*%
%LPD*%
G01*
G04 APERTURE LIST*
G04 Aperture macros list*
%AMRotRect*
0 Rectangle, with rotation*
0 The origin of the aperture is its center*
0 $1 length*
0 $2 width*
0 $3 Rotation angle, in degrees counterclockwise*
0 Add horizontal line*
21,1,$1,$2,0,0,$3*%
G04 Aperture macros list end*
%ADD10R,2.600000X2.600000*%
%ADD11RotRect,2.600000X2.600000X350.000000*%
%ADD12RotRect,2.600000X2.600000X340.000000*%
%ADD13RotRect,2.600000X2.600000X330.000000*%
%ADD14R,1.250000X0.900000*%
%ADD15R,0.900000X0.900000*%
G04 APERTURE END LIST*
D10*
%TO.C,S1*%
X64725000Y55950000D03*
X76275000Y53750000D03*
%TD*%
%TO.C,S3*%
X64725000Y72950000D03*
X76275000Y70750000D03*
%TD*%
%TO.C,S5*%
X64725000Y89950000D03*
X76275000Y87750000D03*
%TD*%
%TO.C,S7*%
X82725000Y68523000D03*
X94275000Y66323000D03*
%TD*%
%TO.C,S9*%
X82725000Y85523000D03*
X94275000Y83323000D03*
%TD*%
%TO.C,S11*%
X82725000Y102523000D03*
X94275000Y100323000D03*
%TD*%
%TO.C,S13*%
X100925000Y73285500D03*
X112475000Y71085500D03*
%TD*%
%TO.C,S15*%
X100925000Y90285500D03*
X112475000Y88085500D03*
%TD*%
%TO.C,S17*%
X100925000Y107285500D03*
X112475000Y105085500D03*
%TD*%
%TO.C,S19*%
X118725000Y68523000D03*
X130275000Y66323000D03*
%TD*%
%TO.C,S21*%
X118725000Y85523000D03*
X130275000Y83323000D03*
%TD*%
%TO.C,S23*%
X118725000Y102523000D03*
X130275000Y100323000D03*
%TD*%
%TO.C,S25*%
X137725000Y65665500D03*
X149275000Y63465500D03*
%TD*%
%TO.C,S27*%
X137725000Y82665500D03*
X149275000Y80465500D03*
%TD*%
%TO.C,S29*%
X137725000Y99665500D03*
X149275000Y97465500D03*
%TD*%
D11*
%TO.C,S31*%
X138073780Y44326169D03*
X149066284Y40153955D03*
%TD*%
D12*
%TO.C,S33*%
X157975011Y39584659D03*
X168076016Y33567003D03*
%TD*%
D13*
%TO.C,S35*%
X176750542Y31459370D03*
X185653135Y23779114D03*
%TD*%
D14*
%TO.C,T2*%
X166925000Y61965500D03*
X166925000Y58965500D03*
X166925000Y57465500D03*
D15*
X170100000Y56015500D03*
X167900000Y56015500D03*
X167900000Y63415500D03*
X170100000Y63415500D03*
%TD*%
M02*
